<?xml version="1.0" encoding="utf-8"?>
<!-- Generator: Adobe Illustrator 16.2.0, SVG Export Plug-In . SVG Version: 6.00 Build 0)  -->
<!DOCTYPE svg PUBLIC "-//W3C//DTD SVG 1.1//EN" "http://www.w3.org/Graphics/SVG/1.1/DTD/svg11.dtd">
<svg version="1.1" id="Слой_2" xmlns="http://www.w3.org/2000/svg" xmlns:xlink="http://www.w3.org/1999/xlink" x="0px" y="0px"
	 width="10px" height="10px" viewBox="0 0 10 10" enable-background="new 0 0 10 10" xml:space="preserve">
<path fill="#71B1E4" d="M5,0C2.2382813,0,0,2.2382813,0,5s2.2382813,5,5,5s5-2.2382813,5-5S7.7617188,0,5,0z M5,9
	C2.7939453,9,1,7.2050781,1,5s1.7939453-4,4-4c2.2050781,0,4,1.7949219,4,4S7.2050781,9,5,9z"/>
<path fill="#E3EFFA" d="M5,1c2.2050781,0,4,1.7949219,4,4S7.2050781,9,5,9C2.7939453,9,1,7.2050781,1,5S2.7939453,1,5,1"/>
<polygon fill="#39B54A" points="2,4 4,4 4,2 6,2 6,4 8,4 8,6 6,6 6,8 4,8 4,6 2,6 "/>
</svg>
