<?xml version="1.0" encoding="utf-8"?>
<!-- Generator: Adobe Illustrator 16.2.0, SVG Export Plug-In . SVG Version: 6.00 Build 0)  -->
<!DOCTYPE svg PUBLIC "-//W3C//DTD SVG 1.1//EN" "http://www.w3.org/Graphics/SVG/1.1/DTD/svg11.dtd">
<svg version="1.1" id="Слой_2" xmlns="http://www.w3.org/2000/svg" xmlns:xlink="http://www.w3.org/1999/xlink" x="0px" y="0px"
	 width="10px" height="16px" viewBox="0 0 10 16" enable-background="new 0 0 10 16" xml:space="preserve">
<g>
	<rect x="2" y="2" fill="#CCF4D1" width="6" height="12"/>
</g>
<path fill="#39B54A" d="M8,2H7v1l0,0v1h1V2L8,2z M6,2H5v1h1V2L6,2z M4,2H2v1h1l0,0h1V2L4,2z M3,4H2v1h1V4L3,4z M3,6H2v1h1V6L3,6z
	 M3,8H2v1h1V8L3,8z M3,10H2v1h1V10L3,10z M3,12H2v1l0,0v1h1v-1l0,0V12L3,12z M5,13H4v1h1V13L5,13z M7,13H6v1h1V13L7,13z M8,13H7v1h1
	V13L8,13z M8,11H7v1h1V11L8,11z M8,9H7v1h1V9L8,9z M8,7H7v1h1V7L8,7z M8,5H7v1h1V5L8,5z"/>
</svg>
