<?xml version="1.0" encoding="utf-8"?>
<!-- Generator: Adobe Illustrator 16.2.0, SVG Export Plug-In . SVG Version: 6.00 Build 0)  -->
<!DOCTYPE svg PUBLIC "-//W3C//DTD SVG 1.1//EN" "http://www.w3.org/Graphics/SVG/1.1/DTD/svg11.dtd">
<svg version="1.1" id="Слой_2" xmlns="http://www.w3.org/2000/svg" xmlns:xlink="http://www.w3.org/1999/xlink" x="0px" y="0px"
	 width="10px" height="16px" viewBox="0 0 10 16" enable-background="new 0 0 10 16" xml:space="preserve">
<g>
	<polygon fill="#E3EFFA" points="0,6.4003906 8,0 8,16 0,9.5996094 	"/>
</g>
<path fill="#71B1E4" d="M8,0L8,0L8,0L8,0L7.9990234,0.0009766l0,0l0,0l0,0l0,0l0,0L7.9980469,0.0019531l0,0l0,0H7.9970703
	L7.9960938,0.0029297l0,0l0,0l0,0v0.0009766H7.9951172l0,0C7.9931641,0.0058594,7.9912109,0.0068359,7.9882813,0.0097656H7.9873047
	L7.9863281,0.0107422l0,0c0,0-0.0009766,0.0009766-0.0019531,0.0019531l0,0C7.8740234,0.1005859,7.21875,0.625,7.21875,0.625
	l0.0527344,0.0644531H7.1376953L7,0.7998047v0.8896484h1V0L8,0z M6.4384766,1.2490234c0,0-0.1855469,0.1494141-0.3759766,0.3017578
	L5.6572266,1.8740234l0.625,0.78125l0.78125-0.625L6.4384766,1.2490234L6.4384766,1.2490234z M4.8769531,2.4990234
	l-0.78125,0.6240234l0.625,0.78125l0.7802734-0.625L4.8769531,2.4990234L4.8769531,2.4990234z M3.3144531,3.7480469
	l-0.7802734,0.625l0.6240234,0.78125l0.78125-0.625L3.3144531,3.7480469L3.3144531,3.7480469z M1.7529297,4.9980469
	c0,0-0.3046875,0.2431641-0.5332031,0.4267578H1.21875C1.2167969,5.4277344,1.2128906,5.4296875,1.2109375,5.4316406l0,0
	C1.2089844,5.4326172,1.2080078,5.4335938,1.2070313,5.4345703l-0.234375,0.1875l0.625,0.78125l0.7802734-0.625L1.7529297,4.9980469
	L1.7529297,4.9980469z M0.1914063,6.2470703L0.0673828,6.3466797l0,0L0.0625,6.3496094l0,0L0.0566406,6.3544922v0.0009766H0.0556641
	L0.0546875,6.3564453v0.0009766H0.0537109L0.0507813,6.359375l0,0L0.046875,6.3623047v0.0009766L0.0429688,6.3662109l0,0
	L0.0419922,6.3671875H0.0410156L0.0400391,6.3681641C0.0390625,6.3691406,0.0380859,6.3701172,0.0371094,6.3710938l0,0
	L0.0351563,6.3720703l0,0C0.0341797,6.3730469,0.0341797,6.3730469,0.0332031,6.3730469v0.0009766L0.03125,6.375l0,0v0.0009766l0,0
	H0.0302734L0.0292969,6.3769531l0,0l0,0L0.0283203,6.3779297l0,0L0.0263672,6.3789063l0,0
	C0.0253906,6.3798828,0.0244141,6.3808594,0.0244141,6.3808594L0.0234375,6.3818359
	C0.0214844,6.3828125,0.0195313,6.3847656,0.0175781,6.3857422v0.0009766
	C0.0136719,6.3886719,0.0117188,6.3916016,0.0078125,6.3935547l0,0C0.0029297,6.3984375,0,6.4003906,0,6.4003906l0,0l0,0v0.7548828
	h0.6035156L0.625,7.1816406l0.0322266-0.0263672H1V6.4003906H0.3144531L0.1914063,6.2470703L0.1914063,6.2470703z M1,8.1552734H0v1
	h1V8.1552734L1,8.1552734z M1.0585938,9.1660156l-0.625,0.7802734l0.78125,0.625l0.6240234-0.7802734L1.0585938,9.1660156
	L1.0585938,9.1660156z M2.6201172,10.4150391l-0.6240234,0.78125l0.7802734,0.6240234l0.625-0.7802734L2.6201172,10.4150391
	L2.6201172,10.4150391z M4.1816406,11.6650391l-0.625,0.7802734l0.78125,0.625l0.625-0.78125L4.1816406,11.6650391
	L4.1816406,11.6650391z M5.7431641,12.9140625l-0.6240234,0.78125c0,0,0.3652344,0.2919922,0.5957031,0.4765625l0.0019531,0.0009766
	c0.0087891,0.0078125,0.0185547,0.015625,0.0283203,0.0234375l0.0087891,0.0068359l0.0009766,0.0009766l0.0019531,0.0019531
	h0.0009766l0.0029297,0.0029297c0.0009766,0,0,0,0,0l0.0009766,0.0009766l0.0019531,0.0009766h0.0009766
	c0,0.0009766,0,0.0009766,0.0009766,0.0009766L5.7734375,14.21875l0,0l0.1259766,0.1005859l0.625-0.7802734L5.7431641,12.9140625
	L5.7431641,12.9140625z M7.3056641,14.1640625l-0.625,0.7802734l0.9306641,0.7451172H8v-1H7.9628906L7.3056641,14.1640625
	L7.3056641,14.1640625z M8,12.6894531H7v1h1V12.6894531L8,12.6894531z M8,10.6894531H7v1h1V10.6894531L8,10.6894531z M8,8.6894531H7
	v1h1V8.6894531L8,8.6894531z M8,6.6894531H7v1h1V6.6894531L8,6.6894531z M8,4.6894531H7v1h1V4.6894531L8,4.6894531z M8,2.6894531H7
	v1h1V2.6894531L8,2.6894531z"/>
</svg>
