<?xml version="1.0" encoding="utf-8"?>
<!-- Generator: Adobe Illustrator 16.2.0, SVG Export Plug-In . SVG Version: 6.00 Build 0)  -->
<!DOCTYPE svg PUBLIC "-//W3C//DTD SVG 1.1//EN" "http://www.w3.org/Graphics/SVG/1.1/DTD/svg11.dtd">
<svg version="1.1" id="Слой_2" xmlns="http://www.w3.org/2000/svg" xmlns:xlink="http://www.w3.org/1999/xlink" x="0px" y="0px"
	 width="10px" height="16px" viewBox="0 0 10 16" enable-background="new 0 0 10 16" xml:space="preserve">
<g>
	<rect fill="#E3EFFA" width="8" height="16"/>
</g>
<path fill="#71B1E4" d="M8,0H7v1l0,0v1h1V0L8,0z M6,0H5v1h1V0L6,0z M4,0H3v1h1V0L4,0z M2,0H0v1h1l0,0h1V0L2,0z M1,2H0v1h1V2L1,2z
	 M1,4H0v1h1V4L1,4z M1,6H0v1h1V6L1,6z M1,8H0v1h1V8L1,8z M1,10H0v1h1V10L1,10z M1,12H0v1h1V12L1,12z M1,14H0v1l0,0v1h1v-1l0,0V14
	L1,14z M3,15H2v1h1V15L3,15z M5,15H4v1h1V15L5,15z M7,15H6v1h1V15L7,15z M8,15H7v1h1V15L8,15z M8,13H7v1h1V13L8,13z M8,11H7v1h1V11
	L8,11z M8,9H7v1h1V9L8,9z M8,7H7v1h1V7L8,7z M8,5H7v1h1V5L8,5z M8,3H7v1h1V3L8,3z"/>
</svg>
