<?xml version="1.0" encoding="utf-8"?>
<!-- Generator: Adobe Illustrator 16.2.0, SVG Export Plug-In . SVG Version: 6.00 Build 0)  -->
<!DOCTYPE svg PUBLIC "-//W3C//DTD SVG 1.1//EN" "http://www.w3.org/Graphics/SVG/1.1/DTD/svg11.dtd">
<svg version="1.1" id="Слой_2" xmlns="http://www.w3.org/2000/svg" xmlns:xlink="http://www.w3.org/1999/xlink" x="0px" y="0px"
	 width="10px" height="16px" viewBox="0 0 10 16" enable-background="new 0 0 10 16" xml:space="preserve">
<g>
	<path fill="#E3EFFA" d="M2,0v16c4.4179688,0,8-3.5820313,8-8S6.4179688,0,2,0z"/>
</g>
<path fill="#71B1E4" d="M2,16c0,0,0.0048828,0,0.0078125,0h0.0019531h0.0048828c0.0009766,0,0.0019531,0,0.0019531,0h0.0058594
	h0.0029297c0.0009766,0,0.0029297,0,0.0029297,0H2.03125h0.0078125h0.0019531c0,0,0.0039063,0,0.0058594,0h0.0019531h0.0048828
	h0.0029297h0.0048828h0.0019531c0.0048828,0,0.0107422,0,0.0146484,0h0.0029297c0,0,0.0029297,0,0.0048828,0h0.0019531H2.09375
	l0.0019531-0.0009766h0.0068359l0,0c0.0029297,0,0.0058594,0,0.0058594,0h0.0029297h0.0058594h0.0029297H2.125
	c0.0009766,0,0.0019531,0,0.0019531,0h0.0058594h0.0019531c0.0048828,0,0.0097656,0,0.0146484,0l0.0019531-0.0009766H2.15625
	h0.0029297h0.0058594h0.0009766h0.0078125l0,0c0.0029297,0,0.0048828,0,0.0048828,0h0.0029297h0.0078125h0.0019531
	c0,0,0.0029297,0,0.0048828,0h0.0009766l0.0078125-0.0009766l0,0h0.015625h0.0009766h0.0068359h0.0009766
	c0,0,0.0048828,0,0.0068359-0.0009766h0.0009766c0.0048828,0,0.0097656,0,0.0097656,0h0.0058594
	c0.0029297,0,0.0048828,0,0.0048828,0h0.0029297h0.0068359h0.0009766c0.0107422-0.0009766,0.0205078-0.0009766,0.0302734-0.0019531
	h0.0009766c0.2353516-0.0078125,0.4677734-0.0273438,0.6982422-0.0556641l-0.0097656-0.0742188H3v-1H2V16L2,16z
	 M3.9794922,15.7529297h0.0019531c0,0,0.0009766,0,0.0009766-0.0009766c0.0029297,0,0.0058594-0.0009766,0.0087891-0.0019531
	h0.0029297c0-0.0009766,0.0019531-0.0009766,0.0019531-0.0009766C3.9980469,15.7480469,4,15.7480469,4,15.7480469
	c0.0019531-0.0009766,0.0029297-0.0009766,0.0029297-0.0009766c0.0029297-0.0009766,0.0039063-0.0009766,0.0039063-0.0009766
	l0.0039063-0.0009766c0,0,0.0048828-0.0009766,0.0068359-0.0019531h0.0009766l0.0058594-0.0019531
	c0.0009766,0,0.0019531,0,0.0019531,0L4.03125,15.7402344l0.0019531-0.0009766
	c0.0019531-0.0009766,0.0039063-0.0009766,0.0039063-0.0009766l0.0039063-0.0009766c0,0,0.0048828-0.0009766,0.0068359-0.0019531
	h0.0009766c0,0,0.0039063-0.0009766,0.0068359-0.0019531h0.0009766c0,0,0.0039063-0.0009766,0.0058594-0.0019531h0.0009766
	c0.0048828-0.0009766,0.0107422-0.0029297,0.0146484-0.0039063l0,0c0,0,0.0058594-0.0019531,0.0078125-0.0019531l0,0
	c0.09375-0.0253906,0.1865234-0.0527344,0.2783203-0.0810547h0.0009766
	c0.0068359-0.0019531,0.0136719-0.0039063,0.0214844-0.0068359h0.0009766
	c0.0019531-0.0009766,0.0048828-0.0009766,0.0048828-0.0009766c0.0019531-0.0009766,0.0019531-0.0009766,0.0019531-0.0009766
	c0.0048828-0.0019531,0.0097656-0.0029297,0.0146484-0.0048828h0.0009766c0,0,0.0039063-0.0019531,0.0058594-0.0019531
	l0.0019531-0.0009766c0,0,0.0039063-0.0009766,0.0058594-0.0009766l0.0009766-0.0009766
	C4.4277344,15.625,4.4296875,15.6240234,4.4296875,15.6240234l0.0029297-0.0009766l0.0058594-0.0019531
	c0.0009766,0,0.0019531,0,0.0019531,0c0.0019531-0.0009766,0.0039063-0.0009766,0.0048828-0.0019531l0.0019531-0.0009766
	c0.0019531,0,0.0039063-0.0009766,0.0048828-0.0009766c0,0,0.0019531-0.0009766,0.0029297-0.0009766
	c0.0019531-0.0009766,0.0039063-0.0009766,0.0058594-0.0019531c0,0,0.0019531-0.0009766,0.0039063-0.0009766
	c0,0,0.0019531-0.0009766,0.0029297-0.0009766l0.0029297-0.0009766l0.0039063-0.0009766
	c0.0009766-0.0009766,0.0019531-0.0009766,0.0019531-0.0009766l0.0039063-0.0019531
	c0.0048828-0.0009766,0.0097656-0.0029297,0.0136719-0.0039063c0.0009766,0,0.0019531-0.0009766,0.0019531-0.0009766
	c0.0019531,0,0.0039063-0.0009766,0.0048828-0.0009766l0.0019531-0.0009766
	c0.0078125-0.0019531,0.0146484-0.0048828,0.0224609-0.0068359l0,0c0,0,0.0039063-0.0019531,0.0058594-0.0019531l0,0
	c0.1347656-0.0449219,0.2675781-0.09375,0.3994141-0.1455078L4.5644531,14.515625
	c-0.2705078,0.1064453-0.5498047,0.1972656-0.8320313,0.2685547L3.9794922,15.7529297L3.9794922,15.7529297z M5.8359375,15.0224609
	c0.2929688-0.1611328,0.5751953-0.3388672,0.8447266-0.5341797l-0.5859375-0.8105469
	c-0.2353516,0.1708984-0.484375,0.328125-0.7392578,0.4667969L5.8359375,15.0224609L5.8359375,15.0224609z M7.453125,13.8535156
	C7.4765625,13.8320313,7.5,13.8095703,7.5244141,13.7871094l0,0c0.0107422-0.0117188,0.0224609-0.0224609,0.0341797-0.0332031l0,0
	C7.5605469,13.7519531,7.5605469,13.7509766,7.5625,13.75c0-0.0009766,0-0.0009766,0-0.0009766
	c0.0058594-0.0048828,0.0117188-0.0107422,0.0175781-0.015625v-0.0009766
	c0.0019531-0.0009766,0.0029297-0.0029297,0.0039063-0.0039063l0,0c0.0048828-0.0039063,0.0087891-0.0078125,0.0126953-0.0117188
	c0-0.0009766,0.0009766-0.0009766,0.0009766-0.0009766c0.0009766-0.0009766,0.0019531-0.0029297,0.0039063-0.0039063v-0.0009766
	c0.0039063-0.0039063,0.0078125-0.0078125,0.0117188-0.0107422c0-0.0009766,0.0009766-0.0009766,0.0009766-0.0009766
	c0.0009766-0.0019531,0.0029297-0.0029297,0.0039063-0.0039063l0.0009766-0.0009766
	c0.0019531-0.0009766,0.0019531-0.0029297,0.0039063-0.0039063l0,0c0.0029297-0.0029297,0.0048828-0.0048828,0.0078125-0.0078125
	l0.0009766-0.0009766c0.0009766-0.0009766,0.0019531-0.0019531,0.0029297-0.0029297
	c0-0.0009766,0.0009766-0.0009766,0.0009766-0.0009766c0.0019531-0.0019531,0.0029297-0.0029297,0.0039063-0.0039063
	c0,0,0.0009766-0.0009766,0.0019531-0.0019531c0.0019531-0.0009766,0.0029297-0.0029297,0.0048828-0.0048828
	c0.0009766-0.0009766,0.0019531-0.0009766,0.0019531-0.0019531c0.0009766-0.0009766,0.0019531-0.0019531,0.0029297-0.0029297
	c0,0,0.0009766-0.0009766,0.0019531-0.0019531s0.0019531-0.0019531,0.0029297-0.0029297l0.0019531-0.0019531
	c0.0009766-0.0009766,0.0019531-0.0019531,0.0019531-0.0019531c0.0019531-0.0019531,0.0039063-0.0039063,0.0048828-0.0048828
	s0.0019531-0.0019531,0.0029297-0.0029297s0.0019531-0.0009766,0.0019531-0.0019531
	c0.0019531-0.0009766,0.0019531-0.0019531,0.0029297-0.0029297s0.0019531-0.0009766,0.0019531-0.0019531
	c0,0,0.0019531-0.0019531,0.0029297-0.0029297s0.0019531-0.0019531,0.0029297-0.0029297s0.0029297-0.0019531,0.0039063-0.0039063
	c0.0009766-0.0009766,0.0009766-0.0019531,0.0009766-0.0019531C7.6875,13.6259766,7.6884766,13.625,7.6894531,13.6240234
	s0.0019531-0.0019531,0.0029297-0.0029297c0,0,0.0009766-0.0009766,0.0019531-0.0019531s0.0009766-0.0019531,0.0029297-0.0029297
	c0.0009766-0.0009766,0.0019531-0.0019531,0.0039063-0.0039063c0-0.0009766,0.0009766-0.0019531,0.0019531-0.0029297
	c0.0019531,0,0.0019531-0.0019531,0.0029297-0.0019531c0.0009766-0.0009766,0.0019531-0.0019531,0.0029297-0.0029297
	l0.0019531-0.0019531c0.0009766-0.0009766,0.0019531-0.0019531,0.0029297-0.0029297s0.0009766-0.0019531,0.0019531-0.0019531
	C7.7167969,13.5957031,7.71875,13.59375,7.7207031,13.5927734c0-0.0009766,0.0009766-0.0009766,0.0009766-0.0009766
	c0.0019531-0.0019531,0.0029297-0.0029297,0.0039063-0.0039063c0,0,0.0009766-0.0019531,0.0019531-0.0019531
	c0.0009766-0.0019531,0.0019531-0.0029297,0.0029297-0.0039063c0,0,0.0009766-0.0009766,0.0019531-0.0019531
	c0.0019531-0.0009766,0.0029297-0.0029297,0.0039063-0.0048828c0.0019531,0,0.0019531-0.0009766,0.0019531-0.0009766
	c0.0019531-0.0009766,0.0029297-0.0029297,0.0039063-0.0039063c0,0,0.0009766-0.0009766,0.0019531-0.0019531
	s0.0019531-0.0019531,0.0029297-0.0029297c0,0,0.0009766-0.0009766,0.0019531-0.0019531
	C7.75,13.5615234,7.7519531,13.5605469,7.7529297,13.5595703l0.0009766-0.0019531
	c0.0019531-0.0009766,0.0029297-0.0029297,0.0048828-0.0039063l0.0009766-0.0019531
	c0.0009766-0.0009766,0.0029297-0.0019531,0.0039063-0.0029297c0,0,0.0009766-0.0019531,0.0019531-0.0019531
	c0.0009766-0.0019531,0.0019531-0.0029297,0.0029297-0.0039063s0.0009766-0.0009766,0.0009766-0.0019531
	c0.0019531-0.0009766,0.0039063-0.0029297,0.0058594-0.0048828v-0.0009766
	c0.0019531-0.0019531,0.0029297-0.0029297,0.0048828-0.0039063L7.78125,13.5292969
	c0.0009766-0.0009766,0.0019531-0.0019531,0.0039063-0.0039063c0,0,0.0009766-0.0009766,0.0019531-0.0009766
	c0.0009766-0.0019531,0.0029297-0.0039063,0.0039063-0.0048828l0.0009766-0.0009766
	c0.0019531-0.0019531,0.0029297-0.0029297,0.0039063-0.0048828c0,0,0.0009766-0.0009766,0.0019531-0.0009766
	c0.0009766-0.0009766,0.0019531-0.0029297,0.0029297-0.0039063s0.0019531-0.0009766,0.0019531-0.0019531
	c0.0019531-0.0009766,0.0029297-0.0029297,0.0048828-0.0048828c0,0,0.0009766,0,0.0009766-0.0009766
	C7.8095703,13.5,7.8105469,13.4980469,7.8125,13.4970703c0-0.0009766,0.0009766-0.0009766,0.0009766-0.0019531
	c0.0009766-0.0009766,0.0029297-0.0019531,0.0039063-0.0029297c0-0.0009766,0.0009766-0.0019531,0.0009766-0.0019531
	c0.0019531-0.0019531,0.0039063-0.0029297,0.0039063-0.0048828h0.0019531
	c0.0009766-0.0019531,0.0029297-0.0039063,0.0039063-0.0058594c0.0009766,0,0.0019531-0.0009766,0.0019531-0.0019531
	c0.0009766-0.0009766,0.0019531-0.0019531,0.0039063-0.0029297c0-0.0009766,0-0.0009766,0.0009766-0.0019531
	s0.0029297-0.0019531,0.0029297-0.0039063l0.0019531-0.0009766c0.0019531-0.0019531,0.0039063-0.0039063,0.0048828-0.0048828
	c0-0.0009766,0.0009766-0.0009766,0.0009766-0.0019531c0.0019531-0.0009766,0.0029297-0.0019531,0.0039063-0.0039063
	c0,0,0.0009766-0.0009766,0.0019531-0.0019531s0.0019531-0.0019531,0.0039063-0.0029297c0-0.0009766,0-0.0009766,0-0.0019531
	c0.0019531-0.0019531,0.0039063-0.0029297,0.0058594-0.0048828v-0.0009766
	c0.0019531-0.0009766,0.0029297-0.0029297,0.0039063-0.0048828c0.0009766,0,0.0019531,0,0.0019531-0.0009766
	c0.0009766-0.0009766,0.0019531-0.0029297,0.0039063-0.0039063c0-0.0009766,0-0.0009766,0-0.0009766
	C7.8740234,13.4316406,7.875,13.4296875,7.8759766,13.4287109s0.0009766-0.0009766,0.0009766-0.0009766
	c0.0019531-0.0019531,0.0029297-0.0039063,0.0048828-0.0048828c0.0009766-0.0009766,0.0009766-0.0009766,0.0009766-0.0019531
	c0.0019531-0.0009766,0.0029297-0.0019531,0.0039063-0.0039063l0.0019531-0.0009766
	c0.0009766-0.0019531,0.0019531-0.0029297,0.0029297-0.0039063s0.0009766-0.0009766,0.0019531-0.0019531
	c0.0009766-0.0019531,0.0029297-0.0029297,0.0039063-0.0048828l0.0019531-0.0019531
	c0.0009766-0.0009766,0.0019531-0.0019531,0.0029297-0.0029297s0.0019531-0.0019531,0.0019531-0.0019531
	c0.0009766-0.0019531,0.0019531-0.0029297,0.0039063-0.0039063c0-0.0009766,0.0009766-0.0009766,0.0009766-0.0009766
	c0.0009766-0.0029297,0.0029297-0.0039063,0.0048828-0.0058594v-0.0009766
	c0.0019531-0.0019531,0.0029297-0.0029297,0.0039063-0.0039063s0.0019531-0.0019531,0.0019531-0.0019531
	c0.0019531-0.0009766,0.0029297-0.0019531,0.0039063-0.0039063c0,0,0.0009766-0.0009766,0.0009766-0.0019531
	c0.0019531-0.0009766,0.0029297-0.0019531,0.0039063-0.0039063l0.0009766-0.0009766
	c0.0019531-0.0019531,0.0029297-0.0029297,0.0039063-0.0048828c0,0,0.0019531-0.0019531,0.0029297-0.0019531
	C7.9375,13.3623047,7.9375,13.3613281,7.9384766,13.3603516s0.0019531-0.0019531,0.0019531-0.0019531
	c0.0019531-0.0019531,0.0029297-0.0029297,0.0039063-0.0039063c0-0.0009766,0.0009766-0.0009766,0.0009766-0.0019531
	c0.0019531-0.0019531,0.0029297-0.0029297,0.0048828-0.0048828c0.0009766-0.0009766,0.0009766-0.0019531,0.0019531-0.0019531
	C7.953125,13.34375,7.9541016,13.34375,7.9541016,13.34375c0.0009766-0.0019531,0.0029297-0.0029297,0.0029297-0.0039063
	c0.0009766-0.0009766,0.0019531-0.0019531,0.0019531-0.0019531c0.0009766-0.0009766,0.0019531-0.0019531,0.0029297-0.0029297
	s0.0009766-0.0019531,0.0009766-0.0019531c0.0019531-0.0019531,0.0039063-0.0039063,0.0058594-0.0058594
	c0-0.0009766,0.0009766-0.0009766,0.0019531-0.0019531c0-0.0009766,0.0019531-0.0019531,0.0029297-0.0029297
	c0-0.0009766,0.0009766-0.0019531,0.0009766-0.0019531c0.0019531-0.0019531,0.0019531-0.0019531,0.0029297-0.0039063
	c0.0009766,0,0.0009766-0.0009766,0.0009766-0.0009766c0.0019531-0.0019531,0.0039063-0.0039063,0.0058594-0.0068359
	c0.0009766,0,0.0009766-0.0009766,0.0019531-0.0009766c0.0009766-0.0009766,0.0019531-0.0029297,0.0019531-0.0039063
	c0.0019531,0,0.0019531-0.0009766,0.0019531-0.0009766c0.0019531-0.0019531,0.0019531-0.0029297,0.0039063-0.0039063v-0.0009766
	c0.0039063-0.0039063,0.0078125-0.0078125,0.0117188-0.0117188v-0.0009766
	c0.0019531-0.0019531,0.0029297-0.0029297,0.0039063-0.0039063l0.0009766-0.0009766
	c0.0048828-0.0068359,0.0097656-0.0117188,0.0146484-0.0175781l0.0009766-0.0009766
	c0.0048828-0.0058594,0.0097656-0.0107422,0.0146484-0.0175781l0,0c0.0341797-0.0380859,0.0664063-0.0761719,0.0996094-0.1152344
	l-0.7675781-0.6416016c-0.1865234,0.2226563-0.3896484,0.4365234-0.6015625,0.6347656L7.453125,13.8535156L7.453125,13.8535156z
	 M8.7324219,12.3232422L8.7324219,12.3232422c0.0009766-0.0019531,0.0019531-0.0039063,0.0029297-0.0048828l0.0009766-0.0019531
	c0.0019531-0.0019531,0.0019531-0.0039063,0.0039063-0.0058594c0,0,0-0.0009766,0.0009766-0.0009766
	c0.0009766-0.0019531,0.0019531-0.0029297,0.0029297-0.0048828c0.0009766,0,0.0009766-0.0009766,0.0019531-0.0019531
	c0,0,0.0009766-0.0029297,0.0019531-0.0039063l0.0009766-0.0019531C8.75,12.2949219,8.7519531,12.2929688,8.7529297,12.2910156
	l0.0009766-0.0009766c0-0.0019531,0.0019531-0.0029297,0.0029297-0.0048828
	c0.0009766-0.0009766,0.0009766-0.0009766,0.0009766-0.0019531c0.0009766-0.0019531,0.0019531-0.0029297,0.0029297-0.0048828
	l0.0009766-0.0009766c0.0029297-0.0039063,0.0058594-0.0087891,0.0078125-0.0126953l0.0009766-0.0009766
	c0.0009766-0.0019531,0.0019531-0.0039063,0.0029297-0.0048828l0.0009766-0.0009766
	c0.0029297-0.0048828,0.0048828-0.0087891,0.0078125-0.0126953v-0.0009766
	c0.0009766-0.0019531,0.0029297-0.0039063,0.0039063-0.0058594h0.0009766
	c0.0039063-0.0068359,0.0078125-0.0136719,0.0117188-0.0195313v-0.0009766
	c0.1083984-0.1738281,0.2099609-0.3525391,0.3046875-0.5351563l0,0c0.0019531-0.0029297,0.0029297-0.0048828,0.0039063-0.0068359
	l0,0c0.0029297-0.0048828,0.0048828-0.0097656,0.0068359-0.0136719l0.0009766-0.0009766
	c0-0.0019531,0.0019531-0.0039063,0.0029297-0.0058594v-0.0009766c0.0029297-0.0048828,0.0048828-0.0087891,0.0078125-0.0136719l0,0
	c0.0009766-0.0019531,0.0019531-0.0039063,0.0029297-0.0058594l0.0009766-0.0019531
	c0.0009766-0.0019531,0.0009766-0.0039063,0.0029297-0.0058594l0,0c0.0009766-0.0029297,0.0019531-0.0048828,0.0029297-0.0068359
	l0.0009766-0.0009766c0.0009766-0.0019531,0.0019531-0.0039063,0.0029297-0.0058594l0.0009766-0.0009766
	c0.0009766-0.0019531,0.0009766-0.0039063,0.0019531-0.0048828s0.0009766-0.0019531,0.0009766-0.0019531
	c0.0009766-0.0029297,0.0019531-0.0048828,0.0029297-0.0068359l0,0c0.0019531-0.0019531,0.0019531-0.0039063,0.0039063-0.0058594
	c0-0.0009766,0-0.0019531,0.0009766-0.0029297s0.0009766-0.0019531,0.0019531-0.0039063
	c0.0009766-0.0009766,0.0009766-0.0009766,0.0009766-0.0019531c0-0.0019531,0.0019531-0.0029297,0.0019531-0.0039063
	c0.0009766-0.0009766,0.0009766-0.0019531,0.0019531-0.0029297c0-0.0019531,0.0009766-0.0039063,0.0019531-0.0058594
	c0.0009766-0.0009766,0.0019531-0.0019531,0.0019531-0.0029297s0.0009766-0.0019531,0.0019531-0.0029297
	c0-0.0009766,0.0009766-0.0019531,0.0009766-0.0039063c0.0009766-0.0009766,0.0009766-0.0009766,0.0009766-0.0019531
	c0.0009766-0.0019531,0.0019531-0.0029297,0.0019531-0.0039063c0.0009766-0.0009766,0.0009766-0.0019531,0.0019531-0.0029297
	c0.0009766-0.0019531,0.0019531-0.0039063,0.0039063-0.0068359c0,0,0-0.0009766,0-0.0019531
	c0.0009766-0.0009766,0.0019531-0.0029297,0.0019531-0.0039063c0,0,0.0009766-0.0009766,0.0009766-0.0019531
	c0.0009766-0.0009766,0.0019531-0.0029297,0.0019531-0.0039063l0.0009766-0.0019531
	c0.0019531-0.0048828,0.0048828-0.0097656,0.0068359-0.0146484L9.1875,11.5166016
	c0-0.0009766,0.0009766-0.0029297,0.0019531-0.0048828h0.0009766c0.0029297-0.0078125,0.0068359-0.0146484,0.0097656-0.0214844
	h0.0009766c0.0058594-0.0136719,0.0117188-0.0263672,0.0185547-0.0390625l-0.9023438-0.4316406
	c-0.125,0.2617188-0.2685547,0.5185547-0.4257813,0.7626953L8.7324219,12.3232422L8.7324219,12.3232422z M9.59375,10.5244141
	c0.0097656-0.0322266,0.0205078-0.0634766,0.03125-0.0957031l0,0c0.0019531-0.0078125,0.0048828-0.0146484,0.0068359-0.0214844
	c0-0.0009766,0-0.0019531,0-0.0019531c0.0009766-0.0019531,0.0009766-0.0039063,0.0019531-0.0048828
	c0-0.0009766,0-0.0019531,0.0009766-0.0019531c0-0.0019531,0.0009766-0.0039063,0.0009766-0.0058594
	c0,0,0.0009766-0.0009766,0.0009766-0.0019531c0-0.0019531,0.0019531-0.0039063,0.0019531-0.0058594
	c0-0.0009766,0-0.0019531,0.0009766-0.0029297s0.0009766-0.0029297,0.0009766-0.0039063S9.6416016,10.3759766,9.6416016,10.375
	c0.0009766-0.0019531,0.0009766-0.0029297,0.0009766-0.0039063c0.0009766-0.0009766,0.0009766-0.0019531,0.0019531-0.0029297
	c-0.0009766-0.0009766,0-0.0019531,0-0.0029297c0.0019531-0.0048828,0.0029297-0.0097656,0.0048828-0.0146484v-0.0009766
	c0.0009766-0.0019531,0.0009766-0.0039063,0.0019531-0.0058594v-0.0009766
	c0.0683594-0.2226563,0.1269531-0.4501953,0.1757813-0.6806641c0-0.0009766,0-0.0009766,0-0.0009766
	C9.828125,9.6591797,9.828125,9.6572266,9.828125,9.6552734c0.0009766,0,0.0009766-0.0009766,0.0009766-0.0009766
	c0-0.0019531,0.0009766-0.0039063,0.0009766-0.0058594l0,0c0.0009766-0.0039063,0.0009766-0.0068359,0.0019531-0.0097656
	c0-0.0009766,0-0.0019531,0-0.0019531c0.0009766-0.0019531,0.0009766-0.0029297,0.0009766-0.0039063
	c0.0009766-0.0009766,0.0009766-0.0019531,0.0009766-0.0039063c0,0,0-0.0019531,0.0009766-0.0029297
	c0-0.0009766,0-0.0029297,0-0.0039063c0.0009766-0.0009766,0.0009766-0.0019531,0.0009766-0.0029297
	c0.0009766-0.0029297,0.0009766-0.0048828,0.0019531-0.0068359V9.6113281c0-0.0019531,0-0.0039063,0.0009766-0.0058594
	c0.0009766-0.0009766,0.0009766-0.0019531,0.0009766-0.0029297s0-0.0029297,0.0009766-0.0048828
	c0-0.0009766,0-0.0009766,0-0.0009766C9.8417969,9.59375,9.8417969,9.5917969,9.8417969,9.5898438l0.0009766-0.0009766
	C9.84375,9.5839844,9.84375,9.5791016,9.8457031,9.5742188c0-0.0009766,0-0.0009766,0-0.0009766
	c0-0.0029297,0.0009766-0.0048828,0.0009766-0.0068359V9.5654297C9.8476563,9.5625,9.8476563,9.5605469,9.8486328,9.5576172
	L8.8671875,9.3642578c-0.0566406,0.2851563-0.1308594,0.5693359-0.2226563,0.8447266L9.59375,10.5244141L9.59375,10.5244141z
	 M9.9804688,8.5673828C9.9824219,8.5371094,9.984375,8.5058594,9.9863281,8.4755859V8.4746094
	c0-0.0058594,0-0.0107422,0.0009766-0.0166016c0-0.0009766,0-0.0019531,0-0.0019531
	c0-0.0019531,0.0009766-0.0039063,0.0009766-0.0048828s0-0.0019531,0-0.0029297c0-0.0029297,0-0.0048828,0-0.0087891
	c0,0,0-0.0019531,0-0.0029297s0-0.0029297,0-0.0039063s0-0.0019531,0.0009766-0.0039063
	c0-0.0009766,0-0.0019531-0.0009766-0.0039063c0-0.0019531,0-0.0029297,0.0009766-0.0048828
	c0-0.0019531,0-0.0029297,0.0009766-0.0039063c0-0.0019531,0-0.0039063,0-0.0058594c0-0.0009766,0-0.0019531,0-0.0029297
	c0-0.0019531,0-0.0039063,0-0.0048828s0-0.0019531,0-0.0029297c0-0.0029297,0-0.0048828,0-0.0078125
	C9.9912109,8.390625,9.9912109,8.390625,9.9912109,8.390625c0-0.0029297-0.0009766-0.0048828-0.0009766-0.0068359
	c0-0.0009766,0-0.0019531,0-0.0029297c0.0009766-0.0019531,0.0009766-0.0048828,0.0019531-0.0068359V8.3730469
	c0-0.0019531,0-0.0048828,0-0.0078125V8.3632813c0-0.0019531,0-0.0039063,0-0.0068359V8.3554688
	c0-0.0029297,0-0.0058594,0.0009766-0.0087891l0,0c0-0.0029297,0-0.0048828,0-0.0078125c0-0.0009766,0-0.0009766,0-0.0009766
	c0-0.0029297,0-0.0058594,0.0009766-0.0087891l0,0c0-0.0029297,0-0.0058594,0-0.0087891l0,0c0-0.0029297,0-0.0058594,0-0.0078125
	V8.3115234c0-0.0058594,0-0.0117188,0-0.0175781c0,0,0,0,0-0.0009766c0.0009766-0.0019531,0.0009766-0.0048828,0.0009766-0.0078125
	l0,0c0-0.0058594,0-0.0117188,0.0009766-0.0175781l0,0c0-0.0068359,0-0.0117188,0-0.0175781V8.2490234
	c0-0.0029297,0-0.0048828,0-0.0078125V8.2402344C9.9970703,8.234375,9.9970703,8.2285156,9.9970703,8.2236328V8.2226563
	c0-0.0029297,0-0.0058594,0-0.0087891l0,0c0-0.0029297,0-0.0058594,0-0.0087891l0,0
	c0.0009766-0.0029297,0.0009766-0.0058594,0.0009766-0.0078125V8.1953125c0-0.0048828,0-0.0107422,0-0.0166016V8.1777344
	c0-0.0029297,0-0.0048828,0-0.0078125V8.1689453c0-0.0029297,0-0.0058594,0-0.0087891l0,0c0-0.0019531,0-0.0048828,0-0.0078125
	V8.1503906c0-0.0019531,0.0009766-0.0048828,0.0009766-0.0078125l0,0c0-0.0029297,0-0.0058594,0-0.0078125V8.1328125
	c0-0.0019531,0-0.0048828,0-0.0068359c0-0.0009766,0-0.0009766,0-0.0019531c0-0.0048828,0-0.0107422,0-0.0166016
	c0,0,0,0,0-0.0009766c0-0.0029297,0-0.0048828,0.0009766-0.0078125c0,0,0,0,0-0.0009766c0-0.0029297,0-0.0048828,0-0.0078125
	V8.0888672c0-0.0029297,0-0.0048828,0-0.0078125c0,0,0-0.0009766,0-0.0019531c0-0.0019531,0-0.0048828,0-0.0068359V8.0712891
	c0-0.0029297,0-0.0048828,0-0.0078125V8.0615234c0-0.0029297,0-0.0048828,0-0.0068359c0,0,0-0.0009766,0-0.0019531
	c0-0.0019531,0-0.0048828,0-0.0078125c0-0.0009766,0-0.0009766,0-0.0009766c0-0.0029297,0-0.0048828,0-0.0068359
	c0-0.0009766,0-0.0019531,0-0.0029297c0-0.0019531,0-0.0039063,0-0.0058594c0-0.0009766,0-0.0009766,0-0.0019531
	c0-0.0029297,0-0.0048828,0-0.0078125c0-0.0009766,0-0.0009766,0-0.0019531c0-0.0019531,0-0.0039063,0-0.0068359
	c0,0,0-0.0009766,0-0.0019531C10,8.0058594,10,8.0029297,10,8l0,0c0-0.0019531,0-0.0048828,0-0.0068359V7.9921875
	c0-0.0019531,0-0.0039063,0-0.0058594c0,0,0-0.0009766,0-0.0019531c0-0.0019531,0-0.0029297,0-0.0039063s0-0.0019531,0-0.0019531
	c0-0.0019531,0-0.0039063,0-0.0048828V7.9707031c0-0.0009766,0-0.0029297,0-0.0039063s0-0.0019531,0-0.0029297
	s0-0.0029297,0-0.0039063s0-0.0019531,0-0.0019531c0-0.0019531,0-0.0029297,0-0.0048828c0,0,0-0.0009766,0-0.0019531
	c0-0.0019531,0-0.0029297,0-0.0048828c0-0.0009766,0-0.0009766,0-0.0019531s0-0.0029297,0-0.0048828V7.9384766
	c0-0.0019531,0-0.0039063,0-0.0058594V7.9316406c0-0.0019531,0-0.0039063,0-0.0058594V7.9248047
	c0-0.0019531,0-0.0039063,0-0.0058594V7.9179688c0-0.0019531,0-0.0039063,0-0.0058594l0,0c0-0.0029297,0-0.0048828,0-0.0068359l0,0
	C9.9980469,7.7919922,9.9941406,7.6796875,9.9882813,7.5683594l0,0L8.9902344,7.6210938C8.9970703,7.7460938,9,7.8730469,9,8
	c0,0.1669922-0.0058594,0.3330078-0.0175781,0.4980469L9.9804688,8.5673828L9.9804688,8.5673828z M8.8896484,6.7519531
	l0.984375-0.1767578C9.8632813,6.5166016,9.8515625,6.4589844,9.8398438,6.4003906V6.3994141
	c0-0.0009766,0-0.0029297-0.0009766-0.0048828L9.8378906,6.3935547c0-0.0019531,0-0.0039063,0-0.0058594V6.3867188
	c-0.0019531-0.0048828-0.0029297-0.0107422-0.0039063-0.015625c0-0.0009766,0-0.0019531,0-0.0019531
	C9.8330078,6.3671875,9.8330078,6.3662109,9.8320313,6.3642578c0,0,0-0.0009766,0-0.0019531
	c0-0.0019531,0-0.0029297-0.0009766-0.0048828V6.3564453C9.8300781,6.3525391,9.8300781,6.3496094,9.8291016,6.3466797
	c0-0.0009766,0-0.0009766,0-0.0009766C9.828125,6.34375,9.828125,6.3417969,9.828125,6.3408203
	C9.8271484,6.3398438,9.8271484,6.3388672,9.8271484,6.3378906c0-0.0019531,0-0.0019531-0.0009766-0.0039063
	c0-0.0009766,0-0.0019531,0-0.0029297S9.8251953,6.328125,9.8251953,6.3271484S9.8242188,6.3251953,9.8242188,6.3242188
	c0-0.0019531-0.0009766-0.0039063-0.0009766-0.0058594C9.8222656,6.3164063,9.8222656,6.3154297,9.8222656,6.3144531
	c0-0.0019531,0-0.0029297-0.0009766-0.0039063S9.8203125,6.3085938,9.8203125,6.3066406c0-0.0009766,0-0.0019531,0-0.0029297
	C9.8193359,6.3027344,9.8193359,6.3007813,9.8183594,6.2998047c0-0.0009766,0-0.0019531,0-0.0029297
	c0-0.0019531-0.0009766-0.0048828-0.0019531-0.0068359V6.2890625c0-0.0019531-0.0009766-0.0039063-0.0009766-0.0058594
	c0-0.0009766-0.0009766-0.0019531-0.0009766-0.0019531c0-0.0019531,0-0.0039063-0.0009766-0.0058594V6.2744141
	C9.8125,6.2714844,9.8125,6.2705078,9.8115234,6.2685547L9.8125,6.2666016
	C9.8115234,6.2636719,9.8105469,6.2617188,9.8105469,6.2597656V6.2587891
	C9.8095703,6.2568359,9.8095703,6.2539063,9.8085938,6.2519531V6.2509766
	C9.8076172,6.2490234,9.8076172,6.2470703,9.8066406,6.2451172c0-0.0009766,0-0.0009766,0-0.0009766
	c0-0.0029297-0.0009766-0.0048828-0.0019531-0.0078125l0,0c0-0.0029297-0.0009766-0.0048828-0.0019531-0.0078125l0,0
	c0-0.0019531,0-0.0048828-0.0009766-0.0068359c0,0,0-0.0009766-0.0009766-0.0009766c0-0.0019531,0-0.0048828-0.0009766-0.0068359
	V6.2128906C9.7978516,6.2060547,9.796875,6.1982422,9.7949219,6.1904297l0,0
	C9.7919922,6.1806641,9.7900391,6.1699219,9.7871094,6.1601563l0,0c-0.0224609-0.0966797-0.046875-0.1923828-0.0732422-0.2871094
	l0,0c0-0.0029297-0.0009766-0.0048828-0.0019531-0.0078125l0,0C9.7099609,5.8574219,9.7080078,5.8505859,9.7060547,5.84375
	c0-0.0009766,0-0.0009766,0-0.0019531C9.7050781,5.8398438,9.7050781,5.8378906,9.7041016,5.8359375L9.703125,5.8349609
	C9.7021484,5.8300781,9.7011719,5.8251953,9.6992188,5.8203125c0,0,0,0,0-0.0009766
	c0-0.0019531-0.0009766-0.0039063-0.0019531-0.0048828c0-0.0009766,0-0.0019531,0-0.0029297
	C9.6962891,5.8105469,9.6953125,5.8085938,9.6953125,5.8066406c0,0,0-0.0009766,0-0.0019531
	C9.6943359,5.8027344,9.6933594,5.8007813,9.6933594,5.7988281c0-0.0009766,0-0.0019531,0-0.0019531
	C9.6923828,5.7949219,9.6914063,5.7929688,9.6914063,5.7910156c0,0,0-0.0019531-0.0009766-0.0029297
	c0-0.0009766-0.0009766-0.0019531-0.0009766-0.0029297c-0.0009766-0.0019531,0-0.0029297-0.0019531-0.0039063V5.7792969
	c-0.0009766-0.0019531,0-0.0039063-0.0009766-0.0048828c0-0.0009766-0.0009766-0.0009766-0.0009766-0.0009766
	c0-0.0039063-0.0019531-0.0068359-0.0019531-0.0097656L9.6826172,5.7626953c0-0.0019531-0.0009766-0.0039063-0.0009766-0.0048828
	L9.6806641,5.7558594c0-0.0019531-0.0009766-0.0029297-0.0009766-0.0048828V5.75
	C9.6650391,5.7021484,9.6503906,5.6523438,9.6347656,5.6044922L8.6806641,5.9033203
	C8.7675781,6.1806641,8.8378906,6.4658203,8.8896484,6.7519531L8.8896484,6.7519531z M8.3671875,5.0878906L9.2773438,4.671875
	C9.2587891,4.6308594,9.2402344,4.5908203,9.2207031,4.5507813l0,0C9.2167969,4.5439453,9.2138672,4.5371094,9.2109375,4.5302734
	L9.2099609,4.5292969C9.2089844,4.5273438,9.2080078,4.5253906,9.2070313,4.5234375V4.5224609
	C9.2050781,4.5175781,9.2021484,4.5136719,9.2001953,4.5087891c0,0,0,0-0.0009766-0.0009766
	c0-0.0019531-0.0019531-0.0039063-0.0019531-0.0048828S9.1962891,4.5009766,9.1962891,4.5009766
	C9.1953125,4.4990234,9.1943359,4.4970703,9.1933594,4.4960938c0-0.0009766,0-0.0019531,0-0.0019531
	C9.1923828,4.4921875,9.1914063,4.4902344,9.1894531,4.4882813c0-0.0009766,0-0.0009766,0-0.0009766
	C9.1884766,4.4853516,9.1875,4.4833984,9.1875,4.4814453c0,0-0.0019531-0.0009766-0.0019531-0.0019531
	C9.1845703,4.4775391,9.1845703,4.4765625,9.1835938,4.4746094c0,0-0.0009766-0.0009766-0.0009766-0.0019531
	C9.1816406,4.4707031,9.1806641,4.46875,9.1796875,4.4677734V4.4667969
	C9.1787109,4.4648438,9.1777344,4.4619141,9.1767578,4.4599609C9.1757813,4.4589844,9.1757813,4.4589844,9.1748047,4.4580078
	c0-0.0009766-0.0009766-0.0029297-0.0009766-0.0039063C9.1728516,4.453125,9.171875,4.4521484,9.171875,4.4511719
	S9.1699219,4.4492188,9.1699219,4.4472656c0-0.0009766-0.0009766-0.0019531-0.0009766-0.0019531
	C9.1679688,4.4433594,9.1669922,4.4414063,9.1660156,4.4394531C9.1650391,4.4384766,9.1650391,4.4375,9.1640625,4.4365234
	c0-0.0009766-0.0009766-0.0029297-0.0019531-0.0039063c0-0.0009766,0-0.0019531-0.0009766-0.0029297
	S9.1601563,4.4277344,9.1591797,4.4267578c0-0.0009766-0.0009766-0.0019531-0.0009766-0.0029297
	c0-0.0019531-0.0019531-0.0019531-0.0019531-0.0039063S9.1542969,4.4160156,9.1533203,4.4140625
	c-0.0009766,0-0.0009766-0.0019531-0.0009766-0.0019531C9.1513672,4.4101563,9.1503906,4.4091797,9.1503906,4.4082031
	S9.1494141,4.40625,9.1494141,4.40625C9.1484375,4.4042969,9.1474609,4.4033203,9.1474609,4.4023438
	C9.1464844,4.4013672,9.1464844,4.4003906,9.1455078,4.3994141C9.1435547,4.3945313,9.1416016,4.390625,9.1396484,4.3867188
	C9.1386719,4.3857422,9.1386719,4.3847656,9.1386719,4.3847656C9.1376953,4.3828125,9.1367188,4.3818359,9.1357422,4.3808594
	c0-0.0009766,0-0.0019531-0.0009766-0.0029297c0-0.0009766-0.0009766-0.0019531-0.0019531-0.0039063c0,0,0,0,0-0.0009766
	C9.1308594,4.3701172,9.1298828,4.3671875,9.1279297,4.3652344c0,0,0-0.0019531-0.0009766-0.0019531
	c0-0.0019531-0.0009766-0.0029297-0.0009766-0.0039063C9.125,4.3583984,9.125,4.3574219,9.125,4.3574219
	C9.1240234,4.3554688,9.1230469,4.3544922,9.1230469,4.3525391L9.1210938,4.3515625
	C9.1191406,4.3466797,9.1171875,4.3417969,9.1142578,4.3378906L9.1132813,4.3359375
	c0-0.0009766-0.0009766-0.0029297-0.0019531-0.0039063c0-0.0009766,0-0.0009766-0.0009766-0.0019531
	C9.1083984,4.3251953,9.1054688,4.3203125,9.1025391,4.3154297l0,0C9.1015625,4.3134766,9.1005859,4.3115234,9.0996094,4.3105469
	V4.3085938C9.0986328,4.3076172,9.0976563,4.3056641,9.0966797,4.3046875V4.3037109
	C9.0947266,4.2988281,9.0917969,4.2939453,9.0888672,4.2890625c0-0.0009766,0-0.0009766,0-0.0009766
	C9.0878906,4.2861328,9.0869141,4.2851563,9.0859375,4.2832031V4.2822266
	C9.0830078,4.2773438,9.0800781,4.2724609,9.078125,4.2666016H9.0771484
	C9.0761719,4.2646484,9.0761719,4.2636719,9.0751953,4.2617188c-0.0009766,0-0.0009766,0-0.0009766,0
	C9.0703125,4.2539063,9.0664063,4.2470703,9.0634766,4.2402344H9.0625C9.0585938,4.2304688,9.0537109,4.2226563,9.0488281,4.2128906
	l0,0C9.0449219,4.2060547,9.0410156,4.1992188,9.0371094,4.1923828V4.1914063
	C9.0361328,4.1904297,9.0351563,4.1884766,9.0341797,4.1865234l0,0C9.0302734,4.1796875,9.0273438,4.1728516,9.0234375,4.1660156
	V4.1650391C9.0185547,4.1582031,9.015625,4.1513672,9.0117188,4.1445313l0,0C9.0078125,4.1367188,9.0039063,4.1308594,9,4.1230469
	l0,0C8.9960938,4.1162109,8.9921875,4.109375,8.9882813,4.1025391V4.1015625
	C8.9863281,4.1005859,8.9853516,4.0986328,8.984375,4.0966797l0,0C8.9804688,4.0898438,8.9775391,4.0830078,8.9736328,4.0761719
	c0,0-0.0009766,0-0.0009766-0.0009766C8.9716797,4.0732422,8.9707031,4.0722656,8.9697266,4.0703125l0,0
	c-0.0029297-0.0048828-0.0058594-0.0107422-0.0087891-0.015625l0,0C8.9599609,4.0527344,8.9589844,4.0517578,8.9589844,4.0498047
	L8.9580078,4.0488281C8.9550781,4.0439453,8.9521484,4.0390625,8.9492188,4.0341797V4.0332031
	C8.9482422,4.0322266,8.9472656,4.03125,8.9462891,4.0292969L8.9453125,4.0273438
	c0-0.0009766-0.0009766-0.0019531-0.0019531-0.0039063L8.9423828,4.0224609
	C8.9404297,4.0175781,8.9375,4.0126953,8.9345703,4.0087891c0-0.0009766-0.0009766-0.0009766-0.0009766-0.0019531
	S8.9316406,4.0039063,8.9316406,4.0029297S8.9306641,4.0019531,8.9306641,4.0009766
	C8.9296875,4,8.9287109,3.9980469,8.9277344,3.9970703V3.9960938C8.9257813,3.9931641,8.9248047,3.9912109,8.9228516,3.9882813
	c0-0.0009766-0.0009766-0.0019531-0.0009766-0.0019531c0-0.0009766-0.0019531-0.0029297-0.0019531-0.0039063
	C8.9189453,3.9814453,8.9189453,3.9814453,8.9179688,3.9804688c0-0.0009766-0.0009766-0.0029297-0.0019531-0.0039063
	c0-0.0009766-0.0009766-0.0019531-0.0019531-0.0029297c0-0.0019531-0.0009766-0.0029297-0.0029297-0.0048828
	c0-0.0009766-0.0009766-0.0019531-0.0009766-0.0019531C8.9091797,3.9648438,8.9082031,3.9628906,8.9082031,3.9619141
	C8.9072266,3.9609375,8.9072266,3.9609375,8.90625,3.9589844c0,0-0.0019531-0.0019531-0.0019531-0.0029297
	S8.9033203,3.9541016,8.9023438,3.953125c0-0.0009766-0.0009766-0.0019531-0.0019531-0.0029297
	C8.8994141,3.9482422,8.8984375,3.9462891,8.8974609,3.9453125S8.8964844,3.9433594,8.8964844,3.9433594
	C8.8955078,3.9414063,8.8945313,3.9404297,8.8935547,3.9384766c0-0.0009766,0-0.0009766-0.0009766-0.0019531
	S8.890625,3.9335938,8.890625,3.9326172c0,0-0.0009766-0.0019531-0.0019531-0.0029297
	c0-0.0009766-0.0019531-0.0029297-0.0029297-0.0039063L8.8847656,3.9238281
	C8.8837891,3.921875,8.8828125,3.9199219,8.8818359,3.9179688c0,0-0.0009766-0.0009766-0.0009766-0.0019531
	C8.8798828,3.9150391,8.8789063,3.9130859,8.8789063,3.9121094C8.8779297,3.9111328,8.8769531,3.9101563,8.8769531,3.9101563
	C8.8759766,3.9082031,8.875,3.9072266,8.8740234,3.9052734L8.8730469,3.9042969
	C8.8720703,3.9023438,8.8710938,3.8994141,8.8691406,3.8974609V3.8964844
	C8.8681641,3.8945313,8.8671875,3.8925781,8.8652344,3.8916016V3.890625
	C8.8632813,3.8886719,8.8632813,3.8867188,8.8613281,3.8847656V3.8837891C8.8583984,3.8798828,8.8554688,3.875,8.8535156,3.8710938
	c0,0,0,0,0-0.0009766C8.8515625,3.8681641,8.8505859,3.8662109,8.8496094,3.8642578l0,0
	c-0.015625-0.0244141-0.0302734-0.0488281-0.0449219-0.0732422L7.9550781,4.3183594
	C8.1083984,4.5654297,8.2470703,4.8242188,8.3671875,5.0878906L8.3671875,5.0878906z M7.4482422,3.6044922l0.7783203-0.6279297
	C8.1923828,2.9345703,8.1582031,2.8935547,8.1240234,2.8525391L8.1230469,2.8505859
	C8.1220703,2.8496094,8.1210938,2.8486328,8.1201172,2.8476563S8.1191406,2.8457031,8.1181641,2.8457031
	C8.1171875,2.8447266,8.1171875,2.84375,8.1152344,2.8427734c0-0.0009766-0.0019531-0.0029297-0.0019531-0.0039063
	C8.1123047,2.8378906,8.1113281,2.8369141,8.1103516,2.8359375S8.1083984,2.8339844,8.1074219,2.8320313
	c0,0-0.0019531-0.0009766-0.0019531-0.0019531C8.1044922,2.8291016,8.1035156,2.828125,8.1025391,2.8261719
	c-0.0009766,0-0.0009766-0.0009766-0.0009766-0.0009766C8.0996094,2.8232422,8.0976563,2.8212891,8.0966797,2.8203125V2.8193359
	C8.0947266,2.8173828,8.0927734,2.8154297,8.0917969,2.8134766l0,0C8.0898438,2.8115234,8.0878906,2.8095703,8.0869141,2.8085938
	L8.0859375,2.8076172C7.9521484,2.6513672,7.8125,2.5,7.6679688,2.3544922V2.3535156
	C7.6660156,2.3525391,7.6650391,2.3505859,7.6630859,2.3496094L7.6621094,2.3486328
	C7.6591797,2.3447266,7.6552734,2.3417969,7.6523438,2.3378906L7.6503906,2.3369141
	C7.6494141,2.3359375,7.6484375,2.3339844,7.6464844,2.3330078c0,0-0.0009766-0.0009766-0.0019531-0.0019531
	S7.6435547,2.3291016,7.6435547,2.3291016C7.6386719,2.3251953,7.6357422,2.3222656,7.6328125,2.3183594
	c-0.0009766,0-0.0019531-0.0009766-0.0019531-0.0009766C7.6298828,2.3164063,7.6289063,2.3144531,7.6269531,2.3134766V2.3125
	C7.6015625,2.2880859,7.5761719,2.2636719,7.5507813,2.2392578L6.8574219,2.9589844
	C7.0664063,3.1611328,7.265625,3.3779297,7.4482422,3.6044922L7.4482422,3.6044922z M6.1904297,2.3925781l0.5996094-0.8007813
	C6.71875,1.5390625,6.6474609,1.4873047,6.5742188,1.4365234l0,0C6.5683594,1.4316406,6.5625,1.4277344,6.5556641,1.4228516l0,0
	C6.5537109,1.421875,6.5517578,1.4199219,6.5498047,1.4189453c0,0-0.0009766,0-0.0009766-0.0009766
	C6.5449219,1.4160156,6.5410156,1.4130859,6.5371094,1.4101563L6.5361328,1.4091797
	C6.5341797,1.4082031,6.5322266,1.4072266,6.5302734,1.4052734H6.5292969
	C6.5273438,1.4033203,6.5263672,1.4023438,6.5244141,1.4013672L6.5234375,1.4003906
	C6.5214844,1.3994141,6.5195313,1.3984375,6.5175781,1.3964844H6.5166016
	C6.5146484,1.3945313,6.5136719,1.3935547,6.5117188,1.3925781L6.5097656,1.3916016
	C6.5087891,1.390625,6.5068359,1.3896484,6.5058594,1.3886719S6.5039063,1.3876953,6.5039063,1.3876953
	C6.5019531,1.3857422,6.5,1.3847656,6.4980469,1.3837891V1.3828125C6.4960938,1.3818359,6.4941406,1.3808594,6.4921875,1.3789063
	L6.4902344,1.3779297C6.4892578,1.3769531,6.4882813,1.3759766,6.4863281,1.375L6.484375,1.3740234
	C6.4824219,1.3730469,6.4814453,1.3720703,6.4804688,1.3710938L6.4775391,1.3701172
	C6.4765625,1.3681641,6.4746094,1.3671875,6.4726563,1.3662109L6.4707031,1.3642578
	C6.46875,1.3632813,6.4677734,1.3632813,6.4667969,1.3623047c0,0-0.0019531-0.0009766-0.0029297-0.0019531
	c0,0-0.0009766-0.0009766-0.0029297-0.0019531c0,0-0.0019531-0.0009766-0.0029297-0.0019531
	c0,0-0.0019531-0.0019531-0.0029297-0.0019531C6.453125,1.3525391,6.4511719,1.3515625,6.4501953,1.3505859
	c-0.0009766,0-0.0019531-0.0009766-0.0019531-0.0009766S6.4453125,1.3476563,6.4443359,1.3466797
	c-0.0009766,0-0.0019531-0.0009766-0.0029297-0.0009766c0,0-0.0019531-0.0019531-0.0029297-0.0029297L6.4355469,1.3417969
	C6.4335938,1.3398438,6.4316406,1.3388672,6.4296875,1.3369141L6.4277344,1.3359375
	C6.4267578,1.3349609,6.4257813,1.3339844,6.4238281,1.3339844c0-0.0009766-0.0009766-0.0009766-0.0019531-0.0019531
	S6.4199219,1.3310547,6.4179688,1.3300781c0-0.0009766-0.0009766-0.0009766-0.0009766-0.0009766
	C6.4121094,1.3261719,6.4082031,1.3232422,6.4042969,1.3203125L6.4023438,1.3193359
	C6.4013672,1.3183594,6.3994141,1.3173828,6.3994141,1.3173828C6.3984375,1.3164063,6.3974609,1.3164063,6.3974609,1.3164063
	C6.3955078,1.3144531,6.3945313,1.3134766,6.3925781,1.3125l0,0C6.3896484,1.3105469,6.3867188,1.3085938,6.3828125,1.3066406l0,0
	C6.3808594,1.3056641,6.3798828,1.3046875,6.3789063,1.3027344H6.3769531C6.3759766,1.3017578,6.375,1.3007813,6.3730469,1.2998047
	L6.3720703,1.2988281C6.3671875,1.2958984,6.3623047,1.2929688,6.3583984,1.2900391L6.3574219,1.2890625
	C6.3554688,1.2880859,6.3544922,1.2880859,6.3525391,1.2871094c0-0.0009766-0.0009766-0.0009766-0.0009766-0.0009766
	C6.3457031,1.2822266,6.3388672,1.2773438,6.3320313,1.2734375l0,0C6.3261719,1.2685547,6.3183594,1.2646484,6.3125,1.2607422
	c-0.0009766,0,0-0.0009766,0-0.0009766C6.1943359,1.1855469,6.0751953,1.1132813,5.9541016,1.0439453L5.4589844,1.9130859
	C5.7109375,2.0566406,5.9580078,2.2177734,6.1904297,2.3925781L6.1904297,2.3925781z M4.6738281,1.5283203l0.3828125-0.9238281l0,0
	C5.0537109,0.6035156,5.0517578,0.6025391,5.0498047,0.6015625H5.0488281
	C5.0419922,0.5986328,5.0351563,0.5957031,5.0283203,0.5927734H5.0273438
	C5.0253906,0.5917969,5.0234375,0.5908203,5.0205078,0.5898438l0,0C5.0136719,0.5869141,5.0058594,0.5839844,4.9990234,0.5810547
	l0,0C4.8408203,0.5166016,4.6796875,0.4580078,4.515625,0.4033203l0,0C4.5087891,0.4013672,4.5009766,0.3984375,4.4941406,0.3964844
	l0,0c0,0-0.0058594-0.0019531-0.0078125-0.0029297l0,0C4.4785156,0.3916016,4.4716797,0.3886719,4.4648438,0.3867188H4.4638672
	C4.4619141,0.3857422,4.4589844,0.3847656,4.4570313,0.3847656V0.3837891
	C4.4511719,0.3828125,4.4472656,0.3808594,4.4423828,0.3798828L4.4414063,0.3789063c0,0-0.0048828-0.0009766-0.0068359-0.0019531
	H4.4335938C4.4316406,0.3759766,4.4296875,0.375,4.4296875,0.375H4.4267578
	C4.421875,0.3730469,4.4169922,0.3720703,4.4130859,0.3701172H4.4111328
	C4.4091797,0.3691406,4.4072266,0.3681641,4.4052734,0.3681641c-0.0009766,0-0.0009766-0.0009766-0.0009766-0.0009766
	S4.3994141,0.3662109,4.3964844,0.3652344l0,0C4.3945313,0.3642578,4.3925781,0.3632813,4.390625,0.3632813L4.3886719,0.3623047
	c-0.0019531,0-0.0039063-0.0009766-0.0039063-0.0009766L4.3808594,0.3603516L4.3759766,0.3583984
	c-0.0009766,0-0.0009766,0-0.0009766,0C4.3720703,0.3574219,4.3691406,0.3564453,4.3671875,0.3554688l0,0
	c-0.0029297,0-0.0048828-0.0009766-0.0068359-0.0019531c0,0-0.0009766,0-0.0019531,0L4.3535156,0.3515625L4.3505859,0.3505859
	L4.3466797,0.3496094c-0.0009766,0-0.0019531,0-0.0019531,0C4.3417969,0.3486328,4.3398438,0.3476563,4.3378906,0.3466797
	L4.3349609,0.3457031c-0.0009766,0-0.0029297,0-0.0029297,0L4.328125,0.34375c0,0-0.0029297-0.0009766-0.0039063-0.0009766
	L4.3203125,0.3417969c-0.0009766,0-0.0019531-0.0009766-0.0019531-0.0009766
	C4.3154297,0.3398438,4.3144531,0.3398438,4.3144531,0.3398438C4.3125,0.3388672,4.3095703,0.3388672,4.3085938,0.3378906
	c0,0-0.0019531-0.0009766-0.0039063-0.0009766L4.3007813,0.3359375L4.2978516,0.3349609
	c0,0-0.0019531-0.0009766-0.0029297-0.0009766c-0.0019531,0-0.0029297-0.0009766-0.0029297-0.0009766L4.2871094,0.3320313
	C4.2851563,0.3310547,4.2832031,0.3300781,4.28125,0.3300781L4.2783203,0.3291016c0,0-0.0019531-0.0009766-0.0029297-0.0009766
	L4.2714844,0.3271484L4.2675781,0.3261719L4.265625,0.3251953C4.2607422,0.3242188,4.2558594,0.3222656,4.2509766,0.3212891
	c0,0-0.0009766-0.0009766-0.0019531-0.0009766c0,0-0.0029297-0.0009766-0.0048828-0.0009766
	c0,0-0.0009766-0.0009766-0.0019531-0.0009766c0,0-0.0029297-0.0009766-0.0039063-0.0009766L4.2363281,0.3164063
	C4.2304688,0.3154297,4.2255859,0.3134766,4.2207031,0.3125L4.21875,0.3115234
	c-0.0009766,0-0.0029297-0.0009766-0.0039063-0.0009766L4.2128906,0.3095703
	C4.2070313,0.3085938,4.2021484,0.3066406,4.1962891,0.3056641L4.1953125,0.3046875c-0.0009766,0-0.0029297,0-0.0029297,0
	L4.1894531,0.3037109c0,0-0.0039063-0.0009766-0.0048828-0.0019531H4.1835938
	C4.1777344,0.2998047,4.1728516,0.2988281,4.1660156,0.296875l0,0C4.1640625,0.2958984,4.1621094,0.2958984,4.1601563,0.2949219l0,0
	C4.1445313,0.2900391,4.1269531,0.2861328,4.1103516,0.28125L3.8476563,1.2460938
	C4.1269531,1.3222656,4.40625,1.4179688,4.6738281,1.5283203L4.6738281,1.5283203z M2,1.8642578h1V1.0117188l0.1318359-0.9326172
	C2.8583984,0.0410156,2.5800781,0.015625,2.2978516,0.0058594H2.2958984c-0.0009766,0-0.0029297-0.0009766-0.0029297-0.0009766
	H2.2890625c0,0-0.0039063,0-0.0048828,0H2.28125c0,0-0.0097656,0-0.0146484-0.0009766H2.2636719H2.2597656H2.2558594H2.2529297
	H2.2480469H2.2460938c-0.0048828,0-0.0097656,0-0.015625-0.0009766H2.2294922c0,0-0.0039063,0-0.0058594,0H2.2226563H2.2148438l0,0
	C2.1875,0.0019531,2.1621094,0.0019531,2.1357422,0.0009766L2.1210938,0.8642578H2V1.8642578L2,1.8642578z M2,3.8642578h1v-1H2
	V3.8642578L2,3.8642578z M2,5.8642578h1v-1H2V5.8642578L2,5.8642578z M2,7.8642578h1v-1H2V7.8642578L2,7.8642578z M2,9.8642578h1v-1
	H2V9.8642578L2,9.8642578z M2,11.8642578h1v-1H2V11.8642578L2,11.8642578z M2,13.8642578h1v-1H2V13.8642578L2,13.8642578z"/>
</svg>
