<?xml version="1.0" encoding="utf-8"?>
<!-- Generator: Adobe Illustrator 16.2.0, SVG Export Plug-In . SVG Version: 6.00 Build 0)  -->
<!DOCTYPE svg PUBLIC "-//W3C//DTD SVG 1.1//EN" "http://www.w3.org/Graphics/SVG/1.1/DTD/svg11.dtd">
<svg version="1.1" id="Слой_2" xmlns="http://www.w3.org/2000/svg" xmlns:xlink="http://www.w3.org/1999/xlink" x="0px" y="0px"
	 width="10px" height="16px" viewBox="0 0 10 16" enable-background="new 0 0 10 16" xml:space="preserve">
<g>
	<polygon fill="#FDE9D2" points="8,6.8007813 2,2 2,14 8,9.1992188 	"/>
</g>
<path fill="#F7931E" d="M2,14L2,14L2,14L2,14h0.0009766c0-0.0009766,0-0.0009766,0-0.0009766l0,0l0,0l0,0l0,0l0.0009766-0.0009766
	l0,0l0,0h0.0009766l0.0009766-0.0009766l0,0l0,0l0,0l0,0l0,0v-0.0009766h0.0009766l0,0
	c0.0019531-0.0019531,0.0039063-0.0029297,0.0068359-0.0058594l0,0C2.1123047,13.9101563,2.78125,13.375,2.78125,13.375
	l-0.1142578-0.1425781h0.2919922L3,13.2001953v-0.9677734H2V14L2,14z M3.5615234,12.7509766
	c0,0,0.2431641-0.1953125,0.4580078-0.3671875l0.3232422-0.2578125l-0.625-0.78125l-0.78125,0.625L3.5615234,12.7509766
	L3.5615234,12.7509766z M5.1230469,11.5009766l0.2587891-0.2060547l0.0009766-0.0009766l0.0019531-0.0019531l0,0
	l0.0019531-0.0009766c0,0,0,0,0-0.0009766l0.0019531-0.0009766c0.0039063-0.0029297,0.0078125-0.0068359,0.0117188-0.0097656
	h0.0009766c0.0009766-0.0009766,0.0009766-0.0009766,0.0009766-0.0009766l0.0009766-0.0009766l0.0009766-0.0009766
	L5.40625,11.2753906c0.0117188-0.0097656,0.0234375-0.0185547,0.0351563-0.0283203l0,0
	c0.2167969-0.1728516,0.4628906-0.3701172,0.4628906-0.3701172l-0.625-0.78125l-0.7802734,0.625L5.1230469,11.5009766
	L5.1230469,11.5009766z M6.6855469,10.2519531l0.7802734-0.625l-0.6240234-0.78125l-0.78125,0.625L6.6855469,10.2519531
	L6.6855469,10.2519531z M7,8.8837891h1v-1H7V8.8837891L7,8.8837891z M7.375,7.5810547l0.5585938-0.6972656H8V6.8007813l0,0
	L7.2841797,6.2275391l-0.625,0.78125L7.375,7.5810547L7.375,7.5810547z M5.8789063,6.3837891l0.625-0.78125L6.3583984,5.4863281
	c-0.0009766,0-0.0009766,0-0.0009766,0L6.3554688,5.4853516V5.484375L6.3544922,5.4833984c-0.0009766,0-0.0009766,0-0.0009766,0
	L6.3525391,5.4824219C6.125,5.3007813,5.7226563,4.9785156,5.7226563,4.9785156l-0.625,0.7802734L5.8789063,6.3837891
	L5.8789063,6.3837891z M4.3164063,5.1347656l0.625-0.78125l-0.7802734-0.625l-0.625,0.78125L4.3164063,5.1347656
	L4.3164063,5.1347656z M2.7558594,3.8847656l0.6240234-0.78125L2.2910156,2.2324219H2v1.0478516L2.7558594,3.8847656
	L2.7558594,3.8847656z M2,5.2324219h1v-1H2V5.2324219L2,5.2324219z M2,7.2324219h1v-1H2V7.2324219L2,7.2324219z M2,9.2324219h1v-1H2
	V9.2324219L2,9.2324219z M2,11.2324219h1v-1H2V11.2324219L2,11.2324219z"/>
</svg>
