<?xml version="1.0" encoding="utf-8"?>
<!-- Generator: Adobe Illustrator 16.2.0, SVG Export Plug-In . SVG Version: 6.00 Build 0)  -->
<!DOCTYPE svg PUBLIC "-//W3C//DTD SVG 1.1//EN" "http://www.w3.org/Graphics/SVG/1.1/DTD/svg11.dtd">
<svg version="1.1" id="Слой_2" xmlns="http://www.w3.org/2000/svg" xmlns:xlink="http://www.w3.org/1999/xlink" x="0px" y="0px"
	 width="10px" height="16px" viewBox="0 0 10 16" enable-background="new 0 0 10 16" xml:space="preserve">
<g>
	<polygon fill="#E3EFFA" points="10,9.5996094 2,16 2,0 10,6.4003906 	"/>
</g>
<path fill="#71B1E4" d="M2,16L2,16L2,16L2,16l0.0009766-0.0009766l0,0l0,0l0,0l0,0l0,0l0.0009766-0.0009766l0,0l0,0h0.0009766
	l0.0009766-0.0009766l0,0l0,0l0,0v-0.0009766h0.0009766l0,0c0.0019531-0.0019531,0.0039063-0.0029297,0.0068359-0.0058594h0.0009766
	l0.0009766-0.0009766l0,0c0,0,0.0009766-0.0009766,0.0019531-0.0019531l0,0C2.1259766,15.8994141,2.78125,15.375,2.78125,15.375
	l-0.0527344-0.0644531h0.1337891L3,15.2001953v-0.8896484H2V16L2,16z M3.5615234,14.7509766
	c0,0,0.1855469-0.1494141,0.3759766-0.3017578l0.4052734-0.3232422l-0.625-0.78125l-0.78125,0.625L3.5615234,14.7509766
	L3.5615234,14.7509766z M5.1230469,13.5009766l0.78125-0.6240234l-0.625-0.78125l-0.7802734,0.625L5.1230469,13.5009766
	L5.1230469,13.5009766z M6.6855469,12.2519531l0.7802734-0.625l-0.6240234-0.78125l-0.78125,0.625L6.6855469,12.2519531
	L6.6855469,12.2519531z M8.2470703,11.0019531c0,0,0.3046875-0.2431641,0.5332031-0.4267578H8.78125
	c0.0019531-0.0029297,0.0058594-0.0048828,0.0078125-0.0068359l0,0c0.0019531-0.0009766,0.0029297-0.0019531,0.0039063-0.0029297
	l0.234375-0.1875l-0.625-0.78125l-0.7802734,0.625L8.2470703,11.0019531L8.2470703,11.0019531z M9.8085938,9.7529297
	l0.1240234-0.0996094l0,0L9.9375,9.6503906l0,0l0.0058594-0.0048828V9.6445313h0.0009766l0.0009766-0.0009766V9.6425781h0.0009766
	L9.9492188,9.640625l0,0L9.953125,9.6376953V9.6367188l0.0039063-0.0029297l0,0l0.0009766-0.0009766h0.0009766l0.0009766-0.0009766
	c0.0009766-0.0009766,0.0019531-0.0019531,0.0029297-0.0029297l0,0l0.0019531-0.0009766l0,0
	c0.0009766-0.0009766,0.0009766-0.0009766,0.0019531-0.0009766V9.6259766L9.96875,9.625l0,0V9.6240234l0,0h0.0009766
	l0.0009766-0.0009766l0,0l0,0l0.0009766-0.0009766l0,0l0.0019531-0.0009766l0,0
	c0.0009766-0.0009766,0.0019531-0.0019531,0.0019531-0.0019531l0.0009766-0.0009766
	c0.0019531-0.0009766,0.0039063-0.0029297,0.0058594-0.0039063V9.6132813
	c0.0039063-0.0019531,0.0058594-0.0048828,0.0097656-0.0068359l0,0C9.9970703,9.6015625,10,9.5996094,10,9.5996094l0,0l0,0
	V8.8447266H9.3964844L9.375,8.8183594L9.3427734,8.8447266H9v0.7548828h0.6855469L9.8085938,9.7529297L9.8085938,9.7529297z
	 M9,7.8447266h1v-1H9V7.8447266L9,7.8447266z M8.9414063,6.8339844l0.625-0.7802734l-0.78125-0.625L8.1611328,6.2089844
	L8.9414063,6.8339844L8.9414063,6.8339844z M7.3798828,5.5849609l0.6240234-0.78125L7.2236328,4.1796875l-0.625,0.7802734
	L7.3798828,5.5849609L7.3798828,5.5849609z M5.8183594,4.3349609l0.625-0.7802734l-0.78125-0.625l-0.625,0.78125
	L5.8183594,4.3349609L5.8183594,4.3349609z M4.2568359,3.0859375l0.6240234-0.78125c0,0-0.3652344-0.2919922-0.5957031-0.4765625
	L4.2832031,1.8271484c-0.0087891-0.0078125-0.0185547-0.015625-0.0283203-0.0234375L4.2460938,1.796875L4.2451172,1.7958984
	L4.2431641,1.7939453H4.2421875L4.2392578,1.7910156c-0.0009766,0,0,0,0,0L4.2382813,1.7900391L4.2363281,1.7890625H4.2353516
	c0-0.0009766,0-0.0009766-0.0009766-0.0009766L4.2265625,1.78125l0,0L4.1005859,1.6806641l-0.625,0.7802734L4.2568359,3.0859375
	L4.2568359,3.0859375z M2.6943359,1.8359375l0.625-0.7802734L2.3886719,0.3105469H2v1h0.0371094L2.6943359,1.8359375
	L2.6943359,1.8359375z M2,3.3105469h1v-1H2V3.3105469L2,3.3105469z M2,5.3105469h1v-1H2V5.3105469L2,5.3105469z M2,7.3105469h1v-1H2
	V7.3105469L2,7.3105469z M2,9.3105469h1v-1H2V9.3105469L2,9.3105469z M2,11.3105469h1v-1H2V11.3105469L2,11.3105469z M2,13.3105469
	h1v-1H2V13.3105469L2,13.3105469z"/>
</svg>
