<?xml version="1.0" encoding="utf-8"?>
<!-- Generator: Adobe Illustrator 16.2.0, SVG Export Plug-In . SVG Version: 6.00 Build 0)  -->
<!DOCTYPE svg PUBLIC "-//W3C//DTD SVG 1.1//EN" "http://www.w3.org/Graphics/SVG/1.1/DTD/svg11.dtd">
<svg version="1.1" id="Слой_2" xmlns="http://www.w3.org/2000/svg" xmlns:xlink="http://www.w3.org/1999/xlink" x="0px" y="0px"
	 width="10px" height="16px" viewBox="0 0 10 16" enable-background="new 0 0 10 16" xml:space="preserve">
<g>
	<rect x="2" fill="#E3EFFA" width="8" height="16"/>
</g>
<path fill="#71B1E4" d="M10,0H9v1l0,0v1h1V0L10,0z M8,0H7v1h1V0L8,0z M6,0H5v1h1V0L6,0z M4,0H2v1h1l0,0h1V0L4,0z M3,2H2v1h1V2L3,2z
	 M3,4H2v1h1V4L3,4z M3,6H2v1h1V6L3,6z M3,8H2v1h1V8L3,8z M3,10H2v1h1V10L3,10z M3,12H2v1h1V12L3,12z M3,14H2v1l0,0v1h1v-1l0,0V14
	L3,14z M5,15H4v1h1V15L5,15z M7,15H6v1h1V15L7,15z M9,15H8v1h1V15L9,15z M10,15H9v1h1V15L10,15z M10,13H9v1h1V13L10,13z M10,11H9v1
	h1V11L10,11z M10,9H9v1h1V9L10,9z M10,7H9v1h1V7L10,7z M10,5H9v1h1V5L10,5z M10,3H9v1h1V3L10,3z"/>
</svg>
