<?xml version="1.0" encoding="utf-8"?>
<!-- Generator: Adobe Illustrator 16.2.0, SVG Export Plug-In . SVG Version: 6.00 Build 0)  -->
<!DOCTYPE svg PUBLIC "-//W3C//DTD SVG 1.1//EN" "http://www.w3.org/Graphics/SVG/1.1/DTD/svg11.dtd">
<svg version="1.1" id="Слой_2" xmlns="http://www.w3.org/2000/svg" xmlns:xlink="http://www.w3.org/1999/xlink" x="0px" y="0px"
	 width="10px" height="16px" viewBox="0 0 10 16" enable-background="new 0 0 10 16" xml:space="preserve">
<g>
	<polygon fill="#CCF4D1" points="8,2 5,2 2,2 2,8 2,14 5,14 8,14 5,8 	"/>
</g>
<path fill="#39B54A" d="M2,14h1v-1l0,0v-0.4160156H2V14L2,14z M4,14h1v-1H4V14L4,14z M6,14h2
	c0,0-0.0009766-0.0019531-0.0029297-0.0048828v-0.0009766l0,0v-0.0009766l-0.0009766-0.0009766l0,0l0,0l-0.0019531-0.0048828l0,0
	l-0.0019531-0.0039063l0,0l-0.4394531-0.8779297L7,13.3818359V13H6V14L6,14z M6.2109375,12.6582031l0.8945313-0.4472656
	l-0.4472656-0.8945313l-0.8945313,0.4472656L6.2109375,12.6582031L6.2109375,12.6582031z M5.3164063,10.8691406l0.8945313-0.4472656
	L5.7705078,9.5410156C5.7695313,9.5400391,5.7695313,9.5390625,5.7695313,9.5390625L5.7685547,9.5380859
	c0-0.0009766,0-0.0009766,0-0.0009766l0,0C5.7675781,9.5361328,5.7675781,9.5361328,5.7675781,9.5361328V9.5351563
	C5.765625,9.5302734,5.7636719,9.5273438,5.7636719,9.5273438L4.8691406,9.9746094L5.3164063,10.8691406L5.3164063,10.8691406z
	 M4.4228516,9.0810547l0.8935547-0.4472656L5,8l0,0l0,0l0,0l0,0l0,0V7.9990234l0,0l0,0l0,0l0,0l0,0l0.0009766-0.0009766l0,0l0,0
	l0.1298828-0.2587891L4.2363281,7.2919922L4.1054688,7.5527344L3.8818359,8l0.2236328,0.4472656L4.4228516,9.0810547
	L4.4228516,9.0810547z M5.578125,6.8447266L5.578125,6.8447266L5.578125,6.8447266c0,0,0.0068359-0.0146484,0.0185547-0.0380859l0,0
	C5.609375,6.78125,5.6269531,6.7470703,5.6474609,6.7050781l0.0009766-0.0009766
	c0.0039063-0.0097656,0.0097656-0.0195313,0.0146484-0.0302734l0,0c0,0,0.0009766-0.0009766,0.0009766-0.0019531l0,0
	c0,0,0.0009766-0.0009766,0.0009766-0.0019531l0,0C5.6669922,6.6650391,5.6699219,6.6611328,5.671875,6.65625l0,0
	c0.0029297-0.0068359,0.0068359-0.0126953,0.0097656-0.0195313V6.6357422
	c0.0019531-0.0019531,0.0029297-0.0048828,0.0039063-0.0078125l0,0C5.6904297,6.6191406,5.6953125,6.609375,5.7001953,6.6005859l0,0
	C5.7070313,6.5878906,5.7128906,6.5742188,5.71875,6.5615234l0,0C5.7246094,6.5517578,5.7285156,6.5419922,5.734375,6.53125l0,0
	c0.0019531-0.0029297,0.0039063-0.0058594,0.0048828-0.0097656l0,0c0.0009766-0.0009766,0.0009766-0.0019531,0.0009766-0.0019531
	l0,0c0.0019531-0.0029297,0.0029297-0.0058594,0.0039063-0.0078125l0,0c0,0,0.0009766-0.0019531,0.0019531-0.0029297l0,0
	C5.75,6.5,5.7548828,6.4902344,5.7597656,6.4804688l0,0c0,0,0.0009766-0.0009766,0.0009766-0.0019531l0,0
	c0.0097656-0.0195313,0.0195313-0.0390625,0.0302734-0.0585938l0.0009766-0.0029297
	c0.0029297-0.0068359,0.0058594-0.0126953,0.0087891-0.0195313l0,0c0.0019531-0.0029297,0.0029297-0.0048828,0.0048828-0.0078125
	l0,0c0-0.0009766,0.0009766-0.0019531,0.0009766-0.0029297l0,0c0-0.0009766,0.0009766-0.0019531,0.0019531-0.0019531l0,0
	c0-0.0009766,0-0.0019531,0.0009766-0.0029297l0,0c0.0039063-0.0087891,0.0078125-0.0166016,0.0126953-0.0253906V6.3544922
	C5.84375,6.3125,5.8632813,6.2724609,5.8828125,6.2333984l0.0009766-0.0009766
	c0.0263672-0.0527344,0.0507813-0.1005859,0.0712891-0.1425781l0,0c0-0.0009766,0.0009766-0.0009766,0.0009766-0.0019531l0,0
	c0.0029297-0.0048828,0.0048828-0.0087891,0.0068359-0.0136719l0,0c0.0078125-0.0146484,0.0146484-0.0283203,0.0205078-0.0410156
	l0,0C5.9902344,6.0205078,5.9951172,6.0097656,6,6.0009766l0,0C6,6,6,5.9990234,6.0009766,5.9980469l0,0
	c0.0009766-0.0029297,0.0029297-0.0058594,0.0048828-0.0078125l0,0V5.9892578V5.9882813
	C6.0068359,5.9873047,6.0078125,5.9853516,6.0078125,5.984375l0,0c0.0048828-0.0107422,0.0097656-0.0185547,0.0117188-0.0244141l0,0
	c0.0019531-0.0009766,0.0019531-0.0029297,0.0019531-0.0039063h0.0009766
	C6.0234375,5.953125,6.0244141,5.9511719,6.0253906,5.9501953l0,0l0,0l0,0L5.1308594,5.5029297L4.6835938,6.3974609
	L5.578125,6.8447266L5.578125,6.8447266z M6.4726563,5.0556641l0.4433594-0.8876953l0,0l0.0009766-0.0019531l0,0l0,0
	c0.0009766-0.0019531,0.0019531-0.0039063,0.0019531-0.0048828l0,0l0,0l0,0L6.0253906,3.7138672L5.578125,4.6083984
	L6.4726563,5.0556641L6.4726563,5.0556641z M7.3662109,3.2666016c0,0,0.1123047-0.2236328,0.2236328-0.4472656l0.2236328-0.4472656
	L7.4160156,2.1738281V2c0,0-0.1572266,0-0.3476563,0l0,0H6.8818359l0,0C6.6435547,2,6.4160156,2,6.4160156,2v1h0.4169922
	L7.3662109,3.2666016L7.3662109,3.2666016z M4.4160156,3H5h0.4160156V2H5H4.4160156V3L4.4160156,3z M2,3.5839844h1V3h0.4160156V2h-1
	v0.5839844H2V3.5839844L2,3.5839844z M2,5.5839844h1v-1H2V5.5839844L2,5.5839844z M2,7.5839844h1v-1H2V7.5839844L2,7.5839844z
	 M2,9.5839844h1v-1H2V9.5839844L2,9.5839844z M2,11.5839844h1v-1H2V11.5839844L2,11.5839844z"/>
</svg>
