<?xml version="1.0" encoding="utf-8"?>
<!-- Generator: Adobe Illustrator 16.2.0, SVG Export Plug-In . SVG Version: 6.00 Build 0)  -->
<!DOCTYPE svg PUBLIC "-//W3C//DTD SVG 1.1//EN" "http://www.w3.org/Graphics/SVG/1.1/DTD/svg11.dtd">
<svg version="1.1" id="Слой_2" xmlns="http://www.w3.org/2000/svg" xmlns:xlink="http://www.w3.org/1999/xlink" x="0px" y="0px"
	 width="10px" height="16px" viewBox="0 0 10 16" enable-background="new 0 0 10 16" xml:space="preserve">
<g>
	<path fill="#CCF4D1" d="M2,14V2c3.3134766,0,6,2.6865234,6,6S5.3134766,14,2,14z"/>
</g>
<path fill="#39B54A" d="M3.9638672,13.671875c0.078125-0.0273438,0.1552734-0.0566406,0.2324219-0.0859375l0,0
	c0.0058594-0.0029297,0.0136719-0.0058594,0.0205078-0.0087891h0.0009766
	c0.0019531-0.0009766,0.0048828-0.0019531,0.0078125-0.0029297v-0.0009766
	c0.0039063-0.0009766,0.0087891-0.0029297,0.0126953-0.0048828l0,0c0.0039063-0.0009766,0.0058594-0.0019531,0.0078125-0.0029297
	l0.0009766-0.0009766c0.0029297,0,0.0048828-0.0019531,0.0068359-0.0029297h0.0019531
	c0.0009766,0,0.0019531-0.0009766,0.0039063-0.0009766l0.0009766-0.0009766
	c0.0019531-0.0009766,0.0039063-0.0019531,0.0068359-0.0029297h0.0009766
	c0.0019531-0.0009766,0.0048828-0.0019531,0.0068359-0.0029297c0.0009766,0,0.0009766-0.0009766,0.0009766-0.0009766
	c0.0048828-0.0019531,0.0087891-0.0029297,0.0126953-0.0048828c0,0,0.0009766,0,0.0019531-0.0009766
	c0,0,0.0039063-0.0009766,0.0058594-0.0019531l0.0019531-0.0009766c0.0019531-0.0009766,0.0039063-0.0019531,0.0039063-0.0019531
	c0.0019531-0.0009766,0.0029297-0.0009766,0.0029297-0.0009766c0.0019531-0.0009766,0.0029297-0.0009766,0.0039063-0.0019531
	c0,0,0.0019531,0,0.0029297-0.0009766c0,0,0.0039063-0.0009766,0.0058594-0.0019531l0.0019531-0.0009766
	c0.0019531-0.0009766,0.0039063-0.0019531,0.0058594-0.0019531c0-0.0009766,0.0009766-0.0009766,0.0009766-0.0009766
	C4.3291016,13.53125,4.3300781,13.53125,4.3310547,13.5302734c0,0,0.0029297-0.0009766,0.0039063-0.0019531l0.0048828-0.0009766
	l0.0019531-0.0009766c0.0009766-0.0009766,0.0029297-0.0019531,0.0048828-0.0029297c0.0009766,0,0.0009766,0,0.0009766,0
	c0.0029297-0.0019531,0.0048828-0.0019531,0.0078125-0.0029297c0-0.0009766,0-0.0009766,0.0019531-0.0009766l0.0029297-0.0019531
	l0.0019531-0.0009766c0.0019531,0,0.0039063-0.0009766,0.0039063-0.0009766
	c0.0029297-0.0009766,0.0029297-0.0019531,0.0029297-0.0019531c0.0029297-0.0009766,0.0048828-0.0019531,0.0068359-0.0029297
	c0,0,0.0009766,0,0.0019531,0l0.0039063-0.0019531l0.0009766-0.0009766
	c0.0019531-0.0009766,0.0039063-0.0019531,0.0068359-0.0019531l0.0019531-0.0009766
	c0.0019531-0.0009766,0.0039063-0.0019531,0.0058594-0.0029297l0.0019531-0.0009766
	C4.4013672,13.5,4.4033203,13.4990234,4.40625,13.4980469h0.0009766c0.0009766-0.0009766,0.0029297-0.0019531,0.0029297-0.0019531
	s0.0019531,0,0.0019531-0.0009766c0,0,0.0039063-0.0019531,0.0058594-0.0029297c0.0009766,0,0.0019531,0,0.0019531,0
	c0.0019531-0.0009766,0.0048828-0.0019531,0.0068359-0.0029297l0.0009766-0.0009766
	c0.0039063-0.0019531,0.0078125-0.0039063,0.0117188-0.0048828l0.0019531-0.0009766
	c0.0019531-0.0009766,0.0039063-0.0019531,0.0068359-0.0029297l0,0c0.0048828-0.0019531,0.0087891-0.0039063,0.0126953-0.0058594
	h0.0009766c0.0019531-0.0009766,0.0048828-0.0019531,0.0068359-0.0029297l0.0009766-0.0009766
	c0.0029297-0.0009766,0.0048828-0.0019531,0.0078125-0.0029297v-0.0009766
	c0.0048828-0.0019531,0.0078125-0.0029297,0.0126953-0.0048828l0,0c0.0029297-0.0019531,0.0048828-0.0029297,0.0078125-0.0039063
	l0,0c0.0078125-0.0039063,0.0136719-0.0068359,0.0205078-0.0097656l0,0
	c0.1220703-0.0566406,0.2412109-0.1162109,0.3583984-0.1806641l-0.4804688-0.8769531
	c-0.2421875,0.1328125-0.4990234,0.2460938-0.7597656,0.3369141L3.9638672,13.671875L3.9638672,13.671875z M5.7099609,12.7158203
	L5.7099609,12.7158203c0.0019531-0.0019531,0.0039063-0.0029297,0.0058594-0.0048828h0.0009766
	c0.0039063-0.0029297,0.0078125-0.0058594,0.0107422-0.0097656c0.0009766,0,0.0009766,0,0.0009766,0
	c0.0019531-0.0019531,0.0039063-0.0029297,0.0058594-0.0039063v-0.0009766
	c0.0019531-0.0019531,0.0039063-0.0029297,0.0058594-0.0048828h0.0009766
	c0.0019531-0.0019531,0.0039063-0.0029297,0.0048828-0.0048828h0.0009766
	C5.7490234,12.6855469,5.75,12.6835938,5.7519531,12.6826172c0,0,0.0009766-0.0009766,0.0019531-0.0009766
	c0.0009766-0.0019531,0.0029297-0.0029297,0.0039063-0.0039063s0.0009766-0.0009766,0.0019531-0.0019531
	c0.0019531-0.0009766,0.0029297-0.0019531,0.0048828-0.0029297C5.765625,12.671875,5.765625,12.671875,5.765625,12.6708984
	c0.0019531-0.0009766,0.0029297-0.0019531,0.0039063-0.0029297c0.0019531-0.0009766,0.0019531-0.0009766,0.0019531-0.0019531
	c0.0019531-0.0009766,0.0039063-0.0019531,0.0048828-0.0029297c0,0,0.0009766-0.0009766,0.0009766-0.0019531
	c0.0019531-0.0009766,0.0039063-0.0019531,0.0048828-0.0029297s0.0009766-0.0009766,0.0019531-0.0019531
	s0.0029297-0.0019531,0.0039063-0.0029297s0.0019531-0.0019531,0.0029297-0.0029297
	c0.0009766,0,0.0019531-0.0009766,0.0029297-0.0019531s0.0019531-0.0019531,0.0029297-0.0029297
	s0.0019531-0.0009766,0.0019531-0.0009766c0.0019531-0.0019531,0.0029297-0.0019531,0.0039063-0.0029297
	c0,0,0.0019531-0.0019531,0.0039063-0.0029297c0,0,0.0019531-0.0019531,0.0029297-0.0029297l0.0009766-0.0009766
	c0.0019531-0.0019531,0.0029297-0.0029297,0.0048828-0.0039063c0.0009766-0.0009766,0.0009766-0.0009766,0.0019531-0.0019531
	C5.8193359,12.6279297,5.8203125,12.6269531,5.8222656,12.625l0.0019531-0.0009766
	c0.0029297-0.0029297,0.0058594-0.0058594,0.0097656-0.0087891l0,0c0.0019531-0.0019531,0.0039063-0.0039063,0.0068359-0.0048828
	l0.0009766-0.0009766c0.1796875-0.1494141,0.3496094-0.3095703,0.5107422-0.4794922l0,0
	c0.0019531-0.0019531,0.0039063-0.0039063,0.0058594-0.0058594c0-0.0009766,0-0.0009766,0-0.0009766
	c0.0029297-0.0019531,0.0048828-0.0039063,0.0068359-0.0058594l0,0c0-0.0019531,0.0019531-0.0019531,0.0029297-0.0039063
	c0,0,0.0009766,0,0.0009766-0.0009766c0.0019531-0.0009766,0.0029297-0.0029297,0.0048828-0.0048828L6.375,12.1064453
	c0.0019531-0.0019531,0.0029297-0.0029297,0.0039063-0.0048828c0.0009766-0.0009766,0.0019531-0.0009766,0.0019531-0.0009766
	c0.0009766-0.0019531,0.0019531-0.0029297,0.0029297-0.0039063s0.0019531-0.0019531,0.0029297-0.0029297
	s0.0019531-0.0019531,0.0029297-0.0029297s0.0009766-0.0019531,0.0029297-0.0029297
	c0-0.0009766,0.0009766-0.0019531,0.0019531-0.0029297s0.0009766-0.0009766,0.0009766-0.0009766
	c0.0029297-0.0019531,0.0029297-0.0039063,0.0048828-0.0048828c0-0.0009766,0.0009766-0.0019531,0.0009766-0.0019531
	c0.0019531-0.0009766,0.0029297-0.0019531,0.0029297-0.0029297C6.40625,12.0732422,6.40625,12.0722656,6.4082031,12.0703125
	c0,0,0.0019531-0.0009766,0.0019531-0.0019531c0.0009766-0.0019531,0.0029297-0.0029297,0.0039063-0.0039063
	c0,0,0.0009766-0.0009766,0.0009766-0.0019531c0.0009766-0.0009766,0.0029297-0.0019531,0.0039063-0.0039063
	c0,0,0,0,0.0009766-0.0009766c0.0019531-0.0019531,0.0029297-0.0029297,0.0048828-0.0048828l0.0009766-0.0009766
	c0.0009766-0.0019531,0.0019531-0.0029297,0.0039063-0.0048828l0.0009766-0.0009766
	c0.0019531-0.0019531,0.0029297-0.0029297,0.0048828-0.0048828c0,0,0,0,0-0.0009766
	c0.0019531-0.0009766,0.0039063-0.0029297,0.0048828-0.0048828h0.0009766l-0.7402344-0.6728516
	c-0.1865234,0.2050781-0.3916016,0.3964844-0.609375,0.5683594L5.7099609,12.7158203L5.7099609,12.7158203z M7.0488281,11.2421875
	c0.0429688-0.0644531,0.0830078-0.1308594,0.1230469-0.1982422l0,0c0.0029297-0.0048828,0.0048828-0.0087891,0.0078125-0.0126953
	v-0.0009766c0.0009766-0.0019531,0.0019531-0.0039063,0.0039063-0.0058594v-0.0009766
	c0.0009766-0.0019531,0.0019531-0.0039063,0.0039063-0.0058594v-0.0009766
	c0.0009766-0.0019531,0.0029297-0.0039063,0.0039063-0.0058594l0,0c0.0019531-0.0029297,0.0019531-0.0039063,0.0029297-0.0058594
	c0.0009766-0.0009766,0.0009766-0.0009766,0.0009766-0.0019531c0.0019531-0.0019531,0.0019531-0.0039063,0.0039063-0.0048828
	c0-0.0009766,0-0.0019531,0-0.0019531c0.0019531-0.0019531,0.0019531-0.0039063,0.0029297-0.0048828
	s0.0009766-0.0019531,0.0019531-0.0019531c0.0009766-0.0019531,0.0009766-0.0029297,0.0029297-0.0048828v-0.0009766
	c0.0019531-0.0019531,0.0019531-0.0039063,0.0029297-0.0058594c0.0009766,0,0.0009766-0.0009766,0.0019531-0.0019531
	c0.0009766-0.0019531,0.0019531-0.0029297,0.0019531-0.0048828c0.0009766-0.0009766,0.0009766-0.0019531,0.0019531-0.0029297
	s0.0009766-0.0019531,0.0009766-0.0029297C7.21875,10.9638672,7.21875,10.9619141,7.2197266,10.9609375
	s0.0009766-0.0019531,0.0009766-0.0029297c0.0019531-0.0009766,0.0019531-0.0019531,0.0029297-0.0029297
	s0.0009766-0.0029297,0.0019531-0.0039063s0.0009766-0.0019531,0.0019531-0.0039063v-0.0009766
	c0.0019531-0.0019531,0.0029297-0.0048828,0.0039063-0.0058594c0,0,0.0009766-0.0009766,0.0009766-0.0019531
	c0.0009766-0.0019531,0.0019531-0.0039063,0.0039063-0.0068359l0,0c0.0029297-0.0039063,0.0048828-0.0078125,0.0068359-0.0117188
	v-0.0009766c0.0019531-0.0019531,0.0029297-0.0048828,0.0039063-0.0068359c0,0,0.0009766,0,0.0009766-0.0009766
	c0.0751953-0.1357422,0.1455078-0.2744141,0.2109375-0.4169922l0,0c0.0009766-0.0029297,0.0019531-0.0048828,0.0039063-0.0078125
	v-0.0009766c0.0019531-0.0039063,0.0039063-0.0078125,0.0048828-0.0117188c0.0009766,0,0.0009766-0.0009766,0.0009766-0.0009766
	c0.0009766-0.0019531,0.0019531-0.0048828,0.0019531-0.0068359c0.0009766-0.0009766,0.0019531-0.0009766,0.0019531-0.0019531
	c0.0009766-0.0019531,0.0019531-0.0039063,0.0019531-0.0058594c0.0009766-0.0009766,0.0009766-0.0009766,0.0019531-0.0019531
	c0-0.0009766,0-0.0019531,0.0009766-0.0029297c0-0.0019531,0.0009766-0.0029297,0.0019531-0.0039063
	c0-0.0019531,0.0009766-0.0029297,0.0009766-0.0039063c0.0009766-0.0009766,0.0009766-0.0019531,0.0019531-0.0029297
	c0-0.0019531,0.0009766-0.0029297,0.0019531-0.0048828c0-0.0009766,0.0009766-0.0019531,0.0009766-0.0029297
	c0.0009766-0.0009766,0.0009766-0.0029297,0.0019531-0.0039063s0.0009766-0.0029297,0.0009766-0.0029297
	c0.0019531-0.0019531,0.0019531-0.0029297,0.0019531-0.0039063s0.0019531-0.0029297,0.0019531-0.0048828
	c0.0009766-0.0009766,0.0009766-0.0009766,0.0009766-0.0009766c0.0009766-0.0029297,0.0009766-0.0039063,0.0019531-0.0058594
	c0.0009766,0,0.0009766-0.0009766,0.0009766-0.0019531C7.4970703,10.4082031,7.4980469,10.40625,7.4980469,10.40625
	c0.0009766-0.0019531,0.0009766-0.0019531,0.0009766-0.0029297C7.5,10.4013672,7.5009766,10.3994141,7.5019531,10.3974609
	c0-0.0009766,0-0.0009766,0-0.0009766c0.0019531-0.0029297,0.0019531-0.0048828,0.0039063-0.0068359v-0.0009766
	c0.0009766-0.0019531,0.0019531-0.0039063,0.0019531-0.0058594l0.0009766-0.0009766
	c0.0009766-0.0019531,0.0019531-0.0039063,0.0029297-0.0058594c0-0.0009766,0-0.0009766,0-0.0009766
	c0.0009766-0.0029297,0.0019531-0.0048828,0.0029297-0.0068359v-0.0009766
	c0.0009766-0.0019531,0.0019531-0.0039063,0.0029297-0.0068359L6.5986328,9.9667969
	c-0.1083984,0.2539063-0.2402344,0.5019531-0.3896484,0.734375L7.0488281,11.2421875L7.0488281,11.2421875z M7.8330078,9.4130859
	c0.0771484-0.3203125,0.1289063-0.6494141,0.1523438-0.9873047L6.9882813,8.3554688
	c-0.0195313,0.2773438-0.0625,0.5546875-0.1269531,0.8222656L7.8330078,9.4130859L7.8330078,9.4130859z M6.9775391,7.5205078
	l0.9951172-0.09375C7.9658203,7.3544922,7.9580078,7.2822266,7.9482422,7.2109375l0,0
	c-0.0009766-0.0048828-0.0009766-0.0097656-0.0019531-0.015625l0,0c0-0.0009766,0-0.0019531-0.0009766-0.0039063V7.1904297
	c0-0.0009766,0-0.0019531,0-0.0029297l0,0c0-0.0019531,0-0.0029297,0-0.0039063l0,0
	c0-0.0019531-0.0009766-0.0039063-0.0009766-0.0058594V7.1757813L7.9433594,7.1738281c0,0,0-0.0019531,0-0.0029297
	c0,0,0-0.0009766,0-0.0019531S7.9423828,7.1679688,7.9423828,7.1669922s0-0.0019531,0-0.0019531
	c0-0.0009766,0-0.0019531,0-0.0029297c0,0,0-0.0009766-0.0009766-0.0019531c0-0.0009766,0-0.0019531,0-0.0039063V7.1552734
	c0-0.0009766,0-0.0019531-0.0009766-0.0029297c0-0.0009766,0-0.0019531,0-0.0019531c0-0.0009766,0-0.0019531,0-0.0029297
	L7.9394531,7.1464844c0-0.0019531,0-0.0029297,0-0.0039063L7.9384766,7.1416016c0-0.0009766,0.0009766-0.0029297,0-0.0039063l0,0
	C7.9375,7.1347656,7.9375,7.1308594,7.9365234,7.1279297l0,0c0-0.0009766,0.0009766-0.0029297,0-0.0039063V7.1230469
	c0-0.0009766-0.0009766-0.0029297-0.0009766-0.0039063l0,0C7.9150391,6.9804688,7.890625,6.84375,7.8613281,6.7089844l0,0
	C7.859375,6.7021484,7.8583984,6.6962891,7.8574219,6.6904297l0,0C7.8564453,6.6884766,7.8554688,6.6875,7.8554688,6.6865234
	V6.6855469c0-0.0009766-0.0009766-0.0029297,0-0.0039063H7.8544922C7.8535156,6.6777344,7.8535156,6.6757813,7.8525391,6.671875l0,0
	c0-0.0009766-0.0009766-0.0029297-0.0009766-0.0039063V6.6669922c0-0.0009766,0-0.0019531-0.0009766-0.0029297
	c0-0.0009766,0-0.0009766,0-0.0019531C7.8496094,6.6611328,7.8496094,6.6601563,7.8496094,6.6591797V6.6582031
	c0-0.0009766-0.0009766-0.0019531-0.0009766-0.0039063l0,0C7.8476563,6.6523438,7.8476563,6.6513672,7.8476563,6.6503906
	s0-0.0019531,0-0.0019531C7.8466797,6.6474609,7.8466797,6.6464844,7.8466797,6.6464844
	c0-0.0019531,0-0.0019531-0.0009766-0.0029297V6.6416016c0-0.0009766,0-0.0009766-0.0009766-0.0019531
	c0-0.0009766,0-0.0019531,0-0.0019531L7.84375,6.6347656V6.6337891C7.8427734,6.6308594,7.8427734,6.6279297,7.8417969,6.625
	c0-0.0009766,0-0.0009766,0-0.0019531S7.8408203,6.6210938,7.8408203,6.6210938c0-0.0009766,0-0.0009766,0-0.0019531
	C7.8398438,6.6181641,7.8398438,6.6171875,7.8398438,6.6162109V6.6152344c0,0-0.0009766-0.0019531-0.0019531-0.0029297l0,0
	c0-0.0039063-0.0009766-0.0078125-0.0019531-0.0107422V6.6005859c0-0.0009766-0.0009766-0.0019531-0.0009766-0.0029297
	c0,0,0,0,0-0.0009766S7.8339844,6.5947266,7.8339844,6.5947266V6.59375
	C7.8222656,6.5429688,7.8095703,6.4931641,7.7958984,6.4433594L6.8300781,6.7021484
	C6.9013672,6.96875,6.9511719,7.2441406,6.9775391,7.5205078L6.9775391,7.5205078z M6.5488281,5.9199219l0.9091797-0.4160156
	C7.3183594,5.1992188,7.1542969,4.9082031,6.9667969,4.6337891L6.140625,5.1953125
	C6.2958984,5.4248047,6.4335938,5.6689453,6.5488281,5.9199219L6.5488281,5.9199219z M5.6162109,4.546875l0.7236328-0.6904297
	C6.109375,3.6152344,5.859375,3.3935547,5.5927734,3.1933594L4.9931641,3.9941406
	C5.2148438,4.1601563,5.4248047,4.3466797,5.6162109,4.546875L5.6162109,4.546875z M4.2871094,3.5527344l0.4589844-0.8886719
	c0-0.0009766-0.0009766-0.0009766-0.0009766-0.0009766C4.7431641,2.6621094,4.7431641,2.6621094,4.7431641,2.6621094
	C4.7402344,2.6611328,4.7382813,2.6601563,4.7363281,2.6591797c0,0-0.0009766-0.0009766-0.0019531-0.0009766
	C4.7324219,2.6572266,4.7304688,2.65625,4.7294922,2.6552734L4.7275391,2.6542969
	C4.7255859,2.6533203,4.7246094,2.6533203,4.7236328,2.6523438L4.7207031,2.6503906
	c-0.0019531,0-0.0029297-0.0009766-0.0029297-0.0009766C4.7148438,2.6484375,4.7148438,2.6474609,4.7138672,2.6474609
	c0,0-0.0029297-0.0019531-0.0048828-0.0029297c-0.0009766,0-0.0019531-0.0009766-0.0019531-0.0009766
	C4.7050781,2.6425781,4.703125,2.6416016,4.7011719,2.640625L4.6992188,2.6396484
	c-0.0019531,0-0.0019531-0.0009766-0.0039063-0.0019531H4.6943359C4.6914063,2.6357422,4.6894531,2.6347656,4.6875,2.6347656
	c0,0-0.0009766-0.0009766-0.0019531-0.0019531c-0.0019531,0-0.0039063-0.0019531-0.0058594-0.0019531L4.6787109,2.6298828
	C4.6777344,2.6289063,4.6757813,2.6279297,4.6748047,2.6279297L4.6738281,2.6269531
	C4.671875,2.6259766,4.6699219,2.625,4.6669922,2.6240234L4.6660156,2.6230469
	C4.6640625,2.6220703,4.6621094,2.6210938,4.6601563,2.6201172L4.6582031,2.6191406
	C4.6542969,2.6171875,4.6503906,2.6152344,4.6464844,2.6132813H4.6455078
	C4.6435547,2.6123047,4.640625,2.6113281,4.6386719,2.6103516L4.6376953,2.609375
	C4.6347656,2.6074219,4.6328125,2.6074219,4.6298828,2.6054688l0,0C4.6259766,2.6035156,4.6210938,2.6015625,4.6181641,2.5996094
	H4.6171875C4.6152344,2.5976563,4.6123047,2.5966797,4.6103516,2.5957031H4.609375
	C4.6054688,2.59375,4.6015625,2.5917969,4.5976563,2.5898438H4.5966797
	C4.5947266,2.5878906,4.5917969,2.5869141,4.5898438,2.5859375H4.5888672
	c-0.2460938-0.1181641-0.5019531-0.2197266-0.765625-0.3037109L3.5195313,3.234375
	C3.7832031,3.3183594,4.0410156,3.4257813,4.2871094,3.5527344L4.2871094,3.5527344z M2.7089844,3.0498047l0.1269531-0.9013672H3
	V2.0830078C2.6748047,2.0283203,2.3408203,2,2,2l0,0l0,0l0,0l0,0l0,0l0,0v1C2.2373047,3,2.4765625,3.0166016,2.7089844,3.0498047
	L2.7089844,3.0498047z M2,4.1484375h1v-1H2V4.1484375L2,4.1484375z M2,6.1484375h1v-1H2V6.1484375L2,6.1484375z M2,8.1484375h1v-1H2
	V8.1484375L2,8.1484375z M2,10.1484375h1v-1H2V10.1484375L2,10.1484375z M2,12.1484375h1v-1H2V12.1484375L2,12.1484375z M2,14
	c0.3408203,0,0.6748047-0.0283203,1-0.0830078v-0.7685547H2.8671875l-0.0361328-0.2167969C2.5585938,12.9765625,2.2792969,13,2,13
	V14L2,14z"/>
</svg>
