<?xml version="1.0" encoding="utf-8"?>
<!-- Generator: Adobe Illustrator 16.2.0, SVG Export Plug-In . SVG Version: 6.00 Build 0)  -->
<!DOCTYPE svg PUBLIC "-//W3C//DTD SVG 1.1//EN" "http://www.w3.org/Graphics/SVG/1.1/DTD/svg11.dtd">
<svg version="1.1" id="Слой_2" xmlns="http://www.w3.org/2000/svg" xmlns:xlink="http://www.w3.org/1999/xlink" x="0px" y="0px"
	 width="10px" height="16px" viewBox="0 0 10 16" enable-background="new 0 0 10 16" xml:space="preserve">
<g>
	<polygon fill="#FDE9D2" points="2,9.1992188 8,14 8,2 2,6.8007813 	"/>
</g>
<path fill="#F7931E" d="M8,2L8,2L8,2L8,2H7.9990234c0,0.0009766,0,0.0009766,0,0.0009766l0,0l0,0l0,0l0,0L7.9980469,2.0019531l0,0
	l0,0H7.9970703L7.9960938,2.0029297l0,0l0,0l0,0l0,0l0,0v0.0009766H7.9951172l0,0
	C7.9931641,2.0058594,7.9912109,2.0068359,7.9882813,2.0097656l0,0C7.8876953,2.0898438,7.21875,2.625,7.21875,2.625
	l0.1142578,0.1425781H7.0410156L7,2.7998047v0.9677734h1V2L8,2z M6.4384766,3.2490234c0,0-0.2431641,0.1953125-0.4580078,0.3671875
	L5.6572266,3.8740234l0.625,0.78125l0.78125-0.625L6.4384766,3.2490234L6.4384766,3.2490234z M4.8769531,4.4990234
	L4.6181641,4.7050781L4.6171875,4.7060547L4.6152344,4.7080078l0,0L4.6132813,4.7089844c0,0,0,0,0,0.0009766L4.6113281,4.7109375
	C4.6074219,4.7138672,4.6035156,4.7177734,4.5996094,4.7207031H4.5986328
	C4.5976563,4.7216797,4.5976563,4.7216797,4.5976563,4.7216797L4.5966797,4.7226563L4.5957031,4.7236328L4.59375,4.7246094
	C4.5820313,4.734375,4.5703125,4.7431641,4.5585938,4.7529297l0,0C4.3417969,4.9257813,4.0957031,5.1230469,4.0957031,5.1230469
	l0.625,0.78125l0.7802734-0.625L4.8769531,4.4990234L4.8769531,4.4990234z M3.3144531,5.7480469l-0.7802734,0.625l0.6240234,0.78125
	l0.78125-0.625L3.3144531,5.7480469L3.3144531,5.7480469z M3,7.1162109H2v1h1V7.1162109L3,7.1162109z M2.625,8.4189453
	L2.0664063,9.1162109H2v0.0830078l0,0l0.7158203,0.5732422l0.625-0.78125L2.625,8.4189453L2.625,8.4189453z M4.1210938,9.6162109
	l-0.625,0.78125l0.1455078,0.1162109c0.0009766,0,0.0009766,0,0.0009766,0l0.0019531,0.0009766v0.0009766l0.0009766,0.0009766
	c0.0009766,0,0.0009766,0,0.0009766,0l0.0009766,0.0009766C3.875,10.6992188,4.2773438,11.0214844,4.2773438,11.0214844
	l0.625-0.7802734L4.1210938,9.6162109L4.1210938,9.6162109z M5.6835938,10.8652344l-0.625,0.78125l0.7802734,0.625l0.625-0.78125
	L5.6835938,10.8652344L5.6835938,10.8652344z M7.2441406,12.1152344l-0.6240234,0.78125l1.0888672,0.8710938H8v-1.0478516
	L7.2441406,12.1152344L7.2441406,12.1152344z M8,10.7675781H7v1h1V10.7675781L8,10.7675781z M8,8.7675781H7v1h1V8.7675781
	L8,8.7675781z M8,6.7675781H7v1h1V6.7675781L8,6.7675781z M8,4.7675781H7v1h1V4.7675781L8,4.7675781z"/>
</svg>
