<?xml version="1.0" encoding="utf-8"?>
<!-- Generator: Adobe Illustrator 16.2.0, SVG Export Plug-In . SVG Version: 6.00 Build 0)  -->
<!DOCTYPE svg PUBLIC "-//W3C//DTD SVG 1.1//EN" "http://www.w3.org/Graphics/SVG/1.1/DTD/svg11.dtd">
<svg version="1.1" id="Слой_2" xmlns="http://www.w3.org/2000/svg" xmlns:xlink="http://www.w3.org/1999/xlink" x="0px" y="0px"
	 width="10px" height="16px" viewBox="0 0 10 16" enable-background="new 0 0 10 16" xml:space="preserve">
<g>
	<polygon fill="#CCF4D1" points="2,14 5,14 8,14 8,8 8,2 5,2 2,2 5,8 	"/>
</g>
<path fill="#39B54A" d="M8,2H7v1l0,0v0.4160156h1V2L8,2z M6,2H5v1h1V2L6,2z M4,2H2c0,0,0.0009766,0.0019531,0.0029297,0.0048828
	v0.0009766l0,0v0.0009766l0.0009766,0.0009766l0,0l0,0l0.0019531,0.0048828l0,0l0.0019531,0.0039063l0,0l0.4394531,0.8779297
	L3,2.6181641V3h1V2L4,2z M3.7890625,3.3417969L2.8945313,3.7890625l0.4472656,0.8945313l0.8945313-0.4472656L3.7890625,3.3417969
	L3.7890625,3.3417969z M4.6835938,5.1308594L3.7890625,5.578125l0.4404297,0.8808594
	c0.0009766,0.0009766,0.0009766,0.0019531,0.0009766,0.0019531l0.0009766,0.0009766c0,0.0009766,0,0.0009766,0,0.0009766l0,0
	c0.0009766,0.0009766,0.0009766,0.0009766,0.0009766,0.0009766v0.0009766
	C4.234375,6.4697266,4.2363281,6.4726563,4.2363281,6.4726563l0.8945313-0.4472656L4.6835938,5.1308594L4.6835938,5.1308594z
	 M5.5771484,6.9189453L4.6835938,7.3662109L5,8l0,0l0,0l0,0l0,0l0,0v0.0009766l0,0l0,0l0,0l0,0l0,0L4.9990234,8.0019531l0,0l0,0
	L4.8691406,8.2607422l0.8945313,0.4472656l0.1308594-0.2607422L6.1181641,8L5.8945313,7.5527344L5.5771484,6.9189453
	L5.5771484,6.9189453z M4.421875,9.1552734L4.421875,9.1552734L4.421875,9.1552734c0,0-0.0068359,0.0146484-0.0185547,0.0380859l0,0
	C4.390625,9.21875,4.3730469,9.2529297,4.3525391,9.2949219L4.3515625,9.2958984
	C4.3476563,9.3056641,4.3417969,9.3154297,4.3369141,9.3261719l0,0c0,0-0.0009766,0.0009766-0.0009766,0.0019531l0,0
	c0,0-0.0009766,0.0009766-0.0009766,0.0019531l0,0C4.3330078,9.3349609,4.3300781,9.3388672,4.328125,9.34375l0,0
	C4.3251953,9.3505859,4.3212891,9.3564453,4.3183594,9.3632813v0.0009766
	C4.3164063,9.3662109,4.3154297,9.3691406,4.3144531,9.3720703l0,0C4.3095703,9.3808594,4.3046875,9.390625,4.2998047,9.3994141l0,0
	C4.2929688,9.4121094,4.2871094,9.4257813,4.28125,9.4384766l0,0C4.2753906,9.4482422,4.2714844,9.4580078,4.265625,9.46875l0,0
	C4.2636719,9.4716797,4.2617188,9.4746094,4.2607422,9.4785156l0,0C4.2597656,9.4794922,4.2597656,9.4804688,4.2597656,9.4804688
	l0,0C4.2578125,9.4833984,4.2568359,9.4863281,4.2558594,9.4882813l0,0c0,0-0.0009766,0.0019531-0.0019531,0.0029297l0,0
	C4.25,9.5,4.2451172,9.5097656,4.2402344,9.5195313l0,0c0,0-0.0009766,0.0009766-0.0009766,0.0019531l0,0
	C4.2294922,9.5410156,4.2197266,9.5605469,4.2089844,9.5800781L4.2080078,9.5830078
	C4.2050781,9.5898438,4.2021484,9.5957031,4.1992188,9.6025391l0,0C4.1972656,9.6054688,4.1962891,9.6074219,4.1943359,9.6103516
	l0,0c0,0.0009766-0.0009766,0.0019531-0.0009766,0.0029297l0,0c0,0.0009766-0.0009766,0.0019531-0.0019531,0.0019531l0,0
	c0,0.0009766,0,0.0019531-0.0009766,0.0029297l0,0C4.1865234,9.6269531,4.1826172,9.6347656,4.1777344,9.6435547v0.0019531
	C4.15625,9.6875,4.1367188,9.7275391,4.1171875,9.7666016L4.1162109,9.7675781
	C4.0898438,9.8203125,4.0654297,9.8681641,4.0449219,9.9101563l0,0c0,0.0009766-0.0009766,0.0009766-0.0009766,0.0019531l0,0
	C4.0410156,9.9169922,4.0390625,9.9208984,4.0371094,9.9257813l0,0C4.0292969,9.9404297,4.0224609,9.9541016,4.0166016,9.9667969
	l0,0C4.0097656,9.9794922,4.0048828,9.9902344,4,9.9990234l0,0C4,10,4,10.0009766,3.9990234,10.0019531l0,0
	c-0.0009766,0.0029297-0.0029297,0.0058594-0.0048828,0.0078125l0,0c0,0.0009766,0,0.0009766,0,0.0009766v0.0009766
	c-0.0009766,0.0009766-0.0019531,0.0029297-0.0019531,0.0039063l0,0c-0.0048828,0.0107422-0.0097656,0.0185547-0.0117188,0.0244141
	l0,0c-0.0019531,0.0009766-0.0019531,0.0029297-0.0019531,0.0039063H3.9775391
	c-0.0009766,0.0029297-0.0019531,0.0048828-0.0029297,0.0058594l0,0l0,0l0,0l0.8945313,0.4472656l0.4472656-0.8945313
	L4.421875,9.1552734L4.421875,9.1552734z M3.5273438,10.9443359l-0.4433594,0.8876953l0,0l-0.0009766,0.0019531l0,0l0,0
	c-0.0009766,0.0019531-0.0019531,0.0039063-0.0019531,0.0048828l0,0l0,0l0,0l0.8935547,0.4472656l0.4472656-0.8945313
	L3.5273438,10.9443359L3.5273438,10.9443359z M2.6337891,12.7333984c0,0-0.1123047,0.2236328-0.2236328,0.4472656
	l-0.2236328,0.4472656l0.3974609,0.1982422V14c0,0,0.1572266,0,0.3476563,0l0,0h0.1865234l0,0c0.2382813,0,0.4658203,0,0.4658203,0
	v-1H3.1669922L2.6337891,12.7333984L2.6337891,12.7333984z M5.5839844,13H5H4.5839844v1H5h0.5839844V13L5.5839844,13z M8,12.4160156
	H7V13H6.5839844v1h1v-0.5839844H8V12.4160156L8,12.4160156z M8,10.4160156H7v1h1V10.4160156L8,10.4160156z M8,8.4160156H7v1h1
	V8.4160156L8,8.4160156z M8,6.4160156H7v1h1V6.4160156L8,6.4160156z M8,4.4160156H7v1h1V4.4160156L8,4.4160156z"/>
</svg>
