<?xml version="1.0" encoding="utf-8"?>
<!-- Generator: Adobe Illustrator 16.2.0, SVG Export Plug-In . SVG Version: 6.00 Build 0)  -->
<!DOCTYPE svg PUBLIC "-//W3C//DTD SVG 1.1//EN" "http://www.w3.org/Graphics/SVG/1.1/DTD/svg11.dtd">
<svg version="1.1" id="Слой_2" xmlns="http://www.w3.org/2000/svg" xmlns:xlink="http://www.w3.org/1999/xlink" x="0px" y="0px"
	 width="10px" height="16px" viewBox="0 0 10 16" enable-background="new 0 0 10 16" xml:space="preserve">
<g>
	<polygon fill="#E3EFFA" points="10,16 6,16 2,16 2,8 2,0 6,0 10,0 6,8 	"/>
</g>
<path fill="#71B1E4" d="M2,16h1v-1l0,0v-0.8886719H2V16L2,16z M4,16h1v-1H4V16L4,16z M6,16h1v-1H6V16L6,16z M8,16h2
	c0,0-0.0009766-0.0019531-0.0029297-0.0048828v-0.0009766l0,0v-0.0009766l-0.0009766-0.0009766l0,0l0,0l-0.0019531-0.0048828l0,0
	l-0.0019531-0.0039063l0,0l-0.4394531-0.8779297L9,15.3818359V15H8V16L8,16z M8.2109375,14.6582031l0.8945313-0.4472656
	l-0.4472656-0.8945313l-0.8945313,0.4472656L8.2109375,14.6582031L8.2109375,14.6582031z M7.3164063,12.8691406l0.8945313-0.4472656
	l-0.4404297-0.8808594c-0.0009766-0.0009766-0.0009766-0.0019531-0.0009766-0.0019531l-0.0009766-0.0009766
	c0-0.0009766,0-0.0009766,0-0.0009766l0,0c-0.0009766-0.0009766-0.0009766-0.0009766-0.0009766-0.0009766v-0.0009766
	c-0.0019531-0.0048828-0.0039063-0.0078125-0.0039063-0.0078125l-0.8945313,0.4472656L7.3164063,12.8691406L7.3164063,12.8691406z
	 M6.4228516,11.0810547l0.8935547-0.4472656L6.8691406,9.7392578l-0.8935547,0.4472656L6.4228516,11.0810547L6.4228516,11.0810547z
	 M5.5283203,9.2919922l0.8945313-0.4472656L6,8l0,0l0,0l0,0l0,0l0,0c0,0,0-0.0009766,0.0009766-0.0019531l0,0
	c0.0009766-0.0009766,0.0009766-0.0009766,0.0009766-0.0019531l0,0l0,0l0,0c0-0.0009766,0.0009766-0.0019531,0.0019531-0.0019531
	l0,0c0-0.0009766,0-0.0009766,0-0.0019531l0,0l0,0l0,0C6.0058594,7.9892578,6.0068359,7.9873047,6.0078125,7.984375l0,0
	c0.0019531-0.0029297,0.0029297-0.0058594,0.0039063-0.0087891l0.0009766-0.0009766l0,0l0,0V7.9736328l0,0l0.0009766-0.0009766l0,0
	l0,0l0.0009766-0.0009766C6.015625,7.9697266,6.015625,7.9677734,6.0175781,7.9658203l0,0V7.9648438l0,0l0.0009766-0.0019531l0,0
	V7.9619141l0,0c0.0009766-0.0009766,0.0009766-0.0009766,0.0009766-0.0009766V7.9599609l0.0009766-0.0009766l0,0l0,0l0,0
	c0.0009766,0,0-0.0009766,0-0.0009766l0,0l0.0009766-0.0009766l0,0C6.0224609,7.9550781,6.0234375,7.953125,6.0244141,7.9521484l0,0
	c0-0.0009766,0.0009766-0.0019531,0.0009766-0.0019531l0,0l0,0l0,0l0,0l0,0L5.1308594,7.5029297L5.1054688,7.5527344L4.8818359,8
	l0.2236328,0.4472656L5.5283203,9.2919922L5.5283203,9.2919922z M6.4726563,7.0556641l0.4433594-0.8876953l0,0l0.0009766-0.0019531
	l0,0l0,0c0.0009766-0.0019531,0.0019531-0.0039063,0.0019531-0.0048828l0,0l0,0l0,0L6.0253906,5.7138672L5.578125,6.6083984
	L6.4726563,7.0556641L6.4726563,7.0556641z M7.3662109,5.2666016c0,0,0.1123047-0.2236328,0.2236328-0.4472656l0.2236328-0.4472656
	L6.9189453,3.9248047L6.4726563,4.8193359L7.3662109,5.2666016L7.3662109,5.2666016z M8.2607422,3.4775391L8.2607422,3.4775391
	L8.2607422,3.4775391c0.0039063-0.0068359,0.4482422-0.8935547,0.4482422-0.8935547L7.8134766,2.1367188L7.3662109,3.03125
	L8.2607422,3.4775391L8.2607422,3.4775391z M9.15625,1.6894531L9.15625,1.6894531L9.15625,1.6894531
	c0-0.0009766,0.0068359-0.0146484,0.0185547-0.0390625l0,0C9.1875,1.6259766,9.2050781,1.5917969,9.2255859,1.5498047V1.5488281
	c0.0048828-0.0097656,0.0097656-0.0195313,0.0146484-0.0302734l0,0c0-0.0009766,0.0009766-0.0009766,0.0009766-0.0009766
	l0.0009766-0.0009766c0-0.0009766,0-0.0009766,0-0.0009766l0.0009766-0.0009766
	C9.2451172,1.5097656,9.2470703,1.5048828,9.25,1.5009766l0,0c0.0029297-0.0068359,0.0058594-0.0126953,0.0087891-0.0195313
	l0.0009766-0.0009766c0.0009766-0.0029297,0.0029297-0.0048828,0.0039063-0.0078125l0,0
	c0.0048828-0.0087891,0.0097656-0.0185547,0.0136719-0.0283203l0,0C9.2841797,1.4316406,9.2910156,1.4189453,9.296875,1.40625l0,0
	C9.3017578,1.3964844,9.3066406,1.3867188,9.3125,1.3759766l0,0c0.0009766-0.0029297,0.0029297-0.0068359,0.0039063-0.0097656l0,0
	c0.0009766-0.0009766,0.0009766-0.0019531,0.0019531-0.0029297l0,0c0.0009766-0.0019531,0.0019531-0.0048828,0.0039063-0.0068359
	l0,0c0-0.0009766,0.0009766-0.0019531,0.0009766-0.0019531V1.3535156C9.328125,1.34375,9.3320313,1.3349609,9.3378906,1.3251953l0,0
	c0-0.0009766,0-0.0019531,0-0.0019531V1.3222656c0.0107422-0.0185547,0.0205078-0.0380859,0.0302734-0.0585938l0.0009766-0.0019531
	c0.0039063-0.0068359,0.0068359-0.0136719,0.0097656-0.0195313l0,0C9.3808594,1.2392578,9.3818359,1.2363281,9.3828125,1.234375l0,0
	c0-0.0009766,0.0009766-0.0019531,0.0019531-0.0029297l0,0c0,0,0-0.0019531,0.0009766-0.0029297l0,0
	c0-0.0009766,0.0009766-0.0019531,0.0009766-0.0019531l0,0c0.0048828-0.0087891,0.0087891-0.0166016,0.0126953-0.0253906
	l0.0009766-0.0019531C9.421875,1.1572266,9.4414063,1.1162109,9.4609375,1.078125l0.0009766-0.0019531
	C9.4755859,1.0498047,9.4882813,1.0244141,9.5,1l0,0l0.3886719-0.7773438V0h-1v0.4375L8.7089844,0.3476563L8.2607422,1.2421875
	L9.15625,1.6894531L9.15625,1.6894531z M6.8886719,1h1V0h-1V1L6.8886719,1z M4.8886719,1h1V0h-1V1L4.8886719,1z M2,1.1113281h1V1
	h0.8886719V0h-1v0.1113281H2V1.1113281L2,1.1113281z M2,3.1113281h1v-1H2V3.1113281L2,3.1113281z M2,5.1113281h1v-1H2V5.1113281
	L2,5.1113281z M2,7.1113281h1v-1H2V7.1113281L2,7.1113281z M2,9.1113281h1v-1H2V9.1113281L2,9.1113281z M2,11.1113281h1v-1H2
	V11.1113281L2,11.1113281z M2,13.1113281h1v-1H2V13.1113281L2,13.1113281z"/>
</svg>
