<?xml version="1.0" encoding="utf-8"?>
<!-- Generator: Adobe Illustrator 16.2.0, SVG Export Plug-In . SVG Version: 6.00 Build 0)  -->
<!DOCTYPE svg PUBLIC "-//W3C//DTD SVG 1.1//EN" "http://www.w3.org/Graphics/SVG/1.1/DTD/svg11.dtd">
<svg version="1.1" id="Слой_2" xmlns="http://www.w3.org/2000/svg" xmlns:xlink="http://www.w3.org/1999/xlink" x="0px" y="0px"
	 width="10px" height="16px" viewBox="0 0 10 16" enable-background="new 0 0 10 16" xml:space="preserve">
<g>
	<path fill="#E3EFFA" d="M8,16V0C3.5820313,0,0,3.5820313,0,8S3.5820313,16,8,16z"/>
</g>
<path fill="#71B1E4" d="M8,0c0,0-0.0048828,0-0.0078125,0H7.9902344H7.9853516C7.984375,0,7.9833984,0,7.9833984,0H7.9775391
	H7.9746094C7.9736328,0,7.9716797,0,7.9716797,0H7.96875H7.9609375H7.9589844c0,0-0.0039063,0-0.0058594,0H7.9511719H7.9462891
	H7.9433594H7.9384766H7.9365234C7.9316406,0,7.9257813,0,7.921875,0H7.9189453c0,0-0.0029297,0-0.0048828,0H7.9121094H7.90625
	L7.9042969,0.0009766H7.8974609l0,0c-0.0029297,0-0.0058594,0-0.0058594,0H7.8886719H7.8828125H7.8798828H7.875
	c-0.0009766,0-0.0019531,0-0.0019531,0H7.8671875H7.8652344c-0.0048828,0-0.0097656,0-0.0146484,0L7.8486328,0.0019531H7.84375
	H7.8408203H7.8349609H7.8339844H7.8261719l0,0c-0.0029297,0-0.0048828,0-0.0048828,0H7.8183594H7.8105469H7.8085938
	c0,0-0.0029297,0-0.0048828,0H7.8027344L7.7949219,0.0029297l0,0h-0.015625H7.7783203H7.7714844H7.7705078
	c0,0-0.0048828,0-0.0068359,0.0009766H7.7626953c-0.0048828,0-0.0097656,0-0.0097656,0H7.7470703
	c-0.0029297,0-0.0048828,0-0.0048828,0H7.7392578H7.7324219H7.7314453C7.7207031,0.0048828,7.7109375,0.0048828,7.7011719,0.0058594
	H7.7001953C7.4648438,0.0136719,7.2324219,0.0332031,7.0019531,0.0615234l0.0097656,0.0742188H7v1h1V0L8,0z M6.0205078,0.2470703
	H6.0185547c0,0-0.0009766,0-0.0009766,0.0009766c-0.0029297,0-0.0058594,0.0009766-0.0087891,0.0019531H6.0058594
	c0,0.0009766-0.0019531,0.0009766-0.0019531,0.0009766C6.0019531,0.2519531,6,0.2519531,6,0.2519531
	C5.9980469,0.2529297,5.9970703,0.2529297,5.9970703,0.2529297C5.9941406,0.2539063,5.9931641,0.2539063,5.9931641,0.2539063
	L5.9892578,0.2548828c0,0-0.0048828,0.0009766-0.0068359,0.0019531H5.9814453L5.9755859,0.2587891
	c-0.0009766,0-0.0019531,0-0.0019531,0L5.96875,0.2597656L5.9667969,0.2607422
	C5.9648438,0.2617188,5.9628906,0.2617188,5.9628906,0.2617188L5.9589844,0.2626953c0,0-0.0048828,0.0009766-0.0068359,0.0019531
	H5.9511719c0,0-0.0039063,0.0009766-0.0068359,0.0019531H5.9433594c0,0-0.0039063,0.0009766-0.0058594,0.0019531H5.9365234
	C5.9316406,0.2695313,5.9257813,0.2714844,5.921875,0.2724609l0,0c0,0-0.0058594,0.0019531-0.0078125,0.0019531l0,0
	c-0.09375,0.0253906-0.1865234,0.0527344-0.2783203,0.0810547H5.6347656
	C5.6279297,0.3574219,5.6210938,0.359375,5.6132813,0.3623047H5.6123047
	C5.6103516,0.3632813,5.6074219,0.3632813,5.6074219,0.3632813C5.6054688,0.3642578,5.6054688,0.3642578,5.6054688,0.3642578
	C5.6005859,0.3662109,5.5957031,0.3671875,5.5908203,0.3691406H5.5898438c0,0-0.0039063,0.0019531-0.0058594,0.0019531
	L5.5820313,0.3720703c0,0-0.0039063,0.0009766-0.0058594,0.0009766L5.5751953,0.3740234
	C5.5722656,0.375,5.5703125,0.3759766,5.5703125,0.3759766L5.5673828,0.3769531L5.5615234,0.3789063
	c-0.0009766,0-0.0019531,0-0.0019531,0C5.5576172,0.3798828,5.5556641,0.3798828,5.5546875,0.3808594L5.5527344,0.3818359
	c-0.0019531,0-0.0039063,0.0009766-0.0048828,0.0009766c0,0-0.0019531,0.0009766-0.0029297,0.0009766
	C5.5429688,0.3847656,5.5410156,0.3847656,5.5390625,0.3857422c0,0-0.0019531,0.0009766-0.0039063,0.0009766
	c0,0-0.0019531,0.0009766-0.0029297,0.0009766L5.5292969,0.3886719L5.5253906,0.3896484
	C5.5244141,0.390625,5.5234375,0.390625,5.5234375,0.390625L5.5195313,0.3925781
	C5.5146484,0.3935547,5.5097656,0.3955078,5.5058594,0.3964844c-0.0009766,0-0.0019531,0.0009766-0.0019531,0.0009766
	c-0.0019531,0-0.0039063,0.0009766-0.0048828,0.0009766L5.4970703,0.3994141
	C5.4892578,0.4013672,5.4824219,0.4042969,5.4746094,0.40625l0,0c0,0-0.0039063,0.0019531-0.0058594,0.0019531l0,0
	c-0.1347656,0.0449219-0.2675781,0.09375-0.3994141,0.1455078L5.4355469,1.484375
	c0.2705078-0.1064453,0.5498047-0.1972656,0.8320313-0.2685547L6.0205078,0.2470703L6.0205078,0.2470703z M4.1640625,0.9775391
	C3.8710938,1.1386719,3.5888672,1.3164063,3.3193359,1.5117188l0.5859375,0.8105469
	c0.2353516-0.1708984,0.484375-0.328125,0.7392578-0.4667969L4.1640625,0.9775391L4.1640625,0.9775391z M2.546875,2.1464844
	C2.5234375,2.1679688,2.5,2.1904297,2.4755859,2.2128906l0,0C2.4648438,2.2246094,2.453125,2.2353516,2.4414063,2.2460938l0,0
	C2.4394531,2.2480469,2.4394531,2.2490234,2.4375,2.25c0,0.0009766,0,0.0009766,0,0.0009766
	c-0.0058594,0.0048828-0.0117188,0.0107422-0.0175781,0.015625v0.0009766
	C2.4179688,2.2685547,2.4169922,2.2705078,2.4160156,2.2714844l0,0C2.4111328,2.2753906,2.4072266,2.2792969,2.4033203,2.2832031
	c0,0.0009766-0.0009766,0.0009766-0.0009766,0.0009766C2.4013672,2.2851563,2.4003906,2.2871094,2.3984375,2.2880859v0.0009766
	C2.3945313,2.2929688,2.390625,2.296875,2.3867188,2.2998047c0,0.0009766-0.0009766,0.0009766-0.0009766,0.0009766
	C2.3847656,2.3027344,2.3828125,2.3037109,2.3818359,2.3046875L2.3808594,2.3056641
	C2.3789063,2.3066406,2.3789063,2.3085938,2.3769531,2.3095703l0,0C2.3740234,2.3125,2.3720703,2.3144531,2.3691406,2.3173828
	L2.3681641,2.3183594C2.3671875,2.3193359,2.3662109,2.3203125,2.3652344,2.3212891
	c0,0.0009766-0.0009766,0.0009766-0.0009766,0.0009766C2.3623047,2.3242188,2.3613281,2.3251953,2.3603516,2.3261719
	c0,0-0.0009766,0.0009766-0.0019531,0.0019531C2.3564453,2.3291016,2.3554688,2.3310547,2.3535156,2.3330078
	C2.3525391,2.3339844,2.3515625,2.3339844,2.3515625,2.3349609C2.3505859,2.3359375,2.3496094,2.3369141,2.3486328,2.3378906
	c0,0-0.0009766,0.0009766-0.0019531,0.0019531S2.3447266,2.3417969,2.34375,2.3427734c0,0-0.0019531,0.0009766-0.0019531,0.0019531
	C2.3408203,2.3457031,2.3398438,2.3466797,2.3398438,2.3466797C2.3378906,2.3486328,2.3359375,2.3505859,2.3349609,2.3515625
	S2.3330078,2.3535156,2.3320313,2.3544922S2.3300781,2.3554688,2.3300781,2.3564453
	C2.328125,2.3574219,2.328125,2.3583984,2.3271484,2.359375S2.3251953,2.3603516,2.3251953,2.3613281
	c0,0-0.0019531,0.0019531-0.0029297,0.0029297S2.3203125,2.3662109,2.3193359,2.3671875S2.3164063,2.3691406,2.3154297,2.3710938
	C2.3144531,2.3720703,2.3144531,2.3730469,2.3144531,2.3730469C2.3125,2.3740234,2.3115234,2.375,2.3105469,2.3759766
	S2.3085938,2.3779297,2.3076172,2.3789063c0,0-0.0009766,0.0009766-0.0019531,0.0019531S2.3046875,2.3828125,2.3027344,2.3837891
	C2.3017578,2.3847656,2.3007813,2.3857422,2.2988281,2.3876953c0,0.0009766-0.0009766,0.0019531-0.0019531,0.0029297
	c-0.0019531,0-0.0019531,0.0019531-0.0029297,0.0019531C2.2929688,2.3935547,2.2919922,2.3945313,2.2910156,2.3955078
	L2.2890625,2.3974609C2.2880859,2.3984375,2.2871094,2.3994141,2.2861328,2.4003906S2.2851563,2.4023438,2.2841797,2.4023438
	C2.2832031,2.4042969,2.28125,2.40625,2.2792969,2.4072266c0,0.0009766-0.0009766,0.0009766-0.0009766,0.0009766
	C2.2763672,2.4101563,2.2753906,2.4111328,2.2744141,2.4121094c0,0-0.0009766,0.0019531-0.0019531,0.0019531
	C2.2714844,2.4160156,2.2705078,2.4169922,2.2695313,2.4179688c0,0-0.0009766,0.0009766-0.0019531,0.0019531
	C2.265625,2.4208984,2.2646484,2.4228516,2.2636719,2.4248047c-0.0019531,0-0.0019531,0.0009766-0.0019531,0.0009766
	C2.2597656,2.4267578,2.2587891,2.4287109,2.2578125,2.4296875c0,0-0.0009766,0.0009766-0.0019531,0.0019531
	S2.2539063,2.4335938,2.2529297,2.4345703c0,0-0.0009766,0.0009766-0.0019531,0.0019531
	C2.25,2.4384766,2.2480469,2.4394531,2.2470703,2.4404297L2.2460938,2.4423828
	C2.2441406,2.4433594,2.2431641,2.4453125,2.2412109,2.4462891L2.2402344,2.4482422
	C2.2392578,2.4492188,2.2373047,2.4501953,2.2363281,2.4511719c0,0-0.0009766,0.0019531-0.0019531,0.0019531
	C2.2333984,2.4550781,2.2324219,2.4560547,2.2314453,2.4570313S2.2304688,2.4580078,2.2304688,2.4589844
	C2.2285156,2.4599609,2.2265625,2.4619141,2.2246094,2.4638672v0.0009766
	C2.2226563,2.4667969,2.2216797,2.4677734,2.2197266,2.46875L2.21875,2.4707031
	C2.2177734,2.4716797,2.2167969,2.4726563,2.2148438,2.4746094c0,0-0.0009766,0.0009766-0.0019531,0.0009766
	C2.2119141,2.4775391,2.2099609,2.4794922,2.2089844,2.4804688L2.2080078,2.4814453
	C2.2060547,2.4833984,2.2050781,2.484375,2.2041016,2.4863281c0,0-0.0009766,0.0009766-0.0019531,0.0009766
	C2.2011719,2.4882813,2.2001953,2.4902344,2.1992188,2.4912109S2.1972656,2.4921875,2.1972656,2.4931641
	C2.1953125,2.4941406,2.1943359,2.4960938,2.1923828,2.4980469c0,0-0.0009766,0-0.0009766,0.0009766
	C2.1904297,2.5,2.1894531,2.5019531,2.1875,2.5029297c0,0.0009766-0.0009766,0.0009766-0.0009766,0.0019531
	C2.1855469,2.5058594,2.1835938,2.5068359,2.1826172,2.5078125c0,0.0009766-0.0009766,0.0019531-0.0009766,0.0019531
	C2.1796875,2.5117188,2.1777344,2.5126953,2.1777344,2.5146484c-0.0009766,0-0.0019531,0-0.0019531,0
	C2.1748047,2.5166016,2.1728516,2.5185547,2.171875,2.5205078c-0.0009766,0-0.0019531,0.0009766-0.0019531,0.0019531
	C2.1689453,2.5234375,2.1679688,2.5244141,2.1660156,2.5253906c0,0.0009766,0,0.0009766-0.0009766,0.0019531
	S2.1621094,2.5292969,2.1621094,2.53125L2.1601563,2.5322266C2.1582031,2.5341797,2.15625,2.5361328,2.1552734,2.5371094
	c0,0.0009766-0.0009766,0.0009766-0.0009766,0.0019531C2.1523438,2.5400391,2.1513672,2.5410156,2.1503906,2.5429688
	c0,0-0.0009766,0.0009766-0.0019531,0.0019531S2.1464844,2.546875,2.1445313,2.5478516c0,0.0009766,0,0.0009766,0,0.0019531
	C2.1425781,2.5517578,2.140625,2.5527344,2.1386719,2.5546875v0.0009766
	C2.1367188,2.5566406,2.1357422,2.5585938,2.1347656,2.5605469c-0.0009766,0-0.0019531,0-0.0019531,0.0009766
	C2.1318359,2.5625,2.1308594,2.5644531,2.1289063,2.5654297c0,0.0009766,0,0.0009766,0,0.0009766
	C2.1259766,2.5683594,2.125,2.5703125,2.1240234,2.5712891S2.1230469,2.5722656,2.1230469,2.5722656
	C2.1210938,2.5742188,2.1201172,2.5761719,2.1181641,2.5771484C2.1171875,2.578125,2.1171875,2.578125,2.1171875,2.5791016
	C2.1152344,2.5800781,2.1142578,2.5810547,2.1132813,2.5830078L2.1113281,2.5839844
	C2.1103516,2.5859375,2.109375,2.5869141,2.1083984,2.5878906S2.1074219,2.5888672,2.1064453,2.5898438
	C2.1054688,2.5917969,2.1035156,2.5927734,2.1025391,2.5947266L2.1005859,2.5966797
	C2.0996094,2.5976563,2.0986328,2.5986328,2.0976563,2.5996094S2.0957031,2.6015625,2.0957031,2.6015625
	C2.0947266,2.6035156,2.09375,2.6044922,2.0917969,2.6054688c0,0.0009766-0.0009766,0.0009766-0.0009766,0.0009766
	C2.0898438,2.609375,2.0878906,2.6103516,2.0859375,2.6123047v0.0009766
	C2.0839844,2.6152344,2.0830078,2.6162109,2.0820313,2.6171875S2.0800781,2.6191406,2.0800781,2.6191406
	C2.078125,2.6201172,2.0771484,2.6210938,2.0761719,2.6230469c0,0-0.0009766,0.0009766-0.0009766,0.0019531
	C2.0732422,2.6259766,2.0722656,2.6269531,2.0712891,2.6289063L2.0703125,2.6298828
	C2.0683594,2.6318359,2.0673828,2.6328125,2.0664063,2.6347656c0,0-0.0019531,0.0019531-0.0029297,0.0019531
	C2.0625,2.6376953,2.0625,2.6386719,2.0615234,2.6396484S2.0595703,2.6416016,2.0595703,2.6416016
	C2.0576172,2.6435547,2.0566406,2.6445313,2.0556641,2.6455078c0,0.0009766-0.0009766,0.0009766-0.0009766,0.0019531
	C2.0527344,2.6494141,2.0517578,2.6503906,2.0498047,2.6523438C2.0488281,2.6533203,2.0488281,2.6542969,2.0478516,2.6542969
	C2.046875,2.65625,2.0458984,2.65625,2.0458984,2.65625C2.0449219,2.6582031,2.0429688,2.6591797,2.0429688,2.6601563
	C2.0419922,2.6611328,2.0410156,2.6621094,2.0410156,2.6621094C2.0400391,2.6630859,2.0390625,2.6640625,2.0380859,2.6650391
	S2.0371094,2.6669922,2.0371094,2.6669922C2.0351563,2.6689453,2.0332031,2.6708984,2.03125,2.6728516
	c0,0.0009766-0.0009766,0.0009766-0.0019531,0.0019531c0,0.0009766-0.0019531,0.0019531-0.0029297,0.0029297
	c0,0.0009766-0.0009766,0.0019531-0.0009766,0.0019531C2.0234375,2.6816406,2.0234375,2.6816406,2.0224609,2.6835938
	c-0.0009766,0-0.0009766,0.0009766-0.0009766,0.0009766C2.0195313,2.6865234,2.0175781,2.6884766,2.015625,2.6914063
	c-0.0009766,0-0.0009766,0.0009766-0.0019531,0.0009766C2.0126953,2.6933594,2.0117188,2.6953125,2.0117188,2.6962891
	c-0.0019531,0-0.0019531,0.0009766-0.0019531,0.0009766C2.0078125,2.6992188,2.0078125,2.7001953,2.0058594,2.7011719v0.0009766
	C2.0019531,2.7060547,1.9980469,2.7099609,1.9941406,2.7138672v0.0009766
	C1.9921875,2.7167969,1.9912109,2.7177734,1.9902344,2.71875L1.9892578,2.7197266
	C1.984375,2.7265625,1.9794922,2.7314453,1.9746094,2.7373047L1.9736328,2.7382813
	C1.96875,2.7441406,1.9638672,2.7490234,1.9589844,2.7558594l0,0C1.9248047,2.7939453,1.8925781,2.8320313,1.859375,2.8710938
	l0.7675781,0.6416016c0.1865234-0.2226563,0.3896484-0.4365234,0.6015625-0.6347656L2.546875,2.1464844L2.546875,2.1464844z
	 M1.2675781,3.6767578L1.2675781,3.6767578C1.2666016,3.6787109,1.265625,3.6806641,1.2646484,3.6816406L1.2636719,3.6835938
	C1.2617188,3.6855469,1.2617188,3.6875,1.2597656,3.6894531c0,0,0,0.0009766-0.0009766,0.0009766
	C1.2578125,3.6923828,1.2568359,3.6933594,1.2558594,3.6953125c-0.0009766,0-0.0009766,0.0009766-0.0019531,0.0019531
	c0,0-0.0009766,0.0029297-0.0019531,0.0039063L1.2509766,3.703125C1.25,3.7050781,1.2480469,3.7070313,1.2470703,3.7089844
	L1.2460938,3.7099609c0,0.0019531-0.0019531,0.0029297-0.0029297,0.0048828
	C1.2421875,3.7158203,1.2421875,3.7158203,1.2421875,3.7167969C1.2412109,3.71875,1.2402344,3.7197266,1.2392578,3.7216797
	L1.2382813,3.7226563C1.2353516,3.7265625,1.2324219,3.7314453,1.2304688,3.7353516L1.2294922,3.7363281
	C1.2285156,3.7382813,1.2275391,3.7402344,1.2265625,3.7412109L1.2255859,3.7421875
	C1.2226563,3.7470703,1.2207031,3.7509766,1.2177734,3.7548828v0.0009766
	C1.2167969,3.7578125,1.2148438,3.7597656,1.2138672,3.7617188H1.2128906
	C1.2089844,3.7685547,1.2050781,3.7753906,1.2011719,3.78125v0.0009766
	C1.0927734,3.9560547,0.9912109,4.1347656,0.8964844,4.3173828l0,0C0.8945313,4.3203125,0.8935547,4.3222656,0.8925781,4.3242188
	l0,0C0.8896484,4.3291016,0.8876953,4.3339844,0.8857422,4.3378906L0.8847656,4.3388672
	c0,0.0019531-0.0019531,0.0039063-0.0029297,0.0058594v0.0009766C0.8789063,4.3505859,0.8769531,4.3544922,0.8740234,4.359375l0,0
	C0.8730469,4.3613281,0.8720703,4.3632813,0.8710938,4.3652344L0.8701172,4.3671875
	C0.8691406,4.3691406,0.8691406,4.3710938,0.8671875,4.3730469l0,0C0.8662109,4.3759766,0.8652344,4.3779297,0.8642578,4.3798828
	L0.8632813,4.3808594C0.8623047,4.3828125,0.8613281,4.3847656,0.8603516,4.3867188L0.859375,4.3876953
	C0.8583984,4.3896484,0.8583984,4.3916016,0.8574219,4.3925781S0.8564453,4.3945313,0.8564453,4.3945313
	C0.8554688,4.3974609,0.8544922,4.3994141,0.8535156,4.4013672l0,0C0.8515625,4.4033203,0.8515625,4.4052734,0.8496094,4.4072266
	c0,0.0009766,0,0.0019531-0.0009766,0.0029297S0.8476563,4.4121094,0.8466797,4.4140625
	C0.8457031,4.4150391,0.8457031,4.4150391,0.8457031,4.4160156c0,0.0019531-0.0019531,0.0029297-0.0019531,0.0039063
	C0.8427734,4.4208984,0.8427734,4.421875,0.8417969,4.4228516c0,0.0019531-0.0009766,0.0039063-0.0019531,0.0058594
	C0.8388672,4.4296875,0.8378906,4.4306641,0.8378906,4.4316406S0.8369141,4.4335938,0.8359375,4.4345703
	c0,0.0009766-0.0009766,0.0019531-0.0009766,0.0039063C0.8339844,4.4394531,0.8339844,4.4394531,0.8339844,4.4404297
	C0.8330078,4.4423828,0.8320313,4.4433594,0.8320313,4.4443359C0.8310547,4.4453125,0.8310547,4.4462891,0.8300781,4.4472656
	C0.8291016,4.4492188,0.828125,4.4511719,0.8261719,4.4541016c0,0,0,0.0009766,0,0.0019531
	C0.8251953,4.4570313,0.8242188,4.4589844,0.8242188,4.4599609c0,0-0.0009766,0.0009766-0.0009766,0.0019531
	C0.8222656,4.4628906,0.8212891,4.4648438,0.8212891,4.4658203L0.8203125,4.4677734
	C0.8183594,4.4726563,0.8154297,4.4775391,0.8134766,4.4824219L0.8125,4.4833984
	c0,0.0009766-0.0009766,0.0029297-0.0019531,0.0048828H0.8095703C0.8066406,4.4960938,0.8027344,4.5029297,0.7998047,4.5097656
	H0.7988281C0.7929688,4.5234375,0.7871094,4.5361328,0.7802734,4.5488281l0.9023438,0.4316406
	c0.125-0.2617188,0.2685547-0.5185547,0.4257813-0.7626953L1.2675781,3.6767578L1.2675781,3.6767578z M0.40625,5.4755859
	C0.3964844,5.5078125,0.3857422,5.5390625,0.375,5.5712891l0,0C0.3730469,5.5791016,0.3701172,5.5859375,0.3681641,5.5927734
	c0,0.0009766,0,0.0019531,0,0.0019531C0.3671875,5.5966797,0.3671875,5.5986328,0.3662109,5.5996094
	c0,0.0009766,0,0.0019531-0.0009766,0.0019531c0,0.0019531-0.0009766,0.0039063-0.0009766,0.0058594
	c0,0-0.0009766,0.0009766-0.0009766,0.0019531c0,0.0019531-0.0019531,0.0039063-0.0019531,0.0058594
	c0,0.0009766,0,0.0019531-0.0009766,0.0029297S0.359375,5.6210938,0.359375,5.6220703S0.3583984,5.6240234,0.3583984,5.625
	C0.3574219,5.6269531,0.3574219,5.6279297,0.3574219,5.6289063C0.3564453,5.6298828,0.3564453,5.6308594,0.3554688,5.6318359
	c0.0009766,0.0009766,0,0.0019531,0,0.0029297C0.3535156,5.6396484,0.3525391,5.6445313,0.3505859,5.6494141v0.0009766
	C0.3496094,5.6523438,0.3496094,5.6542969,0.3486328,5.65625v0.0009766
	C0.2802734,5.8798828,0.2216797,6.1074219,0.1728516,6.3378906c0,0.0009766,0,0.0009766,0,0.0009766
	C0.171875,6.3408203,0.171875,6.3427734,0.171875,6.3447266c-0.0009766,0-0.0009766,0.0009766-0.0009766,0.0009766
	c0,0.0019531-0.0009766,0.0039063-0.0009766,0.0058594l0,0C0.1689453,6.3554688,0.1689453,6.3583984,0.1679688,6.3613281
	c0,0.0009766,0,0.0019531,0,0.0019531C0.1669922,6.3652344,0.1669922,6.3662109,0.1669922,6.3671875
	C0.1660156,6.3681641,0.1660156,6.3691406,0.1660156,6.3710938c0,0,0,0.0019531-0.0009766,0.0029297
	c0,0.0009766,0,0.0029297,0,0.0039063C0.1640625,6.3789063,0.1640625,6.3798828,0.1640625,6.3808594
	C0.1630859,6.3837891,0.1630859,6.3857422,0.1621094,6.3876953v0.0009766c0,0.0019531,0,0.0039063-0.0009766,0.0058594
	C0.1601563,6.3955078,0.1601563,6.3964844,0.1601563,6.3974609s0,0.0029297-0.0009766,0.0048828
	c0,0.0009766,0,0.0009766,0,0.0009766C0.1582031,6.40625,0.1582031,6.4082031,0.1582031,6.4101563L0.1572266,6.4111328
	C0.15625,6.4160156,0.15625,6.4208984,0.1542969,6.4257813c0,0.0009766,0,0.0009766,0,0.0009766
	c0,0.0029297-0.0009766,0.0048828-0.0009766,0.0068359v0.0009766C0.1523438,6.4375,0.1523438,6.4394531,0.1513672,6.4423828
	l0.9814453,0.1933594c0.0566406-0.2851563,0.1308594-0.5693359,0.2226563-0.8447266L0.40625,5.4755859L0.40625,5.4755859z
	 M0.0195313,7.4326172C0.0175781,7.4628906,0.015625,7.4941406,0.0136719,7.5244141v0.0009766
	c0,0.0058594,0,0.0107422-0.0009766,0.0166016c0,0.0009766,0,0.0019531,0,0.0019531
	c0,0.0019531-0.0009766,0.0039063-0.0009766,0.0048828s0,0.0019531,0,0.0029297c0,0.0029297,0,0.0048828,0,0.0087891
	c0,0,0,0.0019531,0,0.0029297s0,0.0029297,0,0.0039063s0,0.0019531-0.0009766,0.0039063
	c0,0.0009766,0,0.0019531,0.0009766,0.0039063c0,0.0019531,0,0.0029297-0.0009766,0.0048828
	c0,0.0019531,0,0.0029297-0.0009766,0.0039063c0,0.0019531,0,0.0039063,0,0.0058594c0,0.0009766,0,0.0019531,0,0.0029297
	c0,0.0019531,0,0.0039063,0,0.0048828s0,0.0019531,0,0.0029297c0,0.0029297,0,0.0048828,0,0.0078125
	C0.0087891,7.609375,0.0087891,7.609375,0.0087891,7.609375c0,0.0029297,0.0009766,0.0048828,0.0009766,0.0068359
	c0,0.0009766,0,0.0019531,0,0.0029297C0.0087891,7.6210938,0.0087891,7.6240234,0.0078125,7.6259766v0.0009766
	c0,0.0019531,0,0.0048828,0,0.0078125v0.0019531c0,0.0019531,0,0.0039063,0,0.0068359v0.0009766
	c0,0.0029297,0,0.0058594-0.0009766,0.0087891l0,0c0,0.0029297,0,0.0048828,0,0.0078125c0,0.0009766,0,0.0009766,0,0.0009766
	c0,0.0029297,0,0.0058594-0.0009766,0.0087891l0,0c0,0.0029297,0,0.0058594,0,0.0087891l0,0c0,0.0029297,0,0.0058594,0,0.0078125
	v0.0009766c0,0.0058594,0,0.0117188,0,0.0175781c0,0,0,0,0,0.0009766C0.0048828,7.7089844,0.0048828,7.7119141,0.0048828,7.7148438
	l0,0c0,0.0058594,0,0.0117188-0.0009766,0.0175781l0,0c0,0.0068359,0,0.0117188,0,0.0175781v0.0009766
	c0,0.0029297,0,0.0048828,0,0.0078125v0.0009766C0.0029297,7.765625,0.0029297,7.7714844,0.0029297,7.7763672v0.0009766
	c0,0.0029297,0,0.0058594,0,0.0087891l0,0c0,0.0029297,0,0.0058594,0,0.0087891l0,0
	C0.0019531,7.7978516,0.0019531,7.8007813,0.0019531,7.8027344v0.0019531c0,0.0048828,0,0.0107422,0,0.0166016v0.0009766
	c0,0.0029297,0,0.0048828,0,0.0078125v0.0009766c0,0.0029297,0,0.0058594,0,0.0087891l0,0c0,0.0019531,0,0.0048828,0,0.0078125
	v0.0019531c0,0.0019531-0.0009766,0.0048828-0.0009766,0.0078125l0,0c0,0.0029297,0,0.0058594,0,0.0078125v0.0019531
	c0,0.0019531,0,0.0048828,0,0.0068359c0,0.0009766,0,0.0009766,0,0.0019531c0,0.0048828,0,0.0107422,0,0.0166016
	c0,0,0,0,0,0.0009766c0,0.0029297,0,0.0048828-0.0009766,0.0078125c0,0,0,0,0,0.0009766c0,0.0029297,0,0.0048828,0,0.0078125
	v0.0009766c0,0.0029297,0,0.0048828,0,0.0078125c0,0,0,0.0009766,0,0.0019531c0,0.0019531,0,0.0048828,0,0.0068359v0.0009766
	c0,0.0029297,0,0.0048828,0,0.0078125v0.0019531c0,0.0029297,0,0.0048828,0,0.0068359c0,0,0,0.0009766,0,0.0019531
	c0,0.0019531,0,0.0048828,0,0.0078125c0,0.0009766,0,0.0009766,0,0.0009766c0,0.0029297,0,0.0048828,0,0.0068359
	c0,0.0009766,0,0.0019531,0,0.0029297c0,0.0019531,0,0.0039063,0,0.0058594c0,0.0009766,0,0.0009766,0,0.0019531
	c0,0.0029297,0,0.0048828,0,0.0078125c0,0.0009766,0,0.0009766,0,0.0019531c0,0.0019531,0,0.0039063,0,0.0068359
	c0,0,0,0.0009766,0,0.0019531C0,7.9941406,0,7.9970703,0,8l0,0c0,0.0019531,0,0.0048828,0,0.0068359v0.0009766
	c0,0.0019531,0,0.0039063,0,0.0058594c0,0,0,0.0009766,0,0.0019531c0,0.0019531,0,0.0029297,0,0.0039063s0,0.0019531,0,0.0019531
	c0,0.0019531,0,0.0039063,0,0.0048828v0.0029297c0,0.0009766,0,0.0029297,0,0.0039063s0,0.0019531,0,0.0029297
	s0,0.0029297,0,0.0039063s0,0.0019531,0,0.0019531C0,8.0439453,0,8.0449219,0,8.046875c0,0,0,0.0009766,0,0.0019531
	c0,0.0019531,0,0.0029297,0,0.0048828c0,0.0009766,0,0.0009766,0,0.0019531s0,0.0029297,0,0.0048828v0.0009766
	c0,0.0019531,0,0.0039063,0,0.0058594v0.0009766c0,0.0019531,0,0.0039063,0,0.0058594v0.0009766
	c0,0.0019531,0,0.0039063,0,0.0058594v0.0009766c0,0.0019531,0,0.0039063,0,0.0058594l0,0c0,0.0029297,0,0.0048828,0,0.0068359l0,0
	c0.0019531,0.1132813,0.0058594,0.2255859,0.0117188,0.3369141l0,0l0.9980469-0.0527344C1.0029297,8.2539063,1,8.1269531,1,8
	c0-0.1669922,0.0058594-0.3330078,0.0175781-0.4980469L0.0195313,7.4326172L0.0195313,7.4326172z M1.1103516,9.2480469
	l-0.984375,0.1767578c0.0107422,0.0585938,0.0224609,0.1162109,0.0341797,0.1748047v0.0009766
	c0,0.0009766,0,0.0029297,0.0009766,0.0048828l0.0009766,0.0009766c0,0.0019531,0,0.0039063,0,0.0058594v0.0009766
	c0.0019531,0.0048828,0.0029297,0.0107422,0.0039063,0.015625c0,0.0009766,0,0.0019531,0,0.0019531
	c0.0009766,0.0019531,0.0009766,0.0029297,0.0019531,0.0048828c0,0,0,0.0009766,0,0.0019531
	c0,0.0019531,0,0.0029297,0.0009766,0.0048828v0.0009766c0.0009766,0.0039063,0.0009766,0.0068359,0.0019531,0.0097656
	c0,0.0009766,0,0.0009766,0,0.0009766C0.171875,9.65625,0.171875,9.6582031,0.171875,9.6591797
	c0.0009766,0.0009766,0.0009766,0.0019531,0.0009766,0.0029297c0,0.0019531,0,0.0019531,0.0009766,0.0039063
	c0,0.0009766,0,0.0019531,0,0.0029297S0.1748047,9.671875,0.1748047,9.6728516s0.0009766,0.0019531,0.0009766,0.0029297
	c0,0.0019531,0.0009766,0.0039063,0.0009766,0.0058594c0.0009766,0.0019531,0.0009766,0.0029297,0.0009766,0.0039063
	c0,0.0019531,0,0.0029297,0.0009766,0.0039063s0.0009766,0.0019531,0.0009766,0.0039063c0,0.0009766,0,0.0019531,0,0.0029297
	c0.0009766,0.0009766,0.0009766,0.0029297,0.0019531,0.0039063c0,0.0009766,0,0.0019531,0,0.0029297
	c0,0.0019531,0.0009766,0.0048828,0.0019531,0.0068359v0.0009766c0,0.0019531,0.0009766,0.0039063,0.0009766,0.0058594
	c0,0.0009766,0.0009766,0.0019531,0.0009766,0.0029297s0,0.0029297,0.0009766,0.0048828v0.0009766
	C0.1875,9.7285156,0.1875,9.7294922,0.1884766,9.7314453L0.1875,9.7333984
	c0.0009766,0.0029297,0.0019531,0.0048828,0.0019531,0.0068359v0.0009766
	c0.0009766,0.0019531,0.0009766,0.0048828,0.0019531,0.0068359v0.0009766
	c0.0009766,0.0019531,0.0009766,0.0039063,0.0019531,0.0058594c0,0.0009766,0,0.0009766,0,0.0009766
	c0,0.0029297,0.0009766,0.0048828,0.0019531,0.0078125l0,0c0,0.0029297,0.0009766,0.0048828,0.0019531,0.0078125l0,0
	c0,0.0019531,0,0.0048828,0.0009766,0.0068359c0,0,0,0.0009766,0.0009766,0.0009766c0,0.0019531,0,0.0048828,0.0009766,0.0068359
	v0.0009766C0.2021484,9.7939453,0.203125,9.8017578,0.2050781,9.8095703l0,0
	c0.0029297,0.0097656,0.0048828,0.0205078,0.0078125,0.0302734l0,0c0.0224609,0.0966797,0.046875,0.1923828,0.0732422,0.2871094l0,0
	c0,0.0029297,0.0009766,0.0048828,0.0019531,0.0078125l0,0c0.0019531,0.0078125,0.0039063,0.0146484,0.0058594,0.0214844
	c0,0.0009766,0,0.0009766,0,0.0019531c0.0009766,0.0019531,0.0009766,0.0039063,0.0019531,0.0058594l0.0009766,0.0009766
	c0.0009766,0.0048828,0.0019531,0.0097656,0.0039063,0.0146484c0,0,0,0,0,0.0009766
	c0,0.0019531,0.0009766,0.0039063,0.0019531,0.0048828c0,0.0009766,0,0.0019531,0,0.0029297
	c0.0009766,0.0009766,0.0019531,0.0029297,0.0019531,0.0048828c0,0,0,0.0009766,0,0.0019531
	c0.0009766,0.0019531,0.0019531,0.0039063,0.0019531,0.0058594c0,0.0009766,0,0.0019531,0,0.0019531
	c0.0009766,0.0019531,0.0019531,0.0039063,0.0019531,0.0058594c0,0,0,0.0019531,0.0009766,0.0029297
	c0,0.0009766,0.0009766,0.0019531,0.0009766,0.0029297c0.0009766,0.0019531,0,0.0029297,0.0019531,0.0039063
	c0,0.0009766,0,0.0019531,0,0.0019531c0.0009766,0.0019531,0,0.0039063,0.0009766,0.0048828
	c0,0.0009766,0.0009766,0.0009766,0.0009766,0.0009766c0,0.0039063,0.0019531,0.0068359,0.0019531,0.0097656l0.0009766,0.0009766
	c0,0.0019531,0.0009766,0.0039063,0.0009766,0.0048828l0.0009766,0.0019531c0,0.0019531,0.0009766,0.0029297,0.0009766,0.0048828
	V10.25c0.0146484,0.0478516,0.0292969,0.0976563,0.0449219,0.1455078l0.9541016-0.2988281
	C1.2324219,9.8193359,1.1621094,9.5341797,1.1103516,9.2480469L1.1103516,9.2480469z M1.6328125,10.9121094L0.7226563,11.328125
	c0.0185547,0.0410156,0.0371094,0.0810547,0.0566406,0.1210938l0,0c0.0039063,0.0068359,0.0068359,0.0136719,0.0097656,0.0205078
	l0.0009766,0.0009766c0.0009766,0.0019531,0.0019531,0.0039063,0.0029297,0.0058594v0.0009766
	c0.0019531,0.0048828,0.0048828,0.0087891,0.0068359,0.0136719c0,0,0,0,0.0009766,0.0009766
	c0,0.0019531,0.0019531,0.0039063,0.0019531,0.0048828s0.0009766,0.0019531,0.0009766,0.0019531
	c0.0009766,0.0019531,0.0019531,0.0039063,0.0029297,0.0048828c0,0.0009766,0,0.0019531,0,0.0019531
	c0.0009766,0.0019531,0.0019531,0.0039063,0.0039063,0.0058594c0,0.0009766,0,0.0009766,0,0.0009766
	C0.8115234,11.5146484,0.8125,11.5166016,0.8125,11.5185547c0,0,0.0019531,0.0009766,0.0019531,0.0019531
	c0.0009766,0.0019531,0.0009766,0.0029297,0.0019531,0.0048828c0,0,0.0009766,0.0009766,0.0009766,0.0019531
	c0.0009766,0.0019531,0.0019531,0.0039063,0.0029297,0.0048828v0.0009766
	c0.0009766,0.0019531,0.0019531,0.0048828,0.0029297,0.0068359c0.0009766,0.0009766,0.0009766,0.0009766,0.0019531,0.0019531
	c0,0.0009766,0.0009766,0.0029297,0.0009766,0.0039063c0.0009766,0.0009766,0.0019531,0.0019531,0.0019531,0.0029297
	s0.0019531,0.0019531,0.0019531,0.0039063c0,0.0009766,0.0009766,0.0019531,0.0009766,0.0019531
	c0.0009766,0.0019531,0.0019531,0.0039063,0.0029297,0.0058594c0.0009766,0.0009766,0.0009766,0.0019531,0.0019531,0.0029297
	c0,0.0009766,0.0009766,0.0029297,0.0019531,0.0039063c0,0.0009766,0,0.0019531,0.0009766,0.0029297
	s0.0009766,0.0019531,0.0019531,0.0029297c0,0.0009766,0.0009766,0.0019531,0.0009766,0.0029297
	c0,0.0019531,0.0019531,0.0019531,0.0019531,0.0039063s0.0019531,0.0039063,0.0029297,0.0058594
	c0.0009766,0,0.0009766,0.0019531,0.0009766,0.0019531c0.0009766,0.0019531,0.0019531,0.0029297,0.0019531,0.0039063
	S0.8505859,11.59375,0.8505859,11.59375c0.0009766,0.0019531,0.0019531,0.0029297,0.0019531,0.0039063
	c0.0009766,0.0009766,0.0009766,0.0019531,0.0019531,0.0029297c0.0019531,0.0048828,0.0039063,0.0087891,0.0058594,0.0126953
	c0.0009766,0.0009766,0.0009766,0.0019531,0.0009766,0.0019531c0.0009766,0.0019531,0.0019531,0.0029297,0.0029297,0.0039063
	c0,0.0009766,0,0.0019531,0.0009766,0.0029297c0,0.0009766,0.0009766,0.0019531,0.0019531,0.0039063c0,0,0,0,0,0.0009766
	c0.0019531,0.0029297,0.0029297,0.0058594,0.0048828,0.0078125c0,0.0009766,0,0.0019531,0.0009766,0.0019531
	c0,0.0019531,0.0009766,0.0029297,0.0009766,0.0039063C0.875,11.6416016,0.875,11.6425781,0.875,11.6425781
	c0.0009766,0.0019531,0.0019531,0.0029297,0.0019531,0.0048828l0.0019531,0.0009766
	c0.0019531,0.0048828,0.0039063,0.0097656,0.0068359,0.0136719l0.0009766,0.0019531
	c0,0.0009766,0.0009766,0.0029297,0.0019531,0.0039063c0,0.0009766,0,0.0009766,0.0009766,0.0019531
	c0.0019531,0.0048828,0.0048828,0.0097656,0.0078125,0.0146484l0,0c0.0009766,0.0019531,0.0019531,0.0039063,0.0029297,0.0048828
	v0.0019531c0.0009766,0.0009766,0.0019531,0.0029297,0.0029297,0.0039063v0.0009766
	c0.0019531,0.0048828,0.0048828,0.0097656,0.0078125,0.0146484c0,0.0009766,0,0.0009766,0,0.0009766
	c0.0009766,0.0019531,0.0019531,0.0029297,0.0029297,0.0048828v0.0009766
	c0.0029297,0.0048828,0.0058594,0.0097656,0.0078125,0.015625h0.0009766
	c0.0009766,0.0019531,0.0009766,0.0029297,0.0019531,0.0048828c0.0009766,0,0.0009766,0,0.0009766,0
	c0.0039063,0.0078125,0.0078125,0.0146484,0.0107422,0.0214844H0.9375c0.0039063,0.0097656,0.0087891,0.0175781,0.0136719,0.0273438
	l0,0c0.0039063,0.0068359,0.0078125,0.0136719,0.0117188,0.0205078v0.0009766
	c0.0009766,0.0009766,0.0019531,0.0029297,0.0029297,0.0048828l0,0c0.0039063,0.0068359,0.0068359,0.0136719,0.0107422,0.0205078
	v0.0009766c0.0048828,0.0068359,0.0078125,0.0136719,0.0117188,0.0205078l0,0
	C0.9921875,11.8632813,0.9960938,11.8691406,1,11.8769531l0,0c0.0039063,0.0068359,0.0078125,0.0136719,0.0117188,0.0205078
	v0.0009766c0.0019531,0.0009766,0.0029297,0.0029297,0.0039063,0.0048828l0,0
	c0.0039063,0.0068359,0.0068359,0.0136719,0.0107422,0.0205078c0,0,0.0009766,0,0.0009766,0.0009766
	c0.0009766,0.0019531,0.0019531,0.0029297,0.0029297,0.0048828l0,0c0.0029297,0.0048828,0.0058594,0.0107422,0.0087891,0.015625l0,0
	c0.0009766,0.0019531,0.0019531,0.0029297,0.0019531,0.0048828l0.0009766,0.0009766
	c0.0029297,0.0048828,0.0058594,0.0097656,0.0087891,0.0146484v0.0009766
	c0.0009766,0.0009766,0.0019531,0.0019531,0.0029297,0.0039063l0.0009766,0.0019531
	c0,0.0009766,0.0009766,0.0019531,0.0019531,0.0039063l0.0009766,0.0009766
	c0.0019531,0.0048828,0.0048828,0.0097656,0.0078125,0.0136719c0,0.0009766,0.0009766,0.0009766,0.0009766,0.0019531
	s0.0019531,0.0029297,0.0019531,0.0039063s0.0009766,0.0009766,0.0009766,0.0019531
	C1.0703125,12,1.0712891,12.0019531,1.0722656,12.0029297v0.0009766c0.0019531,0.0029297,0.0029297,0.0048828,0.0048828,0.0078125
	c0,0.0009766,0.0009766,0.0019531,0.0009766,0.0019531c0,0.0009766,0.0019531,0.0029297,0.0019531,0.0039063
	c0.0009766,0.0009766,0.0009766,0.0009766,0.0019531,0.0019531c0,0.0009766,0.0009766,0.0029297,0.0019531,0.0039063
	c0,0.0009766,0.0009766,0.0019531,0.0019531,0.0029297c0,0.0019531,0.0009766,0.0029297,0.0029297,0.0048828
	c0,0.0009766,0.0009766,0.0019531,0.0009766,0.0019531c0.0009766,0.0019531,0.0019531,0.0039063,0.0019531,0.0048828
	c0.0009766,0.0009766,0.0009766,0.0009766,0.0019531,0.0029297c0,0,0.0019531,0.0019531,0.0019531,0.0029297
	s0.0009766,0.0019531,0.0019531,0.0029297c0,0.0009766,0.0009766,0.0019531,0.0019531,0.0029297
	c0.0009766,0.0019531,0.0019531,0.0039063,0.0029297,0.0048828s0.0009766,0.0019531,0.0009766,0.0019531
	c0.0009766,0.0019531,0.0019531,0.0029297,0.0029297,0.0048828c0,0.0009766,0,0.0009766,0.0009766,0.0019531
	s0.0019531,0.0029297,0.0019531,0.0039063c0,0,0.0009766,0.0019531,0.0019531,0.0029297
	c0,0.0009766,0.0019531,0.0029297,0.0029297,0.0039063l0.0009766,0.0019531
	c0.0009766,0.0019531,0.0019531,0.0039063,0.0029297,0.0058594c0,0,0.0009766,0.0009766,0.0009766,0.0019531
	c0.0009766,0.0009766,0.0019531,0.0029297,0.0019531,0.0039063c0.0009766,0.0009766,0.0019531,0.0019531,0.0019531,0.0019531
	C1.1240234,12.0917969,1.125,12.0927734,1.1259766,12.0947266l0.0009766,0.0009766
	c0.0009766,0.0019531,0.0019531,0.0048828,0.0039063,0.0068359v0.0009766
	c0.0009766,0.0019531,0.0019531,0.0039063,0.0039063,0.0048828v0.0009766
	c0.0019531,0.0019531,0.0019531,0.0039063,0.0039063,0.0058594v0.0009766
	C1.1416016,12.1201172,1.1445313,12.125,1.1464844,12.1289063c0,0,0,0,0,0.0009766
	c0.0019531,0.0019531,0.0029297,0.0039063,0.0039063,0.0058594l0,0c0.015625,0.0244141,0.0302734,0.0488281,0.0449219,0.0732422
	l0.8496094-0.5273438C1.8916016,11.4345703,1.7529297,11.1757813,1.6328125,10.9121094L1.6328125,10.9121094z M2.5517578,12.3955078
	l-0.7783203,0.6279297c0.0341797,0.0419922,0.0683594,0.0830078,0.1025391,0.1240234l0.0009766,0.0019531
	c0.0009766,0.0009766,0.0019531,0.0019531,0.0029297,0.0029297s0.0009766,0.0019531,0.0019531,0.0019531
	c0.0009766,0.0009766,0.0009766,0.0019531,0.0029297,0.0029297c0,0.0009766,0.0019531,0.0029297,0.0019531,0.0039063
	c0.0009766,0.0009766,0.0019531,0.0019531,0.0029297,0.0029297s0.0019531,0.0019531,0.0029297,0.0039063
	c0,0,0.0019531,0.0009766,0.0019531,0.0019531c0.0009766,0.0009766,0.0019531,0.0019531,0.0029297,0.0039063
	c0.0009766,0,0.0009766,0.0009766,0.0009766,0.0009766c0.0019531,0.0019531,0.0039063,0.0039063,0.0048828,0.0048828v0.0009766
	c0.0019531,0.0019531,0.0039063,0.0039063,0.0048828,0.0058594l0,0c0.0019531,0.0019531,0.0039063,0.0039063,0.0048828,0.0048828
	l0.0009766,0.0009766C2.0478516,13.3486328,2.1875,13.5,2.3320313,13.6455078v0.0009766
	c0.0019531,0.0009766,0.0029297,0.0029297,0.0048828,0.0039063l0.0009766,0.0009766
	c0.0029297,0.0039063,0.0068359,0.0068359,0.0097656,0.0107422l0.0019531,0.0009766
	c0.0009766,0.0009766,0.0019531,0.0029297,0.0039063,0.0039063c0,0,0.0009766,0.0009766,0.0019531,0.0019531
	s0.0009766,0.0019531,0.0009766,0.0019531c0.0048828,0.0039063,0.0078125,0.0068359,0.0107422,0.0107422
	c0.0009766,0,0.0019531,0.0009766,0.0019531,0.0009766c0.0009766,0.0009766,0.0019531,0.0029297,0.0039063,0.0039063V13.6875
	c0.0253906,0.0244141,0.0507813,0.0488281,0.0761719,0.0732422l0.6933594-0.7197266
	C2.9335938,12.8388672,2.734375,12.6220703,2.5517578,12.3955078L2.5517578,12.3955078z M3.8095703,13.6074219l-0.5996094,0.8007813
	c0.0712891,0.0527344,0.1425781,0.1044922,0.2158203,0.1552734l0,0c0.0058594,0.0048828,0.0117188,0.0087891,0.0185547,0.0136719
	l0,0c0.0019531,0.0009766,0.0039063,0.0029297,0.0058594,0.0039063c0,0,0.0009766,0,0.0009766,0.0009766
	c0.0039063,0.0019531,0.0078125,0.0048828,0.0117188,0.0078125l0.0009766,0.0009766
	c0.0019531,0.0009766,0.0039063,0.0019531,0.0058594,0.0039063h0.0009766
	c0.0019531,0.0019531,0.0029297,0.0029297,0.0048828,0.0039063l0.0009766,0.0009766
	c0.0019531,0.0009766,0.0039063,0.0019531,0.0058594,0.0039063h0.0009766
	c0.0019531,0.0019531,0.0029297,0.0029297,0.0048828,0.0039063l0.0019531,0.0009766
	c0.0009766,0.0009766,0.0029297,0.0019531,0.0039063,0.0029297s0.0019531,0.0009766,0.0019531,0.0009766
	C3.4980469,14.6142578,3.5,14.6152344,3.5019531,14.6162109v0.0009766c0.0019531,0.0009766,0.0039063,0.0019531,0.0058594,0.0039063
	l0.0019531,0.0009766C3.5107422,14.6230469,3.5117188,14.6240234,3.5136719,14.625l0.0019531,0.0009766
	c0.0019531,0.0009766,0.0029297,0.0019531,0.0039063,0.0029297l0.0029297,0.0009766
	c0.0009766,0.0019531,0.0029297,0.0029297,0.0048828,0.0039063l0.0019531,0.0019531
	c0.0019531,0.0009766,0.0029297,0.0009766,0.0039063,0.0019531c0,0,0.0019531,0.0009766,0.0029297,0.0019531
	c0,0,0.0009766,0.0009766,0.0029297,0.0019531c0,0,0.0019531,0.0009766,0.0029297,0.0019531
	c0,0,0.0019531,0.0019531,0.0029297,0.0019531c0.0019531,0.0019531,0.0039063,0.0029297,0.0048828,0.0039063
	c0.0009766,0,0.0019531,0.0009766,0.0029297,0.0009766c0,0,0.0019531,0.0019531,0.0029297,0.0029297
	c0.0009766,0,0.0019531,0.0009766,0.0029297,0.0009766c0,0,0.0019531,0.0019531,0.0029297,0.0029297l0.0029297,0.0009766
	c0.0019531,0.0019531,0.0039063,0.0029297,0.0058594,0.0048828l0.0019531,0.0009766
	c0.0009766,0.0009766,0.0019531,0.0019531,0.0039063,0.0019531c0,0.0009766,0.0009766,0.0009766,0.0019531,0.0019531
	s0.0019531,0.0009766,0.0039063,0.0019531c0,0.0009766,0.0009766,0.0009766,0.0009766,0.0009766
	c0.0048828,0.0029297,0.0087891,0.0058594,0.0126953,0.0087891l0.0019531,0.0009766
	c0.0009766,0.0009766,0.0029297,0.0019531,0.0029297,0.0019531c0.0009766,0.0009766,0.0019531,0.0009766,0.0019531,0.0009766
	c0.0019531,0.0019531,0.0029297,0.0029297,0.0048828,0.0039063l0,0c0.0029297,0.0019531,0.0058594,0.0039063,0.0097656,0.0058594
	l0,0c0.0019531,0.0009766,0.0029297,0.0019531,0.0039063,0.0039063h0.0019531
	C3.6240234,14.6982422,3.625,14.6992188,3.6269531,14.7001953l0.0009766,0.0009766
	c0.0048828,0.0029297,0.0097656,0.0058594,0.0136719,0.0087891l0.0009766,0.0009766
	c0.0019531,0.0009766,0.0029297,0.0009766,0.0048828,0.0019531c0,0.0009766,0.0009766,0.0009766,0.0009766,0.0009766
	c0.0058594,0.0039063,0.0126953,0.0087891,0.0195313,0.0126953l0,0c0.0058594,0.0048828,0.0136719,0.0087891,0.0195313,0.0126953
	c0.0009766,0,0,0.0009766,0,0.0009766c0.1181641,0.0742188,0.2373047,0.1464844,0.3583984,0.2158203l0.4951172-0.8691406
	C4.2890625,13.9433594,4.0419922,13.7822266,3.8095703,13.6074219L3.8095703,13.6074219z M5.3261719,14.4716797
	l-0.3828125,0.9238281l0,0c0.0029297,0.0009766,0.0048828,0.0019531,0.0068359,0.0029297h0.0009766
	c0.0068359,0.0029297,0.0136719,0.0058594,0.0205078,0.0087891h0.0009766
	c0.0019531,0.0009766,0.0039063,0.0019531,0.0068359,0.0029297l0,0c0.0068359,0.0029297,0.0146484,0.0058594,0.0214844,0.0087891
	l0,0c0.1582031,0.0644531,0.3193359,0.1230469,0.4833984,0.1777344l0,0
	c0.0068359,0.0019531,0.0146484,0.0048828,0.0214844,0.0068359l0,0c0,0,0.0058594,0.0019531,0.0078125,0.0029297l0,0
	c0.0078125,0.0019531,0.0146484,0.0048828,0.0214844,0.0068359h0.0009766
	c0.0019531,0.0009766,0.0048828,0.0019531,0.0068359,0.0019531v0.0009766
	c0.0058594,0.0009766,0.0097656,0.0029297,0.0146484,0.0039063l0.0009766,0.0009766c0,0,0.0048828,0.0009766,0.0068359,0.0019531
	h0.0009766C5.5683594,15.6240234,5.5703125,15.625,5.5703125,15.625h0.0029297
	c0.0048828,0.0019531,0.0097656,0.0029297,0.0136719,0.0048828h0.0019531
	c0.0019531,0.0009766,0.0039063,0.0019531,0.0058594,0.0019531c0.0009766,0,0.0009766,0.0009766,0.0009766,0.0009766
	s0.0048828,0.0009766,0.0078125,0.0019531l0,0c0.0019531,0.0009766,0.0039063,0.0019531,0.0058594,0.0019531l0.0019531,0.0009766
	c0.0019531,0,0.0039063,0.0009766,0.0039063,0.0009766l0.0039063,0.0009766l0.0048828,0.0019531
	c0.0009766,0,0.0009766,0,0.0009766,0c0.0029297,0.0009766,0.0058594,0.0019531,0.0078125,0.0029297l0,0
	c0.0029297,0,0.0048828,0.0009766,0.0068359,0.0019531c0,0,0.0009766,0,0.0019531,0l0.0048828,0.0019531l0.0029297,0.0009766
	l0.0039063,0.0009766c0.0009766,0,0.0019531,0,0.0019531,0c0.0029297,0.0009766,0.0048828,0.0019531,0.0068359,0.0029297
	l0.0029297,0.0009766c0.0009766,0,0.0029297,0,0.0029297,0L5.671875,15.65625c0,0,0.0029297,0.0009766,0.0039063,0.0009766
	l0.0039063,0.0009766c0.0009766,0,0.0019531,0.0009766,0.0019531,0.0009766
	c0.0029297,0.0009766,0.0039063,0.0009766,0.0039063,0.0009766c0.0019531,0.0009766,0.0048828,0.0009766,0.0058594,0.0019531
	c0,0,0.0019531,0.0009766,0.0039063,0.0009766l0.0039063,0.0009766l0.0029297,0.0009766
	c0,0,0.0019531,0.0009766,0.0029297,0.0009766c0.0019531,0,0.0029297,0.0009766,0.0029297,0.0009766l0.0048828,0.0009766
	c0.0019531,0.0009766,0.0039063,0.0019531,0.0058594,0.0019531l0.0029297,0.0009766c0,0,0.0019531,0.0009766,0.0029297,0.0009766
	l0.0039063,0.0009766l0.0039063,0.0009766l0.0019531,0.0009766c0.0048828,0.0009766,0.0097656,0.0029297,0.0146484,0.0039063
	c0,0,0.0009766,0.0009766,0.0019531,0.0009766c0,0,0.0029297,0.0009766,0.0048828,0.0009766
	c0,0,0.0009766,0.0009766,0.0019531,0.0009766c0,0,0.0029297,0.0009766,0.0039063,0.0009766l0.0019531,0.0009766
	c0.0058594,0.0009766,0.0107422,0.0029297,0.015625,0.0039063L5.78125,15.6884766
	c0.0009766,0,0.0029297,0.0009766,0.0039063,0.0009766l0.0019531,0.0009766
	c0.0058594,0.0009766,0.0107422,0.0029297,0.0166016,0.0039063l0.0009766,0.0009766c0.0009766,0,0.0029297,0,0.0029297,0
	l0.0029297,0.0009766c0,0,0.0039063,0.0009766,0.0048828,0.0019531h0.0009766
	c0.0058594,0.0019531,0.0107422,0.0029297,0.0175781,0.0048828l0,0c0.0019531,0.0009766,0.0039063,0.0009766,0.0058594,0.0019531
	l0,0c0.015625,0.0048828,0.0332031,0.0087891,0.0498047,0.0136719l0.2626953-0.9648438
	C5.8730469,14.6777344,5.59375,14.5820313,5.3261719,14.4716797L5.3261719,14.4716797z M8,14.1357422H7v0.8525391
	l-0.1318359,0.9326172c0.2734375,0.0380859,0.5517578,0.0634766,0.8339844,0.0732422h0.0019531
	c0.0009766,0,0.0029297,0.0009766,0.0029297,0.0009766h0.0039063c0,0,0.0039063,0,0.0048828,0H7.71875
	c0,0,0.0097656,0,0.0146484,0.0009766h0.0029297h0.0039063h0.0039063h0.0029297h0.0048828h0.0019531
	c0.0048828,0,0.0097656,0,0.015625,0.0009766h0.0009766c0,0,0.0039063,0,0.0058594,0h0.0009766h0.0078125l0,0
	c0.0273438,0.0009766,0.0527344,0.0009766,0.0791016,0.0019531l0.0146484-0.8632813H8V14.1357422L8,14.1357422z M8,12.1357422H7v1h1
	V12.1357422L8,12.1357422z M8,10.1357422H7v1h1V10.1357422L8,10.1357422z M8,8.1357422H7v1h1V8.1357422L8,8.1357422z M8,6.1357422H7
	v1h1V6.1357422L8,6.1357422z M8,4.1357422H7v1h1V4.1357422L8,4.1357422z M8,2.1357422H7v1h1V2.1357422L8,2.1357422z"/>
</svg>
