<?xml version="1.0" encoding="utf-8"?>
<!-- Generator: Adobe Illustrator 16.2.0, SVG Export Plug-In . SVG Version: 6.00 Build 0)  -->
<!DOCTYPE svg PUBLIC "-//W3C//DTD SVG 1.1//EN" "http://www.w3.org/Graphics/SVG/1.1/DTD/svg11.dtd">
<svg version="1.1" id="Слой_2" xmlns="http://www.w3.org/2000/svg" xmlns:xlink="http://www.w3.org/1999/xlink" x="0px" y="0px"
	 width="10px" height="16px" viewBox="0 0 10 16" enable-background="new 0 0 10 16" xml:space="preserve">
<g>
	<polygon fill="#E3EFFA" points="0,0 4,0 8,0 8,8 8,16 4,16 0,16 4,8 	"/>
</g>
<path fill="#71B1E4" d="M8,0H7v1l0,0v0.8886719h1V0L8,0z M6,0H5v1h1V0L6,0z M4,0H3v1h1V0L4,0z M2,0H0
	c0,0,0.0009766,0.0019531,0.0029297,0.0048828v0.0009766l0,0v0.0009766l0.0009766,0.0009766l0,0l0,0l0.0019531,0.0048828l0,0
	l0.0019531,0.0039063l0,0l0.4394531,0.8779297L1,0.6181641V1h1V0L2,0z M1.7890625,1.3417969L0.8945313,1.7890625
	l0.4472656,0.8945313l0.8945313-0.4472656L1.7890625,1.3417969L1.7890625,1.3417969z M2.6835938,3.1308594L1.7890625,3.578125
	l0.4404297,0.8808594c0.0009766,0.0009766,0.0009766,0.0019531,0.0009766,0.0019531l0.0009766,0.0009766
	c0,0.0009766,0,0.0009766,0,0.0009766l0,0c0.0009766,0.0009766,0.0009766,0.0009766,0.0009766,0.0009766v0.0009766
	C2.234375,4.4697266,2.2363281,4.4726563,2.2363281,4.4726563l0.8945313-0.4472656L2.6835938,3.1308594L2.6835938,3.1308594z
	 M3.5771484,4.9189453L2.6835938,5.3662109l0.4472656,0.8945313l0.8935547-0.4472656L3.5771484,4.9189453L3.5771484,4.9189453z
	 M4.4716797,6.7080078L3.5771484,7.1552734L4,8l0,0l0,0l0,0l0,0l0,0c0,0,0,0.0009766-0.0009766,0.0019531l0,0
	C3.9980469,8.0029297,3.9980469,8.0029297,3.9980469,8.0039063l0,0l0,0l0,0c0,0.0009766-0.0009766,0.0019531-0.0019531,0.0019531
	l0,0c0,0.0009766,0,0.0009766,0,0.0019531l0,0l0,0l0,0C3.9941406,8.0107422,3.9931641,8.0126953,3.9921875,8.015625l0,0
	C3.9902344,8.0185547,3.9892578,8.0214844,3.9882813,8.0244141L3.9873047,8.0253906l0,0l0,0v0.0009766l0,0L3.9863281,8.0273438l0,0
	l0,0L3.9853516,8.0283203C3.984375,8.0302734,3.984375,8.0322266,3.9824219,8.0341797l0,0v0.0009766l0,0L3.9814453,8.0371094l0,0
	v0.0009766l0,0C3.9804688,8.0390625,3.9804688,8.0390625,3.9804688,8.0390625v0.0009766L3.9794922,8.0410156l0,0l0,0l0,0
	c-0.0009766,0,0,0.0009766,0,0.0009766l0,0L3.9785156,8.0429688l0,0C3.9775391,8.0449219,3.9765625,8.046875,3.9755859,8.0478516
	l0,0c0,0.0009766-0.0009766,0.0019531-0.0009766,0.0019531l0,0l0,0l0,0l0,0l0,0l0.8945313,0.4472656l0.0253906-0.0498047
	L5.1181641,8L4.8945313,7.5527344L4.4716797,6.7080078L4.4716797,6.7080078z M3.5273438,8.9443359L3.0839844,9.8320313l0,0
	L3.0830078,9.8339844l0,0l0,0C3.0820313,9.8359375,3.0810547,9.8378906,3.0810547,9.8388672l0,0l0,0l0,0l0.8935547,0.4472656
	L4.421875,9.3916016L3.5273438,8.9443359L3.5273438,8.9443359z M2.6337891,10.7333984c0,0-0.1123047,0.2236328-0.2236328,0.4472656
	l-0.2236328,0.4472656l0.8945313,0.4472656l0.4462891-0.8945313L2.6337891,10.7333984L2.6337891,10.7333984z M1.7392578,12.5224609
	L1.7392578,12.5224609L1.7392578,12.5224609c-0.0039063,0.0068359-0.4482422,0.8935547-0.4482422,0.8935547l0.8955078,0.4472656
	L2.6337891,12.96875L1.7392578,12.5224609L1.7392578,12.5224609z M0.84375,14.3105469L0.84375,14.3105469L0.84375,14.3105469
	c0,0.0009766-0.0068359,0.0146484-0.0185547,0.0390625l0,0C0.8125,14.3740234,0.7949219,14.4082031,0.7744141,14.4501953v0.0009766
	c-0.0048828,0.0097656-0.0097656,0.0195313-0.0146484,0.0302734l0,0c0,0.0009766-0.0009766,0.0009766-0.0009766,0.0009766
	l-0.0009766,0.0009766c0,0.0009766,0,0.0009766,0,0.0009766l-0.0009766,0.0009766
	C0.7548828,14.4902344,0.7529297,14.4951172,0.75,14.4990234l0,0c-0.0029297,0.0068359-0.0058594,0.0126953-0.0087891,0.0195313
	l-0.0009766,0.0009766c-0.0009766,0.0029297-0.0029297,0.0048828-0.0039063,0.0078125l0,0
	c-0.0048828,0.0087891-0.0097656,0.0185547-0.0136719,0.0283203l0,0C0.7158203,14.5683594,0.7089844,14.5810547,0.703125,14.59375
	l0,0c-0.0048828,0.0097656-0.0097656,0.0195313-0.015625,0.0302734l0,0
	c-0.0009766,0.0029297-0.0029297,0.0068359-0.0039063,0.0097656l0,0c-0.0009766,0.0009766-0.0009766,0.0019531-0.0019531,0.0029297
	l0,0c-0.0009766,0.0019531-0.0019531,0.0048828-0.0039063,0.0068359l0,0c0,0.0009766-0.0009766,0.0019531-0.0009766,0.0019531
	v0.0009766C0.671875,14.65625,0.6679688,14.6650391,0.6621094,14.6748047l0,0c0,0.0009766,0,0.0019531,0,0.0029297l0,0
	c-0.0107422,0.0185547-0.0205078,0.0380859-0.0302734,0.0585938l-0.0009766,0.0019531
	c-0.0039063,0.0068359-0.0068359,0.0136719-0.0097656,0.0195313l0,0c-0.0019531,0.0029297-0.0029297,0.0058594-0.0039063,0.0078125
	l0,0c0,0.0009766-0.0009766,0.0019531-0.0019531,0.0029297l0,0c0,0,0,0.0019531-0.0009766,0.0029297l0,0
	c0,0.0009766-0.0009766,0.0019531-0.0009766,0.0019531l0,0c-0.0048828,0.0087891-0.0087891,0.0166016-0.0126953,0.0253906
	l-0.0009766,0.0019531c-0.0214844,0.0419922-0.0410156,0.0830078-0.0605469,0.1210938l-0.0009766,0.0019531
	C0.5244141,14.9501953,0.5117188,14.9755859,0.5,15l0,0l-0.3886719,0.7773438V16h1v-0.4375l0.1796875,0.0898438l0.4482422-0.8945313
	L0.84375,14.3105469L0.84375,14.3105469z M3.1113281,15h-1v1h1V15L3.1113281,15z M5.1113281,15h-1v1h1V15L5.1113281,15z
	 M8,14.8886719H7V15H6.1113281v1h1v-0.1113281H8V14.8886719L8,14.8886719z M8,12.8886719H7v1h1V12.8886719L8,12.8886719z
	 M8,10.8886719H7v1h1V10.8886719L8,10.8886719z M8,8.8886719H7v1h1V8.8886719L8,8.8886719z M8,6.8886719H7v1h1V6.8886719
	L8,6.8886719z M8,4.8886719H7v1h1V4.8886719L8,4.8886719z M8,2.8886719H7v1h1V2.8886719L8,2.8886719z"/>
</svg>
