<?xml version="1.0" encoding="utf-8"?>
<!-- Generator: Adobe Illustrator 21.1.0, SVG Export Plug-In . SVG Version: 6.00 Build 0)  -->
<!DOCTYPE svg PUBLIC "-//W3C//DTD SVG 1.1//EN" "http://www.w3.org/Graphics/SVG/1.1/DTD/svg11.dtd" [
	<!ENTITY st0 "fill:#BFBFBF;">
	<!ENTITY st1 "fill:#8C8C8C;">
]>
<svg version="1.1" id="Слой_1" xmlns="http://www.w3.org/2000/svg" xmlns:xlink="http://www.w3.org/1999/xlink" x="0px" y="0px"
	 width="18px" height="18px" viewBox="0 0 18 18" style="enable-background:new 0 0 18 18;" xml:space="preserve">
<polygon style="&st1;" points="17,9 11,9 11,9.41 11,10 13.99,13 13.991,13.001 11,16 11,16.59 11,17 17,17 17,16 12.41,16 
	15.41,13 14.95,12.54 14.95,12.54 14.7,12.29 12.41,10 17,10 "/>
<polygon style="&st1;" points="3,15 3,2 2,2 2,15 2,16 3,16 10,16 10,15 "/>
<g>
	<g>
		<path style="&st0;" d="M4,14v-2c2.198,0,2.77-1.179,3.755-3.63C8.835,5.682,10.315,2,16,2v2c-4.333,0-5.332,2.485-6.389,5.116
			C8.69,11.405,7.647,14,4,14z"/>
	</g>
</g>
</svg>
