<?xml version="1.0" encoding="utf-8"?>
<!-- Generator: Adobe Illustrator 20.1.0, SVG Export Plug-In . SVG Version: 6.00 Build 0)  -->
<!DOCTYPE svg PUBLIC "-//W3C//DTD SVG 1.1//EN" "http://www.w3.org/Graphics/SVG/1.1/DTD/svg11.dtd" [
	<!ENTITY st0 "fill:#BFBFBF;">
	<!ENTITY st1 "fill:#8C8C8C;">
]>
<svg version="1.1" id="Слой_1" xmlns="http://www.w3.org/2000/svg" xmlns:xlink="http://www.w3.org/1999/xlink" x="0px" y="0px"
	 width="18px" height="18px" viewBox="0 0 18 18" style="enable-background:new 0 0 18 18;" xml:space="preserve">
<path style="&st0;" d="M15,3v12H3V3H15 M16,2H2v14h14V2L16,2z"/>
<rect x="4" y="4" style="&st0;" width="2" height="2"/>
<rect x="7" y="4" style="&st0;" width="7" height="2"/>
<rect x="4" y="7" style="&st0;" width="2" height="7"/>
<polygon style="&st1;" points="9,14 7,12.5 9,11 "/>
<polygon style="&st1;" points="11,9 12.5,7 14,9 "/>
<path style="&st1;" d="M12,9v2c0,0.552-0.448,1-1,1H8v1h3c1.105,0,2-0.895,2-2V9H12z"/>
</svg>
