<?xml version="1.0" encoding="utf-8"?>
<!-- Generator: Adobe Illustrator 20.1.0, SVG Export Plug-In . SVG Version: 6.00 Build 0)  -->
<!DOCTYPE svg PUBLIC "-//W3C//DTD SVG 1.1//EN" "http://www.w3.org/Graphics/SVG/1.1/DTD/svg11.dtd" [
	<!ENTITY st0 "fill:#BFBFBF;">
	<!ENTITY st1 "fill:#8C8C8C;">
]>
<svg version="1.1" id="Слой_1" xmlns="http://www.w3.org/2000/svg" xmlns:xlink="http://www.w3.org/1999/xlink" x="0px" y="0px"
	 width="18px" height="18px" viewBox="0 0 18 18" style="enable-background:new 0 0 18 18;" xml:space="preserve">
<rect x="3" y="10" style="&st0;" width="3" height="4"/>
<rect x="9" y="4" style="&st0;" width="3" height="5"/>
<rect x="12" y="10" style="&st0;" width="3" height="3"/>
<rect x="1" y="7" style="&st1;" width="1" height="1"/>
<rect x="1" y="11" style="&st1;" width="1" height="1"/>
<rect x="1" y="13" style="&st1;" width="1" height="1"/>
<rect x="1" y="15" style="&st1;" width="1" height="1"/>
<rect x="1" y="5" style="&st1;" width="1" height="1"/>
<rect x="1" y="3" style="&st1;" width="1" height="1"/>
<rect x="1" y="1" style="&st1;" width="1" height="1"/>
<rect x="7" y="7" style="&st1;" width="1" height="1"/>
<rect x="7" y="11" style="&st1;" width="1" height="1"/>
<rect x="7" y="13" style="&st1;" width="1" height="1"/>
<rect x="7" y="15" style="&st1;" width="1" height="1"/>
<rect x="7" y="5" style="&st1;" width="1" height="1"/>
<rect x="7" y="3" style="&st1;" width="1" height="1"/>
<rect x="7" y="1" style="&st1;" width="1" height="1"/>
<rect x="16" y="7" style="&st1;" width="1" height="1"/>
<rect x="16" y="11" style="&st1;" width="1" height="1"/>
<rect x="16" y="13" style="&st1;" width="1" height="1"/>
<rect x="16" y="15" style="&st1;" width="1" height="1"/>
<rect x="16" y="5" style="&st1;" width="1" height="1"/>
<rect x="16" y="3" style="&st1;" width="1" height="1"/>
<rect x="16" y="1" style="&st1;" width="1" height="1"/>
<rect x="1" y="9" style="&st1;" width="16" height="1"/>
</svg>
