<?xml version="1.0" encoding="utf-8"?>
<!-- Generator: Adobe Illustrator 16.2.0, SVG Export Plug-In . SVG Version: 6.00 Build 0)  -->
<!DOCTYPE svg PUBLIC "-//W3C//DTD SVG 1.1//EN" "http://www.w3.org/Graphics/SVG/1.1/DTD/svg11.dtd">
<svg version="1.1" id="Слой_1" xmlns="http://www.w3.org/2000/svg" xmlns:xlink="http://www.w3.org/1999/xlink" x="0px" y="0px"
	 width="18px" height="18px" viewBox="-0.084 3131.959 18 18" enable-background="new -0.084 3131.959 18 18" xml:space="preserve">
<g id="Layer_5">
	<g>
		<g>
			<path fill="#636F80" d="M9,3149l-0.055-0.5L9,3148c0.292,0,0.579-0.018,0.862-0.052l0.121,0.992
				C9.661,3148.979,9.333,3149,9,3149z M7.899,3148.925c-0.344-0.047-0.688-0.117-1.023-0.209l0.264-0.965
				c0.292,0.08,0.591,0.143,0.896,0.184L7.899,3148.925z M11.011,3148.745l-0.25-0.969c0.298-0.076,0.587-0.173,0.867-0.285
				l0.377,0.926C11.682,3148.548,11.348,3148.657,11.011,3148.745z M5.889,3148.372c-0.319-0.135-0.634-0.292-0.934-0.469
				l0.506-0.863c0.262,0.154,0.534,0.291,0.816,0.411L5.889,3148.372z M12.946,3147.962l-0.494-0.869
				c0.267-0.152,0.521-0.32,0.764-0.503l0.604,0.797C13.543,3147.596,13.249,3147.79,12.946,3147.962z M4.088,3147.316
				c-0.273-0.214-0.534-0.445-0.778-0.692l0.711-0.703c0.215,0.218,0.444,0.42,0.685,0.608L4.088,3147.316z M14.609,3146.704
				l-0.701-0.713c0.217-0.214,0.42-0.441,0.607-0.682l0.789,0.615C15.091,3146.198,14.857,3146.46,14.609,3146.704z M2.625,3145.835
				c-0.211-0.279-0.404-0.572-0.576-0.873l0.869-0.495c0.151,0.266,0.319,0.521,0.504,0.763L2.625,3145.835z M15.894,3145.062
				l-0.861-0.508c0.154-0.262,0.292-0.533,0.412-0.816l0.92,0.393C16.228,3144.45,16.069,3144.763,15.894,3145.062z M1.59,3144.022
				c-0.131-0.32-0.242-0.654-0.33-0.993l0.967-0.252c0.078,0.298,0.174,0.587,0.289,0.866L1.59,3144.022z M16.709,3143.144
				l-0.963-0.269c0.081-0.292,0.143-0.59,0.187-0.896l0.99,0.143C16.872,3142.471,16.801,3142.815,16.709,3143.144z M1.063,3142.004
				C1.021,3141.675,1,3141.341,1,3141l1-0.036V3141c0,0.298,0.019,0.591,0.055,0.879L1.063,3142.004z M15.999,3141.073l0.001-0.094
				c0-0.289-0.021-0.593-0.06-0.893l0.992-0.129C16.978,3140.3,17,3140.65,17,3141L15.999,3141.073z M2.063,3140.055l-0.99-0.136
				c0.047-0.346,0.117-0.69,0.208-1.023l0.965,0.262C2.166,3139.45,2.104,3139.749,2.063,3140.055z M15.764,3139.19
				c-0.079-0.297-0.178-0.587-0.293-0.867l0.924-0.381c0.134,0.322,0.246,0.656,0.336,0.99L15.764,3139.19z M2.542,3138.294
				l-0.922-0.387c0.134-0.32,0.291-0.635,0.467-0.936l0.863,0.504C2.797,3137.737,2.66,3138.011,2.542,3138.294z M15.066,3137.505
				c-0.153-0.266-0.323-0.52-0.508-0.762l0.793-0.607c0.211,0.275,0.406,0.566,0.58,0.868L15.066,3137.505z M3.463,3136.719
				l-0.791-0.612c0.212-0.273,0.444-0.537,0.691-0.783l0.705,0.709C3.853,3136.247,3.649,3136.478,3.463,3136.719z M13.954,3136.056
				c-0.215-0.217-0.444-0.418-0.687-0.604l0.611-0.792c0.276,0.214,0.54,0.445,0.784,0.689L13.954,3136.056z M4.758,3135.432
				l-0.607-0.794c0.276-0.211,0.568-0.406,0.87-0.579l0.498,0.867C5.254,3135.078,4.999,3135.247,4.758,3135.432z M12.509,3134.942
				c-0.263-0.152-0.536-0.289-0.818-0.406l0.385-0.924c0.32,0.135,0.636,0.29,0.936,0.465L12.509,3134.942z M6.341,3134.522
				l-0.381-0.924c0.319-0.133,0.653-0.244,0.991-0.334l0.256,0.967C6.91,3134.311,6.62,3134.407,6.341,3134.522z M10.826,3134.24
				c-0.292-0.078-0.591-0.139-0.896-0.18l0.131-0.991c0.346,0.047,0.69,0.116,1.025,0.205L10.826,3134.24z M8.104,3134.058
				l-0.127-0.992C8.313,3133.022,8.653,3133,9,3133l0.018,1l-0.038-0.001C8.696,3134,8.396,3134.02,8.104,3134.058z"/>
		</g>
		<rect x="7" y="3139" fill="#636F80" width="4" height="4"/>
	</g>
</g>
</svg>
