<?xml version="1.0" encoding="utf-8"?>
<!-- Generator: Adobe Illustrator 16.2.0, SVG Export Plug-In . SVG Version: 6.00 Build 0)  -->
<!DOCTYPE svg PUBLIC "-//W3C//DTD SVG 1.1//EN" "http://www.w3.org/Graphics/SVG/1.1/DTD/svg11.dtd">
<svg version="1.1" id="Слой_1" xmlns="http://www.w3.org/2000/svg" xmlns:xlink="http://www.w3.org/1999/xlink" x="0px" y="0px"
	 width="18px" height="18px" viewBox="-0.084 3149.959 18 18" enable-background="new -0.084 3149.959 18 18" xml:space="preserve">
<g id="Layer_5">
	<g>
		<g>
			<polygon fill="#636F80" points="17,3164 15,3164 15,3160 13,3160 13,3164 11,3164 14,3167 			"/>
		</g>
		<path fill="#636F80" d="M9,3167l-0.055-0.5L9,3166c0.292,0,0.579-0.018,0.862-0.052l0.121,0.992C9.661,3166.979,9.333,3167,9,3167
			z"/>
		<path fill="#636F80" d="M7.899,3166.925c-0.344-0.047-0.688-0.117-1.023-0.209l0.264-0.965c0.292,0.08,0.591,0.143,0.896,0.184
			L7.899,3166.925z"/>
		<path fill="#636F80" d="M5.889,3166.372c-0.319-0.135-0.634-0.292-0.934-0.469l0.506-0.863c0.262,0.154,0.534,0.291,0.816,0.411
			L5.889,3166.372z"/>
		<path fill="#636F80" d="M4.088,3165.316c-0.273-0.214-0.534-0.445-0.778-0.692l0.711-0.703c0.215,0.218,0.444,0.42,0.685,0.608
			L4.088,3165.316z"/>
		<path fill="#636F80" d="M2.625,3163.835c-0.211-0.279-0.404-0.572-0.576-0.873l0.869-0.495c0.151,0.266,0.319,0.521,0.504,0.763
			L2.625,3163.835z"/>
		<path fill="#636F80" d="M1.59,3162.022c-0.131-0.32-0.242-0.654-0.33-0.993l0.967-0.252c0.078,0.298,0.174,0.587,0.289,0.866
			L1.59,3162.022z"/>
		<path fill="#636F80" d="M1.063,3160.004C1.021,3159.675,1,3159.341,1,3159l1-0.036V3159c0,0.298,0.019,0.591,0.055,0.879
			L1.063,3160.004z"/>
		<path fill="#636F80" d="M15.999,3159.073l0.001-0.094c0-0.289-0.021-0.593-0.06-0.893l0.992-0.129
			C16.978,3158.3,17,3158.65,17,3159L15.999,3159.073z"/>
		<path fill="#636F80" d="M2.063,3158.055l-0.99-0.136c0.047-0.346,0.117-0.69,0.208-1.023l0.965,0.262
			C2.166,3157.45,2.104,3157.749,2.063,3158.055z"/>
		<path fill="#636F80" d="M15.764,3157.19c-0.079-0.297-0.178-0.587-0.293-0.867l0.924-0.381c0.134,0.322,0.246,0.656,0.336,0.99
			L15.764,3157.19z"/>
		<path fill="#636F80" d="M2.542,3156.294l-0.922-0.387c0.134-0.32,0.291-0.635,0.467-0.936l0.863,0.504
			C2.797,3155.737,2.66,3156.011,2.542,3156.294z"/>
		<path fill="#636F80" d="M15.066,3155.505c-0.153-0.266-0.323-0.52-0.508-0.762l0.793-0.607c0.211,0.275,0.406,0.566,0.58,0.868
			L15.066,3155.505z"/>
		<path fill="#636F80" d="M3.463,3154.719l-0.791-0.612c0.212-0.273,0.444-0.537,0.691-0.783l0.705,0.709
			C3.853,3154.247,3.649,3154.478,3.463,3154.719z"/>
		<path fill="#636F80" d="M13.954,3154.056c-0.215-0.217-0.444-0.418-0.687-0.604l0.611-0.792c0.276,0.214,0.54,0.445,0.784,0.689
			L13.954,3154.056z"/>
		<path fill="#636F80" d="M4.758,3153.432l-0.607-0.794c0.276-0.211,0.568-0.406,0.87-0.579l0.498,0.867
			C5.254,3153.078,4.999,3153.247,4.758,3153.432z"/>
		<path fill="#636F80" d="M12.509,3152.942c-0.263-0.152-0.536-0.289-0.818-0.406l0.385-0.924c0.32,0.135,0.636,0.29,0.936,0.465
			L12.509,3152.942z"/>
		<path fill="#636F80" d="M6.341,3152.522l-0.381-0.924c0.319-0.133,0.653-0.244,0.991-0.334l0.256,0.967
			C6.91,3152.311,6.62,3152.407,6.341,3152.522z"/>
		<path fill="#636F80" d="M10.826,3152.24c-0.292-0.078-0.591-0.139-0.896-0.18l0.131-0.991c0.346,0.047,0.69,0.116,1.025,0.205
			L10.826,3152.24z"/>
		<path fill="#636F80" d="M8.104,3152.058l-0.127-0.992C8.313,3151.022,8.653,3151,9,3151l0.018,1l-0.038-0.001
			C8.696,3152,8.396,3152.02,8.104,3152.058z"/>
		<rect x="7" y="3157" fill="#636F80" width="4" height="4"/>
	</g>
</g>
</svg>
