<?xml version="1.0" encoding="utf-8"?>
<!-- Generator: Adobe Illustrator 16.2.0, SVG Export Plug-In . SVG Version: 6.00 Build 0)  -->
<!DOCTYPE svg PUBLIC "-//W3C//DTD SVG 1.1//EN" "http://www.w3.org/Graphics/SVG/1.1/DTD/svg11.dtd">
<svg version="1.1" id="Слой_1" xmlns="http://www.w3.org/2000/svg" xmlns:xlink="http://www.w3.org/1999/xlink" x="0px" y="0px"
	 width="18px" height="18px" viewBox="-0.084 1151.833 18 18" enable-background="new -0.084 1151.833 18 18" xml:space="preserve">
<g id="Layer_5">
	<polygon fill="#636F80" points="11,1160 12.5,1158 14,1160 	"/>
	<polygon fill="#636F80" points="8,1166 6,1164.5 8,1163 	"/>
	<path fill="#636F80" d="M15,1155v12H3v-12H15 M16,1154H2v14h14V1154L16,1154z"/>
	<rect x="4" y="1156" fill="#636F80" width="2" height="2"/>
	<rect x="4" y="1159" fill="#636F80" width="2" height="7"/>
	<rect x="7" y="1156" fill="#636F80" width="7" height="2"/>
	<path fill="#636F80" d="M12,1160v1.219c0,1.536-1.245,2.781-2.781,2.781H8v1h1.646c1.853,0,3.354-1.501,3.354-3.354V1160H12z"/>
</g>
</svg>
