<svg xmlns="http://www.w3.org/2000/svg" width="10" height="16" viewBox="0 0 10 16"><path fill="#EBECEF" d="M8,2v12c-3.3134766,0-6-2.6865234-6-6S4.6865234,2,8,2z"/><path fill="#9A9FAF" d="M6.0361328,2.328125c-0.078125,0.0273438-0.1552734,0.0566406-0.2324219,0.0859375l0,0 C5.7978516,2.4169922,5.7900391,2.4199219,5.7832031,2.4228516H5.7822266 C5.7802734,2.4238281,5.7773438,2.4248047,5.7744141,2.4257813v0.0009766 C5.7705078,2.4277344,5.765625,2.4296875,5.7617188,2.4316406l0,0C5.7578125,2.4326172,5.7558594,2.4335938,5.7539063,2.4345703 L5.7529297,2.4355469C5.75,2.4355469,5.7480469,2.4375,5.7460938,2.4384766H5.7441406 c-0.0009766,0-0.0019531,0.0009766-0.0039063,0.0009766L5.7392578,2.4404297 C5.7373047,2.4414063,5.7353516,2.4423828,5.7324219,2.4433594H5.7314453 C5.7294922,2.4443359,5.7265625,2.4453125,5.7246094,2.4462891c-0.0009766,0-0.0009766,0.0009766-0.0009766,0.0009766 C5.71875,2.4492188,5.7148438,2.4501953,5.7109375,2.4521484c0,0-0.0009766,0-0.0019531,0.0009766 c0,0-0.0039063,0.0009766-0.0058594,0.0019531L5.7011719,2.4560547C5.6992188,2.4570313,5.6972656,2.4580078,5.6972656,2.4580078 C5.6953125,2.4589844,5.6943359,2.4589844,5.6943359,2.4589844C5.6923828,2.4599609,5.6914063,2.4599609,5.6904297,2.4609375 c0,0-0.0019531,0-0.0029297,0.0009766c0,0-0.0039063,0.0009766-0.0058594,0.0019531L5.6796875,2.4648438 C5.6777344,2.4658203,5.6757813,2.4667969,5.6738281,2.4667969c0,0.0009766-0.0009766,0.0009766-0.0009766,0.0009766 C5.6708984,2.46875,5.6699219,2.46875,5.6689453,2.4697266c0,0-0.0029297,0.0009766-0.0039063,0.0019531L5.6601563,2.4726563 L5.6582031,2.4736328C5.6572266,2.4746094,5.6552734,2.4755859,5.6533203,2.4765625c-0.0009766,0-0.0009766,0-0.0009766,0 C5.6494141,2.4785156,5.6474609,2.4785156,5.6445313,2.4794922c0,0.0009766,0,0.0009766-0.0019531,0.0009766L5.6396484,2.4824219 L5.6376953,2.4833984c-0.0019531,0-0.0039063,0.0009766-0.0039063,0.0009766 C5.6308594,2.4853516,5.6308594,2.4863281,5.6308594,2.4863281C5.6279297,2.4873047,5.6259766,2.4882813,5.6240234,2.4892578 c0,0-0.0009766,0-0.0019531,0L5.6181641,2.4912109L5.6171875,2.4921875 C5.6152344,2.4931641,5.6132813,2.4941406,5.6103516,2.4941406L5.6083984,2.4951172 C5.6064453,2.4960938,5.6044922,2.4970703,5.6025391,2.4980469L5.6005859,2.4990234 C5.5986328,2.5,5.5966797,2.5009766,5.59375,2.5019531H5.5927734C5.5917969,2.5029297,5.5898438,2.5039063,5.5898438,2.5039063 s-0.0019531,0-0.0019531,0.0009766c0,0-0.0039063,0.0019531-0.0058594,0.0029297c-0.0009766,0-0.0019531,0-0.0019531,0 C5.578125,2.5087891,5.5751953,2.5097656,5.5732422,2.5107422L5.5722656,2.5117188 C5.5683594,2.5136719,5.5644531,2.515625,5.5605469,2.5166016L5.5585938,2.5175781 C5.5566406,2.5185547,5.5546875,2.5195313,5.5517578,2.5205078l0,0C5.546875,2.5224609,5.5429688,2.5244141,5.5390625,2.5263672 H5.5380859C5.5361328,2.5273438,5.5332031,2.5283203,5.53125,2.5292969L5.5302734,2.5302734 C5.5273438,2.53125,5.5253906,2.5322266,5.5224609,2.5332031v0.0009766 C5.5175781,2.5361328,5.5146484,2.5371094,5.5097656,2.5390625l0,0C5.5068359,2.5410156,5.5048828,2.5419922,5.5019531,2.5429688 l0,0C5.4941406,2.546875,5.4882813,2.5498047,5.4814453,2.5527344l0,0C5.359375,2.609375,5.2402344,2.6689453,5.1230469,2.7333984 l0.4804688,0.8769531c0.2421875-0.1328125,0.4990234-0.2460938,0.7597656-0.3369141L6.0361328,2.328125L6.0361328,2.328125z M4.2900391,3.2841797L4.2900391,3.2841797C4.2880859,3.2861328,4.2861328,3.2871094,4.2841797,3.2890625H4.2832031 C4.2792969,3.2919922,4.2753906,3.2949219,4.2724609,3.2988281c-0.0009766,0-0.0009766,0-0.0009766,0 C4.2695313,3.3007813,4.2675781,3.3017578,4.265625,3.3027344v0.0009766 C4.2636719,3.3056641,4.2617188,3.3066406,4.2597656,3.3085938H4.2587891 C4.2568359,3.3105469,4.2548828,3.3115234,4.2539063,3.3134766H4.2529297C4.2509766,3.3144531,4.25,3.3164063,4.2480469,3.3173828 c0,0-0.0009766,0.0009766-0.0019531,0.0009766C4.2451172,3.3203125,4.2431641,3.3212891,4.2421875,3.3222656 S4.2412109,3.3232422,4.2402344,3.3242188C4.2382813,3.3251953,4.2373047,3.3261719,4.2353516,3.3271484 C4.234375,3.328125,4.234375,3.328125,4.234375,3.3291016C4.2324219,3.3300781,4.2314453,3.3310547,4.2304688,3.3320313 C4.2285156,3.3330078,4.2285156,3.3330078,4.2285156,3.3339844C4.2265625,3.3349609,4.2246094,3.3359375,4.2236328,3.3369141 c0,0-0.0009766,0.0009766-0.0009766,0.0019531C4.2207031,3.3398438,4.21875,3.3408203,4.2177734,3.3417969 S4.2167969,3.3427734,4.2158203,3.34375S4.2128906,3.3457031,4.2119141,3.3466797S4.2099609,3.3486328,4.2089844,3.3496094 c-0.0009766,0-0.0019531,0.0009766-0.0029297,0.0019531S4.2041016,3.3535156,4.203125,3.3544922 S4.2011719,3.3554688,4.2011719,3.3554688C4.1992188,3.3574219,4.1982422,3.3574219,4.1972656,3.3583984 c0,0-0.0019531,0.0019531-0.0039063,0.0029297c0,0-0.0019531,0.0019531-0.0029297,0.0029297L4.1894531,3.3652344 C4.1875,3.3671875,4.1865234,3.3681641,4.1845703,3.3691406C4.1835938,3.3701172,4.1835938,3.3701172,4.1826172,3.3710938 C4.1806641,3.3720703,4.1796875,3.3730469,4.1777344,3.375L4.1757813,3.3759766 C4.1728516,3.3789063,4.1699219,3.3818359,4.1660156,3.3847656l0,0C4.1640625,3.3867188,4.1621094,3.3886719,4.1591797,3.3896484 L4.1582031,3.390625C3.9785156,3.5400391,3.8085938,3.7001953,3.6474609,3.8701172l0,0 C3.6455078,3.8720703,3.6435547,3.8740234,3.6416016,3.8759766c0,0.0009766,0,0.0009766,0,0.0009766 C3.6386719,3.8789063,3.6367188,3.8808594,3.6347656,3.8828125l0,0c0,0.0019531-0.0019531,0.0019531-0.0029297,0.0039063 c0,0-0.0009766,0-0.0009766,0.0009766C3.6289063,3.8886719,3.6279297,3.890625,3.6259766,3.8925781L3.625,3.8935547 C3.6230469,3.8955078,3.6220703,3.8964844,3.6210938,3.8984375C3.6201172,3.8994141,3.6191406,3.8994141,3.6191406,3.8994141 C3.6181641,3.9013672,3.6171875,3.9023438,3.6162109,3.9033203S3.6142578,3.9052734,3.6132813,3.90625 S3.6113281,3.9082031,3.6103516,3.9091797S3.609375,3.9111328,3.6074219,3.9121094 c0,0.0009766-0.0009766,0.0019531-0.0019531,0.0029297S3.6044922,3.9160156,3.6044922,3.9160156 C3.6015625,3.9179688,3.6015625,3.9199219,3.5996094,3.9208984c0,0.0009766-0.0009766,0.0019531-0.0009766,0.0019531 C3.5966797,3.9238281,3.5957031,3.9248047,3.5957031,3.9257813C3.59375,3.9267578,3.59375,3.9277344,3.5917969,3.9296875 c0,0-0.0019531,0.0009766-0.0019531,0.0019531C3.5888672,3.9335938,3.5869141,3.9345703,3.5859375,3.9355469 c0,0-0.0009766,0.0009766-0.0009766,0.0019531C3.5839844,3.9384766,3.5820313,3.9394531,3.5810547,3.9414063 c0,0,0,0-0.0009766,0.0009766C3.578125,3.9443359,3.5771484,3.9453125,3.5751953,3.9472656L3.5742188,3.9482422 C3.5732422,3.9501953,3.5722656,3.9511719,3.5703125,3.953125L3.5693359,3.9541016 C3.5673828,3.9560547,3.5664063,3.9570313,3.5644531,3.9589844c0,0,0,0,0,0.0009766 C3.5625,3.9609375,3.5605469,3.9628906,3.5595703,3.9648438H3.5585938l0.7402344,0.6728516 c0.1865234-0.2050781,0.3916016-0.3964844,0.609375-0.5683594L4.2900391,3.2841797L4.2900391,3.2841797z M2.9511719,4.7578125 C2.9082031,4.8222656,2.8681641,4.8886719,2.828125,4.9560547l0,0C2.8251953,4.9609375,2.8232422,4.9648438,2.8203125,4.96875 v0.0009766C2.8193359,4.9716797,2.8183594,4.9736328,2.8164063,4.9755859v0.0009766 C2.8154297,4.9785156,2.8144531,4.9804688,2.8125,4.9824219v0.0009766C2.8115234,4.9853516,2.8095703,4.9873047,2.8085938,4.9892578 l0,0C2.8066406,4.9921875,2.8066406,4.9931641,2.8056641,4.9951172C2.8046875,4.9960938,2.8046875,4.9960938,2.8046875,4.9970703 C2.8027344,4.9990234,2.8027344,5.0009766,2.8007813,5.0019531c0,0.0009766,0,0.0019531,0,0.0019531 C2.7988281,5.0058594,2.7988281,5.0078125,2.7978516,5.0087891S2.796875,5.0107422,2.7958984,5.0107422 C2.7949219,5.0126953,2.7949219,5.0136719,2.7929688,5.015625v0.0009766 C2.7910156,5.0185547,2.7910156,5.0205078,2.7900391,5.0224609c-0.0009766,0-0.0009766,0.0009766-0.0019531,0.0019531 C2.7871094,5.0263672,2.7861328,5.0273438,2.7861328,5.0292969C2.7851563,5.0302734,2.7851563,5.03125,2.7841797,5.0322266 S2.7832031,5.0341797,2.7832031,5.0351563C2.78125,5.0361328,2.78125,5.0380859,2.7802734,5.0390625 S2.7792969,5.0410156,2.7792969,5.0419922C2.7773438,5.0429688,2.7773438,5.0439453,2.7763672,5.0449219 S2.7753906,5.0478516,2.7744141,5.0488281S2.7734375,5.0507813,2.7724609,5.0527344v0.0009766 C2.7705078,5.0556641,2.7695313,5.0585938,2.7685547,5.0595703c0,0-0.0009766,0.0009766-0.0009766,0.0019531 C2.7666016,5.0634766,2.765625,5.0654297,2.7636719,5.0683594l0,0C2.7607422,5.0722656,2.7587891,5.0761719,2.7568359,5.0800781 v0.0009766C2.7548828,5.0830078,2.7539063,5.0859375,2.7529297,5.0878906c0,0-0.0009766,0-0.0009766,0.0009766 C2.6767578,5.2246094,2.6064453,5.3632813,2.5410156,5.5058594l0,0C2.5400391,5.5087891,2.5390625,5.5107422,2.5371094,5.5136719 v0.0009766C2.5351563,5.5185547,2.5332031,5.5224609,2.5322266,5.5263672c-0.0009766,0-0.0009766,0.0009766-0.0009766,0.0009766 C2.5302734,5.5292969,2.5292969,5.5322266,2.5292969,5.5341797C2.5283203,5.5351563,2.5273438,5.5351563,2.5273438,5.5361328 C2.5263672,5.5380859,2.5253906,5.5400391,2.5253906,5.5419922C2.5244141,5.5429688,2.5244141,5.5429688,2.5234375,5.5439453 c0,0.0009766,0,0.0019531-0.0009766,0.0029297c0,0.0019531-0.0009766,0.0029297-0.0019531,0.0039063 c0,0.0019531-0.0009766,0.0029297-0.0009766,0.0039063C2.5185547,5.5556641,2.5185547,5.5566406,2.5175781,5.5576172 c0,0.0019531-0.0009766,0.0029297-0.0019531,0.0048828c0,0.0009766-0.0009766,0.0019531-0.0009766,0.0029297 C2.5136719,5.5664063,2.5136719,5.5683594,2.5126953,5.5693359S2.5117188,5.5722656,2.5117188,5.5722656 C2.5097656,5.5742188,2.5097656,5.5751953,2.5097656,5.5761719S2.5078125,5.5791016,2.5078125,5.5810547 C2.5068359,5.5820313,2.5068359,5.5820313,2.5068359,5.5820313C2.5058594,5.5849609,2.5058594,5.5859375,2.5048828,5.5878906 c-0.0009766,0-0.0009766,0.0009766-0.0009766,0.0019531C2.5029297,5.5917969,2.5019531,5.59375,2.5019531,5.5947266 C2.5009766,5.5957031,2.5009766,5.5957031,2.5009766,5.5966797C2.5,5.5986328,2.4990234,5.6005859,2.4980469,5.6025391 c0,0.0009766,0,0.0009766,0,0.0009766C2.4960938,5.6064453,2.4960938,5.6083984,2.4941406,5.6103516v0.0009766 C2.4931641,5.6132813,2.4921875,5.6152344,2.4921875,5.6171875L2.4912109,5.6181641 C2.4902344,5.6201172,2.4892578,5.6220703,2.4882813,5.6240234c0,0.0009766,0,0.0009766,0,0.0009766 C2.4873047,5.6279297,2.4863281,5.6298828,2.4853516,5.6318359v0.0009766 C2.484375,5.6347656,2.4833984,5.6367188,2.4824219,5.6396484l0.9189453,0.3935547 C3.5097656,5.7792969,3.6416016,5.53125,3.7910156,5.2988281L2.9511719,4.7578125L2.9511719,4.7578125z M2.1669922,6.5869141 C2.0898438,6.9072266,2.0380859,7.2363281,2.0146484,7.5742188l0.9970703,0.0703125 c0.0195313-0.2773438,0.0625-0.5546875,0.1269531-0.8222656L2.1669922,6.5869141L2.1669922,6.5869141z M3.0224609,8.4794922 l-0.9951172,0.09375c0.0068359,0.0722656,0.0146484,0.1445313,0.0244141,0.2158203l0,0 c0.0009766,0.0048828,0.0009766,0.0097656,0.0019531,0.015625l0,0c0,0.0009766,0,0.0019531,0.0009766,0.0039063v0.0009766 c0,0.0009766,0,0.0019531,0,0.0029297l0,0c0,0.0019531,0,0.0029297,0,0.0039063l0,0 c0,0.0019531,0.0009766,0.0039063,0.0009766,0.0058594v0.0019531l0.0009766,0.0019531c0,0,0,0.0019531,0,0.0029297 c0,0,0,0.0009766,0,0.0019531s0.0009766,0.0009766,0.0009766,0.0019531s0,0.0019531,0,0.0019531 c0,0.0009766,0,0.0019531,0,0.0029297c0,0,0,0.0009766,0.0009766,0.0019531c0,0.0009766,0,0.0019531,0,0.0039063 c0,0,0,0,0,0.0009766s0,0.0019531,0.0009766,0.0029297c0,0.0009766,0,0.0019531,0,0.0019531c0,0.0009766,0,0.0019531,0,0.0029297 l0.0009766,0.0009766c0,0.0019531,0,0.0029297,0,0.0039063l0.0009766,0.0009766c0,0.0009766-0.0009766,0.0029297,0,0.0039063l0,0 C2.0625,8.8652344,2.0625,8.8691406,2.0634766,8.8720703l0,0c0,0.0009766-0.0009766,0.0029297,0,0.0039063v0.0009766 c0,0.0009766,0.0009766,0.0029297,0.0009766,0.0039063l0,0C2.0849609,9.0195313,2.109375,9.15625,2.1386719,9.2910156l0,0 C2.140625,9.2978516,2.1416016,9.3037109,2.1425781,9.3095703l0,0C2.1435547,9.3115234,2.1445313,9.3125,2.1445313,9.3134766 v0.0009766c0,0.0009766,0.0009766,0.0029297,0,0.0039063h0.0009766C2.1464844,9.3222656,2.1464844,9.3242188,2.1474609,9.328125l0,0 c0,0.0009766,0.0009766,0.0029297,0.0009766,0.0039063v0.0009766c0,0.0009766,0,0.0019531,0.0009766,0.0029297 c0,0.0009766,0,0.0009766,0,0.0019531c0.0009766,0.0009766,0.0009766,0.0019531,0.0009766,0.0029297v0.0009766 c0,0.0009766,0.0009766,0.0019531,0.0009766,0.0039063l0,0c0.0009766,0.0019531,0.0009766,0.0029297,0.0009766,0.0039063 s0,0.0019531,0,0.0019531c0.0009766,0.0009766,0.0009766,0.0019531,0.0009766,0.0019531 c0,0.0019531,0,0.0019531,0.0009766,0.0029297v0.0019531c0,0.0009766,0,0.0009766,0.0009766,0.0019531 c0,0.0009766,0,0.0019531,0,0.0019531L2.15625,9.3652344v0.0009766C2.1572266,9.3691406,2.1572266,9.3720703,2.1582031,9.375 c0,0.0009766,0,0.0009766,0,0.0019531s0.0009766,0.0019531,0.0009766,0.0019531c0,0.0009766,0,0.0009766,0,0.0019531 c0.0009766,0.0009766,0.0009766,0.0019531,0.0009766,0.0029297v0.0009766c0,0.0009766,0.0009766,0.0019531,0.0019531,0.0029297l0,0 c0,0.0039063,0.0009766,0.0078125,0.0019531,0.0107422v0.0009766c0,0.0009766,0.0009766,0.0019531,0.0009766,0.0029297 c0,0,0,0,0,0.0009766s0.0009766,0.0019531,0.0009766,0.0019531V9.40625 c0.0117188,0.0507813,0.0244141,0.1005859,0.0380859,0.1503906l0.9658203-0.2587891 C3.0986328,9.03125,3.0488281,8.7558594,3.0224609,8.4794922L3.0224609,8.4794922z M3.4511719,10.0800781l-0.9091797,0.4160156 c0.1396484,0.3046875,0.3037109,0.5957031,0.4912109,0.8701172l0.8261719-0.5615234 C3.7041016,10.5751953,3.5664063,10.3310547,3.4511719,10.0800781L3.4511719,10.0800781z M4.3837891,11.453125l-0.7236328,0.6904297 c0.2304688,0.2412109,0.4804688,0.4628906,0.7470703,0.6630859l0.5996094-0.8007813 C4.7851563,11.8398438,4.5751953,11.6533203,4.3837891,11.453125L4.3837891,11.453125z M5.7128906,12.4472656l-0.4589844,0.8886719 c0,0.0009766,0.0009766,0.0009766,0.0009766,0.0009766c0.0019531,0.0009766,0.0019531,0.0009766,0.0019531,0.0009766 c0.0029297,0.0009766,0.0048828,0.0019531,0.0068359,0.0029297c0,0,0.0009766,0.0009766,0.0019531,0.0009766 c0.0019531,0.0009766,0.0039063,0.0019531,0.0048828,0.0029297l0.0019531,0.0009766 c0.0019531,0.0009766,0.0029297,0.0009766,0.0039063,0.0019531l0.0029297,0.0019531 c0.0019531,0,0.0029297,0.0009766,0.0029297,0.0009766c0.0029297,0.0009766,0.0029297,0.0019531,0.0039063,0.0019531 c0,0,0.0029297,0.0019531,0.0048828,0.0029297c0.0009766,0,0.0019531,0.0009766,0.0019531,0.0009766 c0.0019531,0.0009766,0.0039063,0.0019531,0.0058594,0.0029297l0.0019531,0.0009766 c0.0019531,0,0.0019531,0.0009766,0.0039063,0.0019531h0.0009766c0.0029297,0.0019531,0.0048828,0.0029297,0.0068359,0.0029297 c0,0,0.0009766,0.0009766,0.0019531,0.0019531c0.0019531,0,0.0039063,0.0019531,0.0058594,0.0019531l0.0009766,0.0009766 c0.0009766,0.0009766,0.0029297,0.0019531,0.0039063,0.0019531l0.0009766,0.0009766 C5.328125,13.3740234,5.3300781,13.375,5.3330078,13.3759766l0.0009766,0.0009766 c0.0019531,0.0009766,0.0039063,0.0019531,0.0058594,0.0029297l0.0019531,0.0009766 c0.0039063,0.0019531,0.0078125,0.0039063,0.0117188,0.0058594h0.0009766 c0.0019531,0.0009766,0.0048828,0.0019531,0.0068359,0.0029297l0.0009766,0.0009766 c0.0029297,0.0019531,0.0048828,0.0019531,0.0078125,0.0039063l0,0c0.0039063,0.0019531,0.0087891,0.0039063,0.0117188,0.0058594 h0.0009766c0.0019531,0.0019531,0.0048828,0.0029297,0.0068359,0.0039063H5.390625 c0.0039063,0.0019531,0.0078125,0.0039063,0.0117188,0.0058594h0.0009766 c0.0019531,0.0019531,0.0048828,0.0029297,0.0068359,0.0039063h0.0009766 c0.2460938,0.1181641,0.5019531,0.2197266,0.765625,0.3037109l0.3037109-0.9521484 C6.2167969,12.6816406,5.9589844,12.5742188,5.7128906,12.4472656L5.7128906,12.4472656z M7.2910156,12.9501953 l-0.1269531,0.9013672H7v0.0654297C7.3251953,13.9716797,7.6591797,14,8,14l0,0l0,0l0,0l0,0l0,0l0,0v-1 C7.7626953,13,7.5234375,12.9833984,7.2910156,12.9501953L7.2910156,12.9501953z M8,11.8515625H7v1h1V11.8515625L8,11.8515625z M8,9.8515625H7v1h1V9.8515625L8,9.8515625z M8,7.8515625H7v1h1V7.8515625L8,7.8515625z M8,5.8515625H7v1h1V5.8515625L8,5.8515625z M8,3.8515625H7v1h1V3.8515625L8,3.8515625z M8,2C7.6591797,2,7.3251953,2.0283203,7,2.0830078v0.7685547h0.1328125 l0.0361328,0.2167969C7.4414063,3.0234375,7.7207031,3,8,3V2L8,2z"/></svg>