<?xml version="1.0" encoding="utf-8"?>
<!-- Generator: Adobe Illustrator 21.1.0, SVG Export Plug-In . SVG Version: 6.00 Build 0)  -->
<!DOCTYPE svg PUBLIC "-//W3C//DTD SVG 1.1//EN" "http://www.w3.org/Graphics/SVG/1.1/DTD/svg11.dtd" [
	<!ENTITY st0 "fill:#71B1E4;">
	<!ENTITY st1 "fill:#F7931E;">
	<!ENTITY st2 "fill:#D9D9D9;">
	<!ENTITY st3 "fill:#808080;">
	<!ENTITY st4 "fill:#FFFFFF;">
]>
<svg version="1.1" id="Layer_1" xmlns="http://www.w3.org/2000/svg" xmlns:xlink="http://www.w3.org/1999/xlink" x="0px" y="0px"
	 width="54px" height="180px" viewBox="0 0 54 180" style="enable-background:new 0 0 54 180;" xml:space="preserve">
<polygon style="&st0;" points="7,2 7,7 8,7 8,3 15,3 15,15 8,15 8,11 7,11 7,16 16,16 16,2 "/>
<polygon style="&st1;" points="13,9 10,5 10,8 2,8 2,10 10,10 10,13 "/>
<g>
	<polygon style="&st1;" points="13,23 16,27 13,31 	"/>
	<polygon style="&st0;" points="10,29 10,33 3,33 3,21 10,21 10,25 11,25 11,20 2,20 2,34 11,34 11,29 	"/>
	<rect x="5" y="26" transform="matrix(-1 -1.224647e-16 1.224647e-16 -1 18 54)" style="&st1;" width="8" height="2"/>
</g>
<polygon style="&st1;" points="14,131 17,135 14,139 "/>
<polygon style="&st2;" points="32,131 35,135 32,139 "/>
<rect x="11" y="134" transform="matrix(-1 -1.224647e-16 1.224647e-16 -1 25 270)" style="&st1;" width="3" height="2"/>
<g>
	<path style="&st0;" d="M10.59,50.227C9.637,51.409,8.805,52,8.096,52c-0.731,0-1.097-0.288-1.097-0.865
		c0-0.251,0.229-1.241,0.687-2.971c0.554-2.128,0.832-3.292,0.832-3.491c0-0.214-0.133-0.321-0.399-0.321
		c-0.222,0-0.61,0.341-1.164,1.02c-0.014,0.022-0.037,0.033-0.066,0.033c-0.075,0-0.154-0.047-0.238-0.144
		c-0.085-0.097-0.128-0.186-0.128-0.267c0-0.036,0.008-0.063,0.022-0.077c0.968-1.197,1.804-1.796,2.505-1.796
		c0.724,0,1.086,0.303,1.086,0.909c0,0.354-0.222,1.341-0.665,2.959c-0.554,2.063-0.831,3.218-0.831,3.47
		c0,0.214,0.125,0.321,0.377,0.321c0.213,0,0.609-0.332,1.186-0.997c0.015-0.022,0.034-0.033,0.056-0.033
		c0.066,0,0.143,0.047,0.228,0.144c0.084,0.097,0.126,0.181,0.126,0.255C10.612,50.186,10.604,50.212,10.59,50.227z"/>
	<path style="&st1;" d="M11,39.064c0,0.34-0.146,0.655-0.439,0.948c-0.291,0.291-0.6,0.437-0.925,0.437
		c-0.355,0-0.645-0.103-0.871-0.31c-0.225-0.208-0.337-0.476-0.337-0.809c0-0.324,0.147-0.629,0.443-0.909
		C9.168,38.141,9.474,38,9.792,38C10.598,38,11,38.354,11,39.064z"/>
</g>
<path style="&st0;" d="M16,68.973h-0.821c-5.211-2.178-4.68-5.748-4.117-7.34l3.791-3.783l-0.707-0.705l-3.867,3.858
	C6.656,61.974,4.405,61.048,3,58.008V56H2v12.973v0.998h1h11.969c0.023,0.01,0.042,0.019,0.065,0.029l0.012-0.029H16V68.973z
	 M7.809,62.368c0.381,0,0.784-0.038,1.196-0.093l-1.702,1.698C5.185,64.729,3.843,64.292,3,62.557v-2.58
	C4.181,61.57,5.77,62.368,7.809,62.368z M6.633,66.053c0.006,0.963,0.369,1.991,1.42,2.92H3.707L6.633,66.053z M3,68.268v-3.963
	c0.674,0.682,1.516,1.028,2.525,1.028c0.143,0,0.291-0.012,0.44-0.025L3,68.268z M9.767,68.973l0.006-0.012
	c-1.906-1.052-2.514-2.366-1.925-4.118c0.014-0.006,0.027-0.009,0.042-0.015l-0.008-0.021l1.878-1.875
	c-0.175,1.736,0.256,4.168,3.228,6.041H9.767z"/>
<polygon style="&st2;" points="25,2 25,7 26,7 26,3 33,3 33,15 26,15 26,11 25,11 25,16 34,16 34,2 "/>
<polygon style="&st3;" points="31,9 28,5 28,8 20,8 20,10 28,10 28,13 "/>
<g>
	<polygon style="&st3;" points="31,23 34,27 31,31 	"/>
	<polygon style="&st2;" points="28,29 28,33 21,33 21,21 28,21 28,25 29,25 29,20 20,20 20,34 29,34 29,29 	"/>
	<rect x="23" y="26" transform="matrix(-1 -1.224647e-16 1.224647e-16 -1 54 54)" style="&st3;" width="8" height="2"/>
</g>
<g>
	<path style="&st3;" d="M28.59,50.227C27.637,51.409,26.806,52,26.096,52c-0.731,0-1.098-0.288-1.098-0.865
		c0-0.251,0.231-1.241,0.688-2.971c0.555-2.128,0.832-3.292,0.832-3.491c0-0.214-0.134-0.321-0.399-0.321
		c-0.222,0-0.609,0.341-1.164,1.02c-0.015,0.022-0.036,0.033-0.066,0.033c-0.074,0-0.153-0.047-0.237-0.144
		c-0.086-0.097-0.129-0.186-0.129-0.267c0-0.036,0.009-0.063,0.022-0.077c0.968-1.197,1.804-1.796,2.505-1.796
		c0.724,0,1.087,0.303,1.087,0.909c0,0.354-0.222,1.341-0.665,2.959c-0.555,2.063-0.832,3.218-0.832,3.47
		c0,0.214,0.125,0.321,0.377,0.321c0.214,0,0.61-0.332,1.187-0.997c0.014-0.022,0.033-0.033,0.055-0.033
		c0.067,0,0.143,0.047,0.229,0.144c0.084,0.097,0.127,0.181,0.127,0.255C28.612,50.186,28.604,50.212,28.59,50.227z"/>
	<path style="&st2;" d="M29,39.064c0,0.34-0.146,0.655-0.438,0.948c-0.292,0.291-0.601,0.437-0.925,0.437
		c-0.354,0-0.644-0.103-0.871-0.31c-0.225-0.208-0.337-0.476-0.337-0.809c0-0.324,0.148-0.629,0.443-0.909
		c0.296-0.28,0.601-0.421,0.92-0.421C28.598,38,29,38.354,29,39.064z"/>
</g>
<path style="&st3;" d="M34,68.973h-0.82c-5.212-2.178-4.681-5.748-4.117-7.34l3.791-3.783l-0.707-0.705l-3.867,3.858
	c-3.624,0.971-5.874,0.045-7.279-2.995V56h-1v12.973v0.998h1h11.969c0.023,0.01,0.042,0.019,0.065,0.029l0.012-0.029H34V68.973z
	 M25.809,62.368c0.381,0,0.784-0.038,1.196-0.093l-1.702,1.698c-2.118,0.756-3.46,0.318-4.303-1.417v-2.58
	C22.181,61.57,23.77,62.368,25.809,62.368z M24.633,66.053c0.007,0.963,0.369,1.991,1.421,2.92h-4.347L24.633,66.053z M21,68.268
	v-3.963c0.675,0.682,1.516,1.028,2.525,1.028c0.143,0,0.291-0.012,0.44-0.025L21,68.268z M27.768,68.973l0.006-0.012
	c-1.905-1.052-2.514-2.366-1.925-4.118c0.015-0.006,0.027-0.009,0.042-0.015l-0.009-0.021l1.879-1.875
	c-0.175,1.736,0.256,4.168,3.228,6.041H27.768z"/>
<g>
	<path style="&st0;" d="M4.821,75h7.719v1.023H6.377l3.785,4.838L6.11,85.995h6.493V87H4.715v-1.167l3.869-4.921l-3.763-4.82V75z"/>
</g>
<g>
	<path style="&st3;" d="M22.821,75h7.719v1.023h-6.163l3.785,4.838l-4.053,5.134h6.493V87h-7.888v-1.167l3.869-4.921l-3.763-4.82V75
		z"/>
</g>
<rect x="4" y="93" style="&st0;" width="1" height="13"/>
<rect x="2" y="103" style="&st0;" width="13" height="1"/>
<polygon style="&st0;" points="2,95 4.5,92 7,95 "/>
<polygon style="&st0;" points="13,101 16,103.5 13,106 "/>
<rect x="7" y="102" style="&st1;" width="1" height="1"/>
<rect x="9" y="102" style="&st1;" width="1" height="1"/>
<rect x="11" y="102" style="&st1;" width="1" height="1"/>
<rect x="5" y="96" style="&st1;" width="1" height="1"/>
<rect x="5" y="98" style="&st1;" width="1" height="1"/>
<rect x="5" y="100" style="&st1;" width="1" height="1"/>
<polygon style="&st3;" points="34,103.5 31,101 31,103 23,103 23,95 25,95 22.5,92 20,95 22,95 22,103 20,103 20,104 22,104 22,106 
	23,106 23,104 31,104 31,106 "/>
<rect x="25" y="102" style="&st2;" width="1" height="1"/>
<rect x="27" y="102" style="&st2;" width="1" height="1"/>
<rect x="29" y="102" style="&st2;" width="1" height="1"/>
<rect x="23" y="96" style="&st2;" width="1" height="1"/>
<rect x="23" y="98" style="&st2;" width="1" height="1"/>
<rect x="23" y="100" style="&st2;" width="1" height="1"/>
<polygon style="&st4;" points="43,2 43,7 44,7 44,3 51,3 51,15 44,15 44,11 43,11 43,16 52,16 52,2 "/>
<polygon style="&st4;" points="49,9 46,5 46,8 38,8 38,10 46,10 46,13 "/>
<g>
	<polygon style="&st4;" points="49,23 52,27 49,31 	"/>
	<polygon style="&st4;" points="46,29 46,33 39,33 39,21 46,21 46,25 47,25 47,20 38,20 38,34 47,34 47,29 	"/>
	<rect x="41" y="26" transform="matrix(-1 -1.224647e-16 1.224647e-16 -1 90 54)" style="&st4;" width="8" height="2"/>
</g>
<g>
	<path style="&st4;" d="M46.59,50.227C45.637,51.409,44.806,52,44.096,52c-0.731,0-1.098-0.288-1.098-0.865
		c0-0.251,0.23-1.241,0.688-2.971c0.555-2.128,0.832-3.292,0.832-3.491c0-0.214-0.134-0.321-0.399-0.321
		c-0.222,0-0.609,0.341-1.164,1.02c-0.015,0.022-0.036,0.033-0.066,0.033c-0.074,0-0.153-0.047-0.237-0.144
		c-0.086-0.097-0.129-0.186-0.129-0.267c0-0.036,0.009-0.063,0.022-0.077c0.968-1.197,1.804-1.796,2.505-1.796
		c0.724,0,1.087,0.303,1.087,0.909c0,0.354-0.222,1.341-0.665,2.959c-0.555,2.063-0.832,3.218-0.832,3.47
		c0,0.214,0.125,0.321,0.377,0.321c0.214,0,0.61-0.332,1.187-0.997c0.014-0.022,0.033-0.033,0.055-0.033
		c0.067,0,0.143,0.047,0.229,0.144c0.084,0.097,0.127,0.181,0.127,0.255C46.612,50.186,46.604,50.212,46.59,50.227z"/>
	<path style="&st4;" d="M47,39.064c0,0.34-0.146,0.655-0.438,0.948c-0.292,0.291-0.601,0.437-0.925,0.437
		c-0.354,0-0.645-0.103-0.871-0.31c-0.225-0.208-0.337-0.476-0.337-0.809c0-0.324,0.147-0.629,0.443-0.909
		c0.296-0.28,0.601-0.421,0.92-0.421C46.598,38,47,38.354,47,39.064z"/>
</g>
<path style="&st4;" d="M52,68.973h-0.82c-5.212-2.178-4.681-5.748-4.117-7.34l3.791-3.783l-0.707-0.705l-3.867,3.858
	c-3.624,0.971-5.874,0.045-7.279-2.995V56h-1v12.973v0.998h1h11.969c0.023,0.01,0.042,0.019,0.065,0.029l0.012-0.029H52V68.973z
	 M43.809,62.368c0.381,0,0.784-0.038,1.196-0.093l-1.702,1.698c-2.118,0.756-3.46,0.318-4.303-1.417v-2.58
	C40.181,61.57,41.77,62.368,43.809,62.368z M42.633,66.053c0.007,0.963,0.369,1.991,1.421,2.92h-4.347L42.633,66.053z M39,68.268
	v-3.963c0.675,0.682,1.516,1.028,2.525,1.028c0.143,0,0.291-0.012,0.44-0.025L39,68.268z M45.768,68.973l0.006-0.012
	c-1.905-1.052-2.514-2.366-1.925-4.118c0.015-0.006,0.027-0.009,0.042-0.015l-0.009-0.021l1.879-1.875
	c-0.175,1.736,0.256,4.168,3.228,6.041H45.768z"/>
<g>
	<path style="&st4;" d="M40.821,75h7.719v1.023h-6.163l3.785,4.838l-4.053,5.134h6.493V87h-7.888v-1.167l3.869-4.921l-3.763-4.82V75
		z"/>
</g>
<polygon style="&st4;" points="52,103.5 49,101 49,103 41,103 41,95 43,95 40.5,92 38,95 40,95 40,103 38,103 38,104 40,104 40,106 
	41,106 41,104 49,104 49,106 "/>
<rect x="43" y="102" style="&st4;" width="1" height="1"/>
<rect x="45" y="102" style="&st4;" width="1" height="1"/>
<rect x="47" y="102" style="&st4;" width="1" height="1"/>
<rect x="41" y="96" style="&st4;" width="1" height="1"/>
<rect x="41" y="98" style="&st4;" width="1" height="1"/>
<rect x="41" y="100" style="&st4;" width="1" height="1"/>
<rect x="8.5" y="112.757" transform="matrix(0.7071 0.7072 -0.7072 0.7071 85.3738 27.9099)" style="&st1;" width="1" height="8.485"/>
<rect x="8.5" y="112.757" transform="matrix(-0.7071 0.7072 -0.7072 -0.7071 98.1009 193.3612)" style="&st1;" width="1" height="8.485"/>
<path style="&st0;" d="M9,112c2.757,0,5,2.243,5,5s-2.243,5-5,5c-2.757,0-5-2.243-5-5S6.243,112,9,112 M9,111c-3.314,0-6,2.686-6,6
	s2.686,6,6,6c3.314,0,6-2.686,6-6S12.314,111,9,111L9,111z"/>
<g>
	<path style="&st0;" d="M5.411,130c0.338,0.374,0.592,0.746,0.764,1.12c0.124,0.258,0.326,0.936,0.609,2.034l0.909-1.421
		c0.242-0.344,0.534-0.674,0.878-0.984c0.344-0.314,0.648-0.526,0.909-0.641C9.647,130.035,9.828,130,10.029,130
		c0.295,0,0.531,0.083,0.708,0.248c0.174,0.164,0.263,0.366,0.263,0.603c0,0.272-0.052,0.46-0.155,0.56
		c-0.193,0.18-0.413,0.269-0.661,0.269c-0.145,0-0.3-0.032-0.465-0.097c-0.325-0.115-0.54-0.172-0.651-0.172
		c-0.165,0-0.362,0.1-0.589,0.301c-0.428,0.374-0.936,1.095-1.529,2.164l0.847,3.703c0.13,0.567,0.242,0.906,0.331,1.016
		c0.089,0.112,0.18,0.168,0.269,0.168c0.145,0,0.313-0.083,0.506-0.248c0.379-0.331,0.702-0.761,0.971-1.292l0.362,0.194
		c-0.434,0.847-0.986,1.55-1.653,2.11C8.205,139.842,7.883,140,7.622,140c-0.385,0-0.692-0.226-0.919-0.678
		c-0.145-0.28-0.444-1.486-0.899-3.617c-1.074,1.945-1.935,3.197-2.583,3.757C2.8,139.82,2.395,140,2.002,140
		c-0.276,0-0.527-0.105-0.754-0.312C1.083,139.529,1,139.319,1,139.053c0-0.237,0.077-0.434,0.227-0.592
		c0.151-0.158,0.336-0.237,0.558-0.237s0.455,0.115,0.702,0.344c0.18,0.164,0.316,0.247,0.413,0.247c0.083,0,0.189-0.057,0.32-0.172
		c0.323-0.272,0.764-0.861,1.322-1.765c0.558-0.904,0.922-1.558,1.095-1.959c-0.427-1.744-0.657-2.666-0.692-2.766
		c-0.159-0.466-0.366-0.797-0.62-0.99c-0.254-0.194-0.63-0.291-1.126-0.291c-0.158,0-0.341,0.008-0.548,0.021v-0.387L5.411,130z"/>
</g>
<polygon style="&st1;" points="4,149 7,153 4,157 "/>
<rect x="1" y="152" transform="matrix(-1 -1.224647e-16 1.224647e-16 -1 5 306)" style="&st1;" width="3" height="2"/>
<g>
	<path style="&st0;" d="M11.411,148c0.338,0.374,0.592,0.746,0.764,1.12c0.124,0.258,0.326,0.936,0.609,2.034l0.909-1.421
		c0.242-0.344,0.534-0.674,0.878-0.984c0.344-0.314,0.648-0.526,0.909-0.641c0.165-0.072,0.347-0.108,0.548-0.108
		c0.295,0,0.531,0.083,0.708,0.248c0.174,0.164,0.263,0.366,0.263,0.603c0,0.272-0.052,0.46-0.155,0.56
		c-0.193,0.18-0.413,0.269-0.661,0.269c-0.145,0-0.3-0.032-0.465-0.097c-0.325-0.115-0.54-0.172-0.651-0.172
		c-0.165,0-0.362,0.1-0.589,0.301c-0.428,0.374-0.936,1.095-1.529,2.164l0.847,3.703c0.13,0.567,0.242,0.906,0.331,1.016
		c0.089,0.112,0.18,0.168,0.269,0.168c0.145,0,0.313-0.083,0.506-0.248c0.379-0.331,0.703-0.761,0.971-1.292l0.362,0.194
		c-0.434,0.847-0.986,1.55-1.653,2.11c-0.378,0.315-0.7,0.474-0.961,0.474c-0.385,0-0.692-0.226-0.919-0.678
		c-0.145-0.28-0.444-1.486-0.899-3.617c-1.074,1.945-1.935,3.197-2.583,3.757C8.8,157.82,8.395,158,8.002,158
		c-0.276,0-0.527-0.105-0.754-0.312C7.083,157.529,7,157.319,7,157.053c0-0.237,0.077-0.434,0.227-0.592
		c0.151-0.158,0.336-0.237,0.558-0.237c0.221,0,0.455,0.115,0.702,0.344c0.18,0.164,0.316,0.247,0.413,0.247
		c0.083,0,0.189-0.057,0.32-0.172c0.323-0.272,0.764-0.861,1.322-1.765c0.558-0.904,0.922-1.558,1.095-1.959
		c-0.427-1.744-0.657-2.666-0.692-2.766c-0.159-0.466-0.366-0.797-0.62-0.99c-0.254-0.194-0.63-0.291-1.126-0.291
		c-0.158,0-0.341,0.008-0.548,0.021v-0.387L11.411,148z"/>
</g>
<rect x="29" y="134" transform="matrix(-1 -1.224647e-16 1.224647e-16 -1 61 270)" style="&st2;" width="3" height="2"/>
<rect x="26.5" y="112.757" transform="matrix(0.707 0.7072 -0.7072 0.707 90.654 15.1856)" style="&st2;" width="1" height="8.485"/>
<rect x="26.5" y="112.757" transform="matrix(-0.707 0.7072 -0.7072 -0.707 128.8324 180.6252)" style="&st2;" width="1" height="8.485"/>
<path style="&st3;" d="M27,112c2.757,0,5,2.243,5,5s-2.243,5-5,5s-5-2.243-5-5S24.243,112,27,112 M27,111c-3.314,0-6,2.686-6,6
	s2.686,6,6,6s6-2.686,6-6S30.314,111,27,111L27,111z"/>
<g>
	<path style="&st3;" d="M23.411,130c0.338,0.374,0.592,0.746,0.764,1.12c0.124,0.258,0.326,0.936,0.61,2.034l0.909-1.421
		c0.242-0.344,0.534-0.674,0.878-0.984c0.344-0.314,0.648-0.526,0.909-0.641c0.165-0.072,0.347-0.108,0.548-0.108
		c0.295,0,0.531,0.083,0.708,0.248c0.174,0.164,0.263,0.366,0.263,0.603c0,0.272-0.052,0.46-0.155,0.56
		c-0.193,0.18-0.413,0.269-0.661,0.269c-0.145,0-0.3-0.032-0.465-0.097c-0.325-0.115-0.54-0.172-0.651-0.172
		c-0.165,0-0.362,0.1-0.589,0.301c-0.428,0.374-0.936,1.095-1.529,2.164l0.847,3.703c0.13,0.567,0.242,0.906,0.331,1.016
		c0.089,0.112,0.18,0.168,0.269,0.168c0.145,0,0.313-0.083,0.506-0.248c0.379-0.331,0.702-0.761,0.971-1.292l0.361,0.194
		c-0.434,0.847-0.986,1.55-1.653,2.11c-0.378,0.315-0.699,0.474-0.961,0.474c-0.385,0-0.692-0.226-0.919-0.678
		c-0.145-0.28-0.444-1.486-0.899-3.617c-1.074,1.945-1.935,3.197-2.583,3.757C20.801,139.82,20.395,140,20.002,140
		c-0.276,0-0.527-0.105-0.754-0.312c-0.165-0.158-0.248-0.369-0.248-0.635c0-0.237,0.077-0.434,0.227-0.592
		c0.15-0.158,0.337-0.237,0.558-0.237c0.221,0,0.455,0.115,0.702,0.344c0.18,0.164,0.316,0.247,0.413,0.247
		c0.083,0,0.189-0.057,0.32-0.172c0.323-0.272,0.764-0.861,1.322-1.765c0.558-0.904,0.922-1.558,1.095-1.959
		c-0.426-1.744-0.657-2.666-0.692-2.766c-0.159-0.466-0.366-0.797-0.62-0.99c-0.254-0.194-0.63-0.291-1.126-0.291
		c-0.158,0-0.341,0.008-0.547,0.021v-0.387L23.411,130z"/>
</g>
<polygon style="&st2;" points="22,149 25,153 22,157 "/>
<rect x="19" y="152" transform="matrix(-1 -1.224647e-16 1.224647e-16 -1 41 306)" style="&st2;" width="3" height="2"/>
<g>
	<path style="&st3;" d="M29.411,148c0.338,0.374,0.592,0.746,0.764,1.12c0.124,0.258,0.326,0.936,0.61,2.034l0.909-1.421
		c0.242-0.344,0.534-0.674,0.878-0.984c0.344-0.314,0.648-0.526,0.909-0.641c0.165-0.072,0.347-0.108,0.548-0.108
		c0.295,0,0.531,0.083,0.708,0.248c0.174,0.164,0.263,0.366,0.263,0.603c0,0.272-0.052,0.46-0.155,0.56
		c-0.193,0.18-0.413,0.269-0.661,0.269c-0.145,0-0.3-0.032-0.465-0.097c-0.325-0.115-0.54-0.172-0.651-0.172
		c-0.165,0-0.362,0.1-0.589,0.301c-0.428,0.374-0.936,1.095-1.529,2.164l0.847,3.703c0.13,0.567,0.242,0.906,0.331,1.016
		c0.088,0.112,0.18,0.168,0.269,0.168c0.145,0,0.313-0.083,0.506-0.248c0.379-0.331,0.702-0.761,0.971-1.292l0.361,0.194
		c-0.434,0.847-0.986,1.55-1.653,2.11c-0.378,0.315-0.699,0.474-0.961,0.474c-0.385,0-0.692-0.226-0.919-0.678
		c-0.145-0.28-0.444-1.486-0.899-3.617c-1.074,1.945-1.935,3.197-2.583,3.757C26.801,157.82,26.395,158,26.002,158
		c-0.276,0-0.527-0.105-0.754-0.312c-0.165-0.158-0.248-0.369-0.248-0.635c0-0.237,0.077-0.434,0.227-0.592
		c0.15-0.158,0.337-0.237,0.558-0.237c0.221,0,0.455,0.115,0.702,0.344c0.18,0.164,0.316,0.247,0.413,0.247
		c0.083,0,0.189-0.057,0.32-0.172c0.323-0.272,0.764-0.861,1.322-1.765c0.558-0.904,0.922-1.558,1.095-1.959
		c-0.426-1.744-0.657-2.666-0.692-2.766c-0.159-0.466-0.366-0.797-0.62-0.99c-0.254-0.194-0.63-0.291-1.126-0.291
		c-0.158,0-0.341,0.008-0.547,0.021v-0.387L29.411,148z"/>
</g>
<polygon style="&st4;" points="50,131 53,135 50,139 "/>
<rect x="47" y="134" transform="matrix(-1 -1.224647e-16 1.224647e-16 -1 97 270)" style="&st4;" width="3" height="2"/>
<rect x="44.5" y="112.757" transform="matrix(0.707 0.7072 -0.7072 0.707 95.9279 2.4559)" style="&st4;" width="1" height="8.485"/>
<rect x="44.5" y="112.757" transform="matrix(-0.707 0.7072 -0.7072 -0.707 159.5585 167.8955)" style="&st4;" width="1" height="8.485"/>
<path style="&st4;" d="M45,112c2.757,0,5,2.243,5,5s-2.243,5-5,5s-5-2.243-5-5S42.243,112,45,112 M45,111c-3.314,0-6,2.686-6,6
	s2.686,6,6,6s6-2.686,6-6S48.314,111,45,111L45,111z"/>
<g>
	<path style="&st4;" d="M41.411,130c0.338,0.374,0.592,0.746,0.764,1.12c0.124,0.258,0.326,0.936,0.61,2.034l0.909-1.421
		c0.242-0.344,0.534-0.674,0.878-0.984c0.344-0.314,0.648-0.526,0.909-0.641c0.165-0.072,0.347-0.108,0.548-0.108
		c0.295,0,0.531,0.083,0.708,0.248c0.174,0.164,0.263,0.366,0.263,0.603c0,0.272-0.052,0.46-0.155,0.56
		c-0.193,0.18-0.413,0.269-0.661,0.269c-0.145,0-0.3-0.032-0.465-0.097c-0.325-0.115-0.54-0.172-0.651-0.172
		c-0.165,0-0.362,0.1-0.589,0.301c-0.428,0.374-0.936,1.095-1.529,2.164l0.847,3.703c0.13,0.567,0.242,0.906,0.331,1.016
		c0.089,0.112,0.18,0.168,0.269,0.168c0.145,0,0.313-0.083,0.506-0.248c0.379-0.331,0.702-0.761,0.971-1.292l0.361,0.194
		c-0.434,0.847-0.986,1.55-1.653,2.11c-0.378,0.315-0.7,0.474-0.961,0.474c-0.385,0-0.692-0.226-0.919-0.678
		c-0.145-0.28-0.444-1.486-0.899-3.617c-1.074,1.945-1.935,3.197-2.583,3.757C38.8,139.82,38.395,140,38.002,140
		c-0.276,0-0.527-0.105-0.754-0.312c-0.165-0.158-0.248-0.369-0.248-0.635c0-0.237,0.077-0.434,0.227-0.592
		c0.151-0.158,0.337-0.237,0.558-0.237c0.221,0,0.455,0.115,0.702,0.344c0.18,0.164,0.316,0.247,0.413,0.247
		c0.083,0,0.189-0.057,0.32-0.172c0.323-0.272,0.764-0.861,1.322-1.765c0.558-0.904,0.922-1.558,1.095-1.959
		c-0.427-1.744-0.657-2.666-0.692-2.766c-0.159-0.466-0.366-0.797-0.62-0.99c-0.254-0.194-0.63-0.291-1.126-0.291
		c-0.158,0-0.341,0.008-0.548,0.021v-0.387L41.411,130z"/>
</g>
<polygon style="&st4;" points="40,149 43,153 40,157 "/>
<rect x="37" y="152" transform="matrix(-1 -1.224647e-16 1.224647e-16 -1 77 306)" style="&st4;" width="3" height="2"/>
<g>
	<path style="&st4;" d="M47.411,148c0.338,0.374,0.592,0.746,0.764,1.12c0.124,0.258,0.326,0.936,0.61,2.034l0.909-1.421
		c0.242-0.344,0.534-0.674,0.878-0.984c0.344-0.314,0.648-0.526,0.909-0.641c0.165-0.072,0.347-0.108,0.548-0.108
		c0.295,0,0.531,0.083,0.708,0.248c0.174,0.164,0.263,0.366,0.263,0.603c0,0.272-0.052,0.46-0.155,0.56
		c-0.193,0.18-0.413,0.269-0.661,0.269c-0.145,0-0.3-0.032-0.465-0.097c-0.325-0.115-0.54-0.172-0.651-0.172
		c-0.165,0-0.362,0.1-0.589,0.301c-0.428,0.374-0.936,1.095-1.529,2.164l0.847,3.703c0.13,0.567,0.242,0.906,0.331,1.016
		c0.088,0.112,0.18,0.168,0.269,0.168c0.145,0,0.313-0.083,0.506-0.248c0.379-0.331,0.702-0.761,0.971-1.292l0.361,0.194
		c-0.434,0.847-0.986,1.55-1.653,2.11c-0.378,0.315-0.7,0.474-0.961,0.474c-0.385,0-0.692-0.226-0.919-0.678
		c-0.145-0.28-0.444-1.486-0.899-3.617c-1.074,1.945-1.935,3.197-2.583,3.757C44.8,157.82,44.395,158,44.002,158
		c-0.276,0-0.527-0.105-0.754-0.312c-0.165-0.158-0.248-0.369-0.248-0.635c0-0.237,0.077-0.434,0.227-0.592
		c0.151-0.158,0.337-0.237,0.558-0.237c0.221,0,0.455,0.115,0.702,0.344c0.18,0.164,0.316,0.247,0.413,0.247
		c0.083,0,0.189-0.057,0.32-0.172c0.323-0.272,0.764-0.861,1.322-1.765c0.558-0.904,0.922-1.558,1.095-1.959
		c-0.427-1.744-0.657-2.666-0.692-2.766c-0.159-0.466-0.366-0.797-0.62-0.99c-0.254-0.194-0.63-0.291-1.126-0.291
		c-0.158,0-0.341,0.008-0.548,0.021v-0.387L47.411,148z"/>
</g>
<path style="&st1;" d="M15,168v1H9.24c-0.25-0.38-0.56-0.72-0.92-1H15z"/>
<path style="&st1;" d="M13,171v1H9.97c0.02-0.16,0.03-0.33,0.03-0.5s-0.01-0.34-0.03-0.5H13z"/>
<path style="&st1;" d="M15,174v1H8.32c0.36-0.28,0.67-0.62,0.92-1H15z"/>
<circle style="&st0;" cx="15.5" cy="174.5" r="1.5"/>
<circle style="&st0;" cx="13.5" cy="171.5" r="1.5"/>
<circle style="&st0;" cx="15.5" cy="168.5" r="1.5"/>
<g>
	<path style="&st0;" d="M5.5,167c-2.485,0-4.5,2.015-4.5,4.5s2.015,4.5,4.5,4.5s4.5-2.015,4.5-4.5S7.985,167,5.5,167z M5.5,175
		c-1.933,0-3.5-1.567-3.5-3.5s1.567-3.5,3.5-3.5s3.5,1.567,3.5,3.5S7.433,175,5.5,175z"/>
</g>
<path style="&st2;" d="M33,168v1h-5.76c-0.25-0.38-0.56-0.72-0.92-1H33z"/>
<path style="&st2;" d="M31,171v1h-3.03c0.02-0.16,0.03-0.33,0.03-0.5s-0.01-0.34-0.03-0.5H31z"/>
<path style="&st2;" d="M33,174v1h-6.68c0.36-0.28,0.67-0.62,0.92-1H33z"/>
<circle style="&st3;" cx="33.5" cy="174.5" r="1.5"/>
<circle style="&st3;" cx="31.5" cy="171.5" r="1.5"/>
<circle style="&st3;" cx="33.5" cy="168.5" r="1.5"/>
<g>
	<path style="&st3;" d="M23.5,167c-2.485,0-4.5,2.015-4.5,4.5s2.015,4.5,4.5,4.5s4.5-2.015,4.5-4.5S25.985,167,23.5,167z M23.5,175
		c-1.933,0-3.5-1.567-3.5-3.5s1.567-3.5,3.5-3.5s3.5,1.567,3.5,3.5S25.433,175,23.5,175z"/>
</g>
<path style="&st4;" d="M45.24,169h4.852c0.207,0.581,0.756,1,1.408,1c0.828,0,1.5-0.672,1.5-1.5s-0.672-1.5-1.5-1.5
	c-0.652,0-1.202,0.419-1.408,1H44.32C44.68,168.28,44.99,168.62,45.24,169z"/>
<path style="&st4;" d="M48.092,172c0.207,0.581,0.756,1,1.408,1c0.828,0,1.5-0.672,1.5-1.5s-0.672-1.5-1.5-1.5
	c-0.652,0-1.202,0.419-1.408,1H45.97c0.02,0.16,0.03,0.33,0.03,0.5s-0.01,0.34-0.03,0.5H48.092z"/>
<path style="&st4;" d="M51.5,173c-0.652,0-1.202,0.419-1.408,1H45.24c-0.25,0.38-0.56,0.72-0.92,1h5.772
	c0.207,0.581,0.756,1,1.408,1c0.828,0,1.5-0.672,1.5-1.5S52.328,173,51.5,173z"/>
<g>
	<path style="&st4;" d="M41.5,167c-2.485,0-4.5,2.015-4.5,4.5s2.015,4.5,4.5,4.5s4.5-2.015,4.5-4.5S43.985,167,41.5,167z M41.5,175
		c-1.933,0-3.5-1.567-3.5-3.5s1.567-3.5,3.5-3.5s3.5,1.567,3.5,3.5S43.433,175,41.5,175z"/>
</g>
</svg>
