<svg xmlns="http://www.w3.org/2000/svg" width="18" height="18" viewBox="0 0 18 18"><rect x="8.87" y="11.481" transform="scale(-1) rotate(-44.947 -32.034 22.365)" width=".766" height="3.542" fill="#f7931e"/><polygon points="11,15 11,12 10.091,12.909 8.909,14.091 8,15" fill="#f7931e"/><rect x="8.87" y="3.976" transform="rotate(44.947 9.252 5.747)" width=".766" height="3.542" fill="#f7931e"/><polygon points="11,4 8,4 8.909,4.909 10.091,6.091 11,7" fill="#f7931e"/><rect x="12" y="3" width="4" height="1" fill="#71b1e4"/><rect x="12" y="7" width="4" height="1" fill="#71b1e4"/><rect x="12" y="5" width="4" height="1" fill="#71b1e4"/><rect x="12" y="11" width="4" height="1" fill="#71b1e4"/><rect x="12" y="15" width="4" height="1" fill="#71b1e4"/><rect x="12" y="13" width="4" height="1" fill="#71b1e4"/><rect x="2" y="3" width="4" height="1" fill="#71b1e4"/><rect x="2" y="7" width="4" height="1" fill="#71b1e4"/><rect x="2" y="5" width="4" height="1" fill="#71b1e4"/><rect x="2" y="9" width="4" height="1" fill="#71b1e4"/><rect x="2" y="13" width="4" height="1" fill="#71b1e4"/><rect x="2" y="15" width="4" height="1" fill="#71b1e4"/><rect x="2" y="11" width="4" height="1" fill="#71b1e4"/></svg>