<svg xmlns="http://www.w3.org/2000/svg" width="18" height="18" viewBox="0 0 18 18"><polygon points="6.743,9.032 9.001,10.521 11.258,9.034 11.258,8.968 8.999,7.482 6.743,8.966" fill="none"/><polygon points="4,1 4,4.193 6.595,5.9 9,4.31" fill="#f7931e"/><polygon points="4,13.816 4,17 9,13.69 6.601,12.104" fill="#f7931e"/><polygon points="11.258,8.968 11.258,9.034 9.001,10.521 11.4,12.104 14,10.382 14,7.618 11.404,5.9 8.999,7.482" fill="#f7931e"/><polygon points="14,17 14,13.816 11.4,12.104 9,13.69" fill="#71b1e4"/><polygon points="6.743,9.032 6.743,8.966 8.999,7.482 6.595,5.9 4,7.618 4,10.382 6.601,12.104 9.001,10.521" fill="#71b1e4"/><polygon points="14,1 9,4.31 11.404,5.9 14,4.193" fill="#71b1e4"/><polygon points="6.601,12.104 9,13.69 11.4,12.104 9.001,10.521" fill="#71b1e4"/><polygon points="6.595,5.9 8.999,7.482 11.404,5.9 9,4.31" fill="#f7931e"/></svg>