<svg xmlns="http://www.w3.org/2000/svg" width="18" height="18" viewBox="0 0 18 18"><path d="M2.221,10.309l1.229,4.607l0.009,0.034l0.012,0.033C3.684,15.592,4.281,16,4.957,16 c0.708,0,1.314-0.434,1.508-1.08l0.011-0.036l0.008-0.037L9,3.67c0.002-0.001,2.517,11.177,2.517,11.177l0.008,0.037l0.011,0.036 c0.194,0.646,0.8,1.08,1.508,1.08c0.675,0,1.272-0.408,1.486-1.017l0.012-0.033l0.009-0.034l1.229-4.607H16h1V9.36h-2l-1.419,5.323 c-0.087,0.246-0.312,0.368-0.538,0.368c-0.234,0-0.468-0.132-0.546-0.391L9.981,2.721C9.85,2.24,9.425,2,9,2S8.15,2.24,8.019,2.721 l-2.517,11.94c-0.078,0.259-0.312,0.391-0.546,0.391c-0.226,0-0.451-0.122-0.538-0.368L3,9.36H1v0.948h1H2.221z" fill="#71b1e4"/><rect x="1" y="8" width="2" height="1" fill="#f7931e"/><rect x="15" y="8" width="2" height="1" fill="#f7931e"/><rect x="3" y="8" width="1" height="1" fill="#f7931e"/><rect x="3" y="6" width="1" height="1" fill="#f7931e"/><rect x="3" y="4" width="1" height="1" fill="#f7931e"/><rect x="9" y="2" width="1" height="1" fill="#f7931e"/><rect x="9" y="4" width="1" height="1" fill="#f7931e"/><rect x="9" y="6" width="1" height="1" fill="#f7931e"/><rect x="9" y="8" width="1" height="1" fill="#f7931e"/><rect x="9" y="10" width="1" height="1" fill="#f7931e"/><rect x="9" y="12" width="1" height="1" fill="#f7931e"/><rect x="15" y="10" width="1" height="1" fill="#f7931e"/><rect x="15" y="12" width="1" height="1" fill="#f7931e"/><rect x="9" y="14" width="1" height="1" fill="#f7931e"/><rect x="11" y="14" width="1" height="1" fill="#f7931e"/><rect x="13" y="14" width="1" height="1" fill="#f7931e"/><rect x="15" y="14" width="1" height="1" fill="#f7931e"/><rect x="3" y="2" width="1" height="1" fill="#f7931e"/><rect x="5" y="2" width="1" height="1" fill="#f7931e"/><rect x="7" y="2" width="1" height="1" fill="#f7931e"/></svg>