<svg xmlns="http://www.w3.org/2000/svg" width="18" height="18" viewBox="0 0 18 18"><rect x="8" y="12" width="6" height="1" fill="#f7931e"/><polygon points="4.743,13 4,12.257 6.257,10 4,7.743 4.743,7 7.743,10" fill="#71b1e4"/><path d="M2,3v1v2v9h14V6V4V3H2z M15,4.5C15,4.776,14.776,5,14.5,5C14.224,5,14,4.776,14,4.5 C14,4.224,14.224,4,14.5,4C14.776,4,15,4.224,15,4.5z M13,4.5C13,4.776,12.776,5,12.5,5C12.224,5,12,4.776,12,4.5 C12,4.224,12.224,4,12.5,4C12.776,4,13,4.224,13,4.5z M11,4.5C11,4.776,10.776,5,10.5,5C10.224,5,10,4.776,10,4.5 C10,4.224,10.224,4,10.5,4C10.776,4,11,4.224,11,4.5z M15,14H3V6h12V14z" fill="#71b1e4"/></svg>