<svg xmlns="http://www.w3.org/2000/svg" width="18" height="18" viewBox="0 0 18 18"><rect x="1.798" y="10" transform="rotate(-51.341 5 10.5)" width="6.403" height="1" fill="#71b1e4"/><rect x="8.595" y="7.5" transform="rotate(-50.186 12.5 8)" width="7.81" height="1.001" fill="#71b1e4"/><path d="M8.5,5C10.981,5,13,7.019,13,9.5S10.981,14,8.5,14S4,11.981,4,9.5S6.019,5,8.5,5 M8.5,4	C5.462,4,3,6.463,3,9.5S5.462,15,8.5,15S14,12.537,14,9.5S11.538,4,8.5,4L8.5,4z" fill="#71b1e4"/><circle cx="7.5" cy="7.5" r="1.5" fill="#f7931e"/><circle cx="9.5" cy="11.5" r="1.5" fill="#f7931e"/><circle cx="2.5" cy="13.5" r="1.5" fill="#f7931e"/><circle cx="15.5" cy="4.5" r="1.5" fill="#f7931e"/></svg>