<svg xmlns="http://www.w3.org/2000/svg" width="18" height="18" viewBox="0 0 18 18"><rect x="2" y="2" width="4" height="1" fill="#71b1e4"/><rect x="2" y="4" width="4" height="1" fill="#71b1e4"/><rect x="7" y="2" width="4" height="1" fill="#71b1e4"/><rect x="7" y="4" width="4" height="1" fill="#71b1e4"/><rect x="12" y="2" width="4" height="1" fill="#71b1e4"/><rect x="12" y="4" width="4" height="1" fill="#71b1e4"/><rect x="2" y="13" width="4" height="1" fill="#f7931e"/><rect x="2" y="15" width="4" height="1" fill="#f7931e"/><rect x="7" y="13" width="4" height="1" fill="#f7931e"/><rect x="7" y="15" width="4" height="1" fill="#f7931e"/><rect x="12" y="13" width="4" height="1" fill="#f7931e"/><rect x="2" y="11" width="4" height="1" fill="#f7931e"/><rect x="7" y="11" width="4" height="1" fill="#f7931e"/><rect x="12" y="11" width="4" height="1" fill="#f7931e"/><rect x="12" y="15" width="4" height="1" fill="#f7931e"/><rect x="9" y="6" transform="rotate(90 9.5 7.5)" width="1" height="3" fill="#71b1e4"/><rect x="9" y="6" transform="rotate(-180 9.5 7.5)" width="1" height="3" fill="#71b1e4"/></svg>