<svg xmlns="http://www.w3.org/2000/svg" width="18" height="18" viewBox="0 0 18 18"><path d="M14.583,4.102l-2.515,4.072c0.276,0.107,0.571,0.172,0.884,0.172c1.346,0,2.44-1.095,2.44-2.44 C15.392,5.188,15.075,4.549,14.583,4.102z" fill="none"/><polygon points="8,9.549 3.183,2 2,2 7,9.902 7,16 8,15.6" fill="#f7931e"/><path d="M15.096,3.268L15.882,2h-1.25L10,9.55v5.25l1-0.399V9.902l0.548-0.89c0.43,0.194,0.904,0.309,1.404,0.309 c1.884,0,3.417-1.532,3.417-3.416C16.369,4.839,15.868,3.895,15.096,3.268z M12.952,8.346c-0.313,0-0.608-0.064-0.884-0.172 l2.515-4.072c0.492,0.447,0.809,1.087,0.809,1.804C15.392,7.251,14.298,8.346,12.952,8.346z" fill="#f7931e"/><polygon points="8,15.6 10,14.8 10,9.55 14.633,2 3.183,2 8,9.549" fill="#71b1e4"/></svg>