<?xml version="1.0" encoding="UTF-8" standalone="no"?>
<!-- Created with Inkscape (http://www.inkscape.org/) -->

<svg
   xmlns:dc="http://purl.org/dc/elements/1.1/"
   xmlns:cc="http://creativecommons.org/ns#"
   xmlns:rdf="http://www.w3.org/1999/02/22-rdf-syntax-ns#"
   xmlns:svg="http://www.w3.org/2000/svg"
   xmlns="http://www.w3.org/2000/svg"
   xmlns:sodipodi="http://sodipodi.sourceforge.net/DTD/sodipodi-0.dtd"
   xmlns:inkscape="http://www.inkscape.org/namespaces/inkscape"
   width="18"
   height="18"
   viewBox="0 0 4.7624999 4.7625001"
   version="1.1"
   id="svg6106"
   inkscape:version="0.92.2 (5c3e80d, 2017-08-06)"
   sodipodi:docname="eye.svg">
  <defs
     id="defs6100" />
  <sodipodi:namedview
     id="base"
     pagecolor="#ffffff"
     bordercolor="#666666"
     borderopacity="1.0"
     inkscape:pageopacity="0.0"
     inkscape:pageshadow="2"
     inkscape:zoom="22.4"
     inkscape:cx="19.009257"
     inkscape:cy="12.17096"
     inkscape:document-units="mm"
     inkscape:current-layer="layer1"
     showgrid="false"
     units="px"
     inkscape:window-width="1920"
     inkscape:window-height="1017"
     inkscape:window-x="1276"
     inkscape:window-y="-4"
     inkscape:window-maximized="1" />
  <metadata
     id="metadata6103">
    <rdf:RDF>
      <cc:Work
         rdf:about="">
        <dc:format>image/svg+xml</dc:format>
        <dc:type
           rdf:resource="http://purl.org/dc/dcmitype/StillImage" />
        <dc:title></dc:title>
      </cc:Work>
    </rdf:RDF>
  </metadata>
  <g
     inkscape:label="Layer 1"
     inkscape:groupmode="layer"
     id="layer1"
     transform="translate(0,-292.23748)">
    <g
       transform="matrix(0.26458333,0,0,0.26458333,-0.00708702,-607.83248)"
       id="g5840">
      <path
         inkscape:connector-curvature="0"
         style="fill:#636f80"
         d="m 9,3406 c -4.921,0 -7,5 -7,5 0,0 2.18,5 7,5 4.82,0 7,-5 7,-5 0,0 -2.079,-5 -7,-5 z m 0,9 c -2.209,0 -4,-1.791 -4,-4 0,-2.209 1.791,-4 4,-4 2.209,0 4,1.791 4,4 0,2.209 -1.791,4 -4,4 z"
         id="path5838" />
    </g>
    <path
       inkscape:connector-curvature="0"
       style="fill:#636f80;stroke-width:0.26458332"
       d="m 2.374163,294.1321 c -0.068263,0 -0.13335,0.0135 -0.1931458,0.0368 0.081756,0.0357 0.1389062,0.11721 0.1389062,0.21193 0,0.12779 -0.103452,0.23124 -0.2312458,0.23124 -0.093398,0 -0.1735667,-0.0556 -0.2100792,-0.1352 -0.021431,0.0577 -0.033602,0.11959 -0.033602,0.18442 0,0.2921 0.236802,0.52916 0.5291666,0.52916 0.2923646,0 0.5291667,-0.23706 0.5291667,-0.52916 0,-0.2921 -0.2368021,-0.52917 -0.5291667,-0.52917 z"
       id="path5842" />
  </g>
</svg>
