<?xml version="1.0" encoding="utf-8"?>
<!-- Generator: Adobe Illustrator 16.2.0, SVG Export Plug-In . SVG Version: 6.00 Build 0)  -->
<!DOCTYPE svg PUBLIC "-//W3C//DTD SVG 1.1//EN" "http://www.w3.org/Graphics/SVG/1.1/DTD/svg11.dtd">
<svg version="1.1" id="Слой_1" xmlns="http://www.w3.org/2000/svg" xmlns:xlink="http://www.w3.org/1999/xlink" x="0px" y="0px"
	 width="18px" height="18px" viewBox="-0.084 2267.834 18 18" enable-background="new -0.084 2267.834 18 18" xml:space="preserve">
<g id="Layer_5">
	<path fill="#636F80" d="M15,2277h-4c-1.104,0-2,0.896-2,2v4c0,1.104,0.896,2,2,2h4c1.104,0,2-0.896,2-2v-4
		C17,2277.896,16.104,2277,15,2277z M16,2283c0,0.552-0.449,1-1,1h-4c-0.551,0-1-0.448-1-1v-4c0-0.552,0.449-1,1-1h4
		c0.551,0,1,0.448,1,1V2283z"/>
	<g>
		<polygon fill="#636F80" points="13,2280 14,2280 14,2279 13,2279 12,2279 12,2283 13,2283 14,2283 14,2282 13,2282 		"/>
		<rect x="14" y="2280" fill="#636F80" width="1" height="2"/>
	</g>
	<g>
		<path fill="#636F80" d="M10,2280.858c-0.322,0.083-0.653,0.142-1,0.142c-1.858,0-3.411-1.28-3.858-3H3.09
			c0.477,2.837,2.938,5,5.91,5c0.341,0,0.674-0.035,1-0.09V2280.858z"/>
		<path fill="#636F80" d="M6.183,2274.183C6.903,2273.455,7.896,2273,9,2273c2.206,0,4,1.794,4,4c0,0.347-0.059,0.679-0.142,1h2.052
			c0.055-0.326,0.09-0.658,0.09-1c0-3.313-2.686-6-6-6c-1.658,0-3.152,0.677-4.236,1.765L3,2271v5h5L6.183,2274.183z"/>
	</g>
</g>
</svg>
