<?xml version="1.0" encoding="UTF-8" standalone="no"?>
<!-- Created with Inkscape (http://www.inkscape.org/) -->

<svg
   xmlns:dc="http://purl.org/dc/elements/1.1/"
   xmlns:cc="http://creativecommons.org/ns#"
   xmlns:rdf="http://www.w3.org/1999/02/22-rdf-syntax-ns#"
   xmlns:svg="http://www.w3.org/2000/svg"
   xmlns="http://www.w3.org/2000/svg"
   xmlns:sodipodi="http://sodipodi.sourceforge.net/DTD/sodipodi-0.dtd"
   xmlns:inkscape="http://www.inkscape.org/namespaces/inkscape"
   width="30"
   height="18"
   viewBox="0 0 7.9374998 4.7625001"
   version="1.1"
   id="svg144"
   sodipodi:docname="variable_on.svg"
   inkscape:version="0.92.2 (5c3e80d, 2017-08-06)">
  <defs
     id="defs138" />
  <sodipodi:namedview
     id="base"
     pagecolor="#ffffff"
     bordercolor="#666666"
     borderopacity="1.0"
     inkscape:pageopacity="0.0"
     inkscape:pageshadow="2"
     inkscape:zoom="22.4"
     inkscape:cx="20.303674"
     inkscape:cy="13.853703"
     inkscape:document-units="mm"
     inkscape:current-layer="layer1"
     showgrid="false"
     units="px"
     inkscape:window-width="1920"
     inkscape:window-height="1017"
     inkscape:window-x="1276"
     inkscape:window-y="-4"
     inkscape:window-maximized="1" />
  <metadata
     id="metadata141">
    <rdf:RDF>
      <cc:Work
         rdf:about="">
        <dc:format>image/svg+xml</dc:format>
        <dc:type
           rdf:resource="http://purl.org/dc/dcmitype/StillImage" />
        <dc:title></dc:title>
      </cc:Work>
    </rdf:RDF>
  </metadata>
  <g
     inkscape:label="Layer 1"
     inkscape:groupmode="layer"
     id="layer1"
     transform="translate(0,-292.23748)">
    <g
       transform="matrix(0.26458333,0,0,0.26458333,0.19371285,288.264)"
       id="g4">
      <path
         style="fill:#636f80"
         inkscape:connector-curvature="0"
         d="M 7.859375,16 H 20.000008 C 24.418282,16 28,19.581718 28,23.999992 v 1.6e-5 C 28,28.418282 24.418282,32 20.000008,32 H 7.859375 Z"
         id="path2" />
    </g>
    <circle
       style="fill:#4f5966;stroke-width:0.26458332"
       cx="2.5749629"
       cy="294.61398"
       r="2.1166666"
       id="circle6" />
    <g
       transform="matrix(0.26458333,0,0,0.26458333,0.19371285,288.264)"
       id="g10">
      <circle
         style="fill:#00a8ed"
         cx="8"
         cy="24"
         r="8"
         id="circle8" />
    </g>
    <g
       transform="matrix(0.26458333,0,0,0.26458333,0.19371285,288.264)"
       id="g14">
      <path
         style="fill:#ffffff"
         inkscape:connector-curvature="0"
         d="m 7.4791455,21.278322 c 0.1914063,0.203125 0.3359375,0.40625 0.4335938,0.609375 0.070312,0.140625 0.1855464,0.509766 0.3457026,1.107422 l 0.515625,-0.773437 c 0.1367188,-0.1875 0.3027344,-0.366211 0.4980469,-0.536133 0.1953125,-0.169922 0.3671875,-0.286133 0.515625,-0.348633 0.09375,-0.03906 0.1972656,-0.05859 0.3105472,-0.05859 0.167969,0 0.301758,0.04492 0.401367,0.134766 0.09961,0.08984 0.149414,0.199219 0.149414,0.328125 0,0.148437 -0.0293,0.25 -0.08789,0.304687 -0.109375,0.09766 -0.234375,0.146485 -0.375,0.146485 -0.08203,0 -0.169922,-0.01758 -0.2636715,-0.05274 -0.1835938,-0.0625 -0.3066406,-0.09375 -0.3691406,-0.09375 -0.09375,0 -0.2050781,0.05469 -0.3339844,0.164063 -0.2421875,0.203125 -0.53125,0.595703 -0.8671875,1.177734 l 0.4804688,2.015625 c 0.074219,0.308594 0.1367188,0.493164 0.1875,0.553711 0.050781,0.06055 0.1015625,0.09082 0.1523438,0.09082 0.082031,0 0.1777344,-0.04492 0.2871094,-0.134765 0.2148438,-0.179688 0.3984375,-0.414063 0.550781,-0.703125 l 0.205078,0.105469 c -0.2460934,0.460937 -0.5585934,0.84375 -0.9374996,1.148437 -0.2148438,0.171875 -0.3964844,0.257813 -0.5449219,0.257813 -0.21875,0 -0.3925781,-0.123047 -0.5214844,-0.369141 -0.082031,-0.152344 -0.2519526,-0.808594 -0.5097651,-1.96875 -0.609375,1.058594 -1.0976563,1.740234 -1.4648438,2.044922 -0.2382813,0.195312 -0.46875,0.292969 -0.6914063,0.292969 -0.15625,0 -0.2988281,-0.05664 -0.4277344,-0.169922 -0.09375,-0.08594 -0.140625,-0.201172 -0.140625,-0.345703 0,-0.128907 0.042969,-0.236328 0.1289063,-0.322266 0.085937,-0.08594 0.1914063,-0.128906 0.3164063,-0.128906 0.125,0 0.2578125,0.0625 0.3984375,0.1875 0.1015625,0.08984 0.1796875,0.134765 0.234375,0.134765 0.046875,0 0.1074219,-0.03125 0.1816406,-0.09375 0.1835938,-0.148437 0.4335938,-0.46875 0.75,-0.960937 C 7.3033644,24.530275 7.5103957,24.174807 7.608052,23.956057 7.3658645,23.006838 7.2350051,22.504885 7.2154739,22.450197 7.1256301,22.196291 7.0084426,22.016603 6.8639114,21.911135 6.7193802,21.805666 6.5064895,21.752932 6.2252395,21.752932 c -0.089844,0 -0.1933594,0.0039 -0.3105469,0.01172 v -0.210937 z"
         id="path12" />
    </g>
    <g
       transform="matrix(0.26458333,0,0,0.26458333,0.19371285,288.264)"
       style="opacity:0.5"
       id="g20">
      <path
         style="fill:#ffffff"
         inkscape:connector-curvature="0"
         d="m 23.042799,21.124025 -0.952148,3.310547 -0.107422,0.444336 c -0.0098,0.04248 -0.01465,0.07813 -0.01465,0.107422 0,0.05225 0.01611,0.09766 0.04883,0.136719 0.02588,0.0293 0.05859,0.04394 0.09766,0.04394 0.04248,0 0.09766,-0.02588 0.166015,-0.07813 0.126953,-0.09424 0.296387,-0.289551 0.507813,-0.585937 l 0.166015,0.117187 c -0.224609,0.338379 -0.455566,0.59668 -0.693359,0.773926 -0.237793,0.177246 -0.457519,0.266113 -0.65918,0.266113 -0.140136,0 -0.245117,-0.03516 -0.314941,-0.10498 -0.06982,-0.06983 -0.104981,-0.171875 -0.104981,-0.305176 0,-0.159668 0.03564,-0.369629 0.107422,-0.629883 l 0.102539,-0.366211 c -0.426269,0.556641 -0.818847,0.945801 -1.176757,1.166992 -0.257325,0.159668 -0.509278,0.239258 -0.756836,0.239258 -0.237793,0 -0.442871,-0.09863 -0.615235,-0.29541 -0.172363,-0.196777 -0.258789,-0.467773 -0.258789,-0.812988 0,-0.517578 0.155274,-1.063477 0.466309,-1.638184 0.311035,-0.574707 0.705566,-1.03418 1.184082,-1.379394 0.374512,-0.273438 0.727539,-0.410157 1.05957,-0.410157 0.198731,0 0.36377,0.05225 0.495606,0.15625 0.131836,0.104004 0.231933,0.276856 0.300293,0.517578 l 0.175781,-0.55664 z m -1.738281,0.253907 c -0.208496,0 -0.429688,0.09766 -0.664063,0.292968 -0.332031,0.276856 -0.627441,0.687012 -0.88623,1.230469 -0.258789,0.543457 -0.388184,1.035157 -0.388184,1.47461 0,0.221191 0.05518,0.396484 0.166016,0.524902 0.11084,0.128418 0.237793,0.192871 0.380859,0.192871 0.354981,0 0.740723,-0.262207 1.157227,-0.786133 0.55664,-0.696777 0.834961,-1.411133 0.834961,-2.143554 0,-0.276856 -0.05371,-0.477051 -0.161133,-0.600586 -0.107422,-0.123535 -0.253906,-0.185547 -0.439453,-0.185547 z"
         id="path16" />
      <path
         style="fill:#ffffff"
         inkscape:connector-curvature="0"
         d="m 18.350416,26.875978 v -0.488281 h 5 v 0.488281 z"
         id="path18" />
    </g>
  </g>
</svg>
