<svg xmlns="http://www.w3.org/2000/svg" width="18" height="18" viewBox="0 0 18 18"><polygon points="8.212,16.408 6.609,10 6.309,10 4.843,12.933 3.843,8.933 3.309,10 1,10 1,9 2.691,9 4.157,6.067 5.157,10.067 5.691,9 7.391,9 7.788,10.592 9,2 10.423,9 11.691,9 13.157,6.067 14.157,10.067 14.691,9 17,9 17,10 15.309,10 13.843,12.933 12.843,8.933 12.309,10 9.577,10 9.124,7.285" fill="#71b1e4"/><path d="M9.5,2C10.327,2,11,2.673,11,3.5S10.327,5,9.5,5C8.673,5,8,4.327,8,3.5S8.673,2,9.5,2 M9.5,1	C8.119,1,7,2.119,7,3.5S8.119,6,9.5,6C10.881,6,12,4.881,12,3.5S10.881,1,9.5,1L9.5,1z" fill="#f7931e"/><path d="M8.5,13c0.827,0,1.5,0.673,1.5,1.5S9.327,16,8.5,16S7,15.327,7,14.5S7.673,13,8.5,13 M8.5,12	C7.119,12,6,13.119,6,14.5S7.119,17,8.5,17s2.5-1.119,2.5-2.5S9.881,12,8.5,12L8.5,12z" fill="#f7931e"/></svg>