<svg xmlns="http://www.w3.org/2000/svg" width="18" height="18" viewBox="0 0 18 18"><polygon points="13,1 15,3 11,3" fill="#f7931e"/><rect x="2" y="3" width="2" height="10" fill="#71b1e4"/><rect x="14" y="11" width="2" height="3" fill="#71b1e4"/><rect x="6" y="3" width="2" height="14" fill="#71b1e4"/><rect x="10" y="11" width="2" height="6" fill="#71b1e4"/><rect x="6" y="15" width="6" height="2" fill="#71b1e4"/><rect x="10" y="11" width="6" height="2" fill="#71b1e4"/><rect x="1" y="12" width="3" height="2" fill="#71b1e4"/><rect x="2" y="3" width="6" height="2" fill="#71b1e4"/><rect x="14" y="14" width="3" height="2" fill="#71b1e4"/><rect x="12" y="3" width="2" height="2" fill="#f7931e"/><rect x="10" y="10" transform="rotate(90 10.5 10.5)" width="1" height="1" fill="#f7931e"/><rect x="10" y="8" transform="rotate(90 10.5 8.5)" width="1" height="1" fill="#f7931e"/><rect x="12.5" y="5.5" transform="rotate(90 13 6.5)" width="1" height="2" fill="#f7931e"/><rect x="10" y="6" transform="rotate(90 10.5 6.5)" width="1" height="1" fill="#f7931e"/><rect x="15" y="6" transform="rotate(90 15.5 6.5)" width="1" height="1" fill="#f7931e"/><rect x="15" y="10" transform="rotate(90 15.5 10.5)" width="1" height="1" fill="#f7931e"/><rect x="15" y="8" transform="rotate(90 15.5 8.5)" width="1" height="1" fill="#f7931e"/></svg>