<?xml version="1.0" encoding="utf-8"?>
<!-- Generator: Adobe Illustrator 22.0.0, SVG Export Plug-In . SVG Version: 6.00 Build 0)  -->
<!DOCTYPE svg PUBLIC "-//W3C//DTD SVG 1.1//EN" "http://www.w3.org/Graphics/SVG/1.1/DTD/svg11.dtd" [
	<!ENTITY st0 "fill:#333333;">
	<!ENTITY st1 "fill:#A23938;">
	<!ENTITY st2 "fill:#7D2B29;">
	<!ENTITY st3 "fill:#E7D2D5;">
	<!ENTITY st4 "fill:#DFBABA;">
	<!ENTITY st5 "fill:#F2E3E3;">
	<!ENTITY st6 "fill:#E5C7C8;">
	<!ENTITY st7 "fill:#F4CA9E;">
	<!ENTITY st8 "fill:none;stroke:#FFFFFF;stroke-width:3;stroke-miterlimit:10;">
	<!ENTITY st9 "fill:#F4CA9E;stroke:#FFFFFF;stroke-width:3;stroke-miterlimit:10;">
	<!ENTITY st10 "fill:#A6D0A9;">
	<!ENTITY st11 "fill:#FFFFFF;">
	<!ENTITY st12 "fill:#93CFDD;">
	<!ENTITY st13 "fill:none;stroke:#FFFFFF;stroke-width:3;stroke-linecap:round;stroke-linejoin:round;stroke-miterlimit:10;">
]>
<svg version="1.1" xmlns="http://www.w3.org/2000/svg" xmlns:xlink="http://www.w3.org/1999/xlink" x="0px" y="0px" width="164px"
	 height="164px" viewBox="0 0 164 164" style="enable-background:new 0 0 164 164;" xml:space="preserve">
<g id="Layer_1">
	<g>
		<circle style="&st12;" cx="82" cy="82" r="82"/>
		<g>
			<g>
				<path style="&st13;" d="M76.268,101.271c-2.472,2.472-6.137,2.812-8.187,0.762c-1.268-1.268-1.619-3.154-1.118-4.995L57.001,107
					l-9.963-9.963c1.265,0.344,2.551,0.286,3.643-0.195c0.019-0.009,0.038-0.017,0.058-0.026c0.08-0.038,0.159-0.075,0.237-0.115
					c0.026-0.016,0.052-0.031,0.077-0.045c0.07-0.038,0.14-0.077,0.206-0.119c0.037-0.023,0.07-0.049,0.108-0.073
					c0.054-0.037,0.11-0.072,0.162-0.11c0.065-0.047,0.127-0.099,0.188-0.15c0.023-0.019,0.047-0.037,0.07-0.056
					c0.084-0.073,0.166-0.148,0.246-0.229c2.05-2.05,1.708-5.713-0.764-8.186c-2.472-2.472-6.137-2.816-8.187-0.766
					c-0.08,0.08-0.155,0.162-0.229,0.246c-0.017,0.021-0.035,0.045-0.052,0.066c-0.052,0.063-0.105,0.126-0.154,0.192
					c-0.038,0.052-0.075,0.11-0.112,0.164c-0.023,0.037-0.049,0.07-0.072,0.106c-0.044,0.068-0.082,0.138-0.12,0.208
					C42.33,87.973,42.314,88,42.3,88.024c-0.04,0.078-0.077,0.157-0.115,0.237c-0.009,0.019-0.017,0.038-0.026,0.058
					c-0.04,0.089-0.077,0.181-0.11,0.277c-0.003,0.007-0.009,0.016-0.01,0.024c-0.038,0.101-0.07,0.206-0.099,0.309l-0.002,0.002
					c-0.267,0.947-0.255,1.996,0.028,3.032L32,81.998l9.962-9.962c-1.841,0.501-3.728,0.152-4.996-1.117
					c-2.05-2.05-1.708-5.717,0.764-8.189c2.472-2.472,6.137-2.812,8.187-0.762c1.268,1.268,1.619,3.154,1.118,4.995l9.961-9.961
					l9.963,9.963c-1.265-0.344-2.551-0.286-3.643,0.195c-0.019,0.009-0.038,0.017-0.058,0.026c-0.08,0.038-0.159,0.075-0.237,0.115
					c-0.026,0.016-0.052,0.031-0.077,0.045c-0.07,0.038-0.14,0.077-0.206,0.119c-0.037,0.023-0.07,0.049-0.108,0.073
					c-0.054,0.037-0.11,0.072-0.162,0.11c-0.065,0.047-0.127,0.099-0.188,0.15c-0.023,0.019-0.047,0.037-0.07,0.056
					c-0.084,0.073-0.166,0.148-0.246,0.229c-2.05,2.05-1.708,5.713,0.764,8.186c2.472,2.472,6.137,2.816,8.187,0.766
					c0.08-0.08,0.155-0.162,0.229-0.246c0.017-0.021,0.035-0.045,0.052-0.066c0.052-0.063,0.105-0.126,0.153-0.192
					c0.038-0.052,0.075-0.11,0.112-0.164c0.023-0.037,0.049-0.07,0.072-0.106c0.044-0.068,0.082-0.138,0.12-0.208
					c0.014-0.024,0.03-0.051,0.044-0.075c0.04-0.079,0.077-0.157,0.115-0.237c0.009-0.019,0.017-0.038,0.026-0.058
					c0.04-0.089,0.077-0.181,0.11-0.277c0.003-0.007,0.009-0.016,0.01-0.024c0.038-0.101,0.07-0.206,0.099-0.309l0.002-0.002
					c0.267-0.947,0.255-1.996-0.028-3.032l9.965,9.965l-9.961,9.961c1.841-0.501,3.728-0.152,4.996,1.117
					C79.082,95.131,78.741,98.798,76.268,101.271z"/>
				<polygon style="&st13;" points="56.998,56.998 56.995,57.001 56.998,56.998 				"/>
			</g>
			<g>
				<path style="&st13;" d="M62.726,76.27c-2.472-2.472-2.812-6.137-0.762-8.187c1.268-1.268,3.154-1.619,4.995-1.118l-9.962-9.962
					l9.963-9.963c-0.344,1.265-0.286,2.551,0.195,3.643c0.009,0.019,0.017,0.038,0.026,0.058c0.038,0.08,0.075,0.159,0.115,0.237
					c0.016,0.026,0.031,0.052,0.045,0.077c0.038,0.07,0.077,0.14,0.119,0.206c0.023,0.037,0.049,0.07,0.073,0.108
					c0.037,0.054,0.072,0.11,0.11,0.162c0.047,0.065,0.099,0.127,0.15,0.188c0.019,0.023,0.037,0.047,0.056,0.07
					c0.073,0.084,0.148,0.166,0.229,0.246c2.05,2.05,5.713,1.708,8.186-0.764c2.472-2.472,2.816-6.137,0.766-8.187
					c-0.08-0.08-0.162-0.155-0.246-0.229c-0.021-0.017-0.045-0.035-0.066-0.052c-0.063-0.052-0.126-0.105-0.192-0.153
					c-0.052-0.038-0.11-0.075-0.164-0.112c-0.037-0.023-0.07-0.049-0.106-0.072c-0.068-0.044-0.138-0.082-0.208-0.12
					c-0.024-0.014-0.051-0.03-0.075-0.044c-0.078-0.04-0.157-0.077-0.237-0.115c-0.019-0.009-0.038-0.017-0.058-0.026
					c-0.089-0.04-0.181-0.077-0.277-0.11c-0.007-0.003-0.016-0.009-0.024-0.01c-0.101-0.038-0.206-0.07-0.309-0.099l-0.002-0.002
					c-0.947-0.267-1.996-0.255-3.032,0.028l9.965-9.965l9.962,9.962c-0.501-1.841-0.152-3.728,1.117-4.996
					c2.05-2.05,5.717-1.708,8.189,0.764c2.472,2.472,2.812,6.137,0.762,8.187c-1.268,1.268-3.154,1.619-4.995,1.118l9.961,9.961
					l-9.963,9.963c0.344-1.265,0.286-2.551-0.195-3.643c-0.009-0.019-0.017-0.038-0.026-0.058c-0.038-0.08-0.075-0.159-0.115-0.237
					c-0.016-0.026-0.031-0.052-0.045-0.077c-0.038-0.07-0.077-0.14-0.119-0.206c-0.023-0.037-0.049-0.07-0.073-0.108
					c-0.037-0.054-0.072-0.11-0.11-0.162c-0.047-0.065-0.099-0.127-0.15-0.188c-0.019-0.023-0.037-0.047-0.056-0.07
					c-0.073-0.084-0.148-0.166-0.229-0.246c-2.05-2.05-5.713-1.708-8.186,0.764c-2.472,2.472-2.816,6.137-0.766,8.187
					c0.08,0.08,0.162,0.155,0.246,0.229c0.021,0.017,0.045,0.035,0.066,0.052c0.063,0.052,0.126,0.105,0.192,0.154
					c0.052,0.038,0.11,0.075,0.164,0.112c0.037,0.023,0.07,0.049,0.106,0.072c0.068,0.044,0.138,0.082,0.208,0.12
					c0.024,0.014,0.051,0.03,0.075,0.044c0.079,0.04,0.157,0.077,0.237,0.115c0.019,0.009,0.038,0.017,0.058,0.026
					c0.089,0.04,0.181,0.077,0.277,0.11c0.007,0.003,0.016,0.009,0.024,0.01c0.101,0.038,0.206,0.07,0.309,0.099l0.002,0.002
					c0.947,0.267,1.996,0.255,3.032-0.028L81.993,82l-9.961-9.961c0.501,1.841,0.152,3.728-1.117,4.996
					C68.866,79.084,65.198,78.742,62.726,76.27z"/>
				<polygon style="&st13;" points="106.999,57 106.995,56.997 106.999,57 				"/>
			</g>
			<g>
				<path style="&st13;" d="M87.732,62.729c2.472-2.472,6.137-2.812,8.187-0.762c1.268,1.268,1.619,3.154,1.118,4.995L106.999,57
					l9.963,9.963c-1.265-0.344-2.551-0.286-3.643,0.195c-0.019,0.009-0.038,0.017-0.058,0.026c-0.08,0.038-0.159,0.075-0.237,0.115
					c-0.026,0.016-0.052,0.031-0.077,0.045c-0.07,0.038-0.14,0.077-0.206,0.119c-0.037,0.023-0.07,0.049-0.108,0.073
					c-0.054,0.037-0.11,0.072-0.162,0.11c-0.065,0.047-0.127,0.099-0.188,0.15c-0.023,0.019-0.047,0.037-0.07,0.056
					c-0.084,0.073-0.166,0.148-0.246,0.229c-2.05,2.05-1.708,5.713,0.764,8.186c2.472,2.472,6.137,2.816,8.187,0.766
					c0.08-0.08,0.155-0.162,0.229-0.246c0.017-0.021,0.035-0.045,0.052-0.066c0.052-0.063,0.105-0.126,0.154-0.192
					c0.038-0.052,0.075-0.11,0.112-0.164c0.023-0.037,0.049-0.07,0.072-0.106c0.044-0.068,0.082-0.138,0.12-0.208
					c0.014-0.024,0.03-0.051,0.044-0.075c0.04-0.078,0.077-0.157,0.115-0.237c0.009-0.019,0.017-0.038,0.026-0.058
					c0.04-0.089,0.077-0.181,0.11-0.277c0.003-0.007,0.009-0.016,0.01-0.024c0.038-0.101,0.07-0.206,0.099-0.309l0.002-0.002
					c0.267-0.947,0.255-1.996-0.028-3.032L132,82.002l-9.962,9.962c1.841-0.501,3.728-0.152,4.996,1.117
					c2.05,2.05,1.708,5.717-0.764,8.189c-2.472,2.472-6.137,2.812-8.187,0.762c-1.268-1.268-1.619-3.154-1.118-4.995l-9.961,9.961
					l-9.963-9.963c1.265,0.344,2.551,0.286,3.643-0.195c0.019-0.009,0.038-0.017,0.058-0.026c0.08-0.038,0.159-0.075,0.237-0.115
					c0.026-0.016,0.052-0.031,0.077-0.045c0.07-0.038,0.14-0.077,0.206-0.119c0.037-0.023,0.07-0.049,0.108-0.073
					c0.054-0.037,0.11-0.072,0.162-0.11c0.065-0.047,0.127-0.099,0.188-0.15c0.023-0.019,0.047-0.037,0.07-0.056
					c0.084-0.073,0.166-0.148,0.246-0.229c2.05-2.05,1.708-5.713-0.764-8.186c-2.472-2.472-6.137-2.816-8.187-0.766
					c-0.08,0.08-0.155,0.162-0.229,0.246c-0.017,0.021-0.035,0.045-0.052,0.066c-0.052,0.063-0.105,0.126-0.153,0.192
					c-0.038,0.052-0.075,0.11-0.112,0.164c-0.023,0.037-0.049,0.07-0.072,0.106c-0.044,0.068-0.082,0.138-0.12,0.208
					c-0.014,0.024-0.03,0.051-0.044,0.075c-0.04,0.079-0.077,0.157-0.115,0.237c-0.009,0.019-0.017,0.038-0.026,0.058
					c-0.04,0.089-0.077,0.181-0.11,0.277c-0.003,0.007-0.009,0.016-0.01,0.024c-0.038,0.101-0.07,0.206-0.099,0.309l-0.002,0.002
					c-0.267,0.947-0.255,1.996,0.028,3.032l-9.965-9.965l9.961-9.961c-1.841,0.501-3.728,0.152-4.996-1.117
					C84.918,68.869,85.259,65.202,87.732,62.729z"/>
				<polygon style="&st13;" points="107.002,107.002 107.005,106.999 107.002,107.002 				"/>
			</g>
			<g>
				<path style="&st13;" d="M101.274,87.73c2.472,2.472,2.812,6.137,0.762,8.187c-1.268,1.268-3.154,1.619-4.995,1.118l9.962,9.962
					l-9.963,9.963c0.344-1.265,0.286-2.551-0.195-3.643c-0.009-0.019-0.017-0.038-0.026-0.058c-0.038-0.08-0.075-0.159-0.115-0.237
					c-0.016-0.026-0.031-0.052-0.045-0.077c-0.038-0.07-0.077-0.14-0.119-0.206c-0.023-0.037-0.049-0.07-0.073-0.108
					c-0.037-0.054-0.072-0.11-0.11-0.162c-0.047-0.065-0.099-0.127-0.15-0.188c-0.019-0.023-0.037-0.047-0.056-0.07
					c-0.073-0.084-0.148-0.166-0.229-0.246c-2.05-2.05-5.713-1.708-8.186,0.764c-2.472,2.472-2.816,6.137-0.766,8.187
					c0.08,0.08,0.162,0.155,0.246,0.229c0.021,0.017,0.045,0.035,0.066,0.052c0.063,0.052,0.126,0.105,0.192,0.154
					c0.052,0.038,0.11,0.075,0.164,0.112c0.037,0.023,0.07,0.049,0.106,0.072c0.068,0.044,0.138,0.082,0.208,0.12
					c0.024,0.014,0.051,0.03,0.075,0.044c0.078,0.04,0.157,0.077,0.237,0.115c0.019,0.009,0.038,0.017,0.058,0.026
					c0.089,0.04,0.181,0.077,0.277,0.11c0.007,0.003,0.016,0.009,0.024,0.01c0.101,0.038,0.206,0.07,0.309,0.099l0.002,0.002
					c0.947,0.267,1.996,0.255,3.032-0.028l-9.965,9.965l-9.962-9.962c0.501,1.841,0.152,3.728-1.117,4.996
					c-2.05,2.05-5.717,1.708-8.189-0.764c-2.472-2.472-2.812-6.137-0.762-8.187c1.268-1.268,3.154-1.619,4.995-1.118l-9.961-9.961
					l9.963-9.963c-0.344,1.265-0.286,2.551,0.195,3.643c0.009,0.019,0.017,0.038,0.026,0.058c0.038,0.08,0.075,0.159,0.115,0.237
					c0.016,0.026,0.031,0.052,0.045,0.077c0.038,0.07,0.077,0.14,0.119,0.206c0.023,0.037,0.049,0.07,0.073,0.108
					c0.037,0.054,0.072,0.11,0.11,0.162c0.047,0.065,0.099,0.127,0.15,0.188c0.019,0.023,0.037,0.047,0.056,0.07
					c0.073,0.084,0.148,0.166,0.229,0.246c2.05,2.05,5.713,1.708,8.186-0.764c2.472-2.472,2.816-6.137,0.766-8.187
					c-0.08-0.08-0.162-0.155-0.246-0.229c-0.021-0.017-0.045-0.035-0.066-0.052c-0.063-0.052-0.126-0.105-0.192-0.154
					c-0.052-0.038-0.11-0.075-0.164-0.112c-0.037-0.023-0.07-0.049-0.106-0.072c-0.068-0.044-0.138-0.082-0.208-0.12
					c-0.024-0.014-0.051-0.03-0.075-0.044c-0.079-0.04-0.157-0.077-0.237-0.115c-0.019-0.009-0.038-0.017-0.058-0.026
					c-0.089-0.04-0.181-0.077-0.277-0.11c-0.007-0.003-0.016-0.009-0.024-0.01c-0.101-0.038-0.206-0.07-0.309-0.099l-0.002-0.002
					c-0.947-0.267-1.996-0.255-3.032,0.028L82.007,82l9.961,9.961c-0.501-1.841-0.152-3.728,1.117-4.996
					C95.134,84.916,98.802,85.258,101.274,87.73z"/>
				<polygon style="&st13;" points="57.001,107 57.005,107.003 57.001,107 				"/>
			</g>
		</g>
	</g>
</g>
<g id="Layer_2">
</g>
</svg>
