<?xml version="1.0" encoding="utf-8"?>
<!-- Generator: Adobe Illustrator 22.0.0, SVG Export Plug-In . SVG Version: 6.00 Build 0)  -->
<!DOCTYPE svg PUBLIC "-//W3C//DTD SVG 1.1//EN" "http://www.w3.org/Graphics/SVG/1.1/DTD/svg11.dtd" [
	<!ENTITY st0 "fill:#333333;">
	<!ENTITY st1 "fill:#A23938;">
	<!ENTITY st2 "fill:#7D2B29;">
	<!ENTITY st3 "fill:#E7D2D5;">
	<!ENTITY st4 "fill:#DFBABA;">
	<!ENTITY st5 "fill:#F2E3E3;">
	<!ENTITY st6 "fill:#E5C7C8;">
	<!ENTITY st7 "fill:#F4CA9E;">
	<!ENTITY st8 "fill:none;stroke:#FFFFFF;stroke-width:3;stroke-miterlimit:10;">
	<!ENTITY st9 "fill:#F4CA9E;stroke:#FFFFFF;stroke-width:3;stroke-miterlimit:10;">
	<!ENTITY st10 "fill:#A6D0A9;">
	<!ENTITY st11 "fill:#FFFFFF;">
	<!ENTITY st12 "fill:#93CFDD;">
	<!ENTITY st13 "fill:none;stroke:#FFFFFF;stroke-width:3;stroke-linecap:round;stroke-linejoin:round;stroke-miterlimit:10;">
]>
<svg version="1.1" xmlns="http://www.w3.org/2000/svg" xmlns:xlink="http://www.w3.org/1999/xlink" x="0px" y="0px" width="164px"
	 height="164px" viewBox="0 0 164 164" style="enable-background:new 0 0 164 164;" xml:space="preserve">
<g id="Layer_1">
	<g>
		<circle style="&st7;" cx="82" cy="82" r="82"/>
		<g>
			<ellipse style="&st8;" cx="72.719" cy="50.211" rx="33.719" ry="11.512"/>
			<g>
				<g>
					<path style="&st8;" d="M39,97.581c0,0,0,9.224,0,9.302c0,6.036,15.096,10.93,33.719,10.93"/>
				</g>
			</g>
			<g>
				<g>
					<path style="&st8;" d="M39,78.884c0,0,0,9.224,0,9.302c0,5.397,12.066,9.88,27.931,10.769"/>
				</g>
			</g>
			<g>
				<g>
					<path style="&st8;" d="M39,60.188c0,0,0,9.224,0,9.302c0,6.036,15.096,10.93,33.719,10.93"/>
				</g>
			</g>
			<path style="&st9;" d="M81.089,105.887c0.577,1.98,1.379,3.89,2.393,5.681l-2.887,3.642c-0.943,1.191-0.837,2.888,0.224,3.961
				l4.974,4.974c1.073,1.073,2.77,1.167,3.961,0.224l3.618-2.864c1.863,1.072,3.842,1.909,5.905,2.498l0.542,4.656
				c0.177,1.508,1.45,2.64,2.959,2.64h7.037c1.508,0,2.782-1.132,2.958-2.64l0.519-4.491c2.216-0.577,4.338-1.438,6.33-2.558
				l3.501,2.77c1.191,0.943,2.888,0.837,3.961-0.224l4.974-4.975c1.073-1.073,1.167-2.77,0.224-3.96l-2.722-3.454
				c1.132-1.957,2.016-4.043,2.605-6.223l4.196-0.484c1.509-0.177,2.641-1.45,2.641-2.958v-7.037c0-1.509-1.132-2.782-2.641-2.958
				l-4.137-0.483c-0.566-2.157-1.415-4.22-2.499-6.153l2.546-3.218c0.943-1.19,0.837-2.888-0.224-3.96l-4.962-4.962
				c-1.073-1.073-2.77-1.167-3.961-0.224l-3.123,2.475c-2.027-1.191-4.196-2.098-6.471-2.711l-0.471-4.043
				c-0.177-1.509-1.45-2.64-2.959-2.64h-7.037c-1.508,0-2.782,1.131-2.958,2.64l-0.471,4.043c-2.334,0.625-4.562,1.568-6.636,2.805
				l-3.241-2.569c-1.191-0.943-2.888-0.837-3.961,0.224l-4.974,4.974c-1.073,1.073-1.167,2.77-0.224,3.961l2.711,3.43
				c-1.084,1.957-1.91,4.043-2.452,6.212l-4.337,0.495c-1.509,0.177-2.641,1.45-2.641,2.958v7.037c0,1.509,1.132,2.782,2.641,2.958
				L81.089,105.887z M106.585,86.851c6.412,0,11.634,5.222,11.634,11.634c0,6.412-5.222,11.634-11.634,11.634
				c-6.412,0-11.634-5.222-11.634-11.634C94.951,92.073,100.173,86.851,106.585,86.851L106.585,86.851z M106.585,86.851"/>
		</g>
	</g>
</g>
<g id="Layer_2">
</g>
</svg>
