<?xml version="1.0" encoding="utf-8"?>
<!-- Generator: Adobe Illustrator 22.0.0, SVG Export Plug-In . SVG Version: 6.00 Build 0)  -->
<!DOCTYPE svg PUBLIC "-//W3C//DTD SVG 1.1//EN" "http://www.w3.org/Graphics/SVG/1.1/DTD/svg11.dtd" [
	<!ENTITY st0 "fill:#333333;">
	<!ENTITY st1 "fill:#A23938;">
	<!ENTITY st2 "fill:#7D2B29;">
	<!ENTITY st3 "fill:#E7D2D5;">
	<!ENTITY st4 "fill:#DFBABA;">
	<!ENTITY st5 "fill:#F2E3E3;">
	<!ENTITY st6 "fill:#E5C7C8;">
	<!ENTITY st7 "fill:#F4CA9E;">
	<!ENTITY st8 "fill:none;stroke:#FFFFFF;stroke-width:3;stroke-miterlimit:10;">
	<!ENTITY st9 "fill:#F4CA9E;stroke:#FFFFFF;stroke-width:3;stroke-miterlimit:10;">
	<!ENTITY st10 "fill:#A6D0A9;">
	<!ENTITY st11 "fill:#FFFFFF;">
	<!ENTITY st12 "fill:#93CFDD;">
	<!ENTITY st13 "fill:none;stroke:#FFFFFF;stroke-width:3;stroke-linecap:round;stroke-linejoin:round;stroke-miterlimit:10;">
]>
<svg version="1.1" xmlns="http://www.w3.org/2000/svg" xmlns:xlink="http://www.w3.org/1999/xlink" x="0px" y="0px" width="164px"
	 height="164px" viewBox="0 0 164 164" style="enable-background:new 0 0 164 164;" xml:space="preserve">
<g id="Layer_1">
	<g>
		<circle style="&st10;" cx="82" cy="82" r="82"/>
		<g>
			<polyline style="&st8;" points="36.861,84.166 57.667,63.57 71.78,77.475 92.847,57.088 106.647,70.575 127.139,49.561 			"/>
			<g>
				<path style="&st10;" d="M36.862,90.528c-3.508,0-6.361-2.854-6.361-6.362s2.854-6.361,6.361-6.361s6.361,2.854,6.361,6.361
					S40.37,90.528,36.862,90.528z"/>
				<path style="&st11;" d="M36.861,79.305c2.685,0,4.861,2.177,4.861,4.862c0,2.685-2.177,4.861-4.861,4.861
					c-2.685,0-4.862-2.177-4.862-4.861C32,81.481,34.177,79.305,36.861,79.305 M36.861,76.305c-4.335,0-7.862,3.527-7.862,7.862
					s3.527,7.861,7.862,7.861s7.861-3.527,7.861-7.861S41.196,76.305,36.861,76.305L36.861,76.305z"/>
			</g>
			<g>
				<circle style="&st10;" cx="57.666" cy="63.57" r="6.361"/>
				<path style="&st11;" d="M57.666,58.709c2.685,0,4.862,2.177,4.862,4.862s-2.177,4.861-4.862,4.861
					c-2.685,0-4.861-2.177-4.861-4.861S54.982,58.709,57.666,58.709 M57.666,55.709c-4.335,0-7.861,3.527-7.861,7.862
					s3.527,7.861,7.861,7.861s7.862-3.527,7.862-7.861S62.001,55.709,57.666,55.709L57.666,55.709z"/>
			</g>
			<g>
				<circle style="&st10;" cx="71.781" cy="77.476" r="6.361"/>
				<path style="&st11;" d="M71.78,72.614c2.685,0,4.862,2.177,4.862,4.861s-2.177,4.862-4.862,4.862
					c-2.685,0-4.861-2.177-4.861-4.862S69.096,72.614,71.78,72.614 M71.78,69.614c-4.335,0-7.861,3.527-7.861,7.861
					s3.527,7.862,7.861,7.862s7.862-3.527,7.862-7.862S76.115,69.614,71.78,69.614L71.78,69.614z"/>
			</g>
			<g>
				<path style="&st10;" d="M92.847,63.45c-3.508,0-6.362-2.854-6.362-6.361s2.854-6.362,6.362-6.362s6.361,2.854,6.361,6.362
					S96.355,63.45,92.847,63.45z"/>
				<path style="&st11;" d="M92.847,52.227c2.685,0,4.862,2.177,4.862,4.861c0,2.685-2.177,4.862-4.862,4.862
					c-2.685,0-4.861-2.177-4.861-4.862C87.985,54.404,90.162,52.227,92.847,52.227 M92.847,49.227c-4.335,0-7.861,3.527-7.861,7.861
					s3.527,7.862,7.861,7.862s7.862-3.527,7.862-7.862S97.182,49.227,92.847,49.227L92.847,49.227z"/>
			</g>
			<g>
				<circle style="&st10;" cx="106.647" cy="70.575" r="6.361"/>
				<path style="&st11;" d="M106.647,65.714c2.685,0,4.861,2.177,4.861,4.861s-2.177,4.861-4.861,4.861s-4.862-2.177-4.862-4.861
					S103.962,65.714,106.647,65.714 M106.647,62.714c-4.335,0-7.862,3.527-7.862,7.861s3.527,7.861,7.862,7.861
					s7.861-3.527,7.861-7.861S110.982,62.714,106.647,62.714L106.647,62.714z"/>
			</g>
			<g>
				<path style="&st10;" d="M127.138,55.923c-3.508,0-6.361-2.854-6.361-6.362s2.854-6.361,6.361-6.361
					c3.508,0,6.362,2.854,6.362,6.361S130.646,55.923,127.138,55.923z"/>
				<path style="&st11;" d="M127.139,44.7c2.685,0,4.861,2.177,4.861,4.862c0,2.685-2.177,4.861-4.861,4.861
					c-2.685,0-4.862-2.177-4.862-4.861C122.277,46.876,124.454,44.7,127.139,44.7 M127.139,41.7c-4.335,0-7.862,3.527-7.862,7.862
					s3.527,7.861,7.862,7.861c4.335,0,7.861-3.527,7.861-7.861S131.473,41.7,127.139,41.7L127.139,41.7z"/>
			</g>
			<line style="&st8;" x1="36.861" y1="100.614" x2="36.861" y2="123.3"/>
			<line style="&st8;" x1="43.806" y1="97.972" x2="43.806" y2="123.3"/>
			<line style="&st8;" x1="50.75" y1="86.395" x2="50.75" y2="123.3"/>
			<line style="&st8;" x1="57.695" y1="79.913" x2="57.695" y2="123.3"/>
			<line style="&st8;" x1="64.639" y1="91.309" x2="64.639" y2="123.3"/>
			<line style="&st8;" x1="71.583" y1="95.804" x2="71.583" y2="123.3"/>
			<line style="&st8;" x1="78.528" y1="91.309" x2="78.528" y2="123.3"/>
			<line style="&st8;" x1="85.472" y1="79.39" x2="85.472" y2="123.3"/>
			<line style="&st8;" x1="92.417" y1="73.431" x2="92.417" y2="123.3"/>
			<line style="&st8;" x1="99.361" y1="84.409" x2="99.361" y2="123.3"/>
			<line style="&st8;" x1="106.305" y1="88.117" x2="106.305" y2="123.3"/>
			<line style="&st8;" x1="113.25" y1="84.409" x2="113.25" y2="123.3"/>
			<line style="&st8;" x1="120.194" y1="72.643" x2="120.194" y2="123.3"/>
			<line style="&st8;" x1="127.139" y1="66.113" x2="127.139" y2="123.3"/>
		</g>
	</g>
</g>
<g id="Layer_2">
</g>
</svg>
