<svg xmlns="http://www.w3.org/2000/svg" width="18" height="18" viewBox="0 0 18 18"><path d="M9,16c-3.859,0-7-3.141-7-7s3.141-7,7-7c3.859,0,7,3.141,7,7S12.859,16,9,16z M9,4C6.243,4,4,6.243,4,9 s2.243,5,5,5c2.757,0,5-2.243,5-5S11.757,4,9,4z" fill="#71b1e4"/><path d="M8.761,6.181c0.355,0,0.676,0.052,0.964,0.155c0.287,0.105,0.531,0.27,0.732,0.494 c0.201,0.225,0.355,0.516,0.462,0.874C11.025,8.061,11.08,8.493,11.08,9s-0.054,0.939-0.161,1.296 c-0.107,0.358-0.261,0.649-0.462,0.874c-0.202,0.224-0.446,0.389-0.732,0.493c-0.288,0.104-0.609,0.156-0.964,0.156H6.92V6.181 H8.761z M8.69,10.989c0.188,0,0.363-0.025,0.525-0.078c0.162-0.052,0.301-0.151,0.418-0.298c0.118-0.147,0.209-0.349,0.274-0.607 C9.974,9.748,10.006,9.413,10.006,9S9.974,8.251,9.908,7.989C9.843,7.728,9.752,7.526,9.634,7.383 C9.517,7.239,9.377,7.141,9.215,7.089C9.053,7.036,8.878,7.01,8.69,7.01H7.922v3.979H8.69z" fill="#f7931e"/></svg>