<svg xmlns="http://www.w3.org/2000/svg" width="18" height="18" viewBox="0 0 18 18"><path d="M11.026,6c0.04,0.149,0.067,0.304,0.078,0.463c0.012,0.158,0.014,0.313,0.006,0.464 c-0.016,0.502-0.101,0.955-0.255,1.355c-0.153,0.402-0.339,0.783-0.557,1.146C10.079,9.79,9.847,10.153,9.6,10.519 c-0.247,0.366-0.477,0.762-0.691,1.185c-0.214,0.424-0.39,0.896-0.527,1.416c-0.138,0.521-0.207,1.121-0.207,1.8 C7.957,14.973,7.714,15,7.447,15c-0.275,0-0.521-0.027-0.74-0.08c0-0.723,0.059-1.36,0.176-1.912 C7,12.457,7.152,11.965,7.338,11.532c0.186-0.433,0.392-0.82,0.619-1.165c0.226-0.345,0.445-0.67,0.655-0.979 c0.21-0.309,0.403-0.615,0.577-0.919c0.173-0.306,0.301-0.633,0.381-0.987H5.943C5.918,7.429,5.898,7.362,5.882,7.283 c-0.017-0.07-0.029-0.149-0.037-0.238C5.838,6.957,5.833,6.852,5.833,6.727c0-0.123,0.004-0.228,0.012-0.317 c0.008-0.088,0.02-0.164,0.037-0.225C5.898,6.114,5.918,6.053,5.943,6H11.026z" fill="#f7931e"/><rect x="2" y="2" width="14" height="2" fill="#71b1e4"/><path d="M15,5v11H3V5H15 M16,4H2v13h14V4L16,4z" fill="#71b1e4"/></svg>