<?xml version="1.0" encoding="utf-8"?>
<!DOCTYPE svg PUBLIC "-//W3C//DTD SVG 1.1//EN" "http://www.w3.org/Graphics/SVG/1.1/DTD/svg11.dtd" [
	<!ENTITY st0 "fill:#FFFFFF;">
	<!ENTITY st1 "fill:#808080;">
	<!ENTITY st2 "fill:#BFBFBF;">
	<!ENTITY st3 "fill:#71B1E4;">
	<!ENTITY st4 "fill:#F7931E;">
	<!ENTITY st5 "fill:#D9D9D9;">
]>
<svg version="1.1" id="usage-types" xmlns="http://www.w3.org/2000/svg" xmlns:xlink="http://www.w3.org/1999/xlink" x="0px"
	 y="0px" width="18px" height="18px" viewBox="0 0 18 18" style="enable-background:new 0 0 18 18;" xml:space="preserve">
<g id="replace-by.default">
	<polygon style="&st4;" points="7,9 4,6 4,8 1,8 1,10 4,10 4,12 	"/>
	<path style="&st4;" d="M14.654,7.368C14.868,6.956,15,6.495,15,6c0-1.654-1.346-3-3-3H8v12h5c2.206,0,4-1.794,4-4
		C17,9.386,16.034,8,14.654,7.368z M10,5h2c0.551,0,1,0.448,1,1s-0.449,1-1,1h-2V5z M13,13h-3V9h3c1.103,0,2,0.897,2,2
		S14.103,13,13,13z"/>
</g>
</svg>
