<svg xmlns="http://www.w3.org/2000/svg" width="18" height="18" viewBox="0 0 18 18"><path d="M2.822,6.627c0.557-0.144,1.031-0.348,1.422-0.613c0.391-0.265,0.748-0.617,1.071-1.058	C5.369,4.938,5.437,4.92,5.518,4.902C5.59,4.884,5.675,4.868,5.773,4.854c0.099-0.013,0.225-0.019,0.378-0.019	c0.144,0,0.267,0.007,0.37,0.019c0.104,0.014,0.191,0.029,0.263,0.048C6.865,4.92,6.938,4.938,7,4.956v8.923	c-0.054,0.026-0.121,0.049-0.202,0.067c-0.072,0.018-0.161,0.031-0.27,0.04C6.421,13.995,6.295,14,6.151,14	c-0.135,0-0.259-0.005-0.371-0.014c-0.112-0.009-0.204-0.022-0.276-0.04c-0.09-0.019-0.166-0.041-0.229-0.067V8.717	c0-0.333,0.007-0.639,0.02-0.917c0.014-0.278,0.029-0.534,0.048-0.768c-0.315,0.261-0.654,0.47-1.018,0.627	c-0.364,0.157-0.73,0.281-1.099,0.371c-0.162-0.162-0.281-0.368-0.357-0.62C2.793,7.157,2.777,6.897,2.822,6.627z" fill="#71b1e4"/><path d="M9.892,6.398c-0.18-0.143-0.313-0.319-0.397-0.526C9.408,5.666,9.38,5.437,9.406,5.186	c0.216-0.09,0.459-0.171,0.729-0.243c0.225-0.063,0.489-0.119,0.795-0.168c0.306-0.05,0.638-0.074,0.997-0.074	c0.423,0,0.82,0.047,1.193,0.142c0.372,0.094,0.698,0.242,0.977,0.444c0.279,0.202,0.499,0.465,0.661,0.788	C14.919,6.398,15,6.789,15,7.247c0,0.432-0.059,0.802-0.175,1.112c-0.117,0.309-0.288,0.586-0.513,0.829	c-0.225,0.242-0.494,0.47-0.809,0.681c-0.314,0.211-0.674,0.438-1.078,0.681c-0.189,0.116-0.384,0.233-0.586,0.351	c-0.202,0.116-0.387,0.242-0.553,0.377c-0.167,0.135-0.306,0.283-0.418,0.444c-0.112,0.162-0.169,0.347-0.169,0.553	c0,0.045,0.009,0.113,0.027,0.202h4.003c0.063,0.108,0.105,0.227,0.128,0.357c0.023,0.131,0.034,0.263,0.034,0.397	c0,0.288-0.054,0.544-0.162,0.769H9.137c-0.018-0.081-0.031-0.171-0.04-0.269c-0.027-0.162-0.041-0.373-0.041-0.634	c0-0.521,0.079-0.973,0.236-1.354c0.157-0.382,0.359-0.719,0.606-1.011c0.247-0.292,0.525-0.548,0.836-0.768	c0.309-0.22,0.617-0.434,0.923-0.64c0.297-0.198,0.546-0.378,0.748-0.539c0.202-0.162,0.366-0.317,0.492-0.466	c0.126-0.148,0.216-0.303,0.269-0.465c0.054-0.161,0.081-0.351,0.081-0.565c0-0.413-0.144-0.715-0.432-0.903	c-0.287-0.188-0.674-0.283-1.159-0.283c-0.233,0-0.456,0.016-0.667,0.047c-0.211,0.032-0.397,0.066-0.559,0.102	C10.242,6.295,10.063,6.344,9.892,6.398z" fill="#71b1e4"/></svg>