<svg xmlns="http://www.w3.org/2000/svg" width="18" height="18" viewBox="0 0 18 18"><path d="M4.903,10c-0.465,0-0.876-0.074-1.235-0.223C3.311,9.628,3.008,9.393,2.76,9.068 C2.513,8.744,2.324,8.33,2.195,7.823C2.064,7.316,2,6.708,2,6c0-1.402,0.252-2.419,0.754-3.052C3.258,2.316,3.973,2,4.903,2 c0.464,0,0.877,0.073,1.24,0.223c0.361,0.148,0.668,0.385,0.92,0.708C7.314,3.256,7.505,3.67,7.635,4.177 C7.764,4.684,7.829,5.292,7.829,6S7.764,7.316,7.635,7.823C7.505,8.33,7.314,8.744,7.063,9.068 c-0.251,0.324-0.559,0.559-0.92,0.709C5.781,9.926,5.368,10,4.903,10z M4.903,3.212c-0.214,0-0.406,0.035-0.577,0.108 C4.155,3.392,4.01,3.531,3.892,3.737C3.774,3.942,3.684,4.227,3.623,4.589C3.562,4.95,3.532,5.421,3.532,6 c0,0.571,0.03,1.038,0.091,1.399c0.061,0.362,0.151,0.647,0.269,0.852C4.01,8.457,4.155,8.598,4.326,8.674 C4.498,8.75,4.689,8.788,4.903,8.788c0.221,0,0.415-0.038,0.583-0.114c0.167-0.076,0.309-0.217,0.423-0.423 C6.023,8.046,6.11,7.762,6.172,7.399C6.233,7.038,6.263,6.571,6.263,6c0-0.579-0.03-1.05-0.091-1.411 C6.11,4.227,6.023,3.942,5.909,3.737C5.795,3.531,5.653,3.392,5.486,3.32C5.318,3.247,5.125,3.212,4.903,3.212z" fill="#71b1e4"/><path d="M12.022,9.564c0.486-0.126,0.9-0.304,1.241-0.535c0.341-0.231,0.653-0.539,0.935-0.924 c0.047-0.015,0.106-0.031,0.176-0.047c0.063-0.016,0.137-0.029,0.223-0.042C14.684,8.006,14.794,8,14.928,8 c0.125,0,0.233,0.006,0.323,0.017c0.09,0.013,0.167,0.026,0.229,0.042c0.071,0.016,0.134,0.032,0.189,0.047v7.789 c-0.047,0.023-0.106,0.042-0.176,0.059c-0.063,0.016-0.141,0.027-0.235,0.035C15.163,15.996,15.053,16,14.928,16 c-0.118,0-0.226-0.004-0.324-0.012c-0.098-0.008-0.178-0.02-0.241-0.035c-0.079-0.017-0.145-0.036-0.2-0.059v-4.506 c0-0.291,0.006-0.558,0.017-0.801c0.012-0.243,0.025-0.466,0.042-0.671c-0.275,0.227-0.571,0.41-0.888,0.548 c-0.318,0.137-0.637,0.245-0.959,0.323c-0.141-0.142-0.245-0.321-0.312-0.541C11.996,10.027,11.982,9.8,12.022,9.564z" fill="#f7931e"/><path d="M11.328,4.121c0.063-0.019,0.135-0.036,0.216-0.054c0.072-0.019,0.157-0.034,0.256-0.048 C11.899,4.006,12.016,4,12.15,4s0.256,0.006,0.364,0.019c0.108,0.014,0.197,0.029,0.27,0.048c0.09,0.018,0.162,0.035,0.216,0.054 L8.512,14.62c-0.063,0.027-0.135,0.05-0.216,0.067c-0.072,0.019-0.16,0.032-0.263,0.041c-0.104,0.009-0.218,0.014-0.344,0.014 c-0.145,0-0.268-0.005-0.371-0.014c-0.104-0.009-0.19-0.022-0.263-0.041c-0.09-0.018-0.162-0.04-0.216-0.067L11.328,4.121z" fill="#71b1e4"/></svg>