<?xml version="1.0" encoding="UTF-8"?>
<!-- Generator: Adobe Illustrator 20.1.0, SVG Export Plug-In . SVG Version: 6.00 Build 0)  -->
<!DOCTYPE svg PUBLIC "-//W3C//DTD SVG 1.1//EN" "http://www.w3.org/Graphics/SVG/1.1/DTD/svg11.dtd">
<svg version="1.1" id="Слой_1" xmlns="http://www.w3.org/2000/svg" xmlns:xlink="http://www.w3.org/1999/xlink" x="0px" y="0px" width="24px" height="24px" viewBox="0 0 24 24" style="enable-background:new 0 0 24 24;" xml:space="preserve">
<rect x="2" y="7" style="fill:#F7931E;" width="6" height="2"/>
<rect x="2" y="10" style="fill:#F7931E;" width="6" height="2"/>
<rect x="2" y="13" style="fill:#F7931E;" width="6" height="2"/>
<rect x="2" y="16" style="fill:#F7931E;" width="6" height="2"/>
<rect x="2" y="19" style="fill:#F7931E;" width="6" height="2"/>
<rect x="2" y="3" style="fill:#71B1E4;" width="6" height="3"/>
<rect x="16" y="7" style="fill:#F7931E;" width="6" height="2"/>
<rect x="16" y="10" style="fill:#F7931E;" width="6" height="2"/>
<rect x="16" y="13" style="fill:#F7931E;" width="6" height="2"/>
<rect x="16" y="3" style="fill:#71B1E4;" width="6" height="3"/>
<rect x="11" y="9" transform="matrix(-1 -1.224647e-16 1.224647e-16 -1 24 24)" style="fill:#71B1E4;" width="2" height="6"/>
<rect x="11" y="9" transform="matrix(6.123234e-17 -1 1 6.123234e-17 0 24)" style="fill:#71B1E4;" width="2" height="6"/>
</svg>