<?xml version="1.0" encoding="UTF-8"?>
<!-- Generator: Adobe Illustrator 16.2.0, SVG Export Plug-In . SVG Version: 6.00 Build 0)  -->
<!DOCTYPE svg PUBLIC "-//W3C//DTD SVG 1.1//EN" "http://www.w3.org/Graphics/SVG/1.1/DTD/svg11.dtd">
<svg version="1.1" id="Layer_1" xmlns="http://www.w3.org/2000/svg" xmlns:xlink="http://www.w3.org/1999/xlink" x="0px" y="0px" width="18px" height="18px" viewBox="0 53.75 18 18" enable-background="new 0 53.75 18 18" xml:space="preserve">
<g>
	<g>
		<path fill="#F7931E" d="M11,63c0-1.474-0.81-2.75-2-3.443C7.81,60.25,7,61.526,7,63s0.81,2.75,2,3.443    C10.19,65.75,11,64.474,11,63z"/>
	</g>
</g>
<path fill="#71B1E4" d="M11,58c-0.712,0-1.387,0.154-2,0.422C8.387,58.154,7.712,58,7,58c-2.761,0-5,2.239-5,5s2.239,5,5,5  c0.712,0,1.387-0.154,2-0.422C9.613,67.846,10.288,68,11,68c2.761,0,5-2.239,5-5S13.761,58,11,58z M7,67c-2.206,0-4-1.794-4-4  s1.794-4,4-4c0.309,0,0.606,0.043,0.895,0.109C6.749,60.025,6,61.418,6,63s0.749,2.975,1.895,3.891C7.606,66.957,7.309,67,7,67z   M11,63c0,1.474-0.81,2.75-2,3.443C7.81,65.75,7,64.474,7,63s0.81-2.75,2-3.443C10.19,60.25,11,61.526,11,63z M11,67  c-0.309,0-0.606-0.043-0.895-0.109C11.251,65.975,12,64.582,12,63s-0.749-2.975-1.895-3.891C10.394,59.043,10.691,59,11,59  c2.206,0,4,1.794,4,4S13.206,67,11,67z"/>
</svg>