<?xml version="1.0" encoding="utf-8"?>
<!-- Generator: Adobe Illustrator 16.2.0, SVG Export Plug-In . SVG Version: 6.00 Build 0)  -->
<!DOCTYPE svg PUBLIC "-//W3C//DTD SVG 1.1//EN" "http://www.w3.org/Graphics/SVG/1.1/DTD/svg11.dtd">
<svg version="1.1" id="Layer_1" xmlns="http://www.w3.org/2000/svg" xmlns:xlink="http://www.w3.org/1999/xlink" x="0px" y="0px"
	 width="18px" height="18px" viewBox="0 143.75 18 18" enable-background="new 0 143.75 18 18" xml:space="preserve">
<g>
	<g>
		<path fill="#F7931E" d="M7,157c0.309,0,0.606-0.043,0.895-0.109C6.749,155.975,6,154.582,6,153s0.749-2.975,1.895-3.891
			C7.606,149.043,7.309,149,7,149c-2.206,0-4,1.795-4,4S4.794,157,7,157z"/>
	</g>
	<g>
		<path fill="#F7931E" d="M11,153c0-1.474-0.81-2.75-2-3.443c-1.19,0.693-2,1.97-2,3.443s0.81,2.75,2,3.443
			C10.19,155.75,11,154.474,11,153z"/>
	</g>
</g>
<path fill="#71B1E4" d="M7,158c0.712,0,1.387-0.154,2-0.422c0.613,0.268,1.288,0.422,2,0.422c2.761,0,5-2.238,5-5s-2.239-5-5-5
	c-0.712,0-1.387,0.154-2,0.422C8.387,148.154,7.712,148,7,148c-2.761,0-5,2.238-5,5S4.239,158,7,158z M11,149c2.206,0,4,1.795,4,4
	s-1.794,4-4,4c-0.309,0-0.606-0.043-0.895-0.109C11.251,155.975,12,154.582,12,153s-0.749-2.975-1.895-3.891
	C10.394,149.043,10.691,149,11,149z M7,153c0-1.474,0.81-2.75,2-3.443c1.19,0.693,2,1.97,2,3.443s-0.81,2.75-2,3.443
	C7.81,155.75,7,154.474,7,153z M7,149c0.309,0,0.606,0.043,0.895,0.109C6.749,150.025,6,151.418,6,153s0.749,2.975,1.895,3.891
	C7.606,156.957,7.309,157,7,157c-2.206,0-4-1.795-4-4S4.794,149,7,149z"/>
</svg>
