<?xml version="1.0" encoding="UTF-8"?>
<!-- Generator: Adobe Illustrator 16.2.0, SVG Export Plug-In . SVG Version: 6.00 Build 0)  -->
<!DOCTYPE svg PUBLIC "-//W3C//DTD SVG 1.1//EN" "http://www.w3.org/Graphics/SVG/1.1/DTD/svg11.dtd">
<svg version="1.1" id="Layer_1" xmlns="http://www.w3.org/2000/svg" xmlns:xlink="http://www.w3.org/1999/xlink" x="0px" y="0px" width="18px" height="18px" viewBox="0 107.75 18 18" enable-background="new 0 107.75 18 18" xml:space="preserve">
<g>
	<g>
		<path fill="#F7931E" d="M7,121c0.304,0,0.596-0.042,0.881-0.107c-0.669-0.535-1.19-1.239-1.514-2.047    c-0.032-0.078-0.064-0.156-0.092-0.235c-0.035-0.102-0.064-0.204-0.093-0.308c-0.035-0.127-0.063-0.255-0.088-0.385    c-0.015-0.082-0.032-0.162-0.043-0.244C6.02,117.453,6,117.229,6,117s0.02-0.453,0.051-0.674c0.011-0.082,0.028-0.162,0.043-0.244    c0.025-0.13,0.054-0.258,0.088-0.385c0.028-0.104,0.058-0.206,0.093-0.308c0.028-0.079,0.06-0.157,0.092-0.234    c0.323-0.809,0.845-1.513,1.514-2.048C7.597,113.042,7.304,113,7,113c-2.206,0-4,1.795-4,4S4.794,121,7,121z"/>
	</g>
</g>
<path fill="#71B1E4" d="M7,122c0.712,0,1.387-0.154,2-0.422c0.613,0.268,1.288,0.422,2,0.422c2.761,0,5-2.238,5-5s-2.239-5-5-5  c-0.712,0-1.387,0.154-2,0.422C8.387,112.154,7.712,112,7,112c-2.761,0-5,2.238-5,5S4.239,122,7,122z M11,113c2.206,0,4,1.795,4,4  s-1.794,4-4,4c-0.309,0-0.606-0.043-0.895-0.109C11.251,119.975,12,118.582,12,117s-0.749-2.975-1.895-3.891  C10.394,113.043,10.691,113,11,113z M7,117c0-1.474,0.81-2.75,2-3.443c1.19,0.693,2,1.97,2,3.443s-0.81,2.75-2,3.443  C7.81,119.75,7,118.474,7,117z M7,113c0.309,0,0.606,0.043,0.895,0.109C6.749,114.025,6,115.418,6,117s0.749,2.975,1.895,3.891  C7.606,120.957,7.309,121,7,121c-2.206,0-4-1.795-4-4S4.794,113,7,113z"/>
</svg>