<?xml version="1.0" encoding="utf-8"?>
<!-- Generator: Adobe Illustrator 16.2.0, SVG Export Plug-In . SVG Version: 6.00 Build 0)  -->
<!DOCTYPE svg PUBLIC "-//W3C//DTD SVG 1.1//EN" "http://www.w3.org/Graphics/SVG/1.1/DTD/svg11.dtd">
<svg version="1.1" id="Layer_1" xmlns="http://www.w3.org/2000/svg" xmlns:xlink="http://www.w3.org/1999/xlink" x="0px" y="0px"
	 width="18px" height="18px" viewBox="0 35.75 18 18" enable-background="new 0 35.75 18 18" xml:space="preserve">
<g>
	<g>
		<path fill="#F7931E" d="M11,41c-0.309,0-0.606,0.043-0.895,0.109C11.251,42.025,12,43.418,12,45s-0.749,2.975-1.895,3.891
			C10.394,48.957,10.691,49,11,49c2.206,0,4-1.794,4-4S13.206,41,11,41z"/>
	</g>
	<g>
		<path fill="#F7931E" d="M7,49c0.309,0,0.606-0.043,0.895-0.109C6.749,47.975,6,46.582,6,45s0.749-2.975,1.895-3.891
			C7.606,41.043,7.309,41,7,41c-2.206,0-4,1.794-4,4S4.794,49,7,49z"/>
	</g>
	<g>
		<path fill="#F7931E" d="M11,45c0-1.474-0.81-2.75-2-3.443C7.81,42.25,7,43.526,7,45s0.81,2.75,2,3.443
			C10.19,47.75,11,46.474,11,45z"/>
	</g>
</g>
<path fill="#71B1E4" d="M11,40c-0.712,0-1.387,0.154-2,0.422C8.387,40.154,7.712,40,7,40c-2.761,0-5,2.239-5,5s2.239,5,5,5
	c0.712,0,1.387-0.154,2-0.422C9.613,49.846,10.288,50,11,50c2.761,0,5-2.239,5-5S13.761,40,11,40z M7,49c-2.206,0-4-1.794-4-4
	s1.794-4,4-4c0.309,0,0.606,0.043,0.895,0.109C6.749,42.025,6,43.418,6,45s0.749,2.975,1.895,3.891C7.606,48.957,7.309,49,7,49z
	 M11,45c0,1.474-0.81,2.75-2,3.443C7.81,47.75,7,46.474,7,45s0.81-2.75,2-3.443C10.19,42.25,11,43.526,11,45z M11,49
	c-0.309,0-0.606-0.043-0.895-0.109C11.251,47.975,12,46.582,12,45s-0.749-2.975-1.895-3.891C10.394,41.043,10.691,41,11,41
	c2.206,0,4,1.794,4,4S13.206,49,11,49z"/>
</svg>
