<?xml version="1.0" encoding="UTF-8"?>
<!-- Generator: Adobe Illustrator 16.2.0, SVG Export Plug-In . SVG Version: 6.00 Build 0)  -->
<!DOCTYPE svg PUBLIC "-//W3C//DTD SVG 1.1//EN" "http://www.w3.org/Graphics/SVG/1.1/DTD/svg11.dtd">
<svg version="1.1" id="Layer_1" xmlns="http://www.w3.org/2000/svg" xmlns:xlink="http://www.w3.org/1999/xlink" x="0px" y="0px" width="18px" height="18px" viewBox="0 125.75 18 18" enable-background="new 0 125.75 18 18" xml:space="preserve">
<g>
	<g>
		<path fill="#F7931E" d="M11,131c-0.309,0-0.606,0.043-0.895,0.109C11.251,132.025,12,133.418,12,135s-0.749,2.975-1.895,3.891    C10.394,138.957,10.691,139,11,139c2.206,0,4-1.795,4-4S13.206,131,11,131z"/>
	</g>
	<g>
		<path fill="#F7931E" d="M7,135c0,1.474,0.81,2.75,2,3.443c1.19-0.693,2-1.97,2-3.443s-0.81-2.75-2-3.443    C7.81,132.25,7,133.526,7,135z"/>
	</g>
</g>
<path fill="#71B1E4" d="M11,130c-0.712,0-1.387,0.154-2,0.422C8.387,130.154,7.712,130,7,130c-2.761,0-5,2.238-5,5s2.239,5,5,5  c0.712,0,1.387-0.154,2-0.422c0.613,0.268,1.288,0.422,2,0.422c2.761,0,5-2.238,5-5S13.761,130,11,130z M7,139c-2.206,0-4-1.795-4-4  s1.794-4,4-4c0.309,0,0.606,0.043,0.895,0.109C6.749,132.025,6,133.418,6,135s0.749,2.975,1.895,3.891  C7.606,138.957,7.309,139,7,139z M11,135c0,1.474-0.81,2.75-2,3.443c-1.19-0.693-2-1.97-2-3.443s0.81-2.75,2-3.443  C10.19,132.25,11,133.526,11,135z M11,139c-0.309,0-0.606-0.043-0.895-0.109C11.251,137.975,12,136.582,12,135  s-0.749-2.975-1.895-3.891C10.394,131.043,10.691,131,11,131c2.206,0,4,1.795,4,4S13.206,139,11,139z"/>
</svg>