<?xml version="1.0" encoding="UTF-8" standalone="no"?>
<!-- Created with Inkscape (http://www.inkscape.org/) -->

<svg
   xmlns:dc="http://purl.org/dc/elements/1.1/"
   xmlns:cc="http://creativecommons.org/ns#"
   xmlns:rdf="http://www.w3.org/1999/02/22-rdf-syntax-ns#"
   xmlns:svg="http://www.w3.org/2000/svg"
   xmlns="http://www.w3.org/2000/svg"
   xmlns:sodipodi="http://sodipodi.sourceforge.net/DTD/sodipodi-0.dtd"
   xmlns:inkscape="http://www.inkscape.org/namespaces/inkscape"
   width="18"
   height="18"
   viewBox="0 0 4.7624999 4.7625001"
   version="1.1"
   id="svg56"
   inkscape:version="0.92.2 (5c3e80d, 2017-08-06)"
   sodipodi:docname="browse.svg">
  <defs
     id="defs50" />
  <sodipodi:namedview
     id="base"
     pagecolor="#ffffff"
     bordercolor="#666666"
     borderopacity="1.0"
     inkscape:pageopacity="0.0"
     inkscape:pageshadow="2"
     inkscape:zoom="22.4"
     inkscape:cx="14.460305"
     inkscape:cy="15.869296"
     inkscape:document-units="mm"
     inkscape:current-layer="layer1"
     showgrid="false"
     inkscape:window-width="1920"
     inkscape:window-height="1017"
     inkscape:window-x="1276"
     inkscape:window-y="-4"
     inkscape:window-maximized="1"
     units="px" />
  <metadata
     id="metadata53">
    <rdf:RDF>
      <cc:Work
         rdf:about="">
        <dc:format>image/svg+xml</dc:format>
        <dc:type
           rdf:resource="http://purl.org/dc/dcmitype/StillImage" />
        <dc:title></dc:title>
      </cc:Work>
    </rdf:RDF>
  </metadata>
  <g
     inkscape:label="Layer 1"
     inkscape:groupmode="layer"
     id="layer1"
     transform="translate(0,-292.23748)">
    <path
       inkscape:connector-curvature="0"
       style="fill:#636f80;stroke-width:0.26458332"
       d="m 2.3647135,296.29838 v 0 c -0.219108,0 -0.396875,-0.17777 -0.396875,-0.39687 v 0 c 0,-0.21911 0.177767,-0.39688 0.396875,-0.39688 v 0 c 0.2191081,0 0.396875,0.17777 0.396875,0.39688 v 0 c 0,0.2191 -0.1777669,0.39687 -0.396875,0.39687 z"
       id="path14" />
    <path
       inkscape:connector-curvature="0"
       style="fill:#636f80;stroke-width:0.26458332"
       d="m 1.3063802,296.29838 v 0 c -0.2191081,0 -0.39687501,-0.17777 -0.39687501,-0.39687 v 0 c 0,-0.21911 0.17776691,-0.39688 0.39687501,-0.39688 v 0 c 0.2191081,0 0.396875,0.17777 0.396875,0.39688 v 0 c 0,0.2191 -0.1777669,0.39687 -0.396875,0.39687 z"
       id="path16" />
    <path
       inkscape:connector-curvature="0"
       style="fill:#636f80;stroke-width:0.26458332"
       d="m 3.4230469,296.29838 v 0 c -0.2191081,0 -0.396875,-0.17777 -0.396875,-0.39687 v 0 c 0,-0.21911 0.1777669,-0.39688 0.396875,-0.39688 v 0 c 0.219108,0 0.396875,0.17777 0.396875,0.39688 v 0 c 0,0.2191 -0.177767,0.39687 -0.396875,0.39687 z"
       id="path18" />
  </g>
</svg>
