<?xml version="1.0" encoding="UTF-8"?>
<!-- BG Correct +width height -ENTITY -metadata -->
<!-- Generator: Adobe Illustrator 18.0.0, SVG Export Plug-In . SVG Version: 6.00 Build 0)  -->
<!DOCTYPE svg PUBLIC "-//W3C//DTD SVG 1.1//EN" "http://www.w3.org/Graphics/SVG/1.1/DTD/svg11.dtd">
<svg version="1.1" id="Слой_2" xmlns="http://www.w3.org/2000/svg" xmlns:xlink="http://www.w3.org/1999/xlink" x="0px" y="0px" width="16px" height="16px" viewBox="0 0 16 16" enable-background="new 0 0 16 16" xml:space="preserve">
<g>
	<path fill="#FFFFFF" d="M1,15.5c-0.2753906,0-0.5-0.2246094-0.5-0.5V1c0-0.2753906,0.2246094-0.5,0.5-0.5h14   c0.2753906,0,0.5,0.2246094,0.5,0.5v14c0,0.2753906-0.2246094,0.5-0.5,0.5H1z"/>
	<path fill="#9D9D9C" d="M15,1v14H1V1H15 M15,0H1C0.4499512,0,0,0.4499512,0,1v14c0,0.5500488,0.4499512,1,1,1h14   c0.5500488,0,1-0.4499512,1-1V1C16,0.4499512,15.5500488,0,15,0L15,0z"/>
</g>
<polygon fill="#48474D" points="12.6128292,6.089612 11.0221405,4.5 7.2077169,8.3143158 5.5917277,6.6994033 3.9999621,8.2933216   7.2055635,11.5 7.2077169,11.4937553 7.2129922,11.5 "/>
</svg>