<?xml version="1.0" encoding="UTF-8" standalone="no"?>
<svg
   xmlns:dc="http://purl.org/dc/elements/1.1/"
   xmlns:cc="http://creativecommons.org/ns#"
   xmlns:rdf="http://www.w3.org/1999/02/22-rdf-syntax-ns#"
   xmlns:svg="http://www.w3.org/2000/svg"
   xmlns="http://www.w3.org/2000/svg"
   xmlns:sodipodi="http://sodipodi.sourceforge.net/DTD/sodipodi-0.dtd"
   xmlns:inkscape="http://www.inkscape.org/namespaces/inkscape"
   width="18"
   height="16"
   version="1.1"
   id="svg10502"
   sodipodi:docname="file_manager.svg"
   inkscape:version="0.92.2 (5c3e80d, 2017-08-06)">
  <metadata
     id="metadata10508">
    <rdf:RDF>
      <cc:Work
         rdf:about="">
        <dc:format>image/svg+xml</dc:format>
        <dc:type
           rdf:resource="http://purl.org/dc/dcmitype/StillImage" />
        <dc:title></dc:title>
      </cc:Work>
    </rdf:RDF>
  </metadata>
  <defs
     id="defs10506" />
  <sodipodi:namedview
     pagecolor="#ffffff"
     bordercolor="#666666"
     borderopacity="1"
     objecttolerance="10"
     gridtolerance="10"
     guidetolerance="10"
     inkscape:pageopacity="0"
     inkscape:pageshadow="2"
     inkscape:window-width="1920"
     inkscape:window-height="1017"
     id="namedview10504"
     showgrid="false"
     inkscape:zoom="9.44"
     inkscape:cx="8.6819389"
     inkscape:cy="13.913728"
     inkscape:window-x="-8"
     inkscape:window-y="-8"
     inkscape:window-maximized="1"
     inkscape:current-layer="svg10502" />
  <path
     inkscape:connector-curvature="0"
     style="fill:#636f80"
     d="m 16.004238,3.9491525 h -4 -2.6460002 c -0.27,0 -0.5300005,-0.107 -0.7210005,-0.299 l -1.912,-2.402 c -0.191,-0.192 -0.45,-0.299 -0.721,-0.299 h -3.98 c -0.563,0 -1.02,0.456 -1.02,1.02 v 1.49 0.49 1 8.9999995 c 0,0.552 0.448,1 1,1 h 8.5000007 c 0.276,0 0.5,-0.224 0.5,-0.5 0,-0.276 -0.224,-0.5 -0.5,-0.5 H 2.0042373 V 4.9491525 h 7.3540005 2.6460002 4 v 3.4999998 c 0,0.276 0.224,0.5 0.5,0.5 0.276,0 0.5,-0.224 0.5,-0.5 V 4.9491525 c 0,-0.552 -0.448,-1 -1,-1 z m -14.0000007,-0.49 0.02,-1.51 h 3.98 0.002 l 1.591,1.999 h -5.593 z"
     id="path10442"
     inkscape:transform-center-x="-4.8728814"
     inkscape:transform-center-y="-2.4e-005" />
  <polygon
     transform="translate(0.00423726,-2251.0508)"
     style="fill:#636f80"
     points="17,2264 17,2262 15,2262 15,2260 13,2260 13,2262 11,2262 11,2264 13,2264 13,2266 15,2266 15,2264 "
     id="polygon10444"
     inkscape:transform-center-x="-9.8728811"
     inkscape:transform-center-y="4.0000238" />
</svg>
