<svg width="25" height="25" xmlns="http://www.w3.org/2000/svg">

 <g>
  <title>background</title>
  <rect fill="none" id="canvas_background" height="27" width="27" y="-1" x="-1"/>
 </g>
 <g>
  <title>Layer 1</title>
  <g id="svg_25" fill="#9a9faf">
   <path id="svg_26" d="m21.686492,8.169833c0.057,-0.346 0.094,-0.698 0.094,-1.06c0,-3.59 -2.91,-6.5 -6.5,-6.5c-3.168,0 -5.803,2.267 -6.38,5.267c-0.426,-0.168 -0.885,-0.267 -1.37,-0.267c-2.071,0 -3.75,1.679 -3.75,3.75c0,0.175 0.028,0.341 0.051,0.51c-1.77,0.605 -3.051,2.265 -3.051,4.24c0,2.314 1.753,4.198 4,4.45l0,-2c-1.14,-0.232 -2,-1.242 -2,-2.449c0,-1.057 0.683,-2.001 1.698,-2.348l1.557,-0.533l-0.222,-1.63l-0.013,-0.09c-0.008,-0.053 -0.018,-0.106 -0.02,-0.149c0,-0.965 0.785,-1.75 1.75,-1.75c0.208,0 0.422,0.043 0.638,0.128l2.242,0.883l0.455,-2.367c0.405,-2.112 2.262,-3.645 4.415,-3.645c2.481,0 4.5,2.019 4.5,4.5c0,0.219 -0.022,0.46 -0.067,0.735l-0.242,1.469l1.338,0.653c1.216,0.594 1.971,1.798 1.971,3.143c0,1.391 -0.822,2.585 -2,3.149l0,2.138c2.307,-0.654 4,-2.771 4,-5.288c0,-2.173 -1.264,-4.046 -3.094,-4.939z"/>
   <path id="svg_27" d="m17.874492,14.609833l-5.282,0l-0.584,-1.71c-0.059,-0.172 -0.251,-0.29 -0.47,-0.29l-4.269,0c-0.27,0 -0.488,0.178 -0.488,0.397l0,1.603l0,0.603l0,6.49c0,0.5 0.406,0.906 0.906,0.906l10.188,0c0.5,0 0.906,-0.406 0.906,-0.906l0,-6.188c-0.001,-0.499 -0.407,-0.905 -0.907,-0.905z"/>
  </g>
 </g>
</svg>