<?xml version="1.0" encoding="UTF-8" standalone="no"?>
<svg
   xmlns:dc="http://purl.org/dc/elements/1.1/"
   xmlns:cc="http://creativecommons.org/ns#"
   xmlns:rdf="http://www.w3.org/1999/02/22-rdf-syntax-ns#"
   xmlns:svg="http://www.w3.org/2000/svg"
   xmlns="http://www.w3.org/2000/svg"
   xmlns:sodipodi="http://sodipodi.sourceforge.net/DTD/sodipodi-0.dtd"
   xmlns:inkscape="http://www.inkscape.org/namespaces/inkscape"
   width="18"
   height="16"
   version="1.1"
   id="svg10502"
   sodipodi:docname="file_manager.svg"
   inkscape:version="0.92.2 (5c3e80d, 2017-08-06)">
  <metadata
     id="metadata10508">
    <rdf:RDF>
      <cc:Work
         rdf:about="">
        <dc:format>image/svg+xml</dc:format>
        <dc:type
           rdf:resource="http://purl.org/dc/dcmitype/StillImage" />
        <dc:title></dc:title>
      </cc:Work>
    </rdf:RDF>
  </metadata>
  <defs
     id="defs10506" />
  <sodipodi:namedview
     pagecolor="#ffffff"
     bordercolor="#666666"
     borderopacity="1"
     objecttolerance="10"
     gridtolerance="10"
     guidetolerance="10"
     inkscape:pageopacity="0"
     inkscape:pageshadow="2"
     inkscape:window-width="751"
     inkscape:window-height="480"
     id="namedview10504"
     showgrid="false"
     inkscape:zoom="9.44"
     inkscape:cx="8.6819389"
     inkscape:cy="8.3080903"
     inkscape:window-x="646"
     inkscape:window-y="228"
     inkscape:window-maximized="0"
     inkscape:current-layer="svg10502" />
  <path
     inkscape:connector-curvature="0"
     style="fill:#636f80"
     d="m 13.637102,9.7911525 c -0.328,0 -0.638,0.067 -0.927,0.1790003 l -1.965,-1.8670003 4.471,-4.207 V 0.94915249 l -6,5.70100001 L 3.2161017,0.94915249 V 3.8961525 l 4.471,4.207 -1.965,1.8670003 c -0.289,-0.1110003 -0.6,-0.1790003 -0.927,-0.1790003 -1.425,0 -2.579,1.1560005 -2.579,2.5790005 0,1.424 1.154,2.579 2.579,2.579 1.424,0 2.579,-1.155 2.579,-2.579 0,-0.327 -0.067,-0.638 -0.179,-0.926 l 2.0210003,-1.9020005 2.021,1.9020005 c -0.111,0.288 -0.179,0.599 -0.179,0.926 0,1.424 1.155,2.579 2.579,2.579 1.425,0 2.579,-1.155 2.579,-2.579 0,-1.423 -1.154,-2.5790005 -2.579,-2.5790005 z M 4.7951017,13.475153 c -0.61,0 -1.106,-0.495 -1.106,-1.105 0,-0.61 0.495,-1.105 1.106,-1.105 0.61,0 1.104,0.495 1.104,1.105 10e-4,0.611 -0.494,1.105 -1.104,1.105 z M 9.216102,8.4491525 c -0.2760003,0 -0.5000003,-0.224 -0.5000003,-0.5 0,-0.276 0.224,-0.5 0.5000003,-0.5 0.276,0 0.5,0.224 0.5,0.5 0,0.276 -0.224,0.5 -0.5,0.5 z m 4.421,5.0260005 c -0.61,0 -1.105,-0.495 -1.105,-1.105 0,-0.61 0.494,-1.105 1.105,-1.105 0.61,0 1.105,0.495 1.105,1.105 0,0.611 -0.495,1.105 -1.105,1.105 z"
     id="path5332" />
</svg>
