<?xml version="1.0" encoding="UTF-8" standalone="no"?>
<svg
   xmlns:dc="http://purl.org/dc/elements/1.1/"
   xmlns:cc="http://creativecommons.org/ns#"
   xmlns:rdf="http://www.w3.org/1999/02/22-rdf-syntax-ns#"
   xmlns:svg="http://www.w3.org/2000/svg"
   xmlns="http://www.w3.org/2000/svg"
   xmlns:sodipodi="http://sodipodi.sourceforge.net/DTD/sodipodi-0.dtd"
   xmlns:inkscape="http://www.inkscape.org/namespaces/inkscape"
   width="18"
   height="16"
   version="1.1"
   id="svg10502"
   sodipodi:docname="file_manager.svg"
   inkscape:version="0.92.2 (5c3e80d, 2017-08-06)">
  <metadata
     id="metadata10508">
    <rdf:RDF>
      <cc:Work
         rdf:about="">
        <dc:format>image/svg+xml</dc:format>
        <dc:type
           rdf:resource="http://purl.org/dc/dcmitype/StillImage" />
        <dc:title></dc:title>
      </cc:Work>
    </rdf:RDF>
  </metadata>
  <defs
     id="defs10506" />
  <sodipodi:namedview
     pagecolor="#ffffff"
     bordercolor="#666666"
     borderopacity="1"
     objecttolerance="10"
     gridtolerance="10"
     guidetolerance="10"
     inkscape:pageopacity="0"
     inkscape:pageshadow="2"
     inkscape:window-width="751"
     inkscape:window-height="480"
     id="namedview10504"
     showgrid="false"
     inkscape:zoom="9.44"
     inkscape:cx="8.6819389"
     inkscape:cy="8.3080903"
     inkscape:window-x="646"
     inkscape:window-y="228"
     inkscape:window-maximized="0"
     inkscape:current-layer="svg10502" />
  <polygon
     transform="translate(0.3220339,-343.05085)"
     style="fill:#636f80"
     points="7,344 3,344 3,356 4,356 4,345 7,345 "
     id="polygon5264" />
  <path
     inkscape:connector-curvature="0"
     style="fill:#636f80"
     d="m 13.182034,2.9491525 c -0.208,-0.422 -0.632,-0.719 -1.134,-0.719 h -0.248 c -0.107,-0.723 -0.725,-1.28099996 -1.478,-1.28099996 -0.7540001,0 -1.3710001,0.55799996 -1.4770001,1.28099996 h -0.25 c -0.502,0 -0.926,0.297 -1.134,0.719 h -2.139 V 14.949153 H 15.322034 V 2.9491525 Z m -2.86,-1 c 0.276,0 0.5,0.224 0.5,0.5 0,0.276 -0.224,0.5 -0.5,0.5 -0.276,0 -0.5000001,-0.224 -0.5000001,-0.5 0,-0.276 0.2240001,-0.5 0.5000001,-0.5 z m 4,12.0000005 H 6.3220339 V 3.9491525 h 1 v 1 h 6.0000001 v -1 h 1 z"
     id="path5324" />
</svg>
