<svg width="32" height="20" xmlns="http://www.w3.org/2000/svg">

 <g>
  <title>background</title>
  <rect fill="none" id="canvas_background" height="22" width="34" y="-1" x="-1"/>
 </g>
 <g>
  <title>Layer 1</title>
  <path id="svg_5" fill="#71b1e4" d="m15.761571,16.380953l-10.546,0c-0.507,0 -0.938,-0.42 -1.009,-0.984l-1.768,-6.706c-0.087,-0.692 0.389,-1.31 1.01,-1.31l13.961,0c0.62,0 1.097,0.618 1.009,1.31l-1.647,6.706c-0.072,0.564 -0.502,0.984 -1.01,0.984z"/>
  <path id="svg_6" fill="#f7931e" d="m11.061571,5.081953l-1.913,-2.402c-0.19,-0.192 -0.449,-0.299 -0.72,-0.299l-3.98,0c-0.563,0 -1.02,0.456 -1.02,1.02l0,1.49l0,1.49l14,0l0,-1l-5.646,0c-0.271,0 -0.53,-0.107 -0.721,-0.299z"/>
  <ellipse stroke="null" ry="1.212119" rx="1.212119" id="svg_181" cy="11.999996" cx="24.717181" stroke-opacity="null" stroke-width="null" fill="#444444"/>
  <ellipse stroke="null" ry="1.212119" rx="1.212119" id="svg_183" cy="11.999996" cx="28.111114" stroke-opacity="null" stroke-width="null" fill="#444444"/>
 </g>
</svg>