<svg width="18" height="10" xmlns="http://www.w3.org/2000/svg">

 <g>
  <title>background</title>
  <rect fill="none" id="canvas_background" height="12" width="20" y="-1" x="-1"/>
 </g>
 <g>
  <title>Layer 1</title>
  <path id="svg_94" fill="#F7931E" d="m14.867992,1.492187l0,1l-5.76,0c-0.25,-0.38 -0.56,-0.72 -0.92,-1l6.68,0z"/>
  <path id="svg_95" fill="#F7931E" d="m12.867992,4.492187l0,1l-3.03,0c0.02,-0.16 0.03,-0.33 0.03,-0.5s-0.01,-0.34 -0.03,-0.5l3.03,0z"/>
  <path id="svg_96" fill="#F7931E" d="m14.867992,7.492187l0,1l-6.68,0c0.36,-0.28 0.67,-0.62 0.92,-1l5.76,0z"/>
  <circle id="svg_97" fill="#71B1E4" r="1.5" cy="7.992187" cx="15.367992"/>
  <circle id="svg_98" fill="#71B1E4" r="1.5" cy="4.992187" cx="13.367992"/>
  <circle id="svg_99" fill="#71B1E4" r="1.5" cy="1.992187" cx="15.367992"/>
  <g id="svg_100">
   <path id="svg_101" fill="#71B1E4" d="m5.367992,0.492187c-2.485,0 -4.5,2.015 -4.5,4.5s2.015,4.5 4.5,4.5s4.5,-2.015 4.5,-4.5s-2.015,-4.5 -4.5,-4.5zm0,8c-1.933,0 -3.5,-1.567 -3.5,-3.5s1.567,-3.5 3.5,-3.5s3.5,1.567 3.5,3.5s-1.567,3.5 -3.5,3.5z"/>
  </g>
 </g>
</svg>