<?xml version="1.0" encoding="utf-8"?>
<!-- Generator: Adobe Illustrator 16.2.0, SVG Export Plug-In . SVG Version: 6.00 Build 0)  -->
<!DOCTYPE svg PUBLIC "-//W3C//DTD SVG 1.1//EN" "http://www.w3.org/Graphics/SVG/1.1/DTD/svg11.dtd">
<svg version="1.1" id="Слой_1" xmlns="http://www.w3.org/2000/svg" xmlns:xlink="http://www.w3.org/1999/xlink" x="0px" y="0px"
	 width="18px" height="18px" viewBox="-0.084 3041.959 18 18" enable-background="new -0.084 3041.959 18 18" xml:space="preserve">
<g id="Layer_5">
	<path fill="#636F80" d="M11.929,3045.328c0.592,0,1.424,0.126,2.021,0.722c0.692,0.692,0.896,1.838,0.576,3.226
		c-0.359,1.556-1.317,3.173-2.697,4.553c-1.754,1.754-3.96,2.844-5.758,2.844c-0.592,0-1.424-0.125-2.021-0.722
		c-0.692-0.692-0.896-1.838-0.576-3.226c0.359-1.556,1.317-3.173,2.697-4.553C7.925,3046.418,10.132,3045.328,11.929,3045.328
		 M11.929,3044.328c-1.999,0-4.44,1.111-6.465,3.137c-3.124,3.124-4.074,7.239-2.121,9.192c0.687,0.687,1.642,1.015,2.728,1.015
		c1.999,0,4.44-1.111,6.465-3.137c3.124-3.124,4.074-7.239,2.121-9.192C13.97,3044.656,13.015,3044.328,11.929,3044.328
		L11.929,3044.328z"/>
	<polygon fill="#636F80" points="2,3046 8,3046 8,3052 	"/>
	<polygon fill="#636F80" points="16,3056 10,3056 10,3050 	"/>
</g>
</svg>
