<?xml version="1.0" encoding="utf-8"?>
<!-- Generator: Adobe Illustrator 16.2.0, SVG Export Plug-In . SVG Version: 6.00 Build 0)  -->
<!DOCTYPE svg PUBLIC "-//W3C//DTD SVG 1.1//EN" "http://www.w3.org/Graphics/SVG/1.1/DTD/svg11.dtd">
<svg version="1.1" id="Слой_1" xmlns="http://www.w3.org/2000/svg" xmlns:xlink="http://www.w3.org/1999/xlink" x="0px" y="0px"
	 width="18px" height="18px" viewBox="-0.084 2393.834 18 18" enable-background="new -0.084 2393.834 18 18" xml:space="preserve">
<g id="Layer_5">
	<path fill="#636F80" d="M14,2408.09v-2.66c0.86-0.22,1.5-1,1.5-1.93s-0.64-1.71-1.5-1.93v-3.66c0.58-0.2,1-0.761,1-1.41
		c0-0.83-0.67-1.5-1.5-1.5s-1.5,0.67-1.5,1.5c0,0.39,0.15,0.74,0.39,1l-5.73,7.37c-0.33-0.24-0.729-0.37-1.16-0.37
		c-1.1,0-2,0.899-2,2s0.9,2,2,2c0.61,0,1.17-0.28,1.53-0.72l4.99,1.92c0.09,0.74,0.72,1.3,1.48,1.3c0.83,0,1.5-0.67,1.5-1.5
		C15,2408.851,14.58,2408.29,14,2408.09z M14.5,2403.5c0,0.37-0.2,0.69-0.5,0.86c-0.15,0.09-0.32,0.14-0.5,0.14s-0.35-0.05-0.5-0.14
		c-0.16-0.09-0.3-0.23-0.38-0.4h-0.01c-0.07-0.14-0.11-0.29-0.11-0.46c0-0.28,0.11-0.521,0.29-0.71c0.01-0.01,0.02-0.01,0.03-0.02
		c0.06-0.051,0.12-0.101,0.18-0.131c0.15-0.09,0.32-0.14,0.5-0.14s0.35,0.05,0.5,0.14C14.3,2402.81,14.5,2403.13,14.5,2403.5z
		 M13,2396.5c0-0.28,0.22-0.5,0.5-0.5h0.05c0.26,0.03,0.45,0.24,0.45,0.5c0,0.28-0.22,0.5-0.5,0.5c-0.22,0-0.4-0.14-0.47-0.33
		C13.01,2396.62,13,2396.56,13,2396.5z M13,2398.33v3.24c-0.82,0.21-1.44,0.93-1.49,1.8l-3.771,1.73L13,2398.33z M5.5,2407.5
		c-0.55,0-1-0.45-1-1s0.45-1,1-1c0.2,0,0.38,0.06,0.54,0.16c0.06,0.04,0.12,0.09,0.18,0.14c0.17,0.18,0.28,0.43,0.28,0.7
		c0,0.101-0.02,0.21-0.05,0.3c-0.08,0.25-0.25,0.45-0.47,0.57C5.84,2407.46,5.67,2407.5,5.5,2407.5z M7.49,2406.32l4.21-1.95
		c0.25,0.52,0.73,0.92,1.3,1.06v2.66c-0.32,0.11-0.6,0.33-0.76,0.62h-0.01l-4.77-1.84c0.03-0.12,0.04-0.24,0.04-0.37
		C7.5,2406.44,7.5,2406.38,7.49,2406.32z M13.5,2410c-0.28,0-0.5-0.22-0.5-0.5s0.22-0.5,0.5-0.5s0.5,0.22,0.5,0.5
		S13.78,2410,13.5,2410z"/>
</g>
</svg>
