<?xml version="1.0" encoding="utf-8"?>
<!-- Generator: Adobe Illustrator 16.2.0, SVG Export Plug-In . SVG Version: 6.00 Build 0)  -->
<!DOCTYPE svg PUBLIC "-//W3C//DTD SVG 1.1//EN" "http://www.w3.org/Graphics/SVG/1.1/DTD/svg11.dtd">
<svg version="1.1" id="Слой_1" xmlns="http://www.w3.org/2000/svg" xmlns:xlink="http://www.w3.org/1999/xlink" x="0px" y="0px"
	 width="18px" height="18px" viewBox="-0.084 2573.959 18 18" enable-background="new -0.084 2573.959 18 18" xml:space="preserve">
<g id="Layer_5">
	<path fill="#636F80" d="M13,2578c0.551,0,1,0.448,1,1v8c0,0.552-0.449,1-1,1H5c-0.551,0-1-0.448-1-1v-8c0-0.552,0.449-1,1-1H13
		 M13,2577H5c-1.104,0-2,0.896-2,2v8c0,1.104,0.896,2,2,2h8c1.104,0,2-0.896,2-2v-8C15,2577.896,14.104,2577,13,2577L13,2577z"/>
	<path fill="#636F80" d="M2,2585L2,2585c-0.552,0-1-0.447-1-1v-2c0-0.553,0.448-1,1-1l0,0V2585z"/>
	<path fill="#636F80" d="M16,2581L16,2581c0.552,0,1,0.447,1,1v2c0,0.553-0.448,1-1,1l0,0V2581z"/>
	<path fill="#636F80" d="M10.756,2581.95c0.08,0.021,0.157,0.05,0.244,0.05h1c0.552,0,1-0.448,1-1v-1c0-0.552-0.448-1-1-1h-1
		c-0.552,0-1,0.448-1,1v1c0,0.087,0.029,0.163,0.049,0.243L9,2582.293V2582c0-0.552-0.448-1-1-1H6c-0.552,0-1,0.448-1,1v2
		c0,0.552,0.448,1,1,1h2c0.552,0,1-0.448,1-1v-0.293l1.049,1.05c-0.021,0.08-0.049,0.156-0.049,0.243v1c0,0.552,0.448,1,1,1h1
		c0.552,0,1-0.448,1-1v-1c0-0.552-0.448-1-1-1h-1c-0.086,0-0.164,0.028-0.244,0.05L9.707,2583L10.756,2581.95z M8,2584H6v-2h2V2584z
		 M12,2581h-1v-1h1V2581z M12,2586h-1v-1h1V2586z"/>
</g>
</svg>
