<?xml version="1.0" encoding="utf-8"?>
<!-- Generator: Adobe Illustrator 16.2.0, SVG Export Plug-In . SVG Version: 6.00 Build 0)  -->
<!DOCTYPE svg PUBLIC "-//W3C//DTD SVG 1.1//EN" "http://www.w3.org/Graphics/SVG/1.1/DTD/svg11.dtd">
<svg version="1.1" id="Слой_1" xmlns="http://www.w3.org/2000/svg" xmlns:xlink="http://www.w3.org/1999/xlink" x="0px" y="0px"
	 width="18px" height="18px" viewBox="-0.084 1475.833 18 18" enable-background="new -0.084 1475.833 18 18" xml:space="preserve">
<g id="Layer_5">
	<path fill="#636F80" d="M7.674,1481.274c0-0.747-0.177-1.313-0.53-1.697S6.344,1479,5.805,1479c-0.586,0-1.033,0.215-1.342,0.645
		c-0.309,0.431-0.463,0.951-0.463,1.564c0,0.782,0.173,1.366,0.519,1.752c0.346,0.387,0.778,0.58,1.298,0.58
		c0.523,0,0.964-0.196,1.321-0.589S7.674,1482,7.674,1481.274z M6.493,1482.475c-0.174,0.227-0.394,0.34-0.659,0.34
		c-0.258,0-0.475-0.112-0.65-0.337s-0.264-0.612-0.264-1.163c0-0.605,0.087-1.021,0.261-1.248c0.174-0.226,0.392-0.34,0.653-0.34
		s0.48,0.112,0.656,0.337s0.264,0.614,0.264,1.169C6.754,1481.834,6.667,1482.248,6.493,1482.475z"/>
	<path fill="#636F80" d="M13.47,1484.089c-0.354-0.385-0.8-0.577-1.339-0.577c-0.59,0-1.039,0.214-1.348,0.642
		s-0.463,0.95-0.463,1.567c0,0.777,0.173,1.36,0.519,1.749s0.778,0.583,1.298,0.583c0.527,0,0.97-0.196,1.327-0.589
		s0.536-0.952,0.536-1.679C14,1485.039,13.823,1484.474,13.47,1484.089z M12.819,1486.986c-0.174,0.227-0.396,0.341-0.665,0.341
		c-0.258,0-0.475-0.114-0.65-0.341c-0.176-0.226-0.264-0.613-0.264-1.159c0-0.606,0.087-1.022,0.261-1.249s0.394-0.34,0.659-0.34
		c0.262,0,0.48,0.112,0.656,0.337s0.264,0.615,0.264,1.169C13.08,1486.346,12.993,1486.761,12.819,1486.986z"/>
	<polygon fill="#636F80" points="10.92,1479 6.221,1488.053 7.094,1488.053 11.776,1479 	"/>
	<polygon fill="#636F80" points="4,1489 4,1492 2,1490.5 	"/>
	<polygon fill="#636F80" points="14,1492 14,1489 16,1490.5 	"/>
	<rect x="4" y="1490" fill="#636F80" width="10" height="1"/>
</g>
</svg>
