<?xml version="1.0" encoding="utf-8"?>
<!-- Generator: Adobe Illustrator 16.2.0, SVG Export Plug-In . SVG Version: 6.00 Build 0)  -->
<!DOCTYPE svg PUBLIC "-//W3C//DTD SVG 1.1//EN" "http://www.w3.org/Graphics/SVG/1.1/DTD/svg11.dtd">
<svg version="1.1" id="Слой_1" xmlns="http://www.w3.org/2000/svg" xmlns:xlink="http://www.w3.org/1999/xlink" x="0px" y="0px"
	 width="18px" height="18px" viewBox="-0.084 3077.959 18 18" enable-background="new -0.084 3077.959 18 18" xml:space="preserve">
<g id="Layer_5">
	<path fill="#636F80" d="M6,3091v2H2v-2H6 M7,3090H1v4h6V3090L7,3090z"/>
	<path fill="#636F80" d="M6,3086v2H2v-2H6 M7,3085H1v4h6V3085L7,3085z"/>
	<path fill="#636F80" d="M6,3081v2H2v-2H6 M7,3080H1v4h6V3080L7,3080z"/>
	<path fill="#636F80" d="M16,3091v2h-4v-2H16 M17,3090h-6v4h6V3090L17,3090z"/>
	<path fill="#636F80" d="M16,3086v2h-4v-2H16 M17,3085h-6v4h6V3085L17,3085z"/>
	<path fill="#636F80" d="M16,3081v2h-4v-2H16 M17,3080h-6v4h6V3080L17,3080z"/>
	<rect x="7" y="3082" fill="#636F80" width="2" height="1"/>
	<polygon fill="#636F80" points="9,3081 11,3082.5 9,3084 	"/>
	<rect x="7" y="3087" fill="#636F80" width="2" height="1"/>
	<polygon fill="#636F80" points="9,3086 11,3087.5 9,3089 	"/>
	<rect x="7" y="3092" fill="#636F80" width="2" height="1"/>
	<polygon fill="#636F80" points="9,3091 11,3092.5 9,3094 	"/>
</g>
</svg>
