<?xml version="1.0" encoding="utf-8"?>
<!-- Generator: Adobe Illustrator 16.2.0, SVG Export Plug-In . SVG Version: 6.00 Build 0)  -->
<!DOCTYPE svg PUBLIC "-//W3C//DTD SVG 1.1//EN" "http://www.w3.org/Graphics/SVG/1.1/DTD/svg11.dtd">
<svg version="1.1" id="Слой_1" xmlns="http://www.w3.org/2000/svg" xmlns:xlink="http://www.w3.org/1999/xlink" x="0px" y="0px"
	 width="18px" height="18px" viewBox="-0.084 1457.833 18 18" enable-background="new -0.084 1457.833 18 18" xml:space="preserve">
<g id="Layer_5">
	<rect x="2" y="1471" fill="#636F80" width="2" height="2"/>
	<rect x="5" y="1471" fill="#636F80" width="2" height="2"/>
	<rect x="8" y="1471" fill="#636F80" width="2" height="2"/>
	<g>
		<path fill="#636F80" d="M11,1473v-6.223h0.938v0.885c0.452-0.684,1.104-1.025,1.958-1.025c0.371,0,0.712,0.067,1.023,0.202
			c0.311,0.135,0.543,0.312,0.697,0.53s0.264,0.479,0.324,0.779c0.039,0.195,0.059,0.537,0.059,1.025V1473h-1.043v-3.785
			c0-0.43-0.041-0.751-0.121-0.964c-0.082-0.213-0.226-0.383-0.432-0.51c-0.207-0.127-0.449-0.19-0.728-0.19
			c-0.444,0-0.827,0.144-1.15,0.428c-0.322,0.285-0.483,0.826-0.483,1.623V1473H11z"/>
	</g>
</g>
</svg>
