<?xml version="1.0" encoding="utf-8"?>
<!-- Generator: Adobe Illustrator 16.2.0, SVG Export Plug-In . SVG Version: 6.00 Build 0)  -->
<!DOCTYPE svg PUBLIC "-//W3C//DTD SVG 1.1//EN" "http://www.w3.org/Graphics/SVG/1.1/DTD/svg11.dtd">
<svg version="1.1" id="Слой_1" xmlns="http://www.w3.org/2000/svg" xmlns:xlink="http://www.w3.org/1999/xlink" x="0px" y="0px"
	 width="18px" height="18px" viewBox="-0.084 1421.833 18 18" enable-background="new -0.084 1421.833 18 18" xml:space="preserve">
<g id="Layer_5">
	<rect x="15" y="1425" fill="#636F80" width="1" height="12"/>
	<rect x="2" y="1425" fill="#636F80" width="1" height="12"/>
	<path fill="#636F80" d="M12.737,1428.2c-0.175-0.681-0.416-1.258-0.724-1.733c-0.308-0.474-0.697-0.837-1.169-1.089
		S9.824,1425,9.199,1425c-0.848,0-1.552,0.228-2.111,0.684c-0.559,0.456-0.98,1.104-1.264,1.944
		c-0.284,0.84-0.426,1.949-0.426,3.328c0,2.189,0.385,3.77,1.153,4.738c0.641,0.807,1.523,1.209,2.647,1.209
		c0.854,0,1.56-0.229,2.119-0.688c0.559-0.459,0.979-1.108,1.26-1.948c0.281-0.841,0.422-1.944,0.422-3.312
		C13,1429.8,12.912,1428.882,12.737,1428.2z M7.608,1427.02c0.393-0.557,0.918-0.834,1.575-0.834c0.668,0,1.226,0.314,1.674,0.945
		c0.211,0.297,0.37,0.741,0.481,1.323l-4.376,4.375c-0.063-0.535-0.094-1.159-0.094-1.873
		C6.869,1429.042,7.116,1427.729,7.608,1427.02z M10.857,1434.772c-0.448,0.636-1.001,0.954-1.658,0.954s-1.21-0.317-1.658-0.95
		c-0.137-0.193-0.25-0.453-0.345-0.766l4.295-4.295c0.024,0.379,0.038,0.791,0.038,1.24
		C11.529,1432.864,11.305,1434.136,10.857,1434.772z"/>
</g>
</svg>
