<?xml version="1.0" encoding="utf-8"?>
<!-- Generator: Adobe Illustrator 16.2.0, SVG Export Plug-In . SVG Version: 6.00 Build 0)  -->
<!DOCTYPE svg PUBLIC "-//W3C//DTD SVG 1.1//EN" "http://www.w3.org/Graphics/SVG/1.1/DTD/svg11.dtd">
<svg version="1.1" id="Слой_1" xmlns="http://www.w3.org/2000/svg" xmlns:xlink="http://www.w3.org/1999/xlink" x="0px" y="0px"
	 width="18px" height="18px" viewBox="-0.084 2213.834 18 18" enable-background="new -0.084 2213.834 18 18" xml:space="preserve">
<g id="Layer_5">
	<path fill="#636F80" d="M13.83,2217.172c-1.559-1.56-4.097-1.56-5.657,0c-1.314,1.313-1.507,3.315-0.607,4.848l-5.403,5.403h0
		c-0.195,0.195-0.037,0.67,0.354,1.061c0.391,0.391,0.865,0.549,1.061,0.354v-0.001l0,0.001l0.63-0.63l1.414,1.414l1.138-1.138
		l-1.414-1.414l0.862-0.862l1.414,1.414l1.259-1.259l-1.414-1.414l1.513-1.514c1.533,0.9,3.537,0.708,4.851-0.606
		C15.39,2221.269,15.39,2218.731,13.83,2217.172z M12.462,2221.46c-0.805,0.805-2.115,0.805-2.92,0c-0.805-0.805-0.805-2.115,0-2.92
		c0.805-0.805,2.116-0.805,2.92,0C13.267,2219.345,13.267,2220.655,12.462,2221.46z"/>
</g>
</svg>
