<?xml version="1.0" encoding="utf-8"?>
<!-- Generator: Adobe Illustrator 16.2.0, SVG Export Plug-In . SVG Version: 6.00 Build 0)  -->
<!DOCTYPE svg PUBLIC "-//W3C//DTD SVG 1.1//EN" "http://www.w3.org/Graphics/SVG/1.1/DTD/svg11.dtd">
<svg version="1.1" id="Слой_1" xmlns="http://www.w3.org/2000/svg" xmlns:xlink="http://www.w3.org/1999/xlink" x="0px" y="0px"
	 width="18px" height="18px" viewBox="-0.084 1493.833 18 18" enable-background="new -0.084 1493.833 18 18" xml:space="preserve">
<g id="Layer_5">
	<path fill="#636F80" d="M5.674,1500.274c0-0.747-0.177-1.313-0.53-1.697S4.344,1498,3.805,1498c-0.586,0-1.033,0.215-1.342,0.645
		c-0.309,0.431-0.463,0.951-0.463,1.564c0,0.782,0.173,1.366,0.519,1.752c0.346,0.387,0.778,0.58,1.298,0.58
		c0.523,0,0.964-0.196,1.321-0.589S5.674,1501,5.674,1500.274z M4.493,1501.475c-0.174,0.227-0.394,0.34-0.659,0.34
		c-0.258,0-0.475-0.112-0.65-0.337s-0.264-0.612-0.264-1.163c0-0.605,0.087-1.021,0.261-1.248c0.174-0.226,0.392-0.34,0.653-0.34
		s0.48,0.112,0.656,0.337s0.264,0.614,0.264,1.169C4.754,1500.834,4.667,1501.248,4.493,1501.475z"/>
	<path fill="#636F80" d="M11.47,1503.089c-0.354-0.385-0.8-0.577-1.339-0.577c-0.59,0-1.039,0.214-1.348,0.642
		s-0.463,0.951-0.463,1.567c0,0.777,0.173,1.36,0.519,1.749s0.778,0.583,1.298,0.583c0.527,0,0.97-0.196,1.327-0.589
		s0.536-0.952,0.536-1.678C12,1504.039,11.823,1503.474,11.47,1503.089z M10.819,1505.986c-0.174,0.227-0.396,0.34-0.665,0.34
		c-0.258,0-0.475-0.113-0.65-0.34s-0.264-0.613-0.264-1.16c0-0.605,0.087-1.021,0.261-1.248s0.394-0.34,0.659-0.34
		c0.262,0,0.48,0.112,0.656,0.337s0.264,0.614,0.264,1.169C11.08,1505.346,10.993,1505.76,10.819,1505.986z"/>
	<polygon fill="#636F80" points="8.92,1498 4.221,1507.053 5.094,1507.053 9.776,1498 	"/>
	<polygon fill="#636F80" points="16,1498 13,1498 14.5,1496 	"/>
	<polygon fill="#636F80" points="13,1508 16,1508 14.5,1510 	"/>
	<rect x="14" y="1498" fill="#636F80" width="1" height="10"/>
</g>
</svg>
