<?xml version="1.0" encoding="utf-8"?>
<!-- Generator: Adobe Illustrator 16.2.0, SVG Export Plug-In . SVG Version: 6.00 Build 0)  -->
<!DOCTYPE svg PUBLIC "-//W3C//DTD SVG 1.1//EN" "http://www.w3.org/Graphics/SVG/1.1/DTD/svg11.dtd">
<svg version="1.1" id="Слой_1" xmlns="http://www.w3.org/2000/svg" xmlns:xlink="http://www.w3.org/1999/xlink" x="0px" y="0px"
	 width="18px" height="18px" viewBox="-0.084 2285.834 18 18" enable-background="new -0.084 2285.834 18 18" xml:space="preserve">
<g id="Layer_5">
	<g>
		<path fill="#636F80" d="M12,2288v1c-1.93,0-3.5,1.57-3.5,3.5h-1C7.5,2290.019,9.519,2288,12,2288z"/>
	</g>
	<polygon fill="#636F80" points="10.5,2292 8,2295 5.5,2292 	"/>
	<path fill="#636F80" d="M5,2297v1H3v-1H5 M6,2296H2v3h4V2296L6,2296z"/>
	<path fill="#636F80" d="M10,2297v1H8v-1H10 M11,2296H7v3h4V2296L11,2296z"/>
	<path fill="#636F80" d="M15,2297v1h-2v-1H15 M16,2296h-4v3h4V2296L16,2296z"/>
	<path fill="#636F80" d="M5,2301v1H3v-1H5 M6,2300H2v3h4V2300L6,2300z"/>
	<path fill="#636F80" d="M10,2301v1H8v-1H10 M11,2300H7v3h4V2300L11,2300z"/>
	<path fill="#636F80" d="M15,2301v1h-2v-1H15 M16,2300h-4v3h4V2300L16,2300z"/>
</g>
</svg>
