<?xml version="1.0" encoding="utf-8"?>
<!-- Generator: Adobe Illustrator 16.2.0, SVG Export Plug-In . SVG Version: 6.00 Build 0)  -->
<!DOCTYPE svg PUBLIC "-//W3C//DTD SVG 1.1//EN" "http://www.w3.org/Graphics/SVG/1.1/DTD/svg11.dtd">
<svg version="1.1" id="Слой_1" xmlns="http://www.w3.org/2000/svg" xmlns:xlink="http://www.w3.org/1999/xlink" x="0px" y="0px"
	 width="18px" height="18px" viewBox="-0.084 3023.959 18 18" enable-background="new -0.084 3023.959 18 18" xml:space="preserve">
<g id="Layer_5">
	<g>
		<path fill="#636F80" d="M9,3041l-0.055-0.5L9,3040c0.292,0,0.579-0.018,0.862-0.052l0.121,0.992C9.661,3040.979,9.333,3041,9,3041
			z M7.899,3040.925c-0.344-0.047-0.688-0.117-1.023-0.209l0.264-0.965c0.292,0.08,0.591,0.143,0.896,0.184L7.899,3040.925z
			 M11.011,3040.745l-0.25-0.969c0.298-0.076,0.587-0.173,0.867-0.285l0.377,0.926C11.682,3040.548,11.348,3040.657,11.011,3040.745
			z M5.889,3040.372c-0.319-0.135-0.634-0.292-0.934-0.469l0.506-0.863c0.262,0.154,0.534,0.291,0.816,0.411L5.889,3040.372z
			 M12.946,3039.962l-0.494-0.869c0.267-0.152,0.521-0.32,0.764-0.503l0.604,0.797C13.543,3039.596,13.249,3039.79,12.946,3039.962z
			 M4.088,3039.316c-0.273-0.214-0.534-0.445-0.778-0.692l0.711-0.703c0.215,0.218,0.444,0.42,0.685,0.608L4.088,3039.316z
			 M14.609,3038.704l-0.701-0.713c0.217-0.214,0.42-0.441,0.607-0.682l0.789,0.615C15.091,3038.198,14.857,3038.46,14.609,3038.704z
			 M2.625,3037.835c-0.211-0.279-0.404-0.572-0.576-0.873l0.869-0.495c0.151,0.266,0.319,0.521,0.504,0.763L2.625,3037.835z
			 M15.894,3037.062l-0.861-0.508c0.154-0.262,0.292-0.533,0.412-0.816l0.92,0.393C16.228,3036.45,16.069,3036.763,15.894,3037.062z
			 M1.59,3036.022c-0.131-0.32-0.242-0.654-0.33-0.993l0.967-0.252c0.078,0.298,0.174,0.587,0.289,0.866L1.59,3036.022z
			 M16.709,3035.144l-0.963-0.269c0.081-0.292,0.143-0.59,0.187-0.896l0.99,0.143C16.872,3034.471,16.801,3034.815,16.709,3035.144z
			 M1.063,3034.004C1.021,3033.675,1,3033.341,1,3033l1-0.036V3033c0,0.298,0.019,0.591,0.055,0.879L1.063,3034.004z
			 M15.999,3033.073l0.001-0.094c0-0.289-0.021-0.593-0.06-0.893l0.992-0.129C16.978,3032.3,17,3032.65,17,3033L15.999,3033.073z
			 M2.063,3032.055l-0.99-0.136c0.047-0.346,0.117-0.69,0.208-1.023l0.965,0.262C2.166,3031.45,2.104,3031.749,2.063,3032.055z
			 M15.764,3031.19c-0.079-0.297-0.178-0.587-0.293-0.867l0.924-0.381c0.134,0.322,0.246,0.656,0.336,0.99L15.764,3031.19z
			 M2.542,3030.294l-0.922-0.387c0.134-0.32,0.291-0.635,0.467-0.936l0.863,0.504C2.797,3029.737,2.66,3030.011,2.542,3030.294z
			 M15.066,3029.505c-0.153-0.266-0.323-0.52-0.508-0.762l0.793-0.607c0.211,0.275,0.406,0.566,0.58,0.868L15.066,3029.505z
			 M3.463,3028.719l-0.791-0.612c0.212-0.273,0.444-0.537,0.691-0.783l0.705,0.709C3.853,3028.247,3.649,3028.478,3.463,3028.719z
			 M13.954,3028.056c-0.215-0.217-0.444-0.418-0.687-0.604l0.611-0.792c0.276,0.214,0.54,0.445,0.784,0.689L13.954,3028.056z
			 M4.758,3027.432l-0.607-0.794c0.276-0.211,0.568-0.406,0.87-0.579l0.498,0.867C5.254,3027.078,4.999,3027.247,4.758,3027.432z
			 M12.509,3026.942c-0.263-0.152-0.536-0.289-0.818-0.406l0.385-0.924c0.32,0.135,0.636,0.29,0.936,0.465L12.509,3026.942z
			 M6.341,3026.522l-0.381-0.924c0.319-0.133,0.653-0.244,0.991-0.334l0.256,0.967C6.91,3026.311,6.62,3026.407,6.341,3026.522z
			 M10.826,3026.24c-0.292-0.078-0.591-0.139-0.896-0.18l0.131-0.991c0.346,0.047,0.69,0.116,1.025,0.205L10.826,3026.24z
			 M8.104,3026.058l-0.127-0.992C8.313,3025.022,8.653,3025,9,3025l0.018,1l-0.038-0.001C8.696,3026,8.396,3026.02,8.104,3026.058z"
			/>
	</g>
	<g>
		<path fill="#636F80" d="M11.382,3031.11c0,0.379-0.051,0.686-0.152,0.922c-0.102,0.235-0.226,0.437-0.374,0.603
			c-0.147,0.166-0.312,0.308-0.49,0.423c-0.179,0.116-0.343,0.24-0.49,0.371c-0.148,0.132-0.271,0.284-0.373,0.458
			s-0.152,0.396-0.152,0.667c-0.031,0.023-0.074,0.047-0.129,0.069c-0.046,0.016-0.104,0.031-0.174,0.047
			c-0.07,0.016-0.152,0.022-0.245,0.022s-0.175-0.007-0.245-0.022c-0.07-0.016-0.132-0.031-0.188-0.047
			c-0.062-0.022-0.112-0.046-0.151-0.069c0-0.402,0.041-0.729,0.123-0.979s0.183-0.458,0.303-0.62
			c0.121-0.163,0.252-0.298,0.397-0.406c0.144-0.108,0.275-0.223,0.396-0.342c0.121-0.12,0.222-0.257,0.303-0.412
			c0.082-0.154,0.123-0.363,0.123-0.626c0-0.2-0.031-0.365-0.093-0.493c-0.063-0.127-0.148-0.226-0.257-0.295
			c-0.109-0.07-0.233-0.118-0.373-0.145c-0.14-0.027-0.292-0.041-0.455-0.041c-0.202,0-0.377,0.014-0.524,0.041
			c-0.148,0.026-0.276,0.06-0.385,0.098c-0.125,0.039-0.229,0.082-0.315,0.128c-0.35-0.255-0.501-0.603-0.454-1.044
			c0.132-0.077,0.295-0.146,0.49-0.208c0.163-0.054,0.363-0.103,0.6-0.146c0.237-0.042,0.508-0.063,0.811-0.063
			c0.327,0,0.639,0.037,0.939,0.11c0.299,0.073,0.563,0.193,0.793,0.359c0.229,0.166,0.41,0.383,0.542,0.649
			S11.382,3030.716,11.382,3031.11z M9.527,3036.907c-0.046,0.016-0.109,0.031-0.187,0.047c-0.062,0.016-0.14,0.026-0.233,0.034
			S8.909,3037,8.792,3037c-0.133,0-0.243-0.004-0.333-0.012c-0.089-0.008-0.165-0.019-0.227-0.034
			c-0.07-0.016-0.128-0.031-0.175-0.047v-1.333c0.047-0.016,0.105-0.031,0.175-0.047c0.062-0.015,0.138-0.026,0.227-0.034
			c0.089-0.008,0.2-0.012,0.333-0.012c0.117,0,0.222,0.004,0.315,0.012s0.171,0.02,0.233,0.034c0.078,0.016,0.14,0.031,0.187,0.047
			V3036.907z"/>
	</g>
</g>
</svg>
