<?xml version="1.0" encoding="utf-8"?>
<!-- Generator: Adobe Illustrator 16.2.0, SVG Export Plug-In . SVG Version: 6.00 Build 0)  -->
<!DOCTYPE svg PUBLIC "-//W3C//DTD SVG 1.1//EN" "http://www.w3.org/Graphics/SVG/1.1/DTD/svg11.dtd">
<svg version="1.1" id="Слой_1" xmlns="http://www.w3.org/2000/svg" xmlns:xlink="http://www.w3.org/1999/xlink" x="0px" y="0px"
	 width="18px" height="18px" viewBox="-0.084 2627.959 18 18" enable-background="new -0.084 2627.959 18 18" xml:space="preserve">
<g id="Layer_5">
	<rect x="12" y="2640" fill="#636F80" width="2" height="2"/>
	<path fill="#636F80" d="M14,2638v-1h1v-1h-1v-3v-1h-1H8v-2H2v6h2v1H3v1h1v3v1h1h5v2h6v-6H14z M3,2635v-4h4v4H3z M10,2641H5v-3h1v-1
		H5v-1h3v-3h5v3h-1v1h1v1h-3V2641z M15,2643h-4v-4h4V2643z"/>
</g>
</svg>
