<?xml version="1.0" encoding="utf-8"?>
<!-- Generator: Adobe Illustrator 16.2.0, SVG Export Plug-In . SVG Version: 6.00 Build 0)  -->
<!DOCTYPE svg PUBLIC "-//W3C//DTD SVG 1.1//EN" "http://www.w3.org/Graphics/SVG/1.1/DTD/svg11.dtd">
<svg version="1.1" id="Слой_1" xmlns="http://www.w3.org/2000/svg" xmlns:xlink="http://www.w3.org/1999/xlink" x="0px" y="0px"
	 width="18px" height="18px" viewBox="-0.084 269.917 18 18" enable-background="new -0.084 269.917 18 18" xml:space="preserve">
<g id="Layer_5">
	<path fill="#636F80" d="M15.707,285.293l-2.272-2.272C13.785,282.425,14,281.741,14,281c0-1.477-0.81-2.752-2-3.445v-1.969
		L8.414,272H2v12h5.379c0.704,0.615,1.613,1,2.621,1c0.74,0,1.425-0.215,2.021-0.566l2.272,2.272C14.488,286.902,14.744,287,15,287
		s0.512-0.098,0.707-0.293C16.098,286.316,16.098,285.684,15.707,285.293z M3,283v-10h5v3h3v1.142c-0.321-0.083-0.652-0.142-1-0.142
		c-2.209,0-4,1.791-4,4c0,0.732,0.211,1.41,0.555,2H3z M7,281c0-1.654,1.346-3,3-3s3,1.346,3,3s-1.346,3-3,3S7,282.654,7,281z"/>
</g>
</svg>
