<?xml version="1.0" encoding="utf-8"?>
<!-- Generator: Adobe Illustrator 16.2.0, SVG Export Plug-In . SVG Version: 6.00 Build 0)  -->
<!DOCTYPE svg PUBLIC "-//W3C//DTD SVG 1.1//EN" "http://www.w3.org/Graphics/SVG/1.1/DTD/svg11.dtd">
<svg version="1.1" id="Слой_1" xmlns="http://www.w3.org/2000/svg" xmlns:xlink="http://www.w3.org/1999/xlink" x="0px" y="0px"
	 width="18px" height="18px" viewBox="-0.084 1943.834 18 18" enable-background="new -0.084 1943.834 18 18" xml:space="preserve">
<g id="Layer_5">
	<path fill="#636F80" d="M14.2,1956c-0.07,0.12-0.141,0.229-0.21,0.34c0.069-0.11,0.14-0.22,0.199-0.34H14.2z"/>
	<path fill="#636F80" d="M15,1947v5.14H9.86l2.17-2.17c-0.44-0.439-0.971-0.779-1.561-0.99c-0.069-0.039-0.14-0.06-0.22-0.079
		c-0.39-0.12-0.811-0.19-1.25-0.19c-0.19,0-0.37,0.01-0.55,0.04c-0.021,0-0.04,0-0.07,0.01c-0.14,0.021-0.29,0.04-0.42,0.08
		c-0.04,0.011-0.08,0.021-0.12,0.03c-0.12,0.03-0.24,0.07-0.35,0.12c-0.09,0.03-0.19,0.069-0.28,0.12
		c-0.12,0.05-0.24,0.109-0.35,0.18c-0.141,0.08-0.271,0.16-0.4,0.27c-0.17,0.121-0.33,0.261-0.479,0.41
		c-0.12,0.11-0.23,0.24-0.341,0.37c-0.029,0.04-0.06,0.08-0.08,0.12c-0.109,0.13-0.189,0.26-0.27,0.4L3.81,1950
		c0.061-0.12,0.13-0.229,0.2-0.34c0.01,0,0.01-0.01,0.021-0.021c0.09-0.13,0.18-0.26,0.29-0.39c0.13-0.17,0.279-0.34,0.439-0.49
		c0.12-0.12,0.24-0.229,0.37-0.35c0.271-0.22,0.57-0.431,0.87-0.601c0.11-0.069,0.23-0.129,0.34-0.18c0.12-0.06,0.24-0.12,0.36-0.17
		c0.239-0.09,0.479-0.18,0.729-0.25c0.01,0,0.021,0,0.03-0.01c0.12-0.03,0.24-0.061,0.36-0.08c0.05-0.01,0.1-0.02,0.149-0.03
		c0.12-0.02,0.25-0.04,0.391-0.06h0.06C8.61,1947.01,8.8,1947,9,1947c0.83,0,1.62,0.17,2.34,0.47c0.35,0.15,0.68,0.33,1,0.551
		c0.32,0.209,0.62,0.459,0.9,0.739L15,1947z"/>
	<path fill="#636F80" d="M4.01,1949.66c-0.07,0.11-0.14,0.22-0.2,0.34H3.8C3.87,1949.88,3.939,1949.771,4.01,1949.66z"/>
	<path fill="#636F80" d="M14.189,1956c-0.06,0.12-0.13,0.229-0.199,0.34c-0.01,0-0.01,0.011-0.021,0.021
		c-0.09,0.13-0.18,0.26-0.29,0.39c-0.13,0.17-0.279,0.33-0.439,0.49c-0.12,0.12-0.24,0.229-0.37,0.35
		c-0.271,0.22-0.561,0.431-0.87,0.601c-0.11,0.069-0.23,0.13-0.34,0.18c-0.12,0.061-0.24,0.12-0.36,0.17
		c-0.24,0.09-0.479,0.18-0.729,0.25c-0.011,0.01-0.021,0.01-0.03,0.01c-0.12,0.03-0.24,0.061-0.36,0.08
		c-0.05,0.01-0.1,0.021-0.149,0.03c-0.12,0.021-0.25,0.04-0.391,0.06H9.58C9.39,1958.99,9.2,1959,9,1959
		c-0.82,0-1.61-0.17-2.34-0.47c-0.351-0.15-0.68-0.34-1-0.551c-0.32-0.209-0.62-0.459-0.9-0.739L3,1959v-5.14h5.14l-2.17,2.17
		c0.45,0.439,0.98,0.779,1.561,0.99c0.069,0.039,0.14,0.06,0.22,0.08c0.4,0.119,0.82,0.189,1.25,0.189c0.189,0,0.37-0.01,0.55-0.04
		c0.021,0,0.05,0,0.07-0.01c0.14-0.021,0.29-0.04,0.42-0.08c0.04-0.01,0.08-0.021,0.12-0.03c0.12-0.029,0.24-0.07,0.35-0.12
		c0.101-0.03,0.19-0.069,0.28-0.12c0.12-0.05,0.24-0.109,0.35-0.18c0.141-0.08,0.271-0.16,0.4-0.27c0.17-0.11,0.33-0.25,0.479-0.41
		c0.101-0.09,0.2-0.2,0.29-0.311c0.051-0.06,0.091-0.119,0.13-0.18c0.11-0.13,0.19-0.26,0.271-0.4L14.189,1956z"/>
</g>
</svg>
