<?xml version="1.0" encoding="utf-8"?>
<!-- Generator: Adobe Illustrator 16.2.0, SVG Export Plug-In . SVG Version: 6.00 Build 0)  -->
<!DOCTYPE svg PUBLIC "-//W3C//DTD SVG 1.1//EN" "http://www.w3.org/Graphics/SVG/1.1/DTD/svg11.dtd">
<svg version="1.1" id="Layer_1" xmlns="http://www.w3.org/2000/svg" xmlns:xlink="http://www.w3.org/1999/xlink" x="0px" y="0px"
	 width="18px" height="18px" viewBox="0.042 125.75 18 18" enable-background="new 0.042 125.75 18 18" xml:space="preserve">
<polygon fill="#F7931E" points="14,131 17,135 14,139 "/>
<rect x="11" y="134" fill="#F7931E" width="3" height="2"/>
<g>
	<path fill="#71B1E4" d="M5.411,130c0.338,0.373,0.592,0.746,0.765,1.119c0.124,0.259,0.326,0.938,0.609,2.035l0.909-1.422
		c0.242-0.344,0.534-0.673,0.878-0.983c0.344-0.313,0.648-0.526,0.909-0.642C9.646,130.035,9.828,130,10.029,130
		c0.295,0,0.531,0.083,0.708,0.248c0.174,0.164,0.263,0.365,0.263,0.603c0,0.272-0.052,0.46-0.155,0.56
		c-0.193,0.18-0.414,0.27-0.661,0.27c-0.145,0-0.3-0.033-0.465-0.098c-0.325-0.115-0.541-0.172-0.651-0.172
		c-0.166,0-0.362,0.1-0.589,0.301c-0.428,0.374-0.936,1.096-1.529,2.164l0.847,3.703c0.13,0.567,0.242,0.906,0.331,1.017
		c0.089,0.112,0.18,0.167,0.269,0.167c0.145,0,0.313-0.082,0.506-0.247c0.379-0.331,0.703-0.761,0.971-1.292l0.361,0.193
		c-0.434,0.848-0.986,1.551-1.653,2.11C8.205,139.842,7.883,140,7.622,140c-0.385,0-0.692-0.227-0.919-0.678
		c-0.145-0.28-0.444-1.486-0.899-3.617c-1.074,1.945-1.935,3.197-2.583,3.757C2.8,139.82,2.395,140,2.002,140
		c-0.276,0-0.527-0.104-0.754-0.313C1.083,139.529,1,139.318,1,139.053c0-0.236,0.077-0.434,0.227-0.592
		c0.151-0.158,0.337-0.237,0.558-0.237s0.455,0.116,0.703,0.345c0.18,0.164,0.315,0.248,0.413,0.248c0.083,0,0.189-0.058,0.32-0.173
		c0.323-0.272,0.764-0.86,1.322-1.765c0.558-0.904,0.922-1.559,1.095-1.959c-0.427-1.744-0.657-2.667-0.692-2.768
		c-0.159-0.465-0.366-0.796-0.62-0.99c-0.254-0.193-0.63-0.29-1.126-0.29c-0.158,0-0.341,0.007-0.547,0.021v-0.388L5.411,130z"/>
</g>
</svg>
