<?xml version="1.0" encoding="utf-8"?>
<!-- Generator: Adobe Illustrator 16.2.0, SVG Export Plug-In . SVG Version: 6.00 Build 0)  -->
<!DOCTYPE svg PUBLIC "-//W3C//DTD SVG 1.1//EN" "http://www.w3.org/Graphics/SVG/1.1/DTD/svg11.dtd">
<svg version="1.1" id="Слой_1" xmlns="http://www.w3.org/2000/svg" xmlns:xlink="http://www.w3.org/1999/xlink" x="0px" y="0px"
	 width="18px" height="18px" viewBox="0 0 18 18" enable-background="new 0 0 18 18" xml:space="preserve">
<path fill="#636F80" d="M7.625,14L7.625,14c-0.276,0-0.5-0.224-0.5-0.5v-6c0-0.276,0.224-0.5,0.5-0.5s0.5,0.224,0.5,0.5v6
	C8.125,13.776,7.901,14,7.625,14"/>
<path fill="#636F80" d="M10.625,14L10.625,14c-0.276,0-0.5-0.224-0.5-0.5v-6c0-0.276,0.224-0.5,0.5-0.5s0.5,0.224,0.5,0.5v6
	C11.125,13.776,10.901,14,10.625,14"/>
<path fill="#636F80" d="M14.664,4c0.255,0,0.461,0.207,0.461,0.461V6h-1v8c0,1.104-0.895,2-2,2h-6c-1.104,0-2-0.896-2-2V6h-1V4.461
	C3.125,4.207,3.331,4,3.586,4h2.539V3c0-0.551,0.447-1,1-1h4c0.553,0,1,0.449,1,1v1H14.664z M13.125,14V6h-8v8c0,0.553,0.447,1,1,1
	h6C12.678,15,13.125,14.553,13.125,14 M11.125,3.407C11.125,3.182,10.943,3,10.719,3H7.531C7.307,3,7.125,3.182,7.125,3.407V4h4
	V3.407z"/>
<rect x="0.125" y="-234" fill="none" width="54" height="3456"/>
</svg>
