<?xml version="1.0" encoding="utf-8"?>
<!-- Generator: Adobe Illustrator 16.2.0, SVG Export Plug-In . SVG Version: 6.00 Build 0)  -->
<!DOCTYPE svg PUBLIC "-//W3C//DTD SVG 1.1//EN" "http://www.w3.org/Graphics/SVG/1.1/DTD/svg11.dtd">
<svg version="1.1" id="Слой_1" xmlns="http://www.w3.org/2000/svg" xmlns:xlink="http://www.w3.org/1999/xlink" x="0px" y="0px"
	 width="18px" height="18px" viewBox="0 0 18 18" enable-background="new 0 0 18 18" xml:space="preserve">
<polygon fill="#636F80" points="2.188,16.105 2.509,13.83 2.835,11.553 4.79,13.505 6.741,15.458 4.463,15.784 "/>
<polygon fill="#636F80" points="12.785,8.09 12.135,7.44 10.831,6.138 10.181,5.488 9.53,4.837 3.935,10.433 7.84,14.337 
	13.434,8.74 "/>
<path fill="#636F80" d="M15.937,6.348c0.345-0.342,0.333-0.917-0.026-1.275L13.309,2.47c-0.356-0.358-0.932-0.369-1.273-0.026
	c-0.03,0.028-0.041,0.064-0.065,0.094l-0.015-0.017l-1.25,1.249l3.904,3.906l1.25-1.25l-0.018-0.018
	C15.875,6.387,15.909,6.375,15.937,6.348"/>
<rect x="0.188" y="-485.813" fill="none" width="54" height="3456"/>
</svg>
