<svg width="18" height="18" xmlns="http://www.w3.org/2000/svg">
 <style type="text/css">.st0{fill:#636F80;}
	.st1{fill:#F7931E;}
	.st2{fill-rule:evenodd;clip-rule:evenodd;fill:#636F80;}
	.st3{fill:#808080;}
	.st4{fill:#FFFFFF;}
	.st5{fill-rule:evenodd;clip-rule:evenodd;fill:#808080;}
	.st6{fill-rule:evenodd;clip-rule:evenodd;fill:#FFFFFF;}</style>

 <g>
  <title>background</title>
  <rect x="-1" y="-1" width="20" height="20" id="canvas_background" fill="none"/>
 </g>
 <g>
  <title>Layer 1</title>
  <polygon class="st0" points="4.7269744873046875,15.635405965149403 7.7269744873046875,12.635405965149403 4.7269744873046875,9.635405965149403 " id="svg_880"/>
  <path class="st0" d="m13.776775,9.63531c-1.1973,0 -2.0498,1.07129 -2.0498,3.01807c0.0186,1.91943 0.7988,2.98193 1.9502,2.98193c1.3066,0 2.0498,-1.08984 2.0498,-3.0625c0,-1.84766 -0.707,-2.9375 -1.9502,-2.9375zm-0.0459,0.60742c0.4414,0 0.7481,0.27295 0.9434,0.73926l-2.1309,2.12988c-0.0098,-0.14404 -0.0176,-0.29101 -0.0176,-0.4497c0,-1.58057 0.5078,-2.41944 1.2051,-2.41944zm-0.0078,4.78516c-0.4004,0 -0.7188,-0.26807 -0.9277,-0.75391l2.1171,-2.11816c0.0098,0.14551 0.0157,0.29492 0.0157,0.45312c0,1.48145 -0.3897,2.41895 -1.2051,2.41895z" id="svg_1050"/>
  <path class="st0" d="m13.776775,1.63531c-1.1973,0 -2.0498,1.07129 -2.0498,3.01807c0.0186,1.91943 0.7988,2.98193 1.9502,2.98193c1.3066,0 2.0498,-1.08984 2.0498,-3.0625c0,-1.84766 -0.707,-2.9375 -1.9502,-2.9375zm-0.0459,0.60742c0.4414,0 0.7481,0.27295 0.9434,0.73926l-2.1309,2.12988c-0.0098,-0.14404 -0.0176,-0.29101 -0.0176,-0.4497c0,-1.58057 0.5078,-2.41944 1.2051,-2.41944zm-0.0078,4.78516c-0.4004,0 -0.7188,-0.26807 -0.9277,-0.75391l2.1171,-2.11816c0.0098,0.14551 0.0157,0.29492 0.0157,0.45312c0,1.48145 -0.3897,2.41895 -1.2051,2.41895z" id="svg_1051"/>
  <path class="st0" d="m8.776775,1.63531c-1.1973,0 -2.0498,1.07129 -2.0498,3.01807c0.0186,1.91943 0.7988,2.98193 1.9502,2.98193c1.3066,0 2.0498,-1.08984 2.0498,-3.0625c0,-1.84766 -0.707,-2.9375 -1.9502,-2.9375zm-0.0459,0.60742c0.4414,0 0.7481,0.27295 0.9434,0.73926l-2.1309,2.12988c-0.0098,-0.14404 -0.0176,-0.29101 -0.0176,-0.4497c0,-1.58057 0.5078,-2.41944 1.2051,-2.41944zm-0.0078,4.78516c-0.4004,0 -0.7188,-0.26807 -0.9277,-0.75391l2.1171,-2.11816c0.0098,0.14551 0.0157,0.29492 0.0157,0.45312c0,1.48145 -0.3897,2.41895 -1.2051,2.41895z" id="svg_1052"/>
  <rect x="8.726975" y="13.63531" class="st0" width="2" height="2" id="svg_1053"/>
  <rect x="3.726975" y="5.63531" class="st0" width="2" height="2" id="svg_1054"/>
  <rect x="2.273025" y="3864.365178" transform="matrix(-1,-1.224647e-16,1.224647e-16,-1,7,3878.0009766) " class="st0" width="3" height="2" id="svg_1055"/>
 </g>
</svg>