<svg width="18" height="18" xmlns="http://www.w3.org/2000/svg">
 <style type="text/css">.st0{fill:#636F80;}
	.st1{fill:#F7931E;}
	.st2{fill-rule:evenodd;clip-rule:evenodd;fill:#636F80;}
	.st3{fill:#808080;}
	.st4{fill:#FFFFFF;}
	.st5{fill-rule:evenodd;clip-rule:evenodd;fill:#808080;}
	.st6{fill-rule:evenodd;clip-rule:evenodd;fill:#FFFFFF;}</style>

 <g>
  <title>background</title>
  <rect fill="none" id="canvas_background" height="20" width="20" y="-1" x="-1"/>
 </g>
 <g>
  <title>Layer 1</title>
  <polygon id="svg_1056" points="4.600392296910286,1.6380500793457031 1.600392296910286,4.638050079345703 4.600392296910286,7.638050079345703 " class="st0"/>
  <path id="svg_1057" d="m13.650193,1.637959c-1.1973,0 -2.0498,1.07129 -2.0498,3.01807c0.0186,1.91943 0.7988,2.98193 1.9502,2.98193c1.3066,0 2.0498,-1.08984 2.0498,-3.0625c0,-1.84766 -0.707,-2.9375 -1.9502,-2.9375zm-0.0459,0.60742c0.4414,0 0.7481,0.27344 0.9434,0.73926l-2.1309,2.12988c-0.0098,-0.14404 -0.0176,-0.29101 -0.0176,-0.4497c0,-1.58057 0.5078,-2.41944 1.2051,-2.41944zm-0.0078,4.78516c-0.4004,0 -0.7188,-0.26807 -0.9277,-0.75391l2.1171,-2.11816c0.0098,0.14551 0.0157,0.29492 0.0157,0.45312c0,1.48145 -0.3897,2.41895 -1.2051,2.41895z" class="st0"/>
  <path id="svg_1058" d="m13.650193,9.637959c-1.1973,0 -2.0498,1.07129 -2.0498,3.01807c0.0186,1.91943 0.7988,2.98193 1.9502,2.98193c1.3066,0 2.0498,-1.08984 2.0498,-3.0625c0,-1.84766 -0.707,-2.9375 -1.9502,-2.9375zm-0.0459,0.60742c0.4414,0 0.7481,0.27295 0.9434,0.73926l-2.1309,2.12988c-0.0098,-0.14404 -0.0176,-0.29101 -0.0176,-0.4497c0,-1.58057 0.5078,-2.41944 1.2051,-2.41944zm-0.0078,4.78516c-0.4004,0 -0.7188,-0.26807 -0.9277,-0.75391l2.1171,-2.11816c0.0098,0.14551 0.0157,0.29492 0.0157,0.45312c0,1.48145 -0.3897,2.41895 -1.2051,2.41895z" class="st0"/>
  <path id="svg_1059" d="m8.650193,9.637959c-1.1973,0 -2.0498,1.07129 -2.0498,3.01807c0.0186,1.91943 0.7988,2.98193 1.9502,2.98193c1.3066,0 2.0498,-1.08984 2.0498,-3.0625c0,-1.84766 -0.707,-2.9375 -1.9502,-2.9375zm-0.0459,0.60742c0.4414,0 0.7481,0.27295 0.9434,0.73926l-2.1309,2.12988c-0.0098,-0.14404 -0.0176,-0.29101 -0.0176,-0.4497c0,-1.58057 0.5078,-2.41944 1.2051,-2.41944zm-0.0078,4.78516c-0.4004,0 -0.7188,-0.26807 -0.9277,-0.75391l2.1171,-2.11816c0.0098,0.14551 0.0157,0.29492 0.0157,0.45312c0,1.48145 -0.3897,2.41895 -1.2051,2.41895z" class="st0"/>
  <rect id="svg_1060" height="2" width="2" class="st0" y="5.637959" x="8.600393"/>
  <rect id="svg_1061" height="2" width="2" class="st0" y="13.637959" x="3.600393"/>
  <rect id="svg_1062" height="2" width="3" class="st0" y="3.637959" x="4.600393"/>
 </g>
</svg>