<svg width="28" height="16" xmlns="http://www.w3.org/2000/svg">

 <g>
  <title>background</title>
  <rect fill="none" id="canvas_background" height="18" width="30" y="-1" x="-1"/>
 </g>
 <g>
  <title>Layer 1</title>
  <path id="svg_1" d="m20,0l-1.625,0l-8.75,0l-1.625,0c-4.418,0 -8,3.58152 -8,8c0,4.41852 3.582,8 8,8l1.625,0l8.75,0l1.625,0c4.418,0 8,-3.58148 8,-8c0,-4.41848 -3.582,-8 -8,-8z" fill="#C4CCD6"/>
  <path id="svg_2" d="m12.00001,16l-4.00002,0c-4.41827,0 -7.99999,-3.58172 -7.99999,-7.99999l0,-0.00002c0,-4.41827 3.58172,-7.99999 7.99999,-7.99999l4.00002,0c4.41827,0 7.99999,3.58172 7.99999,7.99999l0,0.00002c0,4.41827 -3.58172,7.99999 -7.99999,7.99999z" fill="#617080"/>
  <polygon id="svg_7" points="14,5 6,5 9,8.75 9,12 11,12 11,8.75 " fill="#FFFFFF"/>
 </g>
</svg>