<svg width="28" height="16" xmlns="http://www.w3.org/2000/svg">

 <g>
  <title>background</title>
  <rect fill="none" id="canvas_background" height="18" width="30" y="-1" x="-1"/>
 </g>
 <g>
  <title>Layer 1</title>
  <path id="svg_1" d="m8,16l1.625,0l8.75,0l1.625,0c4.418,0 8,-3.58152 8,-8c0,-4.41852 -3.582,-8 -8,-8l-1.625,0l-8.75,0l-1.625,0c-4.418,0 -8,3.58148 -8,8c0,4.41848 3.582,8 8,8z" fill="#C4CCD6"/>
  <path id="svg_2" d="m15.99999,0l4.00002,0c4.41827,0 7.99999,3.58172 7.99999,7.99999l0,0.00002c0,4.41827 -3.58172,7.99999 -7.99999,7.99999l-4.00002,0c-4.41827,0 -7.99999,-3.58172 -7.99999,-7.99999l0,-0.00002c0,-4.41827 3.58172,-7.99999 7.99999,-7.99999z" fill="#617080"/>
  <g id="svg_7">
   <rect id="svg_8" height="1" width="5" fill="#FFFFFF" y="3" x="16"/>
  </g>
  <g id="svg_9">
   <rect id="svg_10" height="1" width="1" fill="#FFFFFF" y="6" x="14"/>
  </g>
  <g id="svg_11">
   <rect id="svg_12" height="1" width="1" fill="#FFFFFF" y="12" x="14"/>
  </g>
  <g id="svg_13">
   <rect id="svg_14" height="1" width="5" fill="#FFFFFF" y="6" x="16"/>
  </g>
  <g id="svg_15">
   <rect id="svg_16" height="1" width="5" fill="#FFFFFF" y="9" x="16"/>
  </g>
  <g id="svg_17">
   <rect id="svg_18" height="1" width="5" fill="#FFFFFF" y="12" x="16"/>
  </g>
 </g>
</svg>