<svg width="28" height="16" xmlns="http://www.w3.org/2000/svg">

 <g>
  <title>background</title>
  <rect fill="none" id="canvas_background" height="18" width="30" y="-1" x="-1"/>
 </g>
 <g>
  <title>Layer 1</title>
  <path id="svg_1" fill="#C4CCD6" d="m20,0l-1.625,0l-8.75,0l-1.625,0c-4.418,0 -8,3.582 -8,8c0,4.419 3.582,8 8,8l1.625,0l8.75,0l1.625,0c4.418,0 8,-3.581 8,-8c0,-4.418 -3.582,-8 -8,-8z"/>
  <path id="svg_2" fill="#617080" d="m12,16l-4,0c-4.418,0 -8,-3.582 -8,-8l0,0c0,-4.418 3.582,-8 8,-8l4,0c4.418,0 8,3.582 8,8l0,0c0,4.418 -3.582,8 -8,8z"/>
  <g id="svg_31">
   <path id="svg_32" fill="#FFFFFF" d="m7.352,8.012c-0.564,0 -1,-0.166 -1.308,-0.499c-0.308,-0.333 -0.462,-0.895 -0.462,-1.687c0,-0.784 0.153,-1.344 0.461,-1.681c0.308,-0.337 0.744,-0.506 1.308,-0.506c0.557,0 0.993,0.167 1.308,0.499s0.474,0.895 0.474,1.688s-0.157,1.354 -0.473,1.687c-0.316,0.333 -0.752,0.499 -1.308,0.499zm0,-3.501c-0.101,0 -0.191,0.017 -0.272,0.05c-0.08,0.035 -0.148,0.1 -0.202,0.197c-0.055,0.097 -0.097,0.232 -0.127,0.404c-0.03,0.173 -0.044,0.394 -0.044,0.664c0,0.278 0.014,0.501 0.044,0.67c0.029,0.169 0.071,0.301 0.127,0.398c0.054,0.097 0.122,0.16 0.202,0.189c0.08,0.03 0.171,0.044 0.272,0.044c0.101,0 0.192,-0.014 0.272,-0.044c0.08,-0.029 0.145,-0.093 0.196,-0.19c0.05,-0.096 0.09,-0.229 0.12,-0.397c0.029,-0.168 0.044,-0.392 0.044,-0.67c0,-0.27 -0.015,-0.491 -0.044,-0.664c-0.03,-0.172 -0.07,-0.307 -0.12,-0.404c-0.051,-0.097 -0.117,-0.162 -0.196,-0.196c-0.081,-0.034 -0.171,-0.051 -0.272,-0.051zm0.847,7.901c-0.042,0.016 -0.093,0.033 -0.152,0.05c-0.101,0.025 -0.248,0.038 -0.442,0.038s-0.342,-0.013 -0.442,-0.038c-0.059,-0.017 -0.11,-0.034 -0.152,-0.05l4.867,-8.823c0.033,-0.008 0.08,-0.021 0.139,-0.038c0.05,-0.017 0.114,-0.029 0.19,-0.038c0.075,-0.009 0.163,-0.013 0.264,-0.013c0.093,0 0.177,0.004 0.253,0.012c0.076,0.009 0.139,0.021 0.19,0.038l0.152,0.038l-4.867,8.824zm4.437,0.088c-0.565,0 -1.001,-0.167 -1.308,-0.499c-0.308,-0.333 -0.461,-0.895 -0.461,-1.688c0,-0.784 0.153,-1.344 0.461,-1.681c0.307,-0.337 0.743,-0.506 1.308,-0.506c0.556,0 0.992,0.167 1.308,0.499c0.316,0.333 0.474,0.895 0.474,1.688s-0.158,1.355 -0.474,1.688c-0.316,0.332 -0.752,0.499 -1.308,0.499zm0,-3.502c-0.101,0 -0.192,0.017 -0.272,0.051c-0.08,0.033 -0.148,0.099 -0.202,0.195c-0.055,0.097 -0.097,0.232 -0.127,0.405c-0.03,0.173 -0.044,0.394 -0.044,0.664c0,0.278 0.014,0.501 0.044,0.67c0.029,0.169 0.071,0.301 0.127,0.398c0.055,0.097 0.122,0.16 0.202,0.189c0.08,0.03 0.171,0.044 0.272,0.044c0.101,0 0.192,-0.014 0.272,-0.044c0.08,-0.029 0.145,-0.093 0.195,-0.189c0.051,-0.097 0.091,-0.229 0.12,-0.398c0.029,-0.169 0.044,-0.392 0.044,-0.67c0,-0.27 -0.015,-0.491 -0.044,-0.664c-0.03,-0.173 -0.069,-0.308 -0.12,-0.405c-0.05,-0.097 -0.116,-0.162 -0.195,-0.195c-0.081,-0.034 -0.171,-0.051 -0.272,-0.051z"/>
  </g>
 </g>
</svg>