<?xml version="1.0" encoding="UTF-8"?>
<!-- Generator: Adobe Illustrator 16.2.0, SVG Export Plug-In . SVG Version: 6.00 Build 0)  -->
<!DOCTYPE svg PUBLIC "-//W3C//DTD SVG 1.1//EN" "http://www.w3.org/Graphics/SVG/1.1/DTD/svg11.dtd">
<svg version="1.1" id="Слой_1" xmlns="http://www.w3.org/2000/svg" xmlns:xlink="http://www.w3.org/1999/xlink" x="0px" y="0px" width="28px" height="16.333px" viewBox="0 0 28 16.333" enable-background="new 0 0 28 16.333" xml:space="preserve">
<path fill="#C4CBD4" d="M20,0.333h-1.625h-8.75H8c-4.418,0-8,3.582-8,8c0,4.418,3.582,8,8,8h1.625h8.75H20c4.418,0,8-3.582,8-8  C28,3.915,24.418,0.333,20,0.333z"/>
<path fill="#606F7E" d="M12,16.333H8c-4.418,0-8-3.582-8-8l0,0c0-4.418,3.582-8,8-8h4c4.418,0,8,3.582,8,8l0,0  C20,12.751,16.418,16.333,12,16.333z"/>
<rect x="5" y="3.333" fill="#FFFFFF" width="10" height="2"/>
<rect x="5" y="7.333" fill="#FFFFFF" width="7" height="2"/>
<rect x="5" y="11.333" fill="#FFFFFF" width="4" height="2"/>
</svg>