<?xml version="1.0" encoding="UTF-8" standalone="no"?>
<!-- Created with Inkscape (http://www.inkscape.org/) -->
<svg xmlns:dc="http://purl.org/dc/elements/1.1/" xmlns:cc="http://creativecommons.org/ns#" xmlns:rdf="http://www.w3.org/1999/02/22-rdf-syntax-ns#" xmlns:svg="http://www.w3.org/2000/svg" xmlns="http://www.w3.org/2000/svg" xmlns:sodipodi="http://sodipodi.sourceforge.net/DTD/sodipodi-0.dtd" xmlns:inkscape="http://www.inkscape.org/namespaces/inkscape" width="18" height="18" viewBox="0 0 4.7624999 4.7625001" version="1.1" id="svg6111" inkscape:version="0.92.2 (5c3e80d, 2017-08-06)" sodipodi:docname="toolbar_181.svg">
  <defs id="defs6105"/>
  <sodipodi:namedview id="base" pagecolor="#ffffff" bordercolor="#666666" borderopacity="1.0" inkscape:pageopacity="0.0" inkscape:pageshadow="2" inkscape:zoom="31.678384" inkscape:cx="17.521159" inkscape:cy="9.8221984" inkscape:document-units="mm" inkscape:current-layer="layer1" showgrid="false" units="px" inkscape:window-width="1920" inkscape:window-height="1017" inkscape:window-x="1276" inkscape:window-y="-4" inkscape:window-maximized="1"/>
  <metadata id="metadata6108">
    <rdf:RDF>
      <cc:Work rdf:about="">
        <dc:format>image/svg+xml</dc:format>
        <dc:type rdf:resource="http://purl.org/dc/dcmitype/StillImage"/>
        <dc:title/>
      </cc:Work>
    </rdf:RDF>
  </metadata>
  <g inkscape:label="Layer 1" inkscape:groupmode="layer" id="layer1" transform="translate(0,-292.23748)">
    <rect x="1.7272631" y="292.75919" style="fill:#636f80;stroke-width:0.26458332" width="2.6458333" height="0.52916664" id="rect2606"/>
    <rect x="1.7272631" y="293.8175" style="fill:#636f80;stroke-width:0.26458332" width="2.6458333" height="0.52916664" id="rect2608"/>
    <rect x="1.7272631" y="294.87585" style="fill:#636f80;stroke-width:0.26458332" width="2.6458333" height="0.52916664" id="rect2610"/>
    <rect x="1.7272631" y="295.93417" style="fill:#636f80;stroke-width:0.26458332" width="2.6458333" height="0.52916664" id="rect2612"/>
    <g transform="matrix(0.26458333,0,0,0.26458333,0.13976314,-279.26998)" id="g2616">
      <path inkscape:connector-curvature="0" style="fill:#636f80" d="m 1,2164.658 c 0.355,-0.01 0.645,-0.063 0.867,-0.173 0.223,-0.109 0.372,-0.26 0.445,-0.451 0.074,-0.191 0.113,-0.519 0.117,-0.982 0.005,-0.463 0.02,-0.769 0.042,-0.916 0.042,-0.232 0.118,-0.42 0.231,-0.562 0.113,-0.142 0.252,-0.255 0.418,-0.339 0.166,-0.085 0.378,-0.149 0.636,-0.193 0.175,-0.028 0.46,-0.042 0.856,-0.042 H 5 v 0.654 H 4.786 c -0.479,0 -0.797,0.051 -0.953,0.156 -0.157,0.104 -0.235,0.336 -0.235,0.697 0,0.727 -0.025,1.186 -0.076,1.377 -0.082,0.298 -0.224,0.526 -0.425,0.687 -0.2,0.162 -0.515,0.304 -0.943,0.429 0.508,0.127 0.874,0.322 1.103,0.584 0.229,0.262 0.342,0.692 0.342,1.289 0,0.541 0.01,0.863 0.027,0.965 0.037,0.189 0.131,0.321 0.28,0.396 0.149,0.074 0.442,0.112 0.881,0.112 H 5 V 2169 H 4.613 c -0.451,0 -0.778,-0.022 -0.98,-0.066 -0.296,-0.064 -0.539,-0.168 -0.732,-0.311 -0.194,-0.143 -0.319,-0.324 -0.377,-0.543 -0.058,-0.219 -0.089,-0.578 -0.094,-1.078 -0.004,-0.5 -0.043,-0.845 -0.117,-1.036 -0.073,-0.191 -0.223,-0.343 -0.445,-0.454 -0.223,-0.111 -0.513,-0.169 -0.867,-0.174 v -0.68 z" id="path2614"/>
    </g>
    <g transform="matrix(0.26458333,0,0,0.26458333,0.13976314,-279.26998)" id="g2620">
      <path inkscape:connector-curvature="0" style="fill:#636f80" d="m 1,2172.658 c 0.355,-0.01 0.645,-0.063 0.867,-0.173 0.223,-0.109 0.372,-0.26 0.445,-0.451 0.074,-0.191 0.113,-0.519 0.117,-0.982 0.005,-0.463 0.02,-0.769 0.042,-0.916 0.042,-0.232 0.118,-0.42 0.231,-0.562 0.113,-0.142 0.252,-0.255 0.418,-0.339 0.166,-0.085 0.378,-0.149 0.636,-0.193 0.175,-0.028 0.46,-0.042 0.856,-0.042 H 5 v 0.654 H 4.786 c -0.479,0 -0.797,0.051 -0.953,0.156 -0.157,0.104 -0.235,0.336 -0.235,0.697 0,0.727 -0.025,1.186 -0.076,1.377 -0.082,0.298 -0.224,0.526 -0.425,0.687 -0.2,0.162 -0.515,0.304 -0.943,0.429 0.508,0.127 0.874,0.322 1.103,0.584 0.229,0.262 0.342,0.692 0.342,1.289 0,0.541 0.01,0.863 0.027,0.965 0.037,0.189 0.131,0.321 0.28,0.396 0.149,0.074 0.442,0.112 0.881,0.112 H 5 V 2177 H 4.613 c -0.451,0 -0.778,-0.022 -0.98,-0.066 -0.296,-0.064 -0.539,-0.168 -0.732,-0.311 -0.194,-0.143 -0.319,-0.324 -0.377,-0.543 -0.058,-0.219 -0.089,-0.578 -0.094,-1.078 -0.004,-0.5 -0.043,-0.845 -0.117,-1.036 -0.073,-0.191 -0.223,-0.343 -0.445,-0.454 -0.223,-0.111 -0.513,-0.169 -0.867,-0.174 v -0.68 z" id="path2618"/>
    </g>
  </g>
</svg>