<?xml version="1.0" encoding="UTF-8"?>
<!-- Generator: Adobe Illustrator 16.2.0, SVG Export Plug-In . SVG Version: 6.00 Build 0)  -->
<!DOCTYPE svg PUBLIC "-//W3C//DTD SVG 1.1//EN" "http://www.w3.org/Graphics/SVG/1.1/DTD/svg11.dtd">
<svg version="1.1" id="Слой_1" xmlns="http://www.w3.org/2000/svg" xmlns:xlink="http://www.w3.org/1999/xlink" x="0px" y="0px" width="18px" height="18px" viewBox="-0.084 755.917 18 18" enable-background="new -0.084 755.917 18 18" xml:space="preserve">
<g id="Layer_5">
	<path fill="#636F80" d="M16,758v2H8v-2H16 M17,757H7v4h10V757L17,757z"/>
	<path fill="#636F80" d="M16,764v2H8v-2H16 M17,763H7v4h10V763L17,763z"/>
	<path fill="#636F80" d="M16,770v2H8v-2H16 M17,769H7v4h10V769L17,769z"/>
	<path fill="#636F80" d="M4,758v2H2v-2H4 M5,757H1v4h4V757L5,757z"/>
	<path fill="#636F80" d="M4,764v2H2v-2H4 M5,763H1v4h4V763L5,763z"/>
	<path fill="#636F80" d="M4,770v2H2v-2H4 M5,769H1v4h4V769L5,769z"/>
</g>
</svg>