<?xml version="1.0" encoding="UTF-8"?>
<!-- Generator: Adobe Illustrator 16.2.0, SVG Export Plug-In . SVG Version: 6.00 Build 0)  -->
<!DOCTYPE svg PUBLIC "-//W3C//DTD SVG 1.1//EN" "http://www.w3.org/Graphics/SVG/1.1/DTD/svg11.dtd">
<svg version="1.1" id="Слой_1" xmlns="http://www.w3.org/2000/svg" xmlns:xlink="http://www.w3.org/1999/xlink" x="0px" y="0px" width="18px" height="18px" viewBox="-0.084 1853.834 18 18" enable-background="new -0.084 1853.834 18 18" xml:space="preserve">
<g id="Layer_5">
	<rect x="13" y="1855" fill="#636F80" width="1" height="13"/>
	<polygon fill="#636F80" points="13.5,1871 11,1868 16,1868  "/>
	<path fill="#636F80" d="M4.139,1860.204L3.64,1862H2l2.139-7h2.077l2.171,7H6.684l-0.54-1.796H4.139z M5.914,1859.02l-0.436-1.485   c-0.124-0.415-0.249-0.934-0.354-1.351H5.104c-0.104,0.417-0.208,0.945-0.321,1.351l-0.415,1.485H5.914z"/>
	<path fill="#636F80" d="M2,1870.148l3.334-4.798v-0.042H2.312V1864h5.079v0.913l-3.262,4.736v0.041h3.313v1.31H2V1870.148z"/>
</g>
</svg>