<?xml version="1.0" encoding="utf-8"?>
<!-- Generator: Adobe Illustrator 16.2.0, SVG Export Plug-In . SVG Version: 6.00 Build 0)  -->
<!DOCTYPE svg PUBLIC "-//W3C//DTD SVG 1.1//EN" "http://www.w3.org/Graphics/SVG/1.1/DTD/svg11.dtd">
<svg version="1.1" id="Слой_1" xmlns="http://www.w3.org/2000/svg" xmlns:xlink="http://www.w3.org/1999/xlink" x="0px" y="0px"
	 width="18px" height="18px" viewBox="-0.084 2357.834 18 18" enable-background="new -0.084 2357.834 18 18" xml:space="preserve">
<g id="Layer_5">
	<g>
		<g>
			<path fill="#636F80" d="M7.623,2367.227c-0.064-0.309-0.128-0.629-0.183-0.96c-1.543-0.146-3.27,0.152-5.303,2.186
				c-0.182,0.182-0.182,0.478,0,0.66c0.091,0.091,0.21,0.137,0.33,0.137c0.119,0,0.239-0.046,0.33-0.137
				C4.675,2367.233,6.168,2367.035,7.623,2367.227z"/>
			<path fill="#636F80" d="M15.863,2364.888c-0.182-0.182-0.478-0.182-0.66,0c-1.876,1.875-3.365,2.083-4.813,1.896
				c0.063,0.309,0.127,0.628,0.181,0.958c1.541,0.142,3.264-0.165,5.292-2.194C16.045,2365.366,16.045,2365.07,15.863,2364.888z"/>
		</g>
		<g>
			<path fill="#636F80" d="M7.218,2374c-0.12,0-0.239-0.046-0.33-0.137c-0.182-0.183-0.182-0.478,0-0.66
				c2.422-2.421,2.051-4.216,1.658-6.116c-0.404-1.959-0.864-4.18,1.906-6.95c0.182-0.183,0.478-0.183,0.66,0s0.182,0.478,0,0.66
				c-2.414,2.413-2.043,4.205-1.651,6.101c0.405,1.964,0.866,4.188-1.913,6.966C7.457,2373.954,7.337,2374,7.218,2374z"/>
		</g>
		<path fill="#636F80" d="M10.703,2362.104l3.772,3.772c0.182,0.183,0.478,0.183,0.66,0l0,0c0.182-0.182,0.182-0.478,0-0.66
			l-3.772-3.772c-0.183-0.182-0.478-0.182-0.66,0l0,0C10.521,2361.626,10.521,2361.921,10.703,2362.104z"/>
		<path fill="#636F80" d="M9.924,2364.749l2.437,2.437c0.183,0.183,0.478,0.183,0.66,0l0,0c0.182-0.183,0.182-0.478,0-0.66
			l-2.437-2.437c-0.183-0.182-0.478-0.182-0.66,0l0,0C9.742,2364.271,9.742,2364.567,9.924,2364.749z"/>
		<path fill="#636F80" d="M6.517,2372.437l-3.647-3.646c-0.183-0.183-0.183-0.479,0-0.66l0,0c0.182-0.183,0.478-0.183,0.66,0
			l3.647,3.646c0.182,0.183,0.182,0.479,0,0.66l0,0C6.995,2372.619,6.699,2372.619,6.517,2372.437z"/>
		<path fill="#636F80" d="M7.398,2369.689l-2.349-2.35c-0.183-0.183-0.183-0.478,0-0.659l0,0c0.182-0.183,0.478-0.183,0.66,0
			l2.349,2.349c0.182,0.183,0.182,0.478,0,0.66l0,0C7.875,2369.871,7.58,2369.871,7.398,2369.689z"/>
	</g>
</g>
</svg>
