<?xml version="1.0" encoding="UTF-8"?>
<!-- Generator: Adobe Illustrator 16.2.0, SVG Export Plug-In . SVG Version: 6.00 Build 0)  -->
<!DOCTYPE svg PUBLIC "-//W3C//DTD SVG 1.1//EN" "http://www.w3.org/Graphics/SVG/1.1/DTD/svg11.dtd">
<svg version="1.1" id="Слой_1" xmlns="http://www.w3.org/2000/svg" xmlns:xlink="http://www.w3.org/1999/xlink" x="0px" y="0px" width="18px" height="18px" viewBox="-0.084 467.917 18 18" enable-background="new -0.084 467.917 18 18" xml:space="preserve">
<g id="Layer_5">
	<polygon fill="#636F80" points="13,476 10,476 10,473 8,473 8,476 5,476 5,478 8,478 8,481 10,481 10,478 13,478  "/>
	<g>
		<path fill="#636F80" d="M9,485l-0.055-0.5L9,484c0.292,0,0.579-0.018,0.862-0.052l0.121,0.991C9.661,484.979,9.333,485,9,485z     M7.899,484.925c-0.344-0.047-0.688-0.118-1.023-0.21l0.264-0.964c0.292,0.08,0.591,0.143,0.896,0.184L7.899,484.925z     M11.011,484.745l-0.25-0.968c0.298-0.077,0.587-0.174,0.867-0.287l0.377,0.927C11.682,484.548,11.348,484.657,11.011,484.745z     M5.889,484.372c-0.319-0.135-0.634-0.292-0.934-0.469l0.506-0.863c0.262,0.154,0.534,0.291,0.816,0.411L5.889,484.372z     M12.946,483.962l-0.494-0.869c0.267-0.152,0.521-0.32,0.764-0.503l0.604,0.797C13.543,483.596,13.249,483.79,12.946,483.962z     M4.088,483.316c-0.273-0.214-0.534-0.445-0.778-0.693l0.711-0.702c0.215,0.218,0.444,0.42,0.685,0.608L4.088,483.316z     M14.609,482.704l-0.701-0.713c0.217-0.214,0.42-0.441,0.607-0.682l0.789,0.615C15.091,482.198,14.857,482.46,14.609,482.704z     M2.625,481.835c-0.211-0.278-0.404-0.572-0.576-0.873l0.869-0.495c0.151,0.266,0.319,0.521,0.504,0.763L2.625,481.835z     M15.894,481.062l-0.861-0.508c0.154-0.262,0.292-0.534,0.412-0.816l0.92,0.394C16.228,480.451,16.069,480.764,15.894,481.062z     M1.59,480.022c-0.131-0.32-0.242-0.654-0.33-0.993l0.967-0.252c0.078,0.298,0.174,0.587,0.289,0.866L1.59,480.022z     M16.709,479.144l-0.963-0.269c0.081-0.292,0.143-0.59,0.187-0.896l0.99,0.143C16.872,478.471,16.801,478.814,16.709,479.144z     M1.063,478.004C1.021,477.675,1,477.34,1,477l1-0.035V477c0,0.298,0.019,0.591,0.055,0.879L1.063,478.004z M15.999,477.073    L16,476.979c0-0.289-0.021-0.593-0.06-0.893l0.992-0.13C16.978,476.3,17,476.65,17,477L15.999,477.073z M2.063,476.055    l-0.99-0.136c0.047-0.346,0.117-0.69,0.208-1.023l0.965,0.262C2.166,475.45,2.104,475.748,2.063,476.055z M15.764,475.19    c-0.079-0.297-0.178-0.587-0.293-0.867l0.924-0.381c0.134,0.322,0.246,0.655,0.336,0.99L15.764,475.19z M2.542,474.294    l-0.922-0.388c0.134-0.319,0.291-0.634,0.467-0.935l0.863,0.505C2.797,473.737,2.66,474.011,2.542,474.294z M15.066,473.505    c-0.153-0.266-0.323-0.52-0.508-0.762l0.793-0.607c0.211,0.274,0.406,0.566,0.58,0.868L15.066,473.505z M3.463,472.719    l-0.791-0.612c0.212-0.274,0.444-0.537,0.691-0.783l0.705,0.709C3.853,472.248,3.649,472.478,3.463,472.719z M13.954,472.056    c-0.215-0.216-0.444-0.418-0.687-0.604l0.611-0.792c0.276,0.214,0.54,0.445,0.784,0.689L13.954,472.056z M4.758,471.432    l-0.607-0.794c0.276-0.211,0.568-0.406,0.87-0.579l0.498,0.867C5.254,471.078,4.999,471.248,4.758,471.432z M12.509,470.942    c-0.263-0.152-0.536-0.289-0.818-0.407l0.385-0.923c0.32,0.135,0.636,0.29,0.936,0.465L12.509,470.942z M6.341,470.522    l-0.381-0.925c0.319-0.132,0.653-0.243,0.991-0.333l0.256,0.967C6.91,470.311,6.62,470.407,6.341,470.522z M10.826,470.24    c-0.292-0.078-0.591-0.139-0.896-0.18l0.131-0.991c0.346,0.046,0.69,0.116,1.025,0.205L10.826,470.24z M8.104,470.057    l-0.127-0.992C8.313,469.022,8.653,469,9,469l0.018,1l-0.038-0.001C8.696,470,8.396,470.02,8.104,470.057z"/>
	</g>
</g>
</svg>