<?xml version="1.0" encoding="UTF-8"?>
<!-- Generator: Adobe Illustrator 16.2.0, SVG Export Plug-In . SVG Version: 6.00 Build 0)  -->
<!DOCTYPE svg PUBLIC "-//W3C//DTD SVG 1.1//EN" "http://www.w3.org/Graphics/SVG/1.1/DTD/svg11.dtd">
<svg version="1.1" id="Слой_1" xmlns="http://www.w3.org/2000/svg" xmlns:xlink="http://www.w3.org/1999/xlink" x="0px" y="0px" width="18px" height="18px" viewBox="0 0 18 18" enable-background="new 0 0 18 18" xml:space="preserve">
<path fill="#636F80" d="M10.396,9.23c0.011,0.056,0.011,0.148,0,0.205c-0.011,0.056-0.264,0.336-0.462,0.527l-5.098,4.906  c-0.198,0.191-0.456,0.382-0.573,0.425c-0.117,0.043-0.455-0.154-0.553-0.249c-0.096-0.093-0.212-0.264-0.254-0.378  c-0.043-0.114,0.24-0.514,0.438-0.704L8.343,9.68c0.198-0.191,0.198-0.503,0-0.693L3.895,4.704C3.696,4.513,3.499,4.264,3.457,4.15  C3.414,4.035,3.614,3.715,3.71,3.621c0.098-0.094,0.274-0.206,0.391-0.248c0.116-0.044,0.537,0.232,0.735,0.424l5.098,4.907  C10.132,8.895,10.385,9.175,10.396,9.23"/>
<path fill="#636F80" d="M15.396,9.23c0.011,0.056,0.011,0.148,0,0.205c-0.011,0.056-0.264,0.336-0.462,0.527l-5.098,4.906  c-0.198,0.191-0.456,0.382-0.573,0.425c-0.117,0.043-0.455-0.154-0.553-0.249c-0.096-0.093-0.212-0.264-0.254-0.378  c-0.043-0.114,0.24-0.514,0.438-0.704l4.449-4.283c0.198-0.191,0.198-0.503,0-0.693L8.895,4.704C8.696,4.513,8.499,4.264,8.457,4.15  C8.414,4.035,8.614,3.715,8.71,3.621c0.098-0.094,0.274-0.206,0.391-0.248c0.116-0.044,0.537,0.232,0.735,0.424l5.098,4.907  C15.132,8.895,15.385,9.175,15.396,9.23"/>
<rect x="0.417" y="-1673.667" fill="none" width="54" height="3456"/>
</svg>