<?xml version="1.0" encoding="utf-8"?>
<!-- Generator: Adobe Illustrator 16.2.0, SVG Export Plug-In . SVG Version: 6.00 Build 0)  -->
<!DOCTYPE svg PUBLIC "-//W3C//DTD SVG 1.1//EN" "http://www.w3.org/Graphics/SVG/1.1/DTD/svg11.dtd">
<svg version="1.1" id="Слой_1" xmlns="http://www.w3.org/2000/svg" xmlns:xlink="http://www.w3.org/1999/xlink" x="0px" y="0px"
	 width="18px" height="18px" viewBox="-0.084 2465.959 18 18" enable-background="new -0.084 2465.959 18 18" xml:space="preserve">
<g id="Layer_5">
	<polygon fill="#636F80" points="8,2471 12,2475 8,2479 	"/>
	<g>
		<path fill="#636F80" d="M13,2468c1.654,0,3,1.346,3,3v8c0,1.654-1.346,3-3,3H5c-1.654,0-3-1.346-3-3v-8c0-1.654,1.346-3,3-3H13
			 M13,2467H5c-2.209,0-4,1.791-4,4v8c0,2.209,1.791,4,4,4h8c2.209,0,4-1.791,4-4v-8C17,2468.791,15.209,2467,13,2467L13,2467z"/>
	</g>
</g>
</svg>
