<?xml version="1.0" encoding="UTF-8"?>
<!-- Generator: Adobe Illustrator 16.2.0, SVG Export Plug-In . SVG Version: 6.00 Build 0)  -->
<!DOCTYPE svg PUBLIC "-//W3C//DTD SVG 1.1//EN" "http://www.w3.org/Graphics/SVG/1.1/DTD/svg11.dtd">
<svg version="1.1" id="Слой_1" xmlns="http://www.w3.org/2000/svg" xmlns:xlink="http://www.w3.org/1999/xlink" x="0px" y="0px" width="18px" height="18px" viewBox="-0.084 737.917 18 18" enable-background="new -0.084 737.917 18 18" xml:space="preserve">
<g id="Layer_5">
	<path fill="#636F80" d="M7,740v5H2v-5H7 M8,739H1v7h7V739L8,739z"/>
	<path fill="#636F80" d="M16,740v5h-5v-5H16 M17,739h-7v7h7V739L17,739z"/>
	<path fill="#636F80" d="M7,749v5H2v-5H7 M8,748H1v7h7V748L8,748z"/>
	<path fill="#636F80" d="M16,749v5h-5v-5H16 M17,748h-7v7h7V748L17,748z"/>
</g>
</svg>