<?xml version="1.0" encoding="UTF-8"?>
<!-- Generator: Adobe Illustrator 16.2.0, SVG Export Plug-In . SVG Version: 6.00 Build 0)  -->
<!DOCTYPE svg PUBLIC "-//W3C//DTD SVG 1.1//EN" "http://www.w3.org/Graphics/SVG/1.1/DTD/svg11.dtd">
<svg version="1.1" id="Слой_1" xmlns="http://www.w3.org/2000/svg" xmlns:xlink="http://www.w3.org/1999/xlink" x="0px" y="0px" width="18px" height="18px" viewBox="-0.084 2051.834 18 18" enable-background="new -0.084 2051.834 18 18" xml:space="preserve">
<g id="Layer_5">
	<path fill="#636F80" d="M14.539,2056c0.255,0,0.461,0.206,0.461,0.461V2058h-1v8c0,1.104-0.896,2-2,2H6c-1.104,0-2-0.896-2-2v-8H3   v-1.539c0-0.255,0.206-0.461,0.461-0.461H6v-1c0-0.552,0.447-1,1-1h4c0.553,0,1,0.448,1,1v1H14.539z M13,2066v-8H5v8   c0,0.553,0.447,1,1,1h6C12.553,2067,13,2066.553,13,2066z M11,2055.406c0-0.224-0.182-0.406-0.406-0.406H7.406   c-0.225,0-0.406,0.183-0.406,0.406V2056h4V2055.406z"/>
	<rect x="8" y="2059" fill="#636F80" width="2" height="4"/>
	<polygon fill="#636F80" points="9,2066 6,2063 12,2063  "/>
</g>
</svg>