<?xml version="1.0" encoding="UTF-8"?>
<!-- Generator: Adobe Illustrator 16.2.0, SVG Export Plug-In . SVG Version: 6.00 Build 0)  -->
<!DOCTYPE svg PUBLIC "-//W3C//DTD SVG 1.1//EN" "http://www.w3.org/Graphics/SVG/1.1/DTD/svg11.dtd">
<svg version="1.1" id="Слой_1" xmlns="http://www.w3.org/2000/svg" xmlns:xlink="http://www.w3.org/1999/xlink" x="0px" y="0px" width="18px" height="18px" viewBox="-0.084 1403.833 18 18" enable-background="new -0.084 1403.833 18 18" xml:space="preserve">
<g id="Layer_5">
	<g>
		<path fill="#636F80" d="M5.857,1416.997c0.673,0.414,1.657,0.76,2.693,0.76c1.537,0,2.435-0.812,2.435-1.985    c0-1.088-0.622-1.709-2.192-2.313c-1.899-0.674-3.074-1.658-3.074-3.299c0-1.813,1.502-3.159,3.764-3.159    c1.191,0,2.056,0.276,2.573,0.569l-0.415,1.227c-0.379-0.207-1.156-0.553-2.21-0.553c-1.589,0-2.193,0.949-2.193,1.744    c0,1.088,0.709,1.623,2.314,2.244c1.968,0.76,2.971,1.711,2.971,3.419c0,1.796-1.33,3.35-4.075,3.35    c-1.123,0-2.349-0.328-2.97-0.742L5.857,1416.997z"/>
	</g>
	<rect x="15" y="1407" fill="#636F80" width="1" height="12"/>
	<rect x="2" y="1407" fill="#636F80" width="1" height="12"/>
</g>
</svg>