<?xml version="1.0" encoding="UTF-8"?>
<!-- Generator: Adobe Illustrator 16.2.0, SVG Export Plug-In . SVG Version: 6.00 Build 0)  -->
<!DOCTYPE svg PUBLIC "-//W3C//DTD SVG 1.1//EN" "http://www.w3.org/Graphics/SVG/1.1/DTD/svg11.dtd">
<svg version="1.1" id="Слой_1" xmlns="http://www.w3.org/2000/svg" xmlns:xlink="http://www.w3.org/1999/xlink" x="0px" y="0px" width="18px" height="18px" viewBox="-0.084 233.917 18 18" enable-background="new -0.084 233.917 18 18" xml:space="preserve">
<g id="Layer_5">
	<path fill="#636F80" d="M7.5,248L7.5,248c-0.276,0-0.5-0.224-0.5-0.5v-6c0-0.276,0.224-0.5,0.5-0.5l0,0c0.276,0,0.5,0.224,0.5,0.5   v6C8,247.776,7.776,248,7.5,248z"/>
	<path fill="#636F80" d="M10.5,248L10.5,248c-0.276,0-0.5-0.224-0.5-0.5v-6c0-0.276,0.224-0.5,0.5-0.5l0,0   c0.276,0,0.5,0.224,0.5,0.5v6C11,247.776,10.776,248,10.5,248z"/>
	<path fill="#636F80" d="M14.539,238c0.255,0,0.461,0.207,0.461,0.461V240h-1v8c0,1.105-0.896,2-2,2H6c-1.104,0-2-0.895-2-2v-8H3   v-1.539C3,238.207,3.206,238,3.461,238H6v-1c0-0.552,0.447-1,1-1h4c0.553,0,1,0.448,1,1v1H14.539z M13,248v-8H5v8   c0,0.553,0.447,1,1,1h6C12.553,249,13,248.553,13,248z M11,237.407c0-0.225-0.182-0.407-0.406-0.407H7.406   C7.182,237,7,237.182,7,237.407V238h4V237.407z"/>
</g>
</svg>