<?xml version="1.0" encoding="UTF-8"?>
<!-- Generator: Adobe Illustrator 16.2.0, SVG Export Plug-In . SVG Version: 6.00 Build 0)  -->
<!DOCTYPE svg PUBLIC "-//W3C//DTD SVG 1.1//EN" "http://www.w3.org/Graphics/SVG/1.1/DTD/svg11.dtd">
<svg version="1.1" id="Слой_1" xmlns="http://www.w3.org/2000/svg" xmlns:xlink="http://www.w3.org/1999/xlink" x="0px" y="0px" width="18px" height="18px" viewBox="-0.084 3059.959 18 18" enable-background="new -0.084 3059.959 18 18" xml:space="preserve">
<g id="Layer_5">
	<path fill="#636F80" d="M9,3065c2.206,0,4,1.794,4,4s-1.794,4-4,4s-4-1.794-4-4S6.794,3065,9,3065 M9,3064c-2.761,0-5,2.238-5,5   s2.239,5,5,5s5-2.238,5-5S11.761,3064,9,3064L9,3064z"/>
	<polygon fill="#636F80" points="11.121,3067.586 10.414,3066.879 9,3068.293 7.586,3066.879 6.879,3067.586 8.293,3069    6.879,3070.414 7.586,3071.121 9,3069.707 10.414,3071.121 11.121,3070.414 9.707,3069  "/>
	<g>
		<path fill="#636F80" d="M6.5,3063H1v2h2.884C4.566,3064.128,5.463,3063.433,6.5,3063z"/>
		<path fill="#636F80" d="M14.116,3065H15v1l2-2l-2-2v1h-3.5C12.537,3063.433,13.434,3064.128,14.116,3065z"/>
	</g>
	<g>
		<path fill="#636F80" d="M17,3069l-1.744-1.743c0.155,0.556,0.244,1.139,0.244,1.743s-0.089,1.188-0.244,1.743L17,3069z"/>
		<path fill="#636F80" d="M2.5,3069c0-0.341,0.034-0.673,0.085-1H1v2h1.585C2.534,3069.673,2.5,3069.341,2.5,3069z"/>
	</g>
	<g>
		<path fill="#636F80" d="M3.884,3073H1v2h5.5C5.463,3074.567,4.566,3073.872,3.884,3073z"/>
		<path fill="#636F80" d="M17,3074l-2-2v1h-0.884c-0.683,0.872-1.579,1.567-2.616,2H15v1L17,3074z"/>
	</g>
</g>
</svg>