<?xml version="1.0" encoding="UTF-8"?>
<!-- Generator: Adobe Illustrator 16.2.0, SVG Export Plug-In . SVG Version: 6.00 Build 0)  -->
<!DOCTYPE svg PUBLIC "-//W3C//DTD SVG 1.1//EN" "http://www.w3.org/Graphics/SVG/1.1/DTD/svg11.dtd">
<svg version="1.1" id="Слой_1" xmlns="http://www.w3.org/2000/svg" xmlns:xlink="http://www.w3.org/1999/xlink" x="0px" y="0px" width="18px" height="18px" viewBox="-0.084 2123.834 18 18" enable-background="new -0.084 2123.834 18 18" xml:space="preserve">
<g id="Layer_5">
	<g>
		<path fill="#636F80" d="M14.91,2138.474c-0.007,0.12-0.015,0.24-0.022,0.347l-1.439-0.078c0.015-0.112,0.022-0.233,0.029-0.367    c0.053-0.7,0.149-1.867-0.343-2.121c-0.866-0.438-1.955,0.579-3.396,2.058c-1.545,1.604-3.477,3.592-5.491,2.064    c-0.776-0.58-1.209-1.287-1.276-2.101c-0.119-1.386,0.813-2.807,2.037-4.207c0.224-0.255,0.447-0.509,0.693-0.757l1.016,0.962    c-0.239,0.255-0.478,0.509-0.687,0.764c-0.971,1.132-1.701,2.234-1.627,3.126c0.037,0.431,0.283,0.806,0.731,1.145    c0.843,0.63,1.731-0.042,3.544-1.916c1.515-1.549,3.216-3.316,5.127-2.34C15.142,2135.723,14.993,2137.448,14.91,2138.474z"/>
	</g>
	<path fill="#636F80" d="M12.397,2126.417c0,0.239-0.09,0.489-0.26,0.68l-0.04,0.05l-1.41,1.41c-0.54-0.521-1.08-0.98-1.54-1.29   l0.67-0.68l0.86-0.86l0.05-0.04c0.4-0.35,1-0.34,1.38,0.03C12.298,2125.917,12.397,2126.167,12.397,2126.417z"/>
	<g>
		<path fill="#636F80" d="M14.258,2129.217v0.01l-0.04,0.04l-0.86,0.859l-0.67,0.67c-0.32-0.459-0.78-1-1.29-1.539l1.4-1.4    l0.05-0.04c0.4-0.359,1.01-0.35,1.38,0.021C14.607,2128.217,14.607,2128.816,14.258,2129.217z"/>
	</g>
	
		<rect x="5.243" y="2132.703" transform="matrix(-0.7071 0.7071 -0.7071 -0.7071 1518.9137 3639.2515)" fill="#636F80" width="1" height="3"/>
	
		<rect x="5.903" y="2130.879" transform="matrix(-0.7071 0.7071 -0.7071 -0.7071 1519.7379 3637.2617)" fill="#636F80" width="1.329" height="4.999"/>
	<path fill="#636F80" d="M8.431,2127.979c0.954,0.57,2.965,2.581,3.535,3.536l-2.216,2.216c-0.135,0.135-0.31,0.209-0.492,0.209   c-0.109,0-0.27-0.027-0.403-0.161l-2.688-2.688c-0.233-0.233-0.212-0.635,0.048-0.896L8.431,2127.979 M8.25,2126.854   c-0.07,0-0.127,0.02-0.167,0.06l-2.575,2.575c-0.651,0.651-0.673,1.686-0.048,2.31l2.688,2.688c0.304,0.304,0.704,0.454,1.11,0.454   c0.43,0,0.865-0.168,1.199-0.503l2.576-2.575C13.644,2131.252,9.321,2126.854,8.25,2126.854L8.25,2126.854z"/>
</g>
</svg>