<?xml version="1.0" encoding="utf-8"?>
<!-- Generator: Adobe Illustrator 16.2.0, SVG Export Plug-In . SVG Version: 6.00 Build 0)  -->
<!DOCTYPE svg PUBLIC "-//W3C//DTD SVG 1.1//EN" "http://www.w3.org/Graphics/SVG/1.1/DTD/svg11.dtd">
<svg version="1.1" id="Слой_1" xmlns="http://www.w3.org/2000/svg" xmlns:xlink="http://www.w3.org/1999/xlink" x="0px" y="0px"
	 width="18px" height="18px" viewBox="-0.084 2501.959 18 18" enable-background="new -0.084 2501.959 18 18" xml:space="preserve">
<g id="Layer_5">
	<circle fill="#636F80" cx="9" cy="2513" r="2"/>
	<g>
		<path fill="#636F80" d="M16.256,2505.543c-0.059-0.166-0.128-0.33-0.22-0.487c-0.091-0.158-0.198-0.301-0.313-0.435l0.372-0.645
			L14.404,2503l-0.376,0.652c-0.348-0.064-0.703-0.067-1.058-0.002l-0.375-0.65l-1.691,0.977l0.375,0.65
			c-0.233,0.274-0.409,0.583-0.527,0.916H10v1.953h0.744c0.059,0.165,0.128,0.329,0.22,0.487c0.091,0.158,0.198,0.301,0.313,0.435
			l-0.372,0.645l1.691,0.976l0.376-0.651c0.348,0.064,0.703,0.067,1.058,0.002l0.375,0.649l1.691-0.976l-0.375-0.65
			c0.233-0.274,0.409-0.584,0.527-0.916H17v-1.953H16.256z M14.232,2507.788c-0.701,0.404-1.596,0.164-2-0.537
			c-0.404-0.699-0.165-1.596,0.536-2c0.701-0.404,1.596-0.164,2,0.536S14.933,2507.383,14.232,2507.788z"/>
	</g>
	<path fill="#636F80" d="M15.386,2510.626l-0.482,0.278c-0.157,0.091-0.329,0.134-0.499,0.134c-0.346,0-0.682-0.179-0.867-0.5
		l-0.038-0.066l-0.039,0.066c-0.185,0.321-0.521,0.5-0.867,0.5c-0.046,0-0.092-0.012-0.138-0.018
		c0.336,0.586,0.543,1.255,0.543,1.979c0,2.208-1.792,4-4,4s-4-1.792-4-4c0-2.214,1.792-4,4-4c0.32,0,0.627,0.048,0.925,0.118
		c-0.011-0.193,0.015-0.386,0.113-0.556l0.039-0.066H10c-0.36,0-0.661-0.2-0.837-0.485c-3.131-0.057-6.284,1.5-8.163,4.686V2513
		v0.304c3.692,6.262,12.308,6.262,16,0V2513v-0.304C16.534,2511.906,15.989,2511.218,15.386,2510.626z"/>
	<g>
		<path fill="#636F80" d="M16.256,2505.543c-0.059-0.166-0.128-0.33-0.22-0.487c-0.091-0.158-0.198-0.301-0.313-0.435l0.372-0.645
			L14.404,2503l-0.376,0.652c-0.348-0.064-0.703-0.067-1.058-0.002l-0.375-0.65l-1.691,0.977l0.375,0.65
			c-0.233,0.274-0.409,0.583-0.527,0.916H10v1.953h0.744c0.059,0.165,0.128,0.329,0.22,0.487c0.091,0.158,0.198,0.301,0.313,0.435
			l-0.372,0.645l1.691,0.976l0.376-0.651c0.348,0.064,0.703,0.067,1.058,0.002l0.375,0.649l1.691-0.976l-0.375-0.65
			c0.233-0.274,0.409-0.584,0.527-0.916H17v-1.953H16.256z M14.25,2507.818c-0.717,0.414-1.635,0.168-2.049-0.549
			c-0.414-0.718-0.168-1.635,0.549-2.049s1.635-0.169,2.049,0.549S14.967,2507.404,14.25,2507.818z"/>
	</g>
</g>
</svg>
