<?xml version="1.0" encoding="UTF-8" standalone="no"?>
<!-- Generator: Adobe Illustrator 16.2.0, SVG Export Plug-In . SVG Version: 6.00 Build 0)  -->
<svg xmlns:dc="http://purl.org/dc/elements/1.1/" xmlns:cc="http://creativecommons.org/ns#" xmlns:rdf="http://www.w3.org/1999/02/22-rdf-syntax-ns#" xmlns:svg="http://www.w3.org/2000/svg" xmlns="http://www.w3.org/2000/svg" xmlns:sodipodi="http://sodipodi.sourceforge.net/DTD/sodipodi-0.dtd" xmlns:inkscape="http://www.inkscape.org/namespaces/inkscape" version="1.1" id="Слой_1" x="0px" y="0px" width="18px" height="18px" viewBox="-0.084 3059.959 18 18" enable-background="new -0.084 3059.959 18 18" xml:space="preserve" sodipodi:docname="toolbar_18_vv0.svg" inkscape:version="0.92.2 (5c3e80d, 2017-08-06)"><metadata id="metadata68"><rdf:RDF><cc:Work rdf:about=""><dc:format>image/svg+xml</dc:format><dc:type rdf:resource="http://purl.org/dc/dcmitype/StillImage"/><dc:title/></cc:Work></rdf:RDF></metadata><defs id="defs66"/><sodipodi:namedview pagecolor="#ffffff" bordercolor="#666666" borderopacity="1" objecttolerance="10" gridtolerance="10" guidetolerance="10" inkscape:pageopacity="0" inkscape:pageshadow="2" inkscape:window-width="1920" inkscape:window-height="1017" id="namedview64" showgrid="false" inkscape:zoom="47.111111" inkscape:cx="5.1792453" inkscape:cy="9" inkscape:window-x="-8" inkscape:window-y="-8" inkscape:window-maximized="1" inkscape:current-layer="Слой_1"/><path style="fill:#636f80;stroke-width:1.73834753" inkscape:connector-curvature="0" id="path40" d="m 9,3061.9094 c 3.760606,0 6.818868,3.1802 6.818868,7.0906 0,3.9104 -3.058262,7.0906 -6.818868,7.0906 -3.7606057,0 -6.8188679,-3.1802 -6.8188679,-7.0906 0,-3.9104 3.0582622,-7.0906 6.8188679,-7.0906 m 0,-1.7726 c -4.7067236,0 -8.52358491,3.9672 -8.52358491,8.8632 0,4.896 3.81686131,8.8632 8.52358491,8.8632 4.706724,0 8.523585,-3.9672 8.523585,-8.8632 0,-4.896 -3.816861,-8.8632 -8.523585,-8.8632 z"/><polygon style="fill:#636f80" transform="matrix(1.704717,0,0,1.7726415,-6.3424528,-2371.2368)" id="polygon42" points="7.586,3066.879 6.879,3067.586 8.293,3069 6.879,3070.414 7.586,3071.121 9,3069.707 10.414,3071.121 11.121,3070.414 9.707,3069 11.121,3067.586 10.414,3066.879 9,3068.293 "/><path inkscape:connector-curvature="0" id="path70" d="m 7.8990924,3077.771 c -1.5631806,-0.2212 -3.056039,-0.891 -4.2710255,-1.9164 -0.3729379,-0.3147 -0.9933988,-0.967 -1.2919254,-1.3581 -0.9050467,-1.1859 -1.52253101,-2.6637 -1.75443747,-4.1987 -0.0907329,-0.6006 -0.0910965,-1.9865 -6.795e-4,-2.5896 0.28667476,-1.9122 1.11250937,-3.6099 2.41471367,-4.964 1.3028569,-1.3548 2.9709774,-2.2189 4.8478848,-2.5114 0.5704469,-0.089 1.7453951,-0.089 2.315842,0 1.885395,0.2938 3.553916,1.1616 4.861561,2.5285 1.287479,1.3459 2.113558,3.0495 2.399432,4.9483 0.09149,0.6076 0.09154,1.9953 1.07e-4,2.5761 -0.151293,0.9608 -0.393982,1.763 -0.785468,2.5962 -1.257998,2.6775 -3.703849,4.5005 -6.560321,4.8899 -0.5241108,0.072 -1.6682129,0.071 -2.1756735,-8e-4 z m 1.9862198,-1.7289 c 1.6681668,-0.2273 3.2523958,-1.1222 4.3123458,-2.4357 2.274751,-2.819 2.158801,-6.8722 -0.27248,-9.5251 -0.970833,-1.0593 -2.311796,-1.809 -3.697812,-2.0673 -0.5073755,-0.095 -0.6173444,-0.1037 -1.2310913,-0.1035 -0.9400427,5e-4 -1.689321,0.1473 -2.5276829,0.4953 -2.3295497,0.967 -3.9599001,3.187 -4.2530938,5.7913 -0.3959654,3.5172 1.8183796,6.8393 5.1281756,7.6937 0.7965841,0.2056 1.7339381,0.2614 2.5416386,0.1513 z" style="fill:#ff0000;stroke-width:0.03689889"/><path inkscape:connector-curvature="0" id="path72" d="m 10.195682,3071.4897 -1.2118286,-1.2605 -1.2033849,1.2509 -1.203385,1.2509 -0.5878043,-0.6112 -0.5878041,-0.6112 1.2029156,-1.2513 1.2029157,-1.2512 -1.2028468,-1.2508 -1.2028466,-1.2508 0.5965076,-0.6211 0.5965077,-0.6212 1.2034578,1.251 1.2034579,1.251 1.203321,-1.2508 1.203322,-1.2509 0.587807,0.6113 0.587807,0.6112 -1.20292,1.2513 -1.202919,1.2512 1.211828,1.2606 1.211827,1.2605 -0.597053,0.6208 -0.597054,0.6209 z" style="fill:#d40000;stroke-width:0.03689889"/><path inkscape:connector-curvature="0" id="path74" d="m 7.7531603,3077.7326 c -1.3266694,-0.2131 -2.6061095,-0.7611 -3.763243,-1.612 -0.7050739,-0.5185 -1.7000986,-1.6296 -2.1757656,-2.4297 -0.6750872,-1.1355 -1.12737556,-2.4821 -1.24870641,-3.7176 -0.0536628,-0.5465 -0.0188552,-1.9936 0.0585543,-2.4344 0.52702161,-3.0011 2.39011021,-5.4647 5.02011941,-6.6381 1.1059793,-0.4935 2.1514741,-0.7166 3.357425,-0.7166 0.6657071,0 1.088079,0.042 1.679776,0.167 2.568014,0.5426 4.76833,2.3055 5.918366,4.7419 0.389857,0.826 0.619963,1.5489 0.779078,2.4478 0.08048,0.4547 0.113619,1.8617 0.05721,2.4292 -0.149998,1.5087 -0.794205,3.1664 -1.711421,4.4037 -0.327509,0.4419 -0.889499,1.0486 -1.313345,1.418 -1.149518,1.0017 -2.717423,1.725 -4.208126,1.9412 -0.5223974,0.076 -1.9771144,0.075 -2.44992,-4e-4 z m 2.6078367,-1.7605 c 1.920517,-0.4252 3.54726,-1.6322 4.522615,-3.3555 0.771155,-1.3625 1.095912,-2.9817 0.902919,-4.502 -0.388397,-3.0594 -2.538526,-5.4647 -5.446141,-6.0923 -0.3754472,-0.081 -0.5063328,-0.09 -1.338846,-0.09 -0.8204522,1e-4 -0.9685413,0.01 -1.3361656,0.087 -0.5959755,0.1253 -1.1029227,0.3105 -1.7214695,0.6289 -1.3407047,0.6902 -2.3560222,1.7416 -3.0327388,3.1406 -0.3046189,0.6298 -0.4866208,1.1708 -0.62658,1.8626 -0.089879,0.4442 -0.099193,0.5651 -0.1014449,1.3169 -0.00261,0.8684 0.019275,1.078 0.1845635,1.7685 0.6538667,2.7315 2.9218558,4.8912 5.5482843,5.2834 0.1492633,0.022 0.3120958,0.048 0.3618504,0.057 0.049754,0.01 0.4405527,0.01 0.8684406,0 0.6690815,-0.01 0.8391096,-0.026 1.214713,-0.1088 z" style="fill:#d40000;stroke-width:0.03689889;image-rendering:optimizeSpeed"/></svg>