<?xml version="1.0" encoding="UTF-8"?>
<!-- Generator: Adobe Illustrator 16.2.0, SVG Export Plug-In . SVG Version: 6.00 Build 0)  -->
<!DOCTYPE svg PUBLIC "-//W3C//DTD SVG 1.1//EN" "http://www.w3.org/Graphics/SVG/1.1/DTD/svg11.dtd">
<svg version="1.1" id="Слой_1" xmlns="http://www.w3.org/2000/svg" xmlns:xlink="http://www.w3.org/1999/xlink" x="0px" y="0px" width="18px" height="18px" viewBox="-0.084 1691.834 18 18" enable-background="new -0.084 1691.834 18 18" xml:space="preserve">
<g id="Layer_5">
	<g>
		<g>
			<g>
				<g>
					<path fill="#636F80" d="M8.021,1701.103c-0.012-0.057-0.012-0.148,0-0.205c0.011-0.056,0.264-0.336,0.462-0.527l5.098-4.906       c0.198-0.19,0.456-0.382,0.573-0.425s0.455,0.154,0.552,0.249c0.098,0.094,0.213,0.264,0.256,0.379       c0.043,0.113-0.24,0.514-0.438,0.704l-4.449,4.282c-0.198,0.19-0.198,0.503,0,0.693l4.449,4.283       c0.198,0.19,0.396,0.439,0.438,0.554s-0.158,0.435-0.256,0.528c-0.097,0.095-0.272,0.206-0.39,0.249       c-0.116,0.043-0.537-0.234-0.735-0.425l-5.098-4.906C8.284,1701.438,8.031,1701.158,8.021,1701.103z"/>
				</g>
			</g>
		</g>
	</g>
	<g>
		<g>
			<g>
				<g>
					<path fill="#636F80" d="M3.021,1701.103c-0.012-0.057-0.012-0.148,0-0.205c0.011-0.056,0.264-0.336,0.462-0.527l5.098-4.906       c0.198-0.19,0.456-0.382,0.573-0.425s0.455,0.154,0.552,0.249c0.098,0.094,0.213,0.264,0.256,0.379       c0.043,0.113-0.24,0.514-0.438,0.704l-4.449,4.282c-0.198,0.19-0.198,0.503,0,0.693l4.449,4.283       c0.198,0.19,0.396,0.439,0.438,0.554s-0.158,0.435-0.256,0.528c-0.097,0.095-0.272,0.206-0.39,0.249       c-0.116,0.043-0.537-0.234-0.735-0.425l-5.098-4.906C3.284,1701.438,3.031,1701.158,3.021,1701.103z"/>
				</g>
			</g>
		</g>
	</g>
</g>
</svg>