<?xml version="1.0" encoding="utf-8"?>
<!-- Generator: Adobe Illustrator 16.2.0, SVG Export Plug-In . SVG Version: 6.00 Build 0)  -->
<!DOCTYPE svg PUBLIC "-//W3C//DTD SVG 1.1//EN" "http://www.w3.org/Graphics/SVG/1.1/DTD/svg11.dtd">
<svg version="1.1" id="Слой_1" xmlns="http://www.w3.org/2000/svg" xmlns:xlink="http://www.w3.org/1999/xlink" x="0px" y="0px"
	 width="18px" height="18px" viewBox="-0.084 1043.833 18 18" enable-background="new -0.084 1043.833 18 18" xml:space="preserve">
<g id="Layer_5">
	<g>
		<path fill="#636F80" d="M3.016,1054.787H3l-0.864,0.586L2,1054.729L3.096,1054H4v6H3.016V1054.787z"/>
	</g>
	<g>
		<path fill="#636F80" d="M6,1056v-0.489l0.665-0.608c1.6-1.434,2.323-2.197,2.333-3.087c0-0.6-0.309-1.152-1.243-1.152
			c-0.568,0-1.042,0.272-1.33,0.499l-0.271-0.563c0.435-0.344,1.051-0.599,1.773-0.599c1.35,0,1.918,0.871,1.918,1.716
			c0,1.089-0.838,1.97-2.159,3.168l-0.5,0.436v0.019H10V1056H6z"/>
	</g>
	<g>
		<path fill="#636F80" d="M12.236,1051c0.246,0.144,0.818,0.366,1.418,0.366c1.115,0,1.459-0.643,1.449-1.125
			c-0.01-0.813-0.818-1.16-1.656-1.16h-0.482v-0.59h0.482c0.631,0,1.43-0.295,1.43-0.982c0-0.464-0.326-0.875-1.124-0.875
			c-0.511,0-1.005,0.205-1.28,0.384l-0.226-0.571c0.334-0.223,0.984-0.446,1.674-0.446c1.261,0,1.832,0.679,1.832,1.384
			c0,0.599-0.394,1.107-1.182,1.366v0.018c0.788,0.144,1.429,0.679,1.429,1.491c0,0.929-0.798,1.741-2.334,1.741
			c-0.721,0-1.351-0.205-1.666-0.393L12.236,1051z"/>
	</g>
	<rect x="5" y="1058" fill="#636F80" width="5" height="1"/>
	<rect x="8" y="1057" fill="#636F80" width="1" height="3"/>
	<rect x="11" y="1054" fill="#636F80" width="5" height="1"/>
	<rect x="14" y="1053" fill="#636F80" width="1" height="3"/>
</g>
</svg>
