<?xml version="1.0" encoding="UTF-8" standalone="no"?>
<!-- Created with Inkscape (http://www.inkscape.org/) -->
<svg xmlns:dc="http://purl.org/dc/elements/1.1/" xmlns:cc="http://creativecommons.org/ns#" xmlns:rdf="http://www.w3.org/1999/02/22-rdf-syntax-ns#" xmlns:svg="http://www.w3.org/2000/svg" xmlns="http://www.w3.org/2000/svg" xmlns:sodipodi="http://sodipodi.sourceforge.net/DTD/sodipodi-0.dtd" xmlns:inkscape="http://www.inkscape.org/namespaces/inkscape" width="18" height="18" viewBox="0 0 4.7624999 4.7625001" version="1.1" id="svg6139" inkscape:version="0.92.2 (5c3e80d, 2017-08-06)" sodipodi:docname="top.svg">
  <defs id="defs6133"/>
  <sodipodi:namedview id="base" pagecolor="#ffffff" bordercolor="#666666" borderopacity="1.0" inkscape:pageopacity="0.0" inkscape:pageshadow="2" inkscape:zoom="31.678384" inkscape:cx="16.867379" inkscape:cy="8.3446567" inkscape:document-units="mm" inkscape:current-layer="layer1" showgrid="false" units="px" inkscape:window-width="1920" inkscape:window-height="1017" inkscape:window-x="1276" inkscape:window-y="-4" inkscape:window-maximized="1"/>
  <metadata id="metadata6136">
    <rdf:RDF>
      <cc:Work rdf:about="">
        <dc:format>image/svg+xml</dc:format>
        <dc:type rdf:resource="http://purl.org/dc/dcmitype/StillImage"/>
        <dc:title/>
      </cc:Work>
    </rdf:RDF>
  </metadata>
  <g inkscape:label="Layer 1" inkscape:groupmode="layer" id="layer1" transform="translate(0,-292.23748)">
    <g transform="matrix(0.26458333,0,0,0.26458333,-0.02593725,-412.59493)" id="g4328">
      <path inkscape:connector-curvature="0" style="fill:#636f80" d="m 9,2665 0.055,0.5 L 9,2666 c -0.292,0 -0.579,0.018 -0.862,0.052 L 8.017,2665.06 C 8.339,2665.021 8.667,2665 9,2665 Z m 1.101,0.075 c 0.344,0.047 0.688,0.118 1.023,0.209 l -0.264,0.964 c -0.292,-0.08 -0.591,-0.142 -0.897,-0.184 z m -3.112,0.18 0.25,0.968 c -0.298,0.077 -0.587,0.173 -0.867,0.286 l -0.377,-0.926 c 0.323,-0.131 0.657,-0.241 0.994,-0.328 z m 5.122,0.373 c 0.319,0.134 0.634,0.292 0.934,0.469 l -0.506,0.863 c -0.262,-0.154 -0.534,-0.291 -0.816,-0.411 z m -7.057,0.41 0.494,0.87 c -0.267,0.151 -0.522,0.319 -0.764,0.502 l -0.604,-0.797 c 0.277,-0.209 0.571,-0.403 0.874,-0.575 z m 8.858,0.646 c 0.273,0.214 0.534,0.445 0.778,0.693 l -0.711,0.703 c -0.215,-0.218 -0.444,-0.42 -0.685,-0.608 z m -10.521,0.612 0.701,0.712 c -0.217,0.214 -0.42,0.441 -0.607,0.682 l -0.789,-0.615 c 0.213,-0.273 0.447,-0.535 0.695,-0.779 z m 11.984,0.87 c 0.211,0.278 0.404,0.572 0.576,0.873 l -0.869,0.495 c -0.151,-0.266 -0.319,-0.521 -0.504,-0.763 z m -13.269,0.772 0.861,0.508 c -0.154,0.262 -0.292,0.534 -0.412,0.816 l -0.92,-0.393 c 0.138,-0.32 0.296,-0.632 0.471,-0.931 z m 14.304,1.039 c 0.131,0.321 0.242,0.655 0.33,0.994 l -0.967,0.252 c -0.078,-0.297 -0.174,-0.587 -0.289,-0.866 z m -15.119,0.879 0.963,0.269 c -0.081,0.292 -0.143,0.59 -0.187,0.896 l -0.99,-0.143 c 0.051,-0.349 0.122,-0.693 0.214,-1.022 z m 15.647,1.14 C 16.979,2672.325 17,2672.66 17,2673 l -1,0.036 V 2673 c 0,-0.298 -0.019,-0.591 -0.055,-0.879 z M 2.001,2672.927 2,2673.021 c 0,0.289 0.02,0.593 0.06,0.892 l -0.992,0.13 C 1.023,2673.7 1,2673.35 1,2673 Z m 13.937,1.018 0.99,0.136 c -0.047,0.345 -0.117,0.69 -0.208,1.023 l -0.965,-0.262 c 0.079,-0.292 0.141,-0.591 0.183,-0.897 z m -13.702,0.865 c 0.079,0.297 0.178,0.587 0.293,0.867 l -0.924,0.382 c -0.134,-0.323 -0.246,-0.656 -0.336,-0.991 z m 13.222,0.896 0.922,0.387 c -0.134,0.319 -0.291,0.634 -0.467,0.935 l -0.863,-0.504 c 0.153,-0.262 0.29,-0.535 0.408,-0.818 z m -12.524,0.79 c 0.153,0.265 0.323,0.52 0.508,0.761 l -0.793,0.608 c -0.211,-0.275 -0.406,-0.567 -0.58,-0.869 z m 11.603,0.785 0.791,0.612 c -0.212,0.274 -0.444,0.537 -0.691,0.783 l -0.705,-0.709 c 0.216,-0.215 0.419,-0.445 0.605,-0.686 z m -10.491,0.664 c 0.215,0.216 0.444,0.418 0.687,0.604 l -0.611,0.792 c -0.276,-0.214 -0.54,-0.445 -0.784,-0.69 z m 9.196,0.623 0.607,0.794 c -0.276,0.21 -0.568,0.405 -0.87,0.579 l -0.498,-0.867 c 0.265,-0.152 0.52,-0.322 0.761,-0.506 z m -7.751,0.49 c 0.263,0.152 0.536,0.288 0.818,0.406 l -0.385,0.923 c -0.32,-0.134 -0.636,-0.29 -0.936,-0.464 z m 6.168,0.419 0.381,0.925 c -0.319,0.132 -0.653,0.244 -0.991,0.333 l -0.256,-0.967 c 0.297,-0.079 0.587,-0.176 0.866,-0.291 z m -4.485,0.283 c 0.292,0.078 0.591,0.139 0.897,0.18 l -0.131,0.991 c -0.346,-0.046 -0.69,-0.116 -1.025,-0.205 z m 2.722,0.183 0.127,0.992 C 9.688,2680.978 9.347,2681 9,2681 l -0.018,-1 H 9.02 c 0.284,0 0.584,-0.02 0.876,-0.057 z" id="path4326"/>
    </g>
    <polygon transform="matrix(0.26458333,0,0,0.26458333,-0.02593725,-412.59493)" style="fill:#636f80" points="13,2673 5,2673 9,2669 " id="polygon4330"/>
    <rect x="-2.6198959" y="-295.69467" transform="scale(-1)" style="fill:#636f80;stroke-width:0.26458332" width="0.52916664" height="1.0583333" id="rect4332"/>
  </g>
</svg>