<?xml version="1.0" encoding="utf-8"?>
<!-- Generator: Adobe Illustrator 21.1.0, SVG Export Plug-In . SVG Version: 6.00 Build 0)  -->
<!DOCTYPE svg PUBLIC "-//W3C//DTD SVG 1.1//EN" "http://www.w3.org/Graphics/SVG/1.1/DTD/svg11.dtd" [
	<!ENTITY st0 "fill:#71B1E4;">
	<!ENTITY st1 "fill:#F7931E;">
]>
<svg version="1.1" id="Слой_1" xmlns="http://www.w3.org/2000/svg" xmlns:xlink="http://www.w3.org/1999/xlink" x="0px" y="0px"
	 width="18px" height="18px" viewBox="0 0 18 18" style="enable-background:new 0 0 18 18;" xml:space="preserve">
<rect x="8" y="2" style="&st0;" width="7" height="1"/>
<rect x="8" y="4" style="&st0;" width="7" height="1"/>
<rect x="8" y="7" style="&st0;" width="7" height="1"/>
<rect x="8" y="9" style="&st0;" width="7" height="1"/>
<rect x="8" y="12" style="&st0;" width="7" height="1"/>
<rect x="8" y="14" style="&st0;" width="7" height="1"/>
<g>
	<path style="&st1;" d="M6,3v2H4V3H6 M7,2H3v4h4V2L7,2z"/>
</g>
<g>
	<path style="&st1;" d="M6,8v2H4V8H6 M7,7H3v4h4V7L7,7z"/>
</g>
<g>
	<path style="&st1;" d="M6,13v2H4v-2H6 M7,12H3v4h4V12L7,12z"/>
</g>
</svg>
