<?xml version="1.0" encoding="utf-8"?>
<!-- Generator: Adobe Illustrator 21.1.0, SVG Export Plug-In . SVG Version: 6.00 Build 0)  -->
<!DOCTYPE svg PUBLIC "-//W3C//DTD SVG 1.1//EN" "http://www.w3.org/Graphics/SVG/1.1/DTD/svg11.dtd" [
	<!ENTITY st0 "fill:#FFFFFF;">
]>
<svg version="1.1" id="Слой_1" xmlns="http://www.w3.org/2000/svg" xmlns:xlink="http://www.w3.org/1999/xlink" x="0px" y="0px"
	 width="18px" height="18px" viewBox="0 0 18 18" style="enable-background:new 0 0 18 18;" xml:space="preserve">
<path style="&st0;" d="M10.5,4C12.43,4,14,5.57,14,7.5c0,0.183-0.021,0.382-0.065,0.627L13.795,8.9l0.718,0.319
	C15.416,9.622,16,10.517,16,11.5c0,1.378-1.122,2.5-2.5,2.5H13H4c-1.103,0-2-0.897-2-2c0-0.867,0.563-1.628,1.4-1.893l0.914-0.29
	L4.062,8.891C4.02,8.735,4,8.611,4,8.5C4,7.673,4.673,7,5.5,7c0.129,0,0.269,0.025,0.441,0.078l0.944,0.293l0.304-0.941
	C7.659,4.977,8.99,4,10.5,4 M10.5,3C8.498,3,6.822,4.316,6.237,6.123C6.003,6.05,5.758,6,5.5,6C4.119,6,3,7.119,3,8.5
	c0,0.228,0.04,0.444,0.097,0.653C1.885,9.538,1,10.66,1,12c0,1.657,1.343,3,3,3h9c0.086,0,0.414,0,0.5,0c1.933,0,3.5-1.567,3.5-3.5
	c0-1.427-0.857-2.649-2.081-3.194C14.966,8.043,15,7.776,15,7.5C15,5.015,12.985,3,10.5,3L10.5,3z"/>
</svg>
