<?xml version="1.0" encoding="utf-8"?>
<!-- Generator: Adobe Illustrator 21.1.0, SVG Export Plug-In . SVG Version: 6.00 Build 0)  -->
<!DOCTYPE svg PUBLIC "-//W3C//DTD SVG 1.1//EN" "http://www.w3.org/Graphics/SVG/1.1/DTD/svg11.dtd" [
	<!ENTITY st0 "fill:#BFBFBF;">
	<!ENTITY st1 "fill:#8C8C8C;">
]>
<svg version="1.1" id="Слой_1" xmlns="http://www.w3.org/2000/svg" xmlns:xlink="http://www.w3.org/1999/xlink" x="0px" y="0px"
	 width="18px" height="18px" viewBox="0 0 18 18" style="enable-background:new 0 0 18 18;" xml:space="preserve">
<path style="&st0;" d="M11,4l2,2v8H5V4h5.699 M11.115,3H4v12h10V5.897L11.115,3L11.115,3z"/>
<polygon style="&st0;" points="11.012,6 14,6 11.012,3 "/>
<g>
	<path style="&st1;" d="M8.135,9.7c-0.03,0.093-0.079,0.176-0.144,0.246l0.488,0.681c0.246-0.212,0.423-0.503,0.49-0.834L8.135,9.7z
		"/>
	<path style="&st1;" d="M7.637,8.837C7.92,8.896,8.136,9.135,8.164,9.43l0.835,0.092C8.999,9.512,9,9.503,9,9.493
		C9,8.711,8.4,8.069,7.637,8V8.837z"/>
	<path style="&st1;" d="M7.006,9.043C7.099,8.94,7.223,8.865,7.363,8.837V8c-0.444,0.04-0.832,0.274-1.08,0.618L7.006,9.043z"/>
	<path style="&st1;" d="M7.771,10.106c-0.083,0.037-0.174,0.058-0.271,0.058c-0.37,0-0.671-0.3-0.671-0.67
		c0-0.076,0.016-0.147,0.039-0.215L6.146,8.852C6.053,9.047,6,9.264,6,9.493c0,0.828,0.672,1.5,1.5,1.5
		c0.276,0,0.535-0.076,0.758-0.207L7.771,10.106z"/>
</g>
<rect x="10" y="8" style="&st1;" width="2" height="1"/>
<rect x="10" y="10" style="&st1;" width="2" height="1"/>
</svg>
