<?xml version="1.0" encoding="utf-8"?>
<!-- Generator: Adobe Illustrator 21.1.0, SVG Export Plug-In . SVG Version: 6.00 Build 0)  -->
<!DOCTYPE svg PUBLIC "-//W3C//DTD SVG 1.1//EN" "http://www.w3.org/Graphics/SVG/1.1/DTD/svg11.dtd" [
	<!ENTITY st0 "fill:#71B1E4;">
	<!ENTITY st1 "fill:#F7931E;">
]>
<svg version="1.1" id="Слой_1" xmlns="http://www.w3.org/2000/svg" xmlns:xlink="http://www.w3.org/1999/xlink" x="0px" y="0px"
	 width="18px" height="18px" viewBox="0 0 18 18" style="enable-background:new 0 0 18 18;" xml:space="preserve">
<g>
	<path style="&st0;" d="M8.557,9.501c0,2.283,0,4.516,0,6.794c-0.275-0.129-5.229-2.95-5.364-3.008c0-0.794,0-1.599,0-2.457
		c0.929,0.448,1.765,0.984,2.663,1.491C5.888,12.339,8.477,9.549,8.557,9.501z"/>
	<path style="&st0;" d="M14.88,13.205c-0.088,0.056-4.597,2.633-5.182,3.014c-0.039,0.025-0.084,0.042-0.117,0.059
		c-0.028-0.015-0.044-0.019-0.056-0.03c-0.012-0.01-0.028-0.025-0.028-0.038c-0.001-2.219-0.001-4.437-0.001-6.719
		c0.503,0.503,2.277,2.333,2.718,2.83c0.556-0.361,2.526-1.515,2.667-1.579C14.88,11.516,14.88,12.4,14.88,13.205z"/>
	<polygon style="&st0;" points="12.403,11.348 10.079,9.063 14.271,7.019 16.667,8.954 	"/>
	<polygon style="&st0;" points="1.414,8.881 3.801,6.854 7.985,9.064 5.723,11.262 	"/>
	<path style="&st0;" d="M5.781,3.263c0.472-0.14,2.255,0.393,2.745,0.529C8.083,4.023,5.14,5.512,4.072,6.044
		C3.79,6.185,3.529,6.2,3.199,6.094C2.481,5.863,1.755,5.651,1,5.41C1.667,5.105,5.521,3.372,5.781,3.263z"/>
	<path style="&st0;" d="M9.577,3.771c0.472-0.129,1.925-0.466,2.244-0.535c0.208-0.045,0.446-0.029,0.666,0.083
		c0.53,0.271,4.159,1.905,4.513,2.07c-0.261,0.114-2.226,0.75-2.41,0.783c-0.175,0.032-0.347-0.006-0.517-0.092
		C12.674,5.375,9.913,3.954,9.577,3.771z"/>
	<polygon style="&st1;" points="5.26,6.674 8.9,4.821 12.6,6.633 8.8,8.446 	"/>
</g>
</svg>
