<?xml version="1.0" encoding="utf-8"?>
<!-- Generator: Adobe Illustrator 21.1.0, SVG Export Plug-In . SVG Version: 6.00 Build 0)  -->
<!DOCTYPE svg PUBLIC "-//W3C//DTD SVG 1.1//EN" "http://www.w3.org/Graphics/SVG/1.1/DTD/svg11.dtd" [
	<!ENTITY st0 "fill:#BFBFBF;">
	<!ENTITY st1 "fill:#8C8C8C;">
]>
<svg version="1.1" id="Слой_1" xmlns="http://www.w3.org/2000/svg" xmlns:xlink="http://www.w3.org/1999/xlink" x="0px" y="0px"
	 width="18px" height="18px" viewBox="0 0 18 18" style="enable-background:new 0 0 18 18;" xml:space="preserve">
<g>
	<path style="&st0;" d="M1.368,6c0,0,0.607,0.003,0.632,0.008v1.984C1.976,7.997,1.369,8,1.369,8C1.166,8,1.001,7.835,1.001,7.632
		L1,6.368C1,6.165,1.165,6,1.368,6z"/>
</g>
<g>
	<path style="&st0;" d="M16.632,10c0,0-0.606-0.003-0.632-0.008V8.008C16.025,8.003,16.631,8,16.631,8
		c0.203,0,0.368,0.165,0.368,0.368L17,9.632C17,9.835,16.836,10,16.632,10z"/>
</g>
<g>
	<path style="&st0;" d="M1.368,10c0,0,0.607,0.003,0.632,0.008v1.984C1.976,11.997,1.369,12,1.369,12
		c-0.203,0-0.368-0.165-0.368-0.368L1,10.368C1,10.165,1.165,10,1.368,10z"/>
</g>
<g>
	<path style="&st1;" d="M8.599,8.039h0.606c0.197-0.722,0.477-1.261,0.841-1.617c0.363-0.357,0.759-0.535,1.188-0.535
		c0.212,0,0.401,0.059,0.569,0.176c0.167,0.117,0.251,0.271,0.251,0.46c0,0.135-0.045,0.248-0.135,0.339
		c-0.09,0.092-0.204,0.137-0.341,0.137c-0.135,0-0.249-0.044-0.343-0.131c-0.094-0.087-0.141-0.192-0.141-0.314
		c0-0.077,0.015-0.149,0.043-0.215c0.029-0.066,0.043-0.112,0.043-0.137c0-0.063-0.043-0.094-0.131-0.094
		c-0.185,0-0.337,0.122-0.456,0.366c-0.12,0.245-0.254,0.767-0.401,1.565h0.712l-0.053,0.231h-0.707
		c-0.35,1.902-0.722,3.159-1.116,3.773c-0.394,0.612-0.837,0.919-1.329,0.919c-0.214,0-0.403-0.063-0.566-0.186
		c-0.164-0.124-0.246-0.274-0.246-0.451c0-0.132,0.054-0.237,0.159-0.316c0.106-0.078,0.227-0.118,0.361-0.118
		c0.14,0,0.244,0.042,0.313,0.124c0.069,0.082,0.104,0.181,0.104,0.296c0,0.124,0.002,0.218,0.006,0.278
		c0.003,0.062,0.058,0.092,0.162,0.092c0.155,0,0.28-0.104,0.377-0.311c0.096-0.207,0.211-0.758,0.346-1.651
		C8.85,9.826,8.997,9.01,9.157,8.271H8.561L8.599,8.039z"/>
</g>
<path style="&st0;" d="M13,4c0.552,0,1,0.448,1,1v8c0,0.552-0.448,1-1,1H5c-0.552,0-1-0.448-1-1V5c0-0.552,0.448-1,1-1H13 M13,3H5
	C3.895,3,3,3.895,3,5v8c0,1.104,0.895,2,2,2h8c1.104,0,2-0.896,2-2V5C15,3.895,14.104,3,13,3L13,3z"/>
</svg>
