<?xml version="1.0" encoding="utf-8"?>
<!-- Generator: Adobe Illustrator 21.1.0, SVG Export Plug-In . SVG Version: 6.00 Build 0)  -->
<!DOCTYPE svg PUBLIC "-//W3C//DTD SVG 1.1//EN" "http://www.w3.org/Graphics/SVG/1.1/DTD/svg11.dtd" [
	<!ENTITY st0 "fill:#71B1E4;">
	<!ENTITY st1 "fill:#F7931E;">
]>
<svg version="1.1" id="Слой_1" xmlns="http://www.w3.org/2000/svg" xmlns:xlink="http://www.w3.org/1999/xlink" x="0px" y="0px"
	 width="18px" height="18px" viewBox="0 0 18 18" style="enable-background:new 0 0 18 18;" xml:space="preserve">
<path style="&st0;" d="M5.628,14.384l-2.012-2.012c-1.171-1.172-1.171-3.071,0-4.242l1.631-1.632l6.254,6.255l-1.631,1.631
	C8.699,15.556,6.799,15.556,5.628,14.384z"/>
<path style="&st1;" d="M14.384,5.628l-2.012-2.012c-1.171-1.172-3.071-1.172-4.243,0L5.873,5.873l1.25,1.251l1.365-1.365l3.639,3.64
	l-1.364,1.364l1.364,1.364l2.257-2.257C15.555,8.699,15.555,6.8,14.384,5.628z"/>
<rect x="2.417" y="12.491" transform="matrix(0.707 0.7072 -0.7072 0.707 10.9952 1.0866)" style="&st0;" width="3.538" height="2.646"/>
<rect x="12.045" y="2.863" transform="matrix(0.7072 0.707 -0.707 0.7072 7.0036 -8.5403)" style="&st1;" width="3.538" height="2.646"/>
<rect x="7.231" y="8.115" transform="matrix(0.7072 0.707 -0.707 0.7072 8.9976 -3.7279)" style="&st0;" width="3.538" height="1.769"/>
</svg>
