<?xml version="1.0" encoding="utf-8"?>
<!-- Generator: Adobe Illustrator 21.1.0, SVG Export Plug-In . SVG Version: 6.00 Build 0)  -->
<!DOCTYPE svg PUBLIC "-//W3C//DTD SVG 1.1//EN" "http://www.w3.org/Graphics/SVG/1.1/DTD/svg11.dtd" [
	<!ENTITY st0 "fill:#FFFFFF;">
]>
<svg version="1.1" id="Слой_1" xmlns="http://www.w3.org/2000/svg" xmlns:xlink="http://www.w3.org/1999/xlink" x="0px" y="0px"
	 width="18px" height="18px" viewBox="0 0 18 18" style="enable-background:new 0 0 18 18;" xml:space="preserve">
<path style="&st0;" d="M5.628,14.384l-2.012-2.012c-1.172-1.172-1.172-3.071,0-4.242l1.631-1.632l6.255,6.255L9.87,14.384
	C8.699,15.556,6.8,15.556,5.628,14.384z"/>
<path style="&st0;" d="M14.384,5.628l-2.012-2.012c-1.172-1.172-3.071-1.172-4.242,0L5.873,5.873l1.251,1.251l1.364-1.365
	l3.639,3.64l-1.364,1.364l1.364,1.364l2.257-2.257C15.556,8.699,15.556,6.8,14.384,5.628z"/>
<rect x="2.417" y="12.491" transform="matrix(0.7071 0.7071 -0.7071 0.7071 10.9939 1.0858)" style="&st0;" width="3.538" height="2.645"/>
<rect x="12.045" y="2.864" transform="matrix(0.7071 0.7071 -0.7071 0.7071 7.0061 -8.5416)" style="&st0;" width="3.538" height="2.645"/>
<rect x="7.232" y="8.115" transform="matrix(0.7071 0.7071 -0.7071 0.7071 9 -3.7279)" style="&st0;" width="3.537" height="1.769"/>
</svg>
