<?xml version="1.0" encoding="utf-8"?>
<!-- Generator: Adobe Illustrator 21.1.0, SVG Export Plug-In . SVG Version: 6.00 Build 0)  -->
<!DOCTYPE svg PUBLIC "-//W3C//DTD SVG 1.1//EN" "http://www.w3.org/Graphics/SVG/1.1/DTD/svg11.dtd" [
	<!ENTITY st0 "fill:#FFFFFF;">
]>
<svg version="1.1" id="Слой_1" xmlns="http://www.w3.org/2000/svg" xmlns:xlink="http://www.w3.org/1999/xlink" x="0px" y="0px"
	 width="18px" height="18px" viewBox="0 0 18 18" style="enable-background:new 0 0 18 18;" xml:space="preserve">
<path style="&st0;" d="M10,15H5.989C4.891,15,4,14.109,4,13.011V12h1v0.989C5,13.548,5.452,14,6.011,14H10V15z"/>
<path style="&st0;" d="M10,3H5.989C4.891,3,4,3.891,4,4.989V6h1V5.011C5,4.452,5.452,4,6.011,4H10V3z"/>
<rect x="13" y="7" style="&st0;" width="1" height="3"/>
<polygon style="&st0;" points="15,9 13.5,11 12,9 "/>
<polygon style="&st0;" points="9,2 11,3.5 9,5 "/>
<polygon style="&st0;" points="9,13 11,14.5 9,16 "/>
<path style="&st0;" d="M15,3v2h-2V3H15 M15,1h-2c-1.104,0-2,0.895-2,2v2c0,1.104,0.896,2,2,2h2c1.104,0,2-0.896,2-2V3
	C17,1.895,16.104,1,15,1L15,1z"/>
<path style="&st0;" d="M15,13v2h-2v-2H15 M15,11h-2c-1.104,0-2,0.896-2,2v2c0,1.104,0.896,2,2,2h2c1.104,0,2-0.896,2-2v-2
	C17,11.896,16.104,11,15,11L15,11z"/>
<path style="&st0;" d="M5,8v2H3V8H5 M5,6H3C1.895,6,1,6.896,1,8v2c0,1.104,0.895,2,2,2h2c1.104,0,2-0.896,2-2V8C7,6.896,6.104,6,5,6
	L5,6z"/>
</svg>
