<?xml version="1.0" encoding="utf-8"?>
<!-- Generator: Adobe Illustrator 21.1.0, SVG Export Plug-In . SVG Version: 6.00 Build 0)  -->
<!DOCTYPE svg PUBLIC "-//W3C//DTD SVG 1.1//EN" "http://www.w3.org/Graphics/SVG/1.1/DTD/svg11.dtd" [
	<!ENTITY st0 "fill:#BFBFBF;">
	<!ENTITY st1 "fill:#8C8C8C;">
]>
<svg version="1.1" id="Слой_1" xmlns="http://www.w3.org/2000/svg" xmlns:xlink="http://www.w3.org/1999/xlink" x="0px" y="0px"
	 width="18px" height="18px" viewBox="0 0 18 18" style="enable-background:new 0 0 18 18;" xml:space="preserve">
<path style="&st0;" d="M16.973,4c-0.135-1.125-1.082-2-2.243-2H3.271C2.109,2,1.162,2.875,1.027,4H1v0.271V5v9.313
	C1,15.244,1.756,16,2.688,16h12.625C16.244,16,17,15.244,17,14.313V5V4.271V4H16.973z M7.5,3C7.776,3,8,3.224,8,3.5
	C8,3.776,7.776,4,7.5,4S7,3.776,7,3.5C7,3.224,7.224,3,7.5,3z M5.5,3C5.776,3,6,3.224,6,3.5C6,3.776,5.776,4,5.5,4S5,3.776,5,3.5
	C5,3.224,5.224,3,5.5,3z M3.5,3C3.776,3,4,3.224,4,3.5C4,3.776,3.776,4,3.5,4S3,3.776,3,3.5C3,3.224,3.224,3,3.5,3z M16,14.313
	C16,14.691,15.691,15,15.313,15H2.688C2.309,15,2,14.691,2,14.313V5h14V14.313z"/>
<g>
	<path style="&st1;" d="M11.863,13H14c-0.129-1.53-0.939-2.861-2.13-3.691l-1.135,1.966C11.298,11.688,11.707,12.295,11.863,13z"/>
	<path style="&st1;" d="M7.265,11.274L6.13,9.309C4.939,10.139,4.128,11.47,4,13h2.137C6.293,12.295,6.702,11.688,7.265,11.274z"/>
	<path style="&st1;" d="M9,10.702c0.345,0,0.674,0.063,0.981,0.172l1.148-1.991C10.482,8.58,9.763,8.405,9,8.405
		S7.517,8.58,6.87,8.883l1.149,1.991C8.326,10.765,8.655,10.702,9,10.702z"/>
	<path style="&st0;" d="M9.638,12.227l1.094-3.212l-1.486,3.032c-0.035-0.005-0.069-0.015-0.104-0.015
		c-0.229,0-0.438,0.109-0.587,0.284C8.404,12.49,8.311,12.733,8.311,13h0.83H9.97c0-0.267-0.093-0.51-0.243-0.684
		C9.699,12.284,9.669,12.254,9.638,12.227z"/>
</g>
</svg>
