<?xml version="1.0" encoding="utf-8"?>
<!-- Generator: Adobe Illustrator 21.1.0, SVG Export Plug-In . SVG Version: 6.00 Build 0)  -->
<!DOCTYPE svg PUBLIC "-//W3C//DTD SVG 1.1//EN" "http://www.w3.org/Graphics/SVG/1.1/DTD/svg11.dtd" [
	<!ENTITY st0 "fill:#FFFFFF;">
]>
<svg version="1.1" id="Слой_1" xmlns="http://www.w3.org/2000/svg" xmlns:xlink="http://www.w3.org/1999/xlink" x="0px" y="0px"
	 width="18px" height="18px" viewBox="0 0 18 18" style="enable-background:new 0 0 18 18;" xml:space="preserve">
<path style="&st0;" d="M9,6C7.393,6,6.093,7.266,6.015,8.854C6.012,8.903,6,8.95,6,9c0,0.05,0.013,0.098,0.015,0.148
	C6.093,10.733,7.391,12,8.995,12C8.997,12,8.998,12,9,12l0,0h0c1.657,0,3-1.343,3-3S10.657,6,9,6z M9,11L9,11l0-2V7h0
	c1.103,0,2,0.897,2,2C11,10.103,10.103,11,9,11z"/>
</svg>
