<?xml version="1.0" encoding="utf-8"?>
<!-- Generator: Adobe Illustrator 21.1.0, SVG Export Plug-In . SVG Version: 6.00 Build 0)  -->
<!DOCTYPE svg PUBLIC "-//W3C//DTD SVG 1.1//EN" "http://www.w3.org/Graphics/SVG/1.1/DTD/svg11.dtd" [
	<!ENTITY st0 "fill:#71B1E4;">
	<!ENTITY st1 "fill:#F7931E;">
]>
<svg version="1.1" id="Слой_1" xmlns="http://www.w3.org/2000/svg" xmlns:xlink="http://www.w3.org/1999/xlink" x="0px" y="0px"
	 width="18px" height="18px" viewBox="0 0 18 18" style="enable-background:new 0 0 18 18;" xml:space="preserve">
<polygon style="&st1;" points="14,8 10,8 10,7 9,7 9,8 4,8 4,9 4,11 5,11 5,9 13,9 13,11 14,11 14,9 "/>
<path style="&st0;" d="M7,11H5H4H2H1v6h7v-1.002V11H7z M7,14H2v-2h5V14z"/>
<path style="&st0;" d="M7,1H6v6h3h1h3V6V1H7z M12,4H7V2h5V4z"/>
<path style="&st0;" d="M16,11h-2h-1h-2h-1v6h7v-1.002V11H16z M16,14h-5v-2h5V14z"/>
</svg>
