<?xml version="1.0" encoding="utf-8"?>
<!DOCTYPE svg PUBLIC "-//W3C//DTD SVG 1.1//EN" "http://www.w3.org/Graphics/SVG/1.1/DTD/svg11.dtd" [
	<!ENTITY st0 "fill:#FFFFFF;">
	<!ENTITY st1 "fill:#BFBFBF;">
	<!ENTITY st2 "fill:#8C8C8C;">
	<!ENTITY st3 "fill:#F7931E;">
	<!ENTITY st4 "fill:#71B1E4;">
]>
<svg version="1.1" id="img" xmlns="http://www.w3.org/2000/svg" xmlns:xlink="http://www.w3.org/1999/xlink" x="0px" y="0px"
	 width="18px" height="18px" viewBox="0 0 18 18" style="enable-background:new 0 0 18 18;" xml:space="preserve">
<g id="join-diff.default">
	
		<rect x="0.205" y="10.776" transform="matrix(-0.7071 -0.7071 0.7071 -0.7071 0.4118 22.722)" style="&st3;" width="9.413" height="1"/>
	
		<rect x="2.527" y="6.037" transform="matrix(-0.7071 -0.7071 0.7071 -0.7071 2.9159 14.2822)" style="&st3;" width="3.779" height="1"/>
	
		<rect x="5.35" y="3.831" transform="matrix(-0.7071 -0.7071 0.7071 -0.7071 7.9527 11.9568)" style="&st3;" width="2.206" height="1"/>
	<path style="&st4;" d="M11,3c-0.702,0-1.374,0.127-2,0.349C8.374,3.127,7.702,3,7,3C3.686,3,1,5.686,1,9s2.686,6,6,6
		c0.702,0,1.374-0.127,2-0.349C9.626,14.873,10.298,15,11,15c3.314,0,6-2.686,6-6S14.314,3,11,3z M7,14c-2.757,0-5-2.243-5-5
		s2.243-5,5-5c0.205,0,0.399,0.036,0.598,0.06C6.029,5.143,5,6.95,5,9s1.029,3.857,2.598,4.94C7.399,13.964,7.205,14,7,14z M9,4.424
		C10.763,5.197,12,6.955,12,9s-1.237,3.803-3,4.576C7.237,12.803,6,11.045,6,9S7.237,5.197,9,4.424z M11,14
		c-0.205,0-0.399-0.036-0.598-0.06C11.971,12.857,13,11.05,13,9s-1.029-3.857-2.598-4.94C10.601,4.036,10.795,4,11,4
		c2.757,0,5,2.243,5,5S13.757,14,11,14z"/>
</g>
</svg>
