<?xml version="1.0" encoding="utf-8"?>
<!-- Generator: Adobe Illustrator 16.2.0, SVG Export Plug-In . SVG Version: 6.00 Build 0)  -->
<!DOCTYPE svg PUBLIC "-//W3C//DTD SVG 1.1//EN" "http://www.w3.org/Graphics/SVG/1.1/DTD/svg11.dtd">
<svg version="1.1" id="Слой_1" xmlns="http://www.w3.org/2000/svg" xmlns:xlink="http://www.w3.org/1999/xlink" x="0px" y="0px"
	 width="18px" height="18px" viewBox="-0.084 449.917 18 18" enable-background="new -0.084 449.917 18 18" xml:space="preserve">
<g id="Layer_5">
	<path fill="#636F80" d="M14,453H9.723c-0.347-0.595-0.984-1-1.723-1s-1.376,0.405-1.723,1H4c-0.553,0-1,0.448-1,1s0.447,1,1,1
		h2.277c0.347,0.595,0.984,1,1.723,1s1.376-0.405,1.723-1H14c0.552,0,1-0.448,1-1S14.552,453,14,453z M8,455c-0.553,0-1-0.448-1-1
		s0.447-1,1-1c0.552,0,1,0.448,1,1S8.552,455,8,455z"/>
	<path fill="#636F80" d="M14,458h-0.277c-0.347-0.595-0.984-1-1.723-1s-1.376,0.405-1.723,1H4c-0.553,0-1,0.448-1,1s0.447,1,1,1
		h6.277c0.347,0.595,0.984,1,1.723,1s1.376-0.405,1.723-1H14c0.552,0,1-0.448,1-1S14.552,458,14,458z M12,460c-0.553,0-1-0.448-1-1
		s0.447-1,1-1c0.552,0,1,0.448,1,1S12.552,460,12,460z"/>
	<path fill="#636F80" d="M14,463H7.723c-0.347-0.595-0.984-1-1.723-1s-1.376,0.405-1.723,1H4c-0.553,0-1,0.448-1,1s0.447,1,1,1
		h0.277c0.347,0.595,0.984,1,1.723,1s1.376-0.405,1.723-1H14c0.552,0,1-0.448,1-1S14.552,463,14,463z M6,465c-0.553,0-1-0.448-1-1
		s0.447-1,1-1c0.552,0,1,0.448,1,1S6.552,465,6,465z"/>
</g>
</svg>
