<?xml version="1.0" encoding="utf-8"?>
<!-- Generator: Adobe Illustrator 16.2.0, SVG Export Plug-In . SVG Version: 6.00 Build 0)  -->
<!DOCTYPE svg PUBLIC "-//W3C//DTD SVG 1.1//EN" "http://www.w3.org/Graphics/SVG/1.1/DTD/svg11.dtd">
<svg version="1.1" id="Слой_1" xmlns="http://www.w3.org/2000/svg" xmlns:xlink="http://www.w3.org/1999/xlink" x="0px" y="0px"
	 width="18px" height="18px" viewBox="-0.084 2663.959 18 18" enable-background="new -0.084 2663.959 18 18" xml:space="preserve">
<g id="Layer_5">
	<g>
		<path fill="#636F80" d="M9,2665l0.055,0.5L9,2666c-0.292,0-0.579,0.018-0.862,0.052l-0.121-0.992
			C8.339,2665.021,8.667,2665,9,2665z M10.101,2665.075c0.344,0.047,0.688,0.117,1.023,0.209l-0.264,0.965
			c-0.292-0.08-0.591-0.143-0.896-0.184L10.101,2665.075z M6.989,2665.255l0.25,0.969c-0.298,0.076-0.587,0.173-0.867,0.285
			l-0.377-0.926C6.318,2665.452,6.652,2665.343,6.989,2665.255z M12.111,2665.628c0.319,0.135,0.634,0.292,0.934,0.469l-0.506,0.863
			c-0.262-0.154-0.534-0.291-0.816-0.411L12.111,2665.628z M5.054,2666.038l0.494,0.869c-0.267,0.152-0.521,0.32-0.764,0.503
			l-0.604-0.797C4.457,2666.404,4.751,2666.21,5.054,2666.038z M13.912,2666.684c0.273,0.214,0.534,0.445,0.778,0.692l-0.711,0.703
			c-0.215-0.218-0.444-0.42-0.685-0.608L13.912,2666.684z M3.391,2667.296l0.701,0.713c-0.217,0.214-0.42,0.441-0.607,0.682
			l-0.789-0.615C2.909,2667.802,3.143,2667.54,3.391,2667.296z M15.375,2668.165c0.211,0.279,0.404,0.572,0.576,0.873l-0.869,0.495
			c-0.151-0.266-0.319-0.521-0.504-0.763L15.375,2668.165z M2.106,2668.938l0.861,0.508c-0.154,0.262-0.292,0.533-0.412,0.816
			l-0.92-0.393C1.772,2669.55,1.931,2669.237,2.106,2668.938z M16.41,2669.978c0.131,0.32,0.242,0.654,0.33,0.993l-0.967,0.252
			c-0.078-0.298-0.174-0.587-0.289-0.866L16.41,2669.978z M1.291,2670.856l0.963,0.269c-0.081,0.292-0.143,0.59-0.187,0.896
			l-0.99-0.143C1.128,2671.529,1.199,2671.185,1.291,2670.856z M16.938,2671.996c0.042,0.329,0.063,0.663,0.063,1.004l-1,0.036V2673
			c0-0.298-0.019-0.591-0.055-0.879L16.938,2671.996z M2.001,2672.927L2,2673.021c0,0.289,0.021,0.593,0.06,0.893l-0.992,0.129
			C1.022,2673.7,1,2673.35,1,2673L2.001,2672.927z M15.938,2673.945l0.99,0.136c-0.047,0.346-0.117,0.69-0.208,1.023l-0.965-0.262
			C15.834,2674.55,15.896,2674.251,15.938,2673.945z M2.236,2674.81c0.079,0.297,0.178,0.587,0.293,0.867l-0.924,0.381
			c-0.134-0.322-0.246-0.656-0.336-0.99L2.236,2674.81z M15.458,2675.706l0.922,0.387c-0.134,0.32-0.291,0.635-0.467,0.936
			l-0.863-0.504C15.203,2676.263,15.34,2675.989,15.458,2675.706z M2.934,2676.495c0.153,0.266,0.323,0.52,0.508,0.762l-0.793,0.607
			c-0.211-0.275-0.406-0.566-0.58-0.868L2.934,2676.495z M14.537,2677.281l0.791,0.612c-0.212,0.273-0.444,0.537-0.691,0.783
			l-0.705-0.709C14.147,2677.753,14.351,2677.522,14.537,2677.281z M4.046,2677.944c0.215,0.217,0.444,0.418,0.687,0.604
			l-0.611,0.792c-0.276-0.214-0.54-0.445-0.784-0.689L4.046,2677.944z M13.242,2678.568l0.607,0.794
			c-0.276,0.211-0.568,0.406-0.87,0.579l-0.498-0.867C12.746,2678.922,13.001,2678.753,13.242,2678.568z M5.491,2679.058
			c0.263,0.152,0.536,0.289,0.818,0.406l-0.385,0.924c-0.32-0.135-0.636-0.29-0.936-0.465L5.491,2679.058z M11.659,2679.478
			l0.381,0.924c-0.319,0.133-0.653,0.244-0.991,0.334l-0.256-0.967C11.09,2679.689,11.38,2679.593,11.659,2679.478z M7.174,2679.76
			c0.292,0.078,0.591,0.139,0.896,0.18l-0.131,0.991c-0.346-0.047-0.69-0.116-1.025-0.205L7.174,2679.76z M9.896,2679.942
			l0.127,0.992C9.688,2680.978,9.347,2681,9,2681l-0.018-1l0.038,0.001C9.304,2680,9.604,2679.98,9.896,2679.942z"/>
	</g>
	<polygon fill="#636F80" points="5,2673 9,2669 13,2673 	"/>
	<rect x="8" y="2673" fill="#636F80" width="2" height="4"/>
</g>
</svg>
