<?xml version="1.0" encoding="utf-8"?>
<!-- Generator: Adobe Illustrator 16.2.0, SVG Export Plug-In . SVG Version: 6.00 Build 0)  -->
<!DOCTYPE svg PUBLIC "-//W3C//DTD SVG 1.1//EN" "http://www.w3.org/Graphics/SVG/1.1/DTD/svg11.dtd">
<svg version="1.1" id="Слой_1" xmlns="http://www.w3.org/2000/svg" xmlns:xlink="http://www.w3.org/1999/xlink" x="0px" y="0px"
	 width="18px" height="18px" viewBox="-0.084 485.917 18 18" enable-background="new -0.084 485.917 18 18" xml:space="preserve">
<g id="Layer_5">
	<polygon fill="#636F80" points="2,501.918 2.322,499.642 2.647,497.365 4.602,499.317 6.553,501.271 4.276,501.596 	"/>
	<polygon fill="#636F80" points="12.598,493.902 11.947,493.252 10.644,491.951 9.994,491.3 9.343,490.648 3.748,496.245 
		7.652,500.148 13.247,494.552 	"/>
	<path fill="#636F80" d="M15.749,492.16c0.345-0.342,0.333-0.917-0.026-1.275l-2.602-2.604c-0.356-0.357-0.933-0.367-1.273-0.025
		c-0.029,0.028-0.041,0.064-0.064,0.095l-0.016-0.017l-1.25,1.249l3.904,3.906l1.25-1.25l-0.018-0.018
		C15.687,492.198,15.721,492.188,15.749,492.16z"/>
</g>
</svg>
