<?xml version="1.0" encoding="utf-8"?>
<!-- Generator: Adobe Illustrator 16.2.0, SVG Export Plug-In . SVG Version: 6.00 Build 0)  -->
<!DOCTYPE svg PUBLIC "-//W3C//DTD SVG 1.1//EN" "http://www.w3.org/Graphics/SVG/1.1/DTD/svg11.dtd">
<svg version="1.1" id="Слой_4" xmlns="http://www.w3.org/2000/svg" xmlns:xlink="http://www.w3.org/1999/xlink" x="0px" y="0px"
	 width="24px" height="24px" viewBox="-18.875 12 24 24" enable-background="new -18.875 12 24 24" xml:space="preserve">
<g>
	<path fill="#9A9FAF" d="M-6.875,14c5.514,0,10,4.486,10,10c0,5.514-4.486,10-10,10s-10-4.486-10-10
		C-16.875,18.486-12.389,14-6.875,14 M-6.875,12c-6.627,0-12,5.373-12,12c0,6.627,5.373,12,12,12s12-5.373,12-12
		C5.125,17.373-0.248,12-6.875,12L-6.875,12z"/>
	<g>
		<path fill="#9A9FAF" d="M-5.133,21.039l-1.804,6.257c-0.1,0.357-0.149,0.593-0.149,0.704c0,0.064,0.026,0.124,0.079,0.18
			s0.108,0.084,0.167,0.084c0.1,0,0.2-0.044,0.3-0.132c0.264-0.217,0.58-0.61,0.95-1.18l0.299,0.177
			c-0.886,1.542-1.827,2.313-2.824,2.313c-0.382,0-0.686-0.106-0.911-0.321c-0.226-0.214-0.339-0.485-0.339-0.813
			c0-0.217,0.05-0.493,0.15-0.827l1.223-4.206c0.117-0.404,0.176-0.71,0.176-0.915c0-0.129-0.056-0.243-0.167-0.343
			s-0.264-0.15-0.457-0.15c-0.089,0-0.194,0.004-0.317,0.009l0.114-0.352l2.983-0.484H-5.133z M-5.678,16.992
			c0.363,0,0.67,0.126,0.919,0.378c0.25,0.252,0.374,0.558,0.374,0.915c0,0.358-0.126,0.663-0.378,0.915
			c-0.253,0.253-0.558,0.379-0.915,0.379c-0.353,0-0.654-0.126-0.906-0.379c-0.253-0.252-0.379-0.557-0.379-0.915
			c0-0.357,0.125-0.663,0.374-0.915S-6.036,16.992-5.678,16.992z"/>
	</g>
</g>
</svg>
