<?xml version="1.0" encoding="UTF-8" standalone="no"?>
<!-- Created with Inkscape (http://www.inkscape.org/) -->

<svg
   xmlns:dc="http://purl.org/dc/elements/1.1/"
   xmlns:cc="http://creativecommons.org/ns#"
   xmlns:rdf="http://www.w3.org/1999/02/22-rdf-syntax-ns#"
   xmlns:svg="http://www.w3.org/2000/svg"
   xmlns="http://www.w3.org/2000/svg"
   xmlns:sodipodi="http://sodipodi.sourceforge.net/DTD/sodipodi-0.dtd"
   xmlns:inkscape="http://www.inkscape.org/namespaces/inkscape"
   width="30"
   height="18"
   viewBox="0 0 7.9375 4.7625001"
   version="1.1"
   id="svg73"
   inkscape:version="0.92.2 (5c3e80d, 2017-08-06)"
   sodipodi:docname="variable_off.svg">
  <defs
     id="defs67" />
  <sodipodi:namedview
     id="base"
     pagecolor="#ffffff"
     bordercolor="#666666"
     borderopacity="1.0"
     inkscape:pageopacity="0.0"
     inkscape:pageshadow="2"
     inkscape:zoom="15.839192"
     inkscape:cx="34.048573"
     inkscape:cy="15.538662"
     inkscape:document-units="mm"
     inkscape:current-layer="layer1"
     showgrid="false"
     units="px"
     inkscape:window-width="1920"
     inkscape:window-height="1017"
     inkscape:window-x="1276"
     inkscape:window-y="-4"
     inkscape:window-maximized="1" />
  <metadata
     id="metadata70">
    <rdf:RDF>
      <cc:Work
         rdf:about="">
        <dc:format>image/svg+xml</dc:format>
        <dc:type
           rdf:resource="http://purl.org/dc/dcmitype/StillImage" />
        <dc:title></dc:title>
      </cc:Work>
    </rdf:RDF>
  </metadata>
  <g
     inkscape:label="Layer 1"
     inkscape:groupmode="layer"
     id="layer1"
     transform="translate(0,-292.2375)">
    <g
       id="g24"
       transform="matrix(0.26458333,0,0,0.26458333,0.22135474,292.51132)">
      <path
         style="fill:#636f80"
         inkscape:connector-curvature="0"
         d="M 20.140625,15.999999 H 7.9999919 C 3.5817184,15.999999 0,12.418281 0,8.0000076 v -1.62e-5 C 0,3.5817175 3.5817184,-5e-7 7.9999919,-5e-7 H 20.140625 Z"
         id="path22" />
    </g>
    <g
       style="opacity:0.5"
       id="g30"
       transform="matrix(0.26458333,0,0,0.26458333,0.22135474,292.51132)">
      <path
         style="fill:#ffffff"
         inkscape:connector-curvature="0"
         d="M 6.7345457,5.124023 C 6.8937254,5.2929683 7.0148191,5.4628902 7.0958738,5.6318355 7.1544676,5.749023 7.2501707,6.0566401 7.3839598,6.554687 L 7.8136473,5.9101557 C 7.9279051,5.7539057 8.0656004,5.6054682 8.2286864,5.4628901 8.3917723,5.3222651 8.5343505,5.2246088 8.6583739,5.172851 8.7364989,5.140625 8.8224363,5.124023 8.9171629,5.124023 c 0.1396484,0 0.2519531,0.037109 0.3339844,0.1123047 0.083984,0.075195 0.125,0.1660156 0.125,0.2734375 0,0.1240234 -0.024414,0.2080078 -0.073242,0.2539063 -0.09082,0.081055 -0.1953125,0.1220703 -0.3125,0.1220703 -0.068359,0 -0.1416016,-0.014648 -0.2197266,-0.043945 -0.1533203,-0.051758 -0.2558594,-0.078125 -0.3076172,-0.078125 -0.078125,0 -0.1708984,0.045898 -0.2783203,0.1367188 -0.2021486,0.1689449 -0.442383,0.4960933 -0.7226564,0.9814449 l 0.4003906,1.679687 c 0.061523,0.2568359 0.1142578,0.4111328 0.15625,0.4619141 0.041992,0.049805 0.084961,0.075195 0.1269531,0.075195 0.068359,0 0.1484375,-0.037109 0.2392578,-0.1123047 C 8.5636472,8.8369131 8.7169676,8.6416006 8.8439207,8.4003897 l 0.1708984,0.087891 C 8.809741,8.8720694 8.5489988,9.1914053 8.2335691,9.4453116 8.0548582,9.5888662 7.903491,9.6601553 7.7794676,9.6601553 7.5968504,9.6601553 7.4523192,9.5576162 7.3448973,9.3525381 7.2765379,9.225585 7.1349363,8.67871 6.9200926,7.7119136 6.4122801,8.593749 6.0050535,9.1621084 5.6993895,9.4160147 5.5011473,9.5791006 5.3087645,9.6601553 5.1232176,9.6601553 4.9933348,9.6601553 4.8741942,9.6132803 4.7667723,9.5185537 4.6886473,9.4472647 4.6495848,9.350585 4.6495848,9.2304678 c 0,-0.1074219 0.036133,-0.1972656 0.1074219,-0.2685547 0.071289,-0.071289 0.1591797,-0.1074219 0.2636719,-0.1074219 0.1044922,0 0.2148438,0.051758 0.3320313,0.15625 0.084961,0.075195 0.1494141,0.1123047 0.1953125,0.1123047 0.039063,0 0.089844,-0.026367 0.1513672,-0.078125 0.1533203,-0.1240234 0.3613281,-0.390625 0.625,-0.8007813 C 6.5880615,7.8339838 6.760913,7.5380854 6.8419677,7.3554682 6.6398191,6.5644526 6.5314207,6.1464839 6.5148191,6.1005855 6.4396238,5.8886714 6.3419676,5.7392573 6.2218504,5.6513667 6.1017332,5.5634761 5.9239988,5.5195308 5.6896238,5.5195308 c -0.075195,0 -0.1611328,0.00293 -0.2587891,0.00977 V 5.3535151 Z"
         id="path26" />
      <path
         style="fill:#ffffff"
         inkscape:connector-curvature="0"
         d="m 5.0011473,10.875976 v -0.488282 h 4.4384766 v 0.488282 z"
         id="path28" />
    </g>
    <circle
       style="fill:#4f5966;stroke-width:0.26458332"
       cx="5.2484369"
       cy="294.62799"
       r="2.1166666"
       id="circle32" />
    <g
       id="g36"
       transform="matrix(0.26458333,0,0,0.26458333,0.22135474,292.51132)">
      <circle
         style="fill:#bdccd4"
         cx="20"
         cy="8"
         r="8"
         id="circle34" />
    </g>
    <g
       id="g40"
       transform="matrix(0.26458333,0,0,0.26458333,0.22135474,292.51132)">
      <path
         style="fill:#ffffff"
         inkscape:connector-curvature="0"
         d="M 22.674805,5.2783198 21.532227,9.2509756 21.40332,9.7841787 c -0.01172,0.050781 -0.01758,0.09375 -0.01758,0.1289063 0,0.0625 0.01953,0.117188 0.05859,0.164063 0.03125,0.03516 0.07031,0.05273 0.117187,0.05273 0.05078,0 0.117188,-0.03125 0.199219,-0.09375 0.152344,-0.1132814 0.355469,-0.3476564 0.609375,-0.7031251 l 0.199219,0.140625 c -0.269531,0.40625 -0.546875,0.7158201 -0.832031,0.9287111 -0.285157,0.21289 -0.548828,0.319336 -0.791016,0.319336 -0.167969,0 -0.293945,-0.04199 -0.37793,-0.125977 -0.08398,-0.08398 -0.125976,-0.206055 -0.125976,-0.366211 0,-0.191406 0.04297,-0.4433592 0.128906,-0.7558592 L 20.69433,9.0341747 c -0.511719,0.6679688 -0.982422,1.1347653 -1.412109,1.4003903 -0.308594,0.191407 -0.611328,0.28711 -0.908203,0.28711 -0.285157,0 -0.53125,-0.118164 -0.738282,-0.354492 -0.207031,-0.236329 -0.310547,-0.5615239 -0.310547,-0.9755864 0,-0.6210938 0.186524,-1.2763672 0.559571,-1.9658198 0.373047,-0.6894526 0.846679,-1.2412109 1.420898,-1.6552734 0.449219,-0.328125 0.873047,-0.4921875 1.271484,-0.4921875 0.238282,0 0.436524,0.0625 0.594727,0.1875 0.158203,0.125 0.27832,0.3320313 0.360352,0.6210938 l 0.210937,-0.6679688 z m -2.085938,0.3046875 c -0.25,0 -0.515625,0.1171875 -0.796875,0.3515625 -0.398437,0.3320313 -0.75293,0.8242188 -1.063476,1.4765625 -0.310547,0.6523437 -0.465821,1.242187 -0.465821,1.7695308 0,0.265625 0.06641,0.4755859 0.199219,0.6298828 0.132813,0.1542969 0.285156,0.2314451 0.457031,0.2314451 0.425782,0 0.888672,-0.3144529 1.388672,-0.9433592 0.667969,-0.8359375 1.001953,-1.6933589 1.001953,-2.5722651 0,-0.3320313 -0.06445,-0.5722656 -0.193359,-0.7207031 C 20.987305,5.6572261 20.811523,5.5830073 20.588867,5.5830073 Z"
         id="path38" />
    </g>
  </g>
</svg>
