<svg xmlns="http://www.w3.org/2000/svg" width="18" height="18" viewBox="0 0 18 18"><path d="M15,3v12H3V3H15 M16,2H2v14h14V2L16,2z" fill="#71b1e4"/><rect x="4" y="4" width="2" height="2" fill="#71b1e4"/><rect x="7" y="4" width="7" height="2" fill="#71b1e4"/><rect x="4" y="7" width="2" height="7" fill="#71b1e4"/><polygon points="9,14 7,12.5 9,11" fill="#f7931e"/><polygon points="11,9 12.5,7 14,9" fill="#f7931e"/><path d="M12,9v2c0,0.552-0.448,1-1,1H8v1h3c1.105,0,2-0.895,2-2V9H12z" fill="#f7931e"/></svg>