<?xml version="1.0" encoding="utf-8"?>
<!-- Generator: Adobe Illustrator 16.2.0, SVG Export Plug-In . SVG Version: 6.00 Build 0)  -->
<!DOCTYPE svg PUBLIC "-//W3C//DTD SVG 1.1//EN" "http://www.w3.org/Graphics/SVG/1.1/DTD/svg11.dtd">
<svg version="1.1" id="Слой_1" xmlns="http://www.w3.org/2000/svg" xmlns:xlink="http://www.w3.org/1999/xlink" x="0px" y="0px"
	 width="18px" height="18px" viewBox="-0.084 2951.959 18 18" enable-background="new -0.084 2951.959 18 18" xml:space="preserve">
<g id="Layer_5">
	<g>
		<path fill="#636F80" d="M5.154,2966.846l0.729-0.729C4.158,2965.062,3,2963.166,3,2961c0-3.309,2.692-6,6-6
			c0.341,0,0.674,0.035,1,0.091v-1.012c-0.328-0.047-0.66-0.079-1-0.079c-3.866,0-7,3.134-7,7
			C2,2963.444,3.255,2965.594,5.154,2966.846z"/>
		<path fill="#636F80" d="M12.846,2955.154l-0.729,0.729c1.726,1.056,2.883,2.951,2.883,5.117c0,3.309-2.692,6-6,6
			c-0.341,0-0.674-0.035-1-0.091v1.012c0.328,0.047,0.66,0.079,1,0.079c3.866,0,7-3.134,7-7
			C16,2958.556,14.745,2956.406,12.846,2955.154z"/>
	</g>
	<rect x="6" y="2958" fill="#636F80" width="4" height="1"/>
	<rect x="6" y="2960" fill="#636F80" width="6" height="1"/>
	<rect x="8" y="2962" fill="#636F80" width="4" height="1"/>
	<rect x="8" y="2964" fill="#636F80" width="4" height="1"/>
	<polygon fill="#636F80" points="11,2959 11,2954.018 15.982,2954.018 	"/>
	<polygon fill="#636F80" points="7,2963 7,2968 2,2968 	"/>
</g>
</svg>
