<?xml version="1.0" encoding="utf-8"?>
<!-- Generator: Adobe Illustrator 16.2.0, SVG Export Plug-In . SVG Version: 6.00 Build 0)  -->
<!DOCTYPE svg PUBLIC "-//W3C//DTD SVG 1.1//EN" "http://www.w3.org/Graphics/SVG/1.1/DTD/svg11.dtd">
<svg version="1.1" id="Слой_1" xmlns="http://www.w3.org/2000/svg" xmlns:xlink="http://www.w3.org/1999/xlink" x="0px" y="0px"
	 width="18px" height="18px" viewBox="0 0 18 18" enable-background="new 0 0 18 18" xml:space="preserve">
<polygon fill="#636F80" points="13.188,8.188 10.188,8.188 10.188,5.188 8.188,5.188 8.188,8.188 5.188,8.188 5.188,10.188 
	8.188,10.188 8.188,13.188 10.188,13.188 10.188,10.188 13.188,10.188 "/>
<path fill="#636F80" d="M9.187,17.188l-0.054-0.5l0.054-0.5c0.293,0,0.58-0.018,0.863-0.052l0.121,0.992
	C9.849,17.167,9.521,17.188,9.187,17.188 M8.087,17.113c-0.344-0.047-0.688-0.118-1.023-0.21l0.263-0.964
	c0.292,0.079,0.591,0.143,0.897,0.184L8.087,17.113z M11.198,16.933l-0.25-0.968c0.298-0.077,0.587-0.174,0.867-0.286l0.377,0.926
	C11.869,16.736,11.535,16.846,11.198,16.933 M6.076,16.56c-0.319-0.134-0.634-0.292-0.933-0.469l0.505-0.863
	c0.262,0.154,0.535,0.291,0.817,0.411L6.076,16.56z M13.134,16.149l-0.494-0.87c0.266-0.151,0.521-0.319,0.763-0.502l0.604,0.797
	C13.73,15.784,13.436,15.977,13.134,16.149 M4.275,15.504c-0.273-0.214-0.534-0.445-0.778-0.693l0.711-0.702
	c0.215,0.218,0.444,0.42,0.685,0.608L4.275,15.504z M14.797,14.891l-0.701-0.712c0.216-0.214,0.42-0.441,0.607-0.682l0.789,0.616
	C15.278,14.386,15.045,14.647,14.797,14.891 M2.812,14.021c-0.21-0.277-0.404-0.571-0.576-0.872l0.869-0.495
	c0.152,0.265,0.32,0.52,0.504,0.762L2.812,14.021z M16.081,13.249l-0.861-0.507c0.154-0.262,0.292-0.534,0.412-0.816l0.92,0.392
	C16.415,12.639,16.257,12.951,16.081,13.249 M1.777,12.211c-0.131-0.321-0.242-0.655-0.33-0.994l0.967-0.252
	c0.078,0.298,0.174,0.588,0.289,0.866L1.777,12.211z M16.896,11.331l-0.962-0.269c0.081-0.292,0.142-0.59,0.186-0.896l0.99,0.143
	C17.06,10.659,16.988,11.003,16.896,11.331 M1.25,10.191C1.208,9.863,1.187,9.528,1.187,9.188l1-0.036v0.036
	c0,0.298,0.019,0.591,0.055,0.879L1.25,10.191z M16.186,9.261l0.001-0.094c0-0.288-0.02-0.592-0.059-0.893l0.992-0.13
	c0.045,0.343,0.067,0.693,0.067,1.043L16.186,9.261z M2.25,8.243L1.26,8.105c0.047-0.345,0.117-0.689,0.208-1.022l0.965,0.263
	C2.354,7.638,2.292,7.936,2.25,8.243 M15.951,7.378c-0.079-0.297-0.178-0.587-0.293-0.866l0.924-0.382
	c0.134,0.323,0.246,0.656,0.336,0.991L15.951,7.378z M2.73,6.481L1.808,6.095c0.133-0.32,0.291-0.634,0.466-0.935l0.864,0.504
	C2.984,5.926,2.848,6.199,2.73,6.481 M15.254,5.691c-0.153-0.265-0.323-0.519-0.508-0.761l0.793-0.608
	c0.211,0.276,0.406,0.567,0.58,0.869L15.254,5.691z M3.65,4.907L2.859,4.294C3.071,4.02,3.304,3.758,3.551,3.512l0.705,0.709
	C4.04,4.435,3.837,4.665,3.65,4.907 M14.142,4.243c-0.215-0.216-0.445-0.418-0.687-0.604l0.611-0.792
	c0.277,0.214,0.54,0.445,0.785,0.69L14.142,4.243z M4.945,3.62L4.338,2.825c0.276-0.21,0.568-0.405,0.87-0.579l0.498,0.868
	C5.441,3.266,5.186,3.435,4.945,3.62 M12.696,3.13c-0.262-0.153-0.536-0.288-0.818-0.406l0.385-0.923
	c0.32,0.133,0.635,0.289,0.935,0.464L12.696,3.13z M6.528,2.711l-0.38-0.925c0.319-0.132,0.653-0.244,0.991-0.333L7.395,2.42
	C7.098,2.498,6.808,2.596,6.528,2.711 M11.014,2.428c-0.292-0.078-0.591-0.139-0.897-0.18l0.131-0.99
	c0.346,0.046,0.691,0.115,1.025,0.205L11.014,2.428z M8.291,2.245L8.164,1.253C8.5,1.21,8.841,1.188,9.187,1.188l0.018,1
	L9.167,2.187C8.884,2.188,8.584,2.207,8.291,2.245"/>
<rect x="0.188" y="-467.813" fill="none" width="54" height="3456"/>
</svg>
