<?xml version="1.0" encoding="utf-8"?>
<!-- Generator: Adobe Illustrator 16.2.0, SVG Export Plug-In . SVG Version: 6.00 Build 0)  -->
<!DOCTYPE svg PUBLIC "-//W3C//DTD SVG 1.1//EN" "http://www.w3.org/Graphics/SVG/1.1/DTD/svg11.dtd">
<svg version="1.1" id="Слой_1" xmlns="http://www.w3.org/2000/svg" xmlns:xlink="http://www.w3.org/1999/xlink" x="0px" y="0px"
	 width="18px" height="18px" viewBox="-0.084 2969.959 18 18" enable-background="new -0.084 2969.959 18 18" xml:space="preserve">
<g id="Layer_5">
	<g>
		<path fill="#636F80" d="M7.517,2980.442l-0.831,2.516H5.618l2.718-8h1.247l2.73,8h-1.104l-0.855-2.516H7.517z M10.14,2979.635
			l-0.783-2.303c-0.179-0.522-0.297-0.997-0.416-1.46H8.917c-0.119,0.475-0.249,0.962-0.403,1.448l-0.784,2.314H10.14z"/>
	</g>
	<g>
		<path fill="#636F80" d="M12.846,2973.154l-0.729,0.729c1.726,1.056,2.883,2.951,2.883,5.117c0,3.309-2.692,6-6,6
			c-0.341,0-0.674-0.035-1-0.091v1.012c0.328,0.047,0.66,0.079,1,0.079c3.866,0,7-3.134,7-7
			C16,2976.556,14.745,2974.406,12.846,2973.154z"/>
		<path fill="#636F80" d="M5.154,2984.846l0.729-0.729C4.158,2983.062,3,2981.166,3,2979c0-3.309,2.692-6,6-6
			c0.341,0,0.674,0.035,1,0.091v-1.012c-0.328-0.047-0.66-0.079-1-0.079c-3.866,0-7,3.134-7,7
			C2,2981.444,3.255,2983.594,5.154,2984.846z"/>
	</g>
	<polygon fill="#636F80" points="11,2977 11,2972.018 15.982,2972.018 	"/>
	<polygon fill="#636F80" points="7,2981 7,2986 2,2986 	"/>
</g>
</svg>
