<?xml version="1.0" encoding="UTF-8" standalone="no"?>
<!-- Created with Inkscape (http://www.inkscape.org/) -->

<svg
   xmlns:dc="http://purl.org/dc/elements/1.1/"
   xmlns:cc="http://creativecommons.org/ns#"
   xmlns:rdf="http://www.w3.org/1999/02/22-rdf-syntax-ns#"
   xmlns:svg="http://www.w3.org/2000/svg"
   xmlns="http://www.w3.org/2000/svg"
   xmlns:sodipodi="http://sodipodi.sourceforge.net/DTD/sodipodi-0.dtd"
   xmlns:inkscape="http://www.inkscape.org/namespaces/inkscape"
   width="18"
   height="18"
   viewBox="0 0 4.7624999 4.7625001"
   version="1.1"
   id="svg8923"
   sodipodi:docname="drawing7.svg"
   inkscape:version="0.92.2 (5c3e80d, 2017-08-06)">
  <defs
     id="defs8917" />
  <sodipodi:namedview
     id="base"
     pagecolor="#ffffff"
     bordercolor="#666666"
     borderopacity="1.0"
     inkscape:pageopacity="0.0"
     inkscape:pageshadow="2"
     inkscape:zoom="22.4"
     inkscape:cx="12.500187"
     inkscape:cy="9.3257769"
     inkscape:document-units="mm"
     inkscape:current-layer="layer1"
     showgrid="false"
     units="px"
     inkscape:window-width="1920"
     inkscape:window-height="1017"
     inkscape:window-x="1276"
     inkscape:window-y="-4"
     inkscape:window-maximized="1" />
  <metadata
     id="metadata8920">
    <rdf:RDF>
      <cc:Work
         rdf:about="">
        <dc:format>image/svg+xml</dc:format>
        <dc:type
           rdf:resource="http://purl.org/dc/dcmitype/StillImage" />
        <dc:title></dc:title>
      </cc:Work>
    </rdf:RDF>
  </metadata>
  <g
     inkscape:label="Layer 1"
     inkscape:groupmode="layer"
     id="layer1"
     transform="translate(0,-292.23748)">
    <path
       inkscape:connector-curvature="0"
       style="fill:#636f80;stroke-width:0.26458332"
       d="m 4.1943925,296.14265 -0.6884459,-0.68898 c 0.219075,-0.28575 0.3505729,-0.64188 0.3505729,-1.02976 0,-0.93662 -0.7590895,-1.69571 -1.6957145,-1.69571 -0.9368896,2.6e-4 -1.69597916,0.75962 -1.69597916,1.69598 0,0.93636 0.75908956,1.69571 1.69571456,1.69571 0.3878791,0 0.7440083,-0.13176 1.0297583,-0.35057 l 0.6887104,0.68871 c 0.043392,0.0434 0.1005417,0.0654 0.1576917,0.0654 0.05715,0 0.1143,-0.022 0.1576917,-0.0654 0.087312,-0.087 0.087312,-0.22807 0,-0.31538 z M 2.1605404,295.6783 c -0.6926792,0 -1.25386039,-0.56144 -1.25386039,-1.25412 0,-0.69268 0.56118119,-1.25386 1.25386039,-1.25386 0.6924146,0 1.2538604,0.56144 1.2538604,1.25386 0,0.69241 -0.5614458,1.25412 -1.2538604,1.25412 z"
       id="path134" />
    <rect
       style="fill:#636f80;stroke-width:0.26458332"
       x="1.5231591"
       y="294.31598"
       width="1.3229166"
       height="0.26458332"
       id="rect136" />
  </g>
</svg>
