<?xml version="1.0" encoding="utf-8"?>
<!-- Generator: Adobe Illustrator 16.2.0, SVG Export Plug-In . SVG Version: 6.00 Build 0)  -->
<!DOCTYPE svg PUBLIC "-//W3C//DTD SVG 1.1//EN" "http://www.w3.org/Graphics/SVG/1.1/DTD/svg11.dtd">
<svg version="1.1" id="Слой_1" xmlns="http://www.w3.org/2000/svg" xmlns:xlink="http://www.w3.org/1999/xlink" x="0px" y="0px"
	 width="18px" height="18px" viewBox="-0.084 557.917 18 18" enable-background="new -0.084 557.917 18 18" xml:space="preserve">
<g id="Layer_5">
	<path fill="#636F80" d="M14.559,565.642l-0.012-0.009c-0.455-0.341-1.108-0.238-1.434,0.226l-1.013,1.441
		c-0.132,0.189-0.386,0.253-0.595,0.153c-0.222-0.108-0.363-0.331-0.363-0.573v-4.918c0-0.491-0.406-0.889-0.907-0.889
		s-0.907,0.397-0.907,0.889v4.098c0,0.148-0.123,0.27-0.275,0.27s-0.275-0.121-0.275-0.27v-5.275c0-0.433-0.356-0.784-0.798-0.784
		c-0.44,0-0.798,0.352-0.798,0.784v5.268c0,0.154-0.127,0.277-0.283,0.277c-0.155,0-0.282-0.123-0.282-0.277v-4.37
		c0-0.428-0.353-0.774-0.787-0.774c-0.436,0-0.788,0.347-0.788,0.774v4.378c0,0.148-0.123,0.27-0.274,0.27s-0.274-0.121-0.274-0.27
		v-2.937c0-0.404-0.334-0.731-0.746-0.731S3,562.719,3,563.123v6.585c0,0.678,0.161,1.35,0.469,1.956l0.553,1.09
		C4.408,573.518,5.202,574,6.071,574h2.854c0.766,0,1.481-0.377,1.906-1.002l3.98-5.872
		C15.141,566.644,15.029,565.993,14.559,565.642z"/>
</g>
</svg>
