<?xml version="1.0" encoding="utf-8"?>
<!-- Generator: Adobe Illustrator 16.2.0, SVG Export Plug-In . SVG Version: 6.00 Build 0)  -->
<!DOCTYPE svg PUBLIC "-//W3C//DTD SVG 1.1//EN" "http://www.w3.org/Graphics/SVG/1.1/DTD/svg11.dtd">
<svg version="1.1" id="Слой_1" xmlns="http://www.w3.org/2000/svg" xmlns:xlink="http://www.w3.org/1999/xlink" x="0px" y="0px"
	 width="18px" height="18px" viewBox="-0.084 1889.834 18 18" enable-background="new -0.084 1889.834 18 18" xml:space="preserve">
<g id="Layer_5">
	<g>
		<path fill="#636F80" d="M9.764,1901.016l-2.352-2.481c0,0,2.042-0.866,2.758-1.621c0.717-0.756,4.295-4.533,4.295-4.533
			s0.716-0.756,1.304-0.135c0.587,0.62-0.129,1.375-0.129,1.375s-3.578,3.777-4.294,4.532
			C10.63,1898.909,9.764,1901.016,9.764,1901.016z"/>
		<path fill="#636F80" d="M2,1905.798c1.828-0.476,1.649-2.039,2.736-4.782c0.534-1.348,1.961-1.727,1.961-1.727l2.351,2.481
			C9.048,1901.771,9.048,1907.09,2,1905.798z"/>
	</g>
</g>
</svg>
