<?xml version="1.0" encoding="utf-8"?>
<!-- Generator: Adobe Illustrator 16.2.0, SVG Export Plug-In . SVG Version: 6.00 Build 0)  -->
<!DOCTYPE svg PUBLIC "-//W3C//DTD SVG 1.1//EN" "http://www.w3.org/Graphics/SVG/1.1/DTD/svg11.dtd">
<svg version="1.1" id="Слой_1" xmlns="http://www.w3.org/2000/svg" xmlns:xlink="http://www.w3.org/1999/xlink" x="0px" y="0px"
	 width="18px" height="18px" viewBox="-0.084 575.917 18 18" enable-background="new -0.084 575.917 18 18" xml:space="preserve">
<g id="Layer_5">
	<path fill="#636F80" d="M16.096,590.904l-2.603-2.604c0.828-1.079,1.325-2.426,1.325-3.892c0-3.539-2.869-6.409-6.409-6.409
		S2,580.87,2,584.409s2.869,6.409,6.409,6.409c1.466,0,2.812-0.497,3.892-1.325l2.604,2.604c0.164,0.164,0.38,0.247,0.596,0.247
		s0.432-0.083,0.596-0.247C16.426,591.767,16.426,591.233,16.096,590.904z M8.409,589.149c-2.618,0-4.739-2.123-4.739-4.74
		s2.121-4.739,4.739-4.739c2.617,0,4.739,2.122,4.739,4.739S11.026,589.149,8.409,589.149z"/>
</g>
</svg>
