<?xml version="1.0" encoding="UTF-8" standalone="no"?>
<!-- Created with Inkscape (http://www.inkscape.org/) -->

<svg
   xmlns:dc="http://purl.org/dc/elements/1.1/"
   xmlns:cc="http://creativecommons.org/ns#"
   xmlns:rdf="http://www.w3.org/1999/02/22-rdf-syntax-ns#"
   xmlns:svg="http://www.w3.org/2000/svg"
   xmlns="http://www.w3.org/2000/svg"
   xmlns:sodipodi="http://sodipodi.sourceforge.net/DTD/sodipodi-0.dtd"
   xmlns:inkscape="http://www.inkscape.org/namespaces/inkscape"
   width="18"
   height="18"
   viewBox="0 0 4.7624999 4.7625001"
   version="1.1"
   id="svg15963"
   inkscape:version="0.92.2 (5c3e80d, 2017-08-06)"
   sodipodi:docname="1,1.svg">
  <defs
     id="defs15957" />
  <sodipodi:namedview
     id="base"
     pagecolor="#ffffff"
     bordercolor="#666666"
     borderopacity="1.0"
     inkscape:pageopacity="0.0"
     inkscape:pageshadow="2"
     inkscape:zoom="22.4"
     inkscape:cx="13.794604"
     inkscape:cy="14.408453"
     inkscape:document-units="mm"
     inkscape:current-layer="layer1"
     showgrid="false"
     units="px"
     inkscape:pagecheckerboard="false"
     inkscape:window-width="1920"
     inkscape:window-height="1017"
     inkscape:window-x="1276"
     inkscape:window-y="-4"
     inkscape:window-maximized="1" />
  <metadata
     id="metadata15960">
    <rdf:RDF>
      <cc:Work
         rdf:about="">
        <dc:format>image/svg+xml</dc:format>
        <dc:type
           rdf:resource="http://purl.org/dc/dcmitype/StillImage" />
        <dc:title></dc:title>
      </cc:Work>
    </rdf:RDF>
  </metadata>
  <g
     inkscape:label="Layer 1"
     inkscape:groupmode="layer"
     id="layer1"
     transform="translate(0,-292.23748)">
    <path
       inkscape:connector-curvature="0"
       style="fill:#636f80;stroke-width:0.26458332"
       d="m 1.8449963,295.42533 v 0.7194 H 0.78666288 V 295.0864 H 1.7381046 c -0.015875,-0.086 -0.0254,-0.1741 -0.0254,-0.26458 h -1.190625 v 1.5875 h 1.5875 v -0.59082 c -0.1084792,-0.11509 -0.1979083,-0.24765 -0.2645833,-0.39317 z"
       id="path9788" />
    <path
       inkscape:connector-curvature="0"
       style="fill:#636f80;stroke-width:0.26458332"
       d="m 3.1679129,293.76348 c -0.1105958,0 -0.2153708,0.0217 -0.3156479,0.0532 l 0.1352021,0.23416 c 0.058208,-0.0138 0.1182687,-0.0227 0.1807104,-0.0227 0.4376208,0 0.79375,0.35613 0.79375,0.79375 0,0.43762 -0.3561292,0.79375 -0.79375,0.79375 -0.4376208,0 -0.79375,-0.35613 -0.79375,-0.79375 H 2.1095796 c 0,0.58446 0.4738687,1.05833 1.0583333,1.05833 0.5844646,0 1.0583334,-0.47387 1.0583334,-1.05833 0,-0.58447 -0.4738688,-1.05834 -1.0583334,-1.05834 z"
       id="path12206" />
    <path
       inkscape:connector-curvature="0"
       style="fill:#636f80;stroke-width:0.26458332"
       d="m 1.8449963,293.25337 0.3000375,0.51964 0.3000375,0.51964 h -0.600075 -0.600075 l 0.3000375,-0.51964 0.3000375,-0.51964 m 0,-0.52917 -0.5291667,0.91652 -0.52916672,0.91651 H 1.8449963 2.9033296 l -0.5291667,-0.91651 z"
       id="path12208" />
  </g>
</svg>
