<?xml version="1.0" encoding="utf-8"?>
<!-- Generator: Adobe Illustrator 16.2.0, SVG Export Plug-In . SVG Version: 6.00 Build 0)  -->
<!DOCTYPE svg PUBLIC "-//W3C//DTD SVG 1.1//EN" "http://www.w3.org/Graphics/SVG/1.1/DTD/svg11.dtd">
<svg version="1.1" id="Слой_1" xmlns="http://www.w3.org/2000/svg" xmlns:xlink="http://www.w3.org/1999/xlink" x="0px" y="0px"
	 width="18px" height="18px" viewBox="-0.084 521.917 18 18" enable-background="new -0.084 521.917 18 18" xml:space="preserve">
<g id="Layer_5">
	<g>
		<path fill="#636F80" d="M13.604,527.985c-0.013-0.032-0.029-0.059-0.053-0.081c-0.037-0.036-0.084-0.062-0.138-0.063L3.294,525.05
			c-0.067-0.007-0.132,0.019-0.179,0.066c-0.047,0.047-0.07,0.109-0.063,0.178L6.47,536.04c0.011,0.087,0.065,0.158,0.146,0.188
			c0.082,0.03,0.171,0.007,0.232-0.054l0.76-4.524l5.335,5.332c0.086,0.09,0.225,0.09,0.313,0l1.729-1.728
			c0.087-0.089,0.087-0.226,0-0.312l-5.332-5.335l3.899-1.39C13.612,528.157,13.631,528.068,13.604,527.985z"/>
	</g>
</g>
</svg>
