<?xml version="1.0" encoding="utf-8"?>
<!-- Generator: Adobe Illustrator 16.2.0, SVG Export Plug-In . SVG Version: 6.00 Build 0)  -->
<!DOCTYPE svg PUBLIC "-//W3C//DTD SVG 1.1//EN" "http://www.w3.org/Graphics/SVG/1.1/DTD/svg11.dtd">
<svg version="1.1" id="Слой_1" xmlns="http://www.w3.org/2000/svg" xmlns:xlink="http://www.w3.org/1999/xlink" x="0px" y="0px"
	 width="16px" height="16px" viewBox="0 0 16 16" enable-background="new 0 0 16 16" xml:space="preserve">
<path fill="#636E7E" d="M8,0l0.054,0.5L8,1C7.708,1,7.42,1.018,7.137,1.052L7.016,0.06C7.338,0.021,7.667,0,8,0 M9.1,0.075
	c0.344,0.047,0.688,0.118,1.022,0.21L9.86,1.249C9.568,1.17,9.269,1.106,8.963,1.066L9.1,0.075z M5.989,0.255l0.25,0.968
	C5.941,1.3,5.652,1.396,5.372,1.509L4.995,0.583C5.318,0.452,5.652,0.342,5.989,0.255 M11.111,0.628
	c0.319,0.134,0.635,0.292,0.934,0.469L11.539,1.96c-0.262-0.154-0.535-0.291-0.816-0.411L11.111,0.628z M4.053,1.038l0.494,0.87
	C4.281,2.059,4.026,2.227,3.784,2.41L3.18,1.613C3.457,1.404,3.751,1.211,4.053,1.038 M12.912,1.684
	c0.273,0.214,0.534,0.445,0.778,0.693l-0.711,0.702c-0.215-0.218-0.444-0.42-0.685-0.608L12.912,1.684z M2.39,2.297l0.701,0.712
	C2.875,3.223,2.671,3.45,2.484,3.691L1.695,3.075C1.909,2.802,2.142,2.54,2.39,2.297 M14.375,3.166
	c0.211,0.278,0.404,0.571,0.576,0.872l-0.869,0.495c-0.151-0.266-0.319-0.521-0.504-0.763L14.375,3.166z M1.106,3.938l0.861,0.508
	C1.813,4.708,1.675,4.979,1.555,5.262L0.635,4.87C0.772,4.549,0.93,4.237,1.106,3.938 M15.41,4.977
	c0.131,0.321,0.242,0.655,0.33,0.994l-0.967,0.252c-0.078-0.298-0.174-0.588-0.289-0.866L15.41,4.977z M0.291,5.856l0.962,0.269
	c-0.081,0.292-0.142,0.59-0.186,0.896l-0.99-0.143C0.127,6.529,0.199,6.185,0.291,5.856 M15.937,6.996C15.979,7.325,16,7.66,16,8
	l-1,0.036V8c0-0.298-0.019-0.591-0.055-0.879L15.937,6.996z M1.001,7.927L1,8.021c0,0.288,0.02,0.593,0.059,0.893l-0.992,0.13
	C0.022,8.7,0,8.35,0,8L1.001,7.927z M14.937,8.945l0.99,0.137c-0.047,0.345-0.117,0.689-0.208,1.022l-0.966-0.263
	C14.833,9.55,14.895,9.252,14.937,8.945 M1.236,9.81c0.079,0.297,0.178,0.587,0.293,0.866l-0.924,0.382
	c-0.134-0.322-0.246-0.655-0.336-0.991L1.236,9.81z M14.458,10.706l0.92,0.387c-0.133,0.32-0.291,0.634-0.465,0.936l-0.865-0.505
	C14.203,11.262,14.339,10.989,14.458,10.706 M1.933,11.496c0.153,0.265,0.323,0.519,0.508,0.761l-0.793,0.608
	c-0.211-0.275-0.406-0.567-0.58-0.869L1.933,11.496z M13.537,12.281l0.791,0.612c-0.211,0.274-0.445,0.536-0.691,0.782l-0.705-0.709
	C13.147,12.753,13.35,12.522,13.537,12.281 M3.045,12.945c0.215,0.216,0.445,0.418,0.687,0.604l-0.611,0.792
	c-0.277-0.214-0.54-0.445-0.785-0.69L3.045,12.945z M12.242,13.569l0.607,0.794c-0.275,0.21-0.568,0.404-0.87,0.578l-0.498-0.867
	C11.746,13.922,12.001,13.753,12.242,13.569 M4.491,14.058c0.262,0.153,0.536,0.288,0.818,0.407l-0.385,0.922
	c-0.32-0.133-0.635-0.289-0.935-0.464L4.491,14.058z M10.66,14.477l0.379,0.926c-0.318,0.132-0.652,0.243-0.99,0.333l-0.256-0.968
	C10.089,14.689,10.378,14.592,10.66,14.477 M6.173,14.76c0.292,0.078,0.591,0.139,0.897,0.18l-0.131,0.99
	c-0.346-0.046-0.691-0.115-1.025-0.205L6.173,14.76z M8.896,14.943l0.127,0.991C8.687,15.978,8.346,16,8,16l-0.018-1l0.038,0.001
	C8.303,15,8.603,14.98,8.896,14.943"/>
<polygon fill="#636E7E" points="4,8 8,4 12,8 "/>
<rect x="7" y="8" fill="#636E7E" width="2" height="4"/>
</svg>
