<?xml version="1.0" encoding="utf-8"?>
<!-- Generator: Adobe Illustrator 16.2.0, SVG Export Plug-In . SVG Version: 6.00 Build 0)  -->
<!DOCTYPE svg PUBLIC "-//W3C//DTD SVG 1.1//EN" "http://www.w3.org/Graphics/SVG/1.1/DTD/svg11.dtd">
<svg version="1.1" id="Слой_1" xmlns="http://www.w3.org/2000/svg" xmlns:xlink="http://www.w3.org/1999/xlink" x="0px" y="0px"
	 width="16.5px" height="15.925px" viewBox="0 0 16.5 15.925" enable-background="new 0 0 16.5 15.925" xml:space="preserve">
<path fill="#636E7E" d="M8.499,16l-0.054-0.5L8.499,15c0.293,0,0.58-0.018,0.863-0.052l0.121,0.992C9.161,15.979,8.833,16,8.499,16
	 M7.399,15.925c-0.344-0.047-0.688-0.118-1.023-0.21l0.263-0.964c0.292,0.079,0.591,0.143,0.897,0.184L7.399,15.925z M10.51,15.745
	l-0.25-0.968c0.298-0.077,0.587-0.174,0.866-0.286l0.377,0.926C11.181,15.548,10.847,15.658,10.51,15.745 M5.388,15.372
	c-0.319-0.134-0.634-0.292-0.933-0.469L4.96,14.04c0.262,0.154,0.535,0.291,0.817,0.411L5.388,15.372z M12.446,14.962l-0.493-0.87
	c0.266-0.15,0.521-0.318,0.762-0.502l0.604,0.797C13.042,14.596,12.748,14.789,12.446,14.962 M3.587,14.316
	c-0.273-0.214-0.534-0.445-0.778-0.693l0.711-0.702c0.215,0.218,0.444,0.42,0.685,0.608L3.587,14.316z M14.109,13.703l-0.701-0.712
	c0.217-0.214,0.42-0.441,0.607-0.682l0.789,0.615C14.589,13.198,14.357,13.46,14.109,13.703 M2.124,12.834
	c-0.21-0.277-0.404-0.57-0.576-0.872l0.869-0.495c0.152,0.266,0.32,0.521,0.504,0.763L2.124,12.834z M15.393,12.062l-0.86-0.508
	c0.153-0.262,0.291-0.533,0.411-0.815l0.92,0.392C15.727,11.451,15.569,11.764,15.393,12.062 M1.089,11.023
	c-0.131-0.321-0.242-0.655-0.33-0.994l0.967-0.252c0.078,0.298,0.174,0.588,0.289,0.866L1.089,11.023z M16.208,10.144l-0.963-0.269
	c0.082-0.292,0.143-0.59,0.187-0.896l0.989,0.143C16.373,9.471,16.3,9.815,16.208,10.144 M0.562,9.004
	C0.52,8.675,0.499,8.34,0.499,8l1-0.036V8c0,0.298,0.019,0.591,0.055,0.879L0.562,9.004z M15.498,8.073L15.5,7.979
	c0-0.288-0.021-0.593-0.06-0.893l0.992-0.13C16.477,7.3,16.5,7.65,16.5,8L15.498,8.073z M1.562,7.055l-0.99-0.137
	C0.619,6.573,0.689,6.229,0.78,5.896l0.965,0.263C1.666,6.45,1.604,6.748,1.562,7.055 M15.263,6.19
	c-0.079-0.297-0.178-0.587-0.293-0.866l0.924-0.382c0.134,0.323,0.246,0.655,0.336,0.991L15.263,6.19z M2.042,5.294L1.12,4.907
	c0.133-0.32,0.291-0.634,0.466-0.935L2.45,4.477C2.296,4.738,2.16,5.011,2.042,5.294 M14.566,4.504
	c-0.152-0.265-0.322-0.519-0.508-0.761l0.793-0.608c0.211,0.275,0.406,0.567,0.58,0.869L14.566,4.504z M2.962,3.719L2.171,3.106
	C2.383,2.832,2.616,2.57,2.863,2.324l0.705,0.709C3.352,3.247,3.149,3.478,2.962,3.719 M13.455,3.055
	c-0.216-0.216-0.445-0.418-0.688-0.604l0.611-0.792c0.276,0.214,0.539,0.445,0.785,0.69L13.455,3.055z M4.257,2.432L3.65,1.637
	c0.276-0.21,0.568-0.404,0.87-0.578l0.498,0.867C4.753,2.078,4.498,2.247,4.257,2.432 M12.007,1.942
	c-0.262-0.153-0.535-0.288-0.817-0.407l0.386-0.922c0.319,0.133,0.635,0.289,0.935,0.464L12.007,1.942z M5.84,1.523L5.46,0.598
	c0.319-0.132,0.653-0.243,0.991-0.332l0.256,0.967C6.41,1.311,6.12,1.408,5.84,1.523 M10.326,1.24
	c-0.291-0.078-0.591-0.139-0.896-0.18L9.56,0.07c0.346,0.046,0.691,0.115,1.025,0.205L10.326,1.24z M7.603,1.057L7.476,0.065
	C7.812,0.022,8.153,0,8.499,0l0.018,1L8.479,0.999C8.196,1,7.896,1.02,7.603,1.057"/>
<polygon fill="#636E7E" points="12.5,8 8.5,12 4.5,8 "/>
<rect x="7.5" y="4" fill="#636E7E" width="2" height="4"/>
</svg>
