<?xml version="1.0" encoding="utf-8"?>
<!-- Generator: Adobe Illustrator 16.2.0, SVG Export Plug-In . SVG Version: 6.00 Build 0)  -->
<!DOCTYPE svg PUBLIC "-//W3C//DTD SVG 1.1//EN" "http://www.w3.org/Graphics/SVG/1.1/DTD/svg11.dtd">
<svg version="1.1" id="Слой_1" xmlns="http://www.w3.org/2000/svg" xmlns:xlink="http://www.w3.org/1999/xlink" x="0px" y="0px"
	 width="579.786px" height="590.536px" viewBox="0 0 579.786 590.536" enable-background="new 0 0 579.786 590.536"
	 xml:space="preserve">
<path fill-rule="evenodd" clip-rule="evenodd" fill="#73ACD9" d="M81.043,303.377c0-92.699,0.022-185.397-0.042-278.097
	c-0.005-7.147,1.25-13.478,6.692-18.74c4.355-4.212,9.309-6.283,15.209-6.482c1.498-0.051,2.999-0.012,4.5-0.012
	c121.799,0,243.597,0.018,365.396-0.046c7.439-0.003,14.115,1.092,19.572,6.881c3.918,4.157,6.002,8.81,6.287,14.381
	c0.108,2.095,0.021,4.199,0.021,6.299c0,183.897,0,367.795,0,551.691c0,11.242-0.002,11.244-11.51,11.244
	c-131.998,0-263.997,0.012-395.995-0.021c-11.502-0.002-10.105,1.473-10.11-9.902C81.027,488.174,81.043,395.775,81.043,303.377z"/>
<path fill-rule="evenodd" clip-rule="evenodd" fill="#ECECEF" d="M61.183,394.16c0,3.68,0,7.359,0,11.039
	c-0.905,0.77-1.892,1.385-3.025,1.785c-1.878,0.662-4.437,0.746-4.437,3.496s2.558,2.834,4.437,3.496
	c1.134,0.4,2.12,1.016,3.025,1.785c0,3.68,0,7.361,0,11.039c-0.905,0.771-1.892,1.385-3.025,1.785
	c-1.878,0.662-4.437,0.746-4.437,3.496c0,2.75,2.558,2.836,4.436,3.496c1.134,0.4,2.121,1.014,3.026,1.785
	c0,0.678,0.001,1.359,0.001,2.039c-4.601,2.158-5.959,7.006-8.81,10.615c-3.082-2.969-7.975-0.082-10.952-3.389
	c-0.099-0.865-0.121-1.734-0.127-2.605c-0.016-1.908,1.683-4.387-0.599-5.568c-2.447-1.266-3.241,1.637-4.6,2.939
	c-0.632,0.607-1.271,1.178-2.083,1.525c-4.223-1.264-7.875-3.4-10.619-6.928c0.392-2.449,3.902-4.588,1.983-6.953
	c-2.577-3.172-4.818,1.725-7.543,1.271c-3.671-1.98-4.559-6.111-6.995-9.045c-0.084-3.201,5.474-4.793,2.94-8.277
	c-2-2.752-5.484,0.836-8.203-0.51c-1.232-3.699-2.463-7.396-3.694-11.096c1.51-2.73,7.186-1.725,6.425-5.686
	c-0.769-3.994-5.585-1.471-8.178-3.059c-0.015-4.285-0.029-8.568-0.043-12.854c2.166-1.811,6.656,0.979,7.32-3.006
	c0.594-3.564-4.012-3.629-5.587-5.945c1.407-3.527,0.934-7.695,3.675-10.768c0.763-0.49,1.607-0.59,2.496-0.59
	c1.919-0.002,4.317,1.689,5.613-0.684c1.565-2.869-1.458-3.953-2.879-5.604c-0.572-0.666-1.117-1.352-1.657-2.041
	c2.411-3.027,4.823-6.057,7.235-9.084c9.042,1.619,9.042,1.619,7.13-7.234c3.028-2.375,6.056-4.75,9.084-7.125
	c0.93,0.742,1.764,1.574,2.551,2.471c1.109,1.266,2.041,3.332,4.195,2.189c1.491-0.789,1.18-2.557,1.075-4.023
	c-0.108-1.506-0.087-2.963,0.961-4.195c2.808-1.885,5.958-2.082,9.193-1.854c2.199,4.604,6.515,6.654,10.695,8.869
	c-0.001,3.076-0.002,6.154-0.003,9.232c-0.905,0.77-1.892,1.385-3.025,1.783c-1.878,0.662-4.437,0.748-4.437,3.498
	s2.558,2.834,4.437,3.496c1.134,0.4,2.12,1.014,3.025,1.783c0,3.68,0,7.361,0,11.041c-0.905,0.77-1.892,1.385-3.025,1.785
	c-1.878,0.66-4.437,0.746-4.437,3.496s2.558,2.834,4.437,3.496c1.134,0.4,2.12,1.014,3.025,1.785c0,3.678,0,7.359,0,11.039
	c-0.905,0.77-1.892,1.385-3.025,1.785c-1.878,0.662-4.437,0.746-4.437,3.496s2.558,2.834,4.437,3.496
	C59.291,392.775,60.277,393.391,61.183,394.16z"/>
<path fill-rule="evenodd" clip-rule="evenodd" fill="#999DAD" d="M0.14,182.917c0-19.176-0.038-38.353,0.022-57.529
	c0.019-6.359,0.132-6.481,6.346-6.51c16.179-0.07,32.361,0.092,48.539-0.098c4.375-0.052,6.33,0.815,6.304,5.849
	c-0.198,39.251-0.171,78.503-0.025,117.753c0.017,4.54-1.105,6.271-5.969,6.19c-16.475-0.277-32.96-0.286-49.435,0.002
	c-5.02,0.088-5.897-1.943-5.858-6.332C0.239,222.469,0.14,202.693,0.14,182.917z"/>
<path fill-rule="evenodd" clip-rule="evenodd" fill="#999DAD" d="M518.584,384.348c0-18.877-0.029-37.754,0.015-56.631
	c0.017-7.146,0.093-7.211,7.44-7.232c15.88-0.043,31.763,0.141,47.639-0.105c4.668-0.074,6.123,1.322,6.103,6.055
	c-0.167,39.25-0.174,78.504,0.005,117.754c0.022,4.834-1.604,6.049-6.172,5.984c-16.177-0.227-32.359-0.043-48.537-0.109
	c-6.328-0.027-6.45-0.141-6.47-6.389C518.545,423.898,518.584,404.123,518.584,384.348z"/>
<path fill-rule="evenodd" clip-rule="evenodd" fill="#999DAD" d="M579.685,183.824c0,19.176,0.03,38.353-0.014,57.529
	c-0.018,6.974-0.099,7.072-6.637,7.096c-16.178,0.059-32.361-0.144-48.537,0.118c-4.817,0.079-6.018-1.609-6-6.19
	c0.151-38.951,0.067-77.903,0.105-116.854c0.007-6.481,0.124-6.613,6.219-6.641c16.479-0.073,32.96,0.114,49.437-0.115
	c4.462-0.063,5.543,1.551,5.507,5.733C579.587,144.272,579.685,164.049,579.685,183.824z"/>
<path fill-rule="evenodd" clip-rule="evenodd" fill="#999DAD" d="M61.183,350.955c-1.75,0.043-3.513-0.049-5.244,0.152
	c-4.184,0.49-5.559-1.213-5.559-5.432s1.375-5.924,5.559-5.434c1.731,0.201,3.496,0.111,5.244,0.152
	C61.183,343.916,61.183,347.436,61.183,350.955z"/>
<path fill-rule="evenodd" clip-rule="evenodd" fill="#999DAD" d="M61.183,372.559c-1.75,0.041-3.513-0.051-5.244,0.15
	c-4.184,0.492-5.559-1.213-5.559-5.432s1.375-5.924,5.559-5.434c1.731,0.203,3.496,0.111,5.244,0.152
	C61.183,365.518,61.183,369.037,61.183,372.559z"/>
<path fill-rule="evenodd" clip-rule="evenodd" fill="#999DAD" d="M61.183,394.16c-1.75,0.041-3.513-0.051-5.244,0.152
	c-4.184,0.49-5.559-1.215-5.559-5.434s1.375-5.924,5.559-5.434c1.731,0.203,3.496,0.111,5.244,0.152
	C61.183,387.119,61.183,390.639,61.183,394.16z"/>
<path fill-rule="evenodd" clip-rule="evenodd" fill="#999DAD" d="M61.183,415.762c-1.75,0.041-3.513-0.051-5.244,0.152
	c-4.184,0.49-5.559-1.215-5.559-5.434s1.375-5.924,5.559-5.434c1.731,0.203,3.496,0.111,5.244,0.152
	C61.183,408.721,61.183,412.24,61.183,415.762z"/>
<path fill-rule="evenodd" clip-rule="evenodd" fill="#999DAD" d="M61.183,437.363c-1.75,0.055-3.513-0.01-5.246,0.189
	c-4.198,0.486-5.546-1.27-5.555-5.467c-0.009-4.217,1.367-5.928,5.555-5.436c1.732,0.201,3.497,0.109,5.246,0.15
	C61.183,430.322,61.183,433.842,61.183,437.363z"/>
<path fill-rule="evenodd" clip-rule="evenodd" fill="#999DAD" d="M61.186,331.162c-0.589,0.037-1.178,0.107-1.767,0.105
	c-8.458-0.047-8.458-0.049-8.929-8.975c0.757-0.408,1.471-1,2.28-1.195c7.483-1.814,8.372-1.107,8.479,6.609
	C61.265,328.857,61.209,330.01,61.186,331.162z"/>
<path fill-rule="evenodd" clip-rule="evenodd" fill="#999DAD" d="M5.577,412.479c1.274-0.711,2.509-1.508,3.832-2.109
	c2.525-1.148,4.876-3.383,7.247,0.822c2.138,3.795,1.389,5.861-2.23,7.627c-1.287,0.627-2.396,1.621-3.585,2.447
	C7.941,419.021,7.451,415.334,5.577,412.479z"/>
<path fill-rule="evenodd" clip-rule="evenodd" fill="#999DAD" d="M1.819,370.834c2.065,0.168,4.279-0.08,6.165,0.592
	c3.702,1.318,3.022,4.689,2.747,7.627c-0.292,3.113-2.816,2.342-4.788,2.576c-2.262,0.27-3.989-0.967-5.856-1.844
	C-0.467,376.582,1.813,373.928,1.819,370.834z"/>
<path fill-rule="evenodd" clip-rule="evenodd" fill="#999DAD" d="M41.297,324.146c0.649,2.236,1.425,4.443,1.918,6.713
	c0.593,2.73-0.786,4.588-3.235,5.541c-2.296,0.895-4.154-0.115-5.131-2.188c-0.979-2.072-2.734-3.924-2.333-6.508
	C35.453,326.543,37.916,324.213,41.297,324.146z"/>
<path fill-rule="evenodd" clip-rule="evenodd" fill="#999DAD" d="M9.067,351.148c2.799-0.506,4.111,2.061,6.199,2.953
	c3.393,1.451,2.381,3.277,1.165,5.602c-1.173,2.24-1.94,4.398-5.173,2.506c-1.742-1.021-3.832-1.447-5.765-2.143
	C5.388,356.574,7.958,354.154,9.067,351.148z"/>
<path fill-rule="evenodd" clip-rule="evenodd" fill="#999DAD" d="M0.129,392.639c1.772-0.973,3.456-1.873,5.648-2.01
	c3.726-0.23,4.566,1.271,5.423,4.801c0.952,3.922-0.838,4.053-3.391,4.998c-1.991,0.738-3.864,1.164-5.927,0.955
	C2.476,398.232,0.215,395.652,0.129,392.639z"/>
<path fill-rule="evenodd" clip-rule="evenodd" fill="#999DAD" d="M34.013,442.92c-0.079-2.486,1.493-4.371,2.491-6.424
	c0.965-1.98,2.473-3.121,4.935-1.699c2.06,1.188,4.819,2.273,3.191,5.014c-1.317,2.215-0.241,5.498-3.209,6.818
	C38.627,446.043,35.976,445.168,34.013,442.92z"/>
<path fill-rule="evenodd" clip-rule="evenodd" fill="#999DAD" d="M23.432,334.83c1.919,0.713,1.893,2.957,3.252,4.121
	c2.732,2.338,2.097,4.303-0.272,6.684c-2.831,2.844-4.614,1.369-6.669-0.77c-1.017-1.059-2.286-1.875-3.44-2.801
	C17.964,338.949,20.446,336.641,23.432,334.83z"/>
<path fill-rule="evenodd" clip-rule="evenodd" fill="#999DAD" d="M17.834,430.311c0.903-1.16,1.695-2.432,2.728-3.463
	c3.729-3.721,5.961-3.42,8.628,1.053c0.424,0.713,1.352,1.449,0.388,2.305c-2.114,1.873-2.421,5.686-6.185,5.787
	C21.171,434.461,19.203,432.678,17.834,430.311z"/>
<path fill-rule="evenodd" clip-rule="evenodd" fill="#999DAD" d="M52.374,450.018c-0.074-1.711,0.169-3.352,0.511-5.057
	c0.958-4.781,3.477-6.77,8.299-5.559c0.02,0.584,0.056,1.17,0.058,1.754C61.266,451.766,61.622,449.994,52.374,450.018z"/>
<path fill-rule="evenodd" clip-rule="evenodd" fill="#FFFFFF" d="M484.278,275.746c0,82.497,0.017,164.995-0.02,247.491
	c-0.006,10.959,1.336,9.633-9.475,9.637c-123.296,0.029-246.591,0.018-369.887,0.018c-1.2,0-2.422-0.15-3.596,0.025
	c-4.909,0.736-6.416-1.605-5.89-6.125c0.207-1.777,0.033-3.596,0.033-5.396c0-162.893,0-325.788,0.001-488.682
	c0-2.399-0.152-4.813,0.044-7.197c0.544-6.61,4.247-10.396,10.762-11.022c2.082-0.2,4.197-0.046,6.297-0.046
	c119.396-0.001,238.791-0.001,358.187-0.001c1.8,0,3.606-0.093,5.398,0.021c5.74,0.366,7.798,2.486,8.122,8.388
	c0.115,2.094,0.022,4.199,0.022,6.299C484.278,111.352,484.278,193.549,484.278,275.746z"/>
<path fill-rule="evenodd" clip-rule="evenodd" fill="#EBECEF" d="M52.096,184.342c0.001,15.595,0.045,31.189-0.021,46.783
	c-0.027,6.364-0.137,6.467-6.372,6.517c-10.496,0.084-20.994-0.111-31.487,0.09c-3.99,0.076-5.107-1.458-5.094-5.27
	c0.108-32.388,0.125-64.776-0.017-97.165c-0.018-4.236,1.172-5.829,5.573-5.723c10.791,0.257,21.593,0.216,32.385,0.016
	c3.991-0.073,5.131,1.458,5.096,5.271C52.009,151.354,52.095,167.849,52.096,184.342z"/>
<path fill-rule="evenodd" clip-rule="evenodd" fill="#EBECEF" d="M527.625,384.824c0-15.295-0.026-30.59,0.011-45.885
	c0.019-7.592,0.073-7.623,7.956-7.656c8.696-0.039,17.394-0.014,26.09-0.008c9.695,0.006,8.854-0.633,8.856,8.574
	c0.008,29.09,0.002,58.18,0.002,87.268c0,2.4-0.181,4.816,0.039,7.195c0.374,4.08-1.623,5.072-5.308,5.021
	c-10.794-0.148-21.597-0.252-32.385,0.039c-4.71,0.127-5.364-2.016-5.325-5.967C527.716,417.213,527.625,401.018,527.625,384.824z"
	/>
<path fill-rule="evenodd" clip-rule="evenodd" fill="#EBECEF" d="M570.541,184.574c0,15.294,0.035,30.589-0.016,45.883
	c-0.023,7.113-0.099,7.16-7.51,7.198c-9.597,0.048-19.193,0.069-28.789-0.009c-6.429-0.052-6.536-0.137-6.578-6.314
	c-0.079-11.696-0.022-23.392-0.022-35.087c0-19.493,0.009-38.986-0.004-58.479c-0.007-8.661-0.529-8.124,8.43-8.111
	c8.995,0.012,17.992-0.036,26.99,0.014c7.387,0.041,7.462,0.086,7.483,7.224C570.574,152.785,570.541,168.68,570.541,184.574z"/>
<path fill-rule="evenodd" clip-rule="evenodd" fill="#FEFEFE" d="M229.683,360.236c-8.207-0.186-12.271-4.623-11.963-13.061
	c0.294-8.033,5.009-12.494,13.06-12.357c8.21,0.139,12.622,5.086,12.398,13.902C242.977,356.631,238.518,360.438,229.683,360.236z"
	/>
<path fill-rule="evenodd" clip-rule="evenodd" fill="#FAFAFB" d="M397.666,189.066c-5.815-0.076-8.709-2.957-8.8-8.761
	c-0.101-6.406,2.813-9.332,9.209-9.248c5.815,0.076,8.71,2.958,8.8,8.763C406.974,186.223,404.06,189.149,397.666,189.066z"/>
<g>
	<g>
		<path fill="#EBECEF" d="M27.252,198.613c3.224,0,3.224-5,0-5S24.028,198.613,27.252,198.613L27.252,198.613z"/>
	</g>
</g>
<g>
	<g>
		<path fill="#EBECEF" d="M28.252,183.613c3.224,0,3.224-5,0-5S25.028,183.613,28.252,183.613L28.252,183.613z"/>
	</g>
</g>
<g>
	<polygon fill="#E39444" points="278.031,293.472 207.573,179.09 193.902,179.09 267.514,298.809 267.514,396.957 278.031,393.365 	
		"/>
	<path fill="#E39444" d="M328.087,285.301c24.891,12.041,54.492,0.898,66.115-24.885c9.769-21.67,3.858-47.454-14.271-62.262
		L391.5,179.09h-14.196l-67.725,114.381v88.997l10.516-3.594v-79.959L328.087,285.301z M372.675,210.899
		c14.62,13.568,15.855,36.846,2.757,51.992c-9.932,11.485-25.724,15.343-39.563,9.665L372.675,210.899z"/>
	<polygon fill="#73ACD9" points="278.031,393.365 309.579,382.469 309.579,293.472 377.303,179.09 207.573,179.09 278.031,293.472 	
		"/>
</g>
</svg>
