<?xml version="1.0" encoding="utf-8"?>
<!-- Generator: Adobe Illustrator 16.2.0, SVG Export Plug-In . SVG Version: 6.00 Build 0)  -->
<!DOCTYPE svg PUBLIC "-//W3C//DTD SVG 1.1//EN" "http://www.w3.org/Graphics/SVG/1.1/DTD/svg11.dtd">
<svg version="1.1" id="Слой_1" xmlns="http://www.w3.org/2000/svg" xmlns:xlink="http://www.w3.org/1999/xlink" x="0px" y="0px"
	 width="28px" height="16px" viewBox="0 0 28 16" enable-background="new 0 0 28 16" xml:space="preserve">
<path fill="#C4CBD4" d="M8,16h1.625h8.75H20c4.418,0,8-3.582,8-8s-3.582-8-8-8h-1.625h-8.75H8C3.582,0,0,3.582,0,8S3.582,16,8,16z"
	/>
<path fill="#606F7E" d="M16,0h4c4.418,0,8,3.582,8,8l0,0c0,4.418-3.582,8-8,8h-4c-4.418,0-8-3.582-8-8l0,0C8,3.582,11.582,0,16,0z"
	/>
<rect x="13" y="11" fill="#FFFFFF" width="10" height="2"/>
<rect x="13" y="7" fill="#FFFFFF" width="7" height="2"/>
<rect x="13" y="3" fill="#FFFFFF" width="4" height="2"/>
</svg>
