<?xml version="1.0" encoding="utf-8"?>
<!-- Generator: Adobe Illustrator 16.2.0, SVG Export Plug-In . SVG Version: 6.00 Build 0)  -->
<!DOCTYPE svg PUBLIC "-//W3C//DTD SVG 1.1//EN" "http://www.w3.org/Graphics/SVG/1.1/DTD/svg11.dtd">
<svg version="1.1" id="Layer_1" xmlns="http://www.w3.org/2000/svg" xmlns:xlink="http://www.w3.org/1999/xlink" x="0px" y="0px"
	 width="18px" height="18px" viewBox="-2.5 -20.125 18 18" enable-background="new -2.5 -20.125 18 18" xml:space="preserve">
<path fill="#71B1E4" d="M13.75-5.277h-0.82c-5.212-2.178-4.681-5.748-4.117-7.34l3.791-3.783l-0.707-0.705l-3.867,3.858
	c-3.624,0.972-5.875,0.045-7.279-2.995v-2.008h-1v12.973v0.998h1h11.969c0.023,0.01,0.043,0.021,0.065,0.029l0.012-0.029h0.954
	V-5.277z M5.559-11.882c0.381,0,0.784-0.038,1.196-0.093l-1.702,1.697c-2.118,0.756-3.46,0.319-4.303-1.416v-2.58
	C1.931-12.68,3.52-11.882,5.559-11.882z M4.383-8.197c0.006,0.963,0.369,1.991,1.42,2.92H1.457L4.383-8.197z M0.75-5.982v-3.963
	c0.674,0.682,1.516,1.028,2.525,1.028c0.143,0,0.291-0.013,0.44-0.024L0.75-5.982z M7.518-5.277l0.006-0.012
	C5.617-6.341,5.009-7.655,5.598-9.407c0.014-0.006,0.027-0.009,0.043-0.015L5.632-9.443l1.878-1.875
	C7.335-9.582,7.766-7.15,10.738-5.277H7.518z"/>
</svg>
