<?xml version="1.0" encoding="utf-8"?>
<!-- Generator: Adobe Illustrator 16.2.0, SVG Export Plug-In . SVG Version: 6.00 Build 0)  -->
<!DOCTYPE svg PUBLIC "-//W3C//DTD SVG 1.1//EN" "http://www.w3.org/Graphics/SVG/1.1/DTD/svg11.dtd">
<svg version="1.1" id="Layer_1" xmlns="http://www.w3.org/2000/svg" xmlns:xlink="http://www.w3.org/1999/xlink" x="0px" y="0px"
	 width="18px" height="18.375px" viewBox="-2.5 -38.5 18 18.375" enable-background="new -2.5 -38.5 18 18.375"
	 xml:space="preserve">
<g>
	<path fill="#71B1E4" d="M8.34-24.023c-0.953,1.183-1.785,1.773-2.494,1.773c-0.73,0-1.097-0.288-1.097-0.865
		c0-0.251,0.229-1.24,0.687-2.971c0.555-2.128,0.832-3.292,0.832-3.491c0-0.214-0.133-0.321-0.398-0.321
		c-0.223,0-0.61,0.342-1.164,1.021c-0.014,0.022-0.037,0.033-0.066,0.033c-0.075,0-0.154-0.048-0.238-0.145
		c-0.085-0.097-0.128-0.186-0.128-0.267c0-0.036,0.008-0.063,0.022-0.077C5.264-30.53,6.1-31.129,6.8-31.129
		c0.724,0,1.087,0.303,1.087,0.909c0,0.354-0.223,1.341-0.666,2.959c-0.554,2.063-0.83,3.218-0.83,3.47
		c0,0.214,0.125,0.321,0.377,0.321c0.213,0,0.608-0.332,1.186-0.997C7.968-24.489,7.986-24.5,8.009-24.5
		c0.066,0,0.144,0.047,0.228,0.145c0.084,0.097,0.127,0.181,0.127,0.254C8.361-24.064,8.354-24.038,8.34-24.023z"/>
	<path fill="#F7931E" d="M8.75-35.186c0,0.34-0.146,0.654-0.438,0.947c-0.293,0.291-0.601,0.438-0.926,0.438
		c-0.354,0-0.645-0.104-0.871-0.311c-0.225-0.207-0.336-0.477-0.336-0.81c0-0.324,0.146-0.629,0.442-0.909
		c0.296-0.279,0.603-0.42,0.92-0.42C8.348-36.25,8.75-35.896,8.75-35.186z"/>
</g>
</svg>
