<?xml version="1.0" encoding="UTF-8"?>
<!-- Generator: Adobe Illustrator 16.2.0, SVG Export Plug-In . SVG Version: 6.00 Build 0)  -->
<!DOCTYPE svg PUBLIC "-//W3C//DTD SVG 1.1//EN" "http://www.w3.org/Graphics/SVG/1.1/DTD/svg11.dtd">
<svg version="1.1" id="Layer_1" xmlns="http://www.w3.org/2000/svg" xmlns:xlink="http://www.w3.org/1999/xlink" x="0px" y="0px" width="18px" height="18px" viewBox="-2.5 51.875 18 18" enable-background="new -2.5 51.875 18 18" xml:space="preserve">
<polygon fill="#F7931E" points="11.75,56.75 14.75,60.75 11.75,64.75 "/>
<rect x="8.75" y="59.75" fill="#F7931E" width="3" height="2"/>
<g>
	<path fill="#71B1E4" d="M3.161,55.75c0.338,0.373,0.592,0.746,0.765,1.119c0.124,0.259,0.326,0.938,0.609,2.035l0.908-1.422   c0.242-0.344,0.535-0.674,0.879-0.983c0.344-0.313,0.648-0.526,0.908-0.642c0.166-0.072,0.348-0.107,0.549-0.107   c0.295,0,0.531,0.083,0.707,0.248c0.175,0.164,0.264,0.365,0.264,0.604c0,0.271-0.052,0.459-0.154,0.56   c-0.193,0.18-0.414,0.271-0.662,0.271c-0.145,0-0.3-0.033-0.465-0.099c-0.324-0.115-0.541-0.172-0.65-0.172   c-0.166,0-0.362,0.1-0.59,0.301c-0.428,0.374-0.936,1.097-1.528,2.164l0.847,3.703c0.13,0.567,0.242,0.905,0.331,1.017   c0.089,0.112,0.181,0.168,0.269,0.168c0.146,0,0.313-0.082,0.506-0.248c0.38-0.33,0.703-0.761,0.972-1.291l0.36,0.192   c-0.434,0.849-0.985,1.551-1.652,2.11c-0.377,0.314-0.699,0.473-0.96,0.473c-0.385,0-0.692-0.227-0.919-0.678   c-0.145-0.28-0.444-1.486-0.899-3.617C2.48,63.4,1.619,64.652,0.971,65.212C0.55,65.57,0.145,65.75-0.248,65.75   c-0.276,0-0.527-0.104-0.754-0.313c-0.165-0.158-0.248-0.369-0.248-0.635c0-0.236,0.077-0.434,0.227-0.592   c0.151-0.158,0.337-0.236,0.558-0.236c0.221,0,0.455,0.115,0.703,0.344c0.18,0.164,0.315,0.248,0.413,0.248   c0.083,0,0.189-0.058,0.32-0.172c0.323-0.272,0.764-0.86,1.322-1.766c0.558-0.904,0.922-1.559,1.095-1.959   c-0.427-1.744-0.657-2.667-0.692-2.768c-0.159-0.465-0.366-0.797-0.62-0.99c-0.254-0.193-0.63-0.29-1.126-0.29   c-0.158,0-0.341,0.007-0.547,0.021v-0.388L3.161,55.75z"/>
</g>
</svg>