<?xml version="1.0" encoding="utf-8"?>
<!-- Generator: Adobe Illustrator 20.1.0, SVG Export Plug-In . SVG Version: 6.00 Build 0)  -->
<!DOCTYPE svg PUBLIC "-//W3C//DTD SVG 1.1//EN" "http://www.w3.org/Graphics/SVG/1.1/DTD/svg11.dtd" [
	<!ENTITY st0 "fill:#71B1E4;">
	<!ENTITY st1 "fill:#F7931E;">
]>
<svg version="1.1" id="Слой_1" xmlns="http://www.w3.org/2000/svg" xmlns:xlink="http://www.w3.org/1999/xlink" x="0px" y="0px"
	 width="18px" height="18px" viewBox="0 0 18 18" style="enable-background:new 0 0 18 18;" xml:space="preserve">
<g>
	<path style="&st1;" d="M13.516,3.948C12.155,3.948,11,5.041,11,6.983c0,1.889,1.092,2.965,2.5,2.965c1.266,0,2.5-0.885,2.5-3.034
		C16,5.11,15.05,3.948,13.516,3.948z M13.5,9.081c-0.744,0-1.361-0.885-1.361-2.098c0-1.041,0.427-2.168,1.361-2.168
		c0.981,0,1.361,1.128,1.361,2.133C14.861,8.196,14.339,9.081,13.5,9.081z"/>
	<g>
		<path style="&st0;" d="M2,13.948v-10h1.534l2.717,4.938c0.623,1.185,1.183,2.292,1.631,3.338l0.016-0.015
			C7.785,10.81,7.753,9.64,7.753,8.055V3.948H9v10H7.578L4.845,8.979c-0.608-1.122-1.167-2.261-1.646-3.4L3.15,5.594
			C3.214,6.887,3.247,8.04,3.247,9.809v4.139H2z"/>
	</g>
	<rect x="11" y="10.948" style="&st1;" width="5" height="1"/>
</g>
</svg>
