<?xml version="1.0" encoding="utf-8"?>
<!-- Generator: Adobe Illustrator 20.1.0, SVG Export Plug-In . SVG Version: 6.00 Build 0)  -->
<!DOCTYPE svg PUBLIC "-//W3C//DTD SVG 1.1//EN" "http://www.w3.org/Graphics/SVG/1.1/DTD/svg11.dtd" [
	<!ENTITY st0 "fill:#71B1E4;">
	<!ENTITY st1 "fill:#F7931E;">
]>
<svg version="1.1" id="Слой_1" xmlns="http://www.w3.org/2000/svg" xmlns:xlink="http://www.w3.org/1999/xlink" x="0px" y="0px"
	 width="18px" height="18px" viewBox="0 0 18 18" style="enable-background:new 0 0 18 18;" xml:space="preserve">
<g>
	<path style="&st0;" d="M2.539,7.18c0.197-0.099,0.423-0.188,0.674-0.27c0.216-0.071,0.472-0.135,0.769-0.188
		c0.297-0.054,0.624-0.081,0.984-0.081c0.979,0,1.673,0.207,2.082,0.62c0.408,0.413,0.613,1.043,0.613,1.887v4.61
		c-0.036,0.018-0.086,0.035-0.148,0.054c-0.054,0.018-0.124,0.031-0.209,0.04c-0.085,0.009-0.187,0.014-0.303,0.014
		c-0.108,0-0.202-0.005-0.283-0.014c-0.081-0.009-0.153-0.023-0.216-0.04c-0.072-0.018-0.135-0.036-0.188-0.054l-0.257-0.729
		c-0.152,0.314-0.397,0.556-0.734,0.722C4.985,13.917,4.574,14,4.089,14c-0.646,0-1.156-0.19-1.529-0.573
		C2.187,13.045,2,12.459,2,11.668c0-0.764,0.227-1.312,0.681-1.645c0.454-0.332,1.103-0.498,1.947-0.498
		c0.234,0,0.466,0.007,0.694,0.02c0.229,0.014,0.442,0.029,0.641,0.048V9.296c0-0.171-0.019-0.33-0.054-0.479
		C5.873,8.669,5.81,8.539,5.72,8.427c-0.09-0.112-0.213-0.2-0.37-0.263c-0.157-0.063-0.357-0.095-0.6-0.095
		c-0.225,0-0.44,0.016-0.647,0.047C3.896,8.148,3.712,8.187,3.55,8.231C3.361,8.276,3.187,8.33,3.024,8.393
		C2.971,8.366,2.926,8.33,2.89,8.285c-0.09-0.09-0.171-0.22-0.242-0.391C2.602,7.805,2.57,7.717,2.553,7.632
		C2.534,7.546,2.525,7.468,2.525,7.396C2.517,7.314,2.521,7.243,2.539,7.18z M5.963,10.711c-0.171-0.017-0.351-0.031-0.539-0.04
		c-0.188-0.009-0.382-0.014-0.58-0.014c-0.342,0-0.608,0.076-0.802,0.229c-0.193,0.152-0.29,0.413-0.29,0.781
		c0,0.387,0.086,0.656,0.257,0.809c0.17,0.153,0.408,0.23,0.714,0.23c0.233,0,0.432-0.049,0.593-0.149
		c0.162-0.099,0.29-0.225,0.385-0.377c0.094-0.153,0.161-0.323,0.202-0.513c0.04-0.189,0.061-0.372,0.061-0.553V10.711z"/>
	<path style="&st1;" d="M11.698,7.342c0.188-0.233,0.432-0.409,0.728-0.525c0.297-0.117,0.661-0.176,1.092-0.176
		c0.378,0,0.719,0.063,1.024,0.188c0.306,0.126,0.568,0.333,0.789,0.62c0.22,0.288,0.388,0.667,0.505,1.14
		c0.117,0.472,0.176,1.049,0.176,1.731c0,0.692-0.059,1.271-0.176,1.739c-0.117,0.467-0.285,0.845-0.505,1.132
		c-0.221,0.287-0.483,0.494-0.789,0.62C14.236,13.938,13.896,14,13.518,14c-0.431,0-0.795-0.059-1.092-0.175
		c-0.296-0.117-0.539-0.292-0.728-0.526v0.459c-0.054,0.018-0.126,0.035-0.216,0.054c-0.072,0.018-0.161,0.031-0.269,0.04
		c-0.107,0.009-0.233,0.014-0.377,0.014c-0.145,0-0.267-0.005-0.371-0.014c-0.103-0.009-0.191-0.023-0.263-0.04
		c-0.081-0.018-0.148-0.036-0.202-0.054V3.864c0.054-0.018,0.121-0.036,0.202-0.054c0.071-0.019,0.159-0.031,0.263-0.041
		c0.104-0.009,0.227-0.013,0.371-0.013c0.144,0,0.27,0.004,0.377,0.013c0.108,0.01,0.197,0.022,0.269,0.041
		c0.09,0.018,0.162,0.036,0.216,0.054V7.342z M14.259,10.32c0-0.477-0.031-0.864-0.094-1.166c-0.063-0.301-0.15-0.534-0.263-0.7
		c-0.113-0.167-0.252-0.281-0.418-0.344c-0.167-0.063-0.357-0.095-0.573-0.095c-0.377,0-0.674,0.135-0.89,0.404
		c-0.216,0.27-0.323,0.62-0.323,1.052v1.698c0,0.431,0.108,0.781,0.323,1.051c0.216,0.269,0.513,0.404,0.89,0.404
		c0.216,0,0.406-0.031,0.573-0.094c0.166-0.063,0.305-0.178,0.418-0.344c0.112-0.166,0.199-0.4,0.263-0.701
		C14.227,11.186,14.259,10.797,14.259,10.32z"/>
</g>
</svg>
