<?xml version="1.0" encoding="utf-8"?>
<!-- Generator: Adobe Illustrator 20.1.0, SVG Export Plug-In . SVG Version: 6.00 Build 0)  -->
<!DOCTYPE svg PUBLIC "-//W3C//DTD SVG 1.1//EN" "http://www.w3.org/Graphics/SVG/1.1/DTD/svg11.dtd" [
	<!ENTITY st0 "fill:#FFFFFF;">
]>
<svg version="1.1" id="Слой_1" xmlns="http://www.w3.org/2000/svg" xmlns:xlink="http://www.w3.org/1999/xlink" x="0px" y="0px"
	 width="18px" height="18px" viewBox="0 0 18 18" style="enable-background:new 0 0 18 18;" xml:space="preserve">
<g>
	<path style="&st0;" d="M11.026,6c0.04,0.149,0.066,0.304,0.078,0.463c0.012,0.158,0.014,0.313,0.006,0.464
		c-0.016,0.502-0.102,0.955-0.255,1.355c-0.153,0.402-0.34,0.783-0.558,1.146c-0.219,0.362-0.45,0.726-0.697,1.092
		c-0.247,0.366-0.478,0.762-0.692,1.185c-0.214,0.424-0.39,0.896-0.527,1.416s-0.206,1.121-0.206,1.8
		C7.957,14.973,7.714,15,7.447,15c-0.275,0-0.522-0.027-0.74-0.08c0-0.723,0.059-1.36,0.176-1.912
		c0.118-0.551,0.269-1.043,0.455-1.476c0.185-0.433,0.393-0.82,0.619-1.165c0.226-0.345,0.444-0.67,0.654-0.979
		c0.21-0.309,0.402-0.615,0.577-0.919c0.173-0.306,0.3-0.633,0.381-0.987H5.943C5.919,7.429,5.898,7.362,5.883,7.283
		c-0.017-0.07-0.029-0.149-0.037-0.238C5.838,6.957,5.833,6.852,5.833,6.727c0-0.123,0.005-0.228,0.013-0.317
		c0.008-0.088,0.021-0.164,0.037-0.225C5.898,6.114,5.919,6.053,5.943,6H11.026z"/>
</g>
<rect x="2" y="2" style="&st0;" width="14" height="2"/>
<path style="&st0;" d="M15,5v11H3V5H15 M16,4H2v13h14V4L16,4z"/>
</svg>
