<?xml version="1.0" encoding="utf-8"?>
<!-- Generator: Adobe Illustrator 20.1.0, SVG Export Plug-In . SVG Version: 6.00 Build 0)  -->
<!DOCTYPE svg PUBLIC "-//W3C//DTD SVG 1.1//EN" "http://www.w3.org/Graphics/SVG/1.1/DTD/svg11.dtd" [
	<!ENTITY st0 "fill:#71B1E4;">
	<!ENTITY st1 "fill:#F7931E;">
]>
<svg version="1.1" id="Слой_1" xmlns="http://www.w3.org/2000/svg" xmlns:xlink="http://www.w3.org/1999/xlink" x="0px" y="0px"
	 width="18px" height="18px" viewBox="0 0 18 18" style="enable-background:new 0 0 18 18;" xml:space="preserve">
<g>
	<path style="&st0;" d="M16.314,6.656c-0.56-0.256-1.22-0.404-1.926-0.404c-0.563,0-1.095,0.095-1.571,0.262
		c0.126-0.023,0.256-0.034,0.392-0.034c1.297,0,2.353,1.056,2.353,2.354c0,1.297-1.056,2.353-2.353,2.353
		c-0.84,0-1.461-0.446-2.314-1.368c-0.264-0.284-0.549-0.615-0.871-0.991L9.005,9.851c1.366,1.597,2.436,2.774,4.204,2.774
		c1.083,0,2.061-0.454,2.751-1.184C16.605,10.762,17,9.844,17,8.833C17,8.023,16.747,7.273,16.314,6.656z M4.792,5.041
		c-1.202,0-2.273,0.56-2.969,1.433C1.308,7.121,1,7.94,1,8.833c0,1.081,0.452,2.056,1.178,2.747c0.346,0.08,0.714,0.123,1.096,0.123
		c1.04,0,1.978-0.32,2.646-0.835c-0.358,0.213-0.718,0.318-1.128,0.318c-1.297,0-2.353-1.057-2.353-2.353
		c0-1.283,1.03-2.328,2.307-2.352c0.015-0.001,0.031-0.001,0.046-0.001c1.1,0,1.823,0.767,3.185,2.359l1.019-1.023
		C7.629,6.219,6.56,5.041,4.792,5.041z"/>
	<path style="&st1;" d="M16.314,6.656c-0.56-0.256-1.22-0.404-1.926-0.404c-0.563,0-1.095,0.095-1.571,0.262
		c-0.905,0.165-1.613,0.923-2.793,2.313L9.005,9.851c-1.37,1.614-2.441,2.774-4.213,2.774c-1.013,0-1.934-0.398-2.613-1.045
		c0.346,0.08,0.714,0.123,1.096,0.123c1.04,0,1.978-0.32,2.646-0.835c0.607-0.36,1.211-1.032,2.057-2.029l1.019-1.023
		c1.37-1.615,2.441-2.774,4.213-2.774C14.493,5.041,15.628,5.68,16.314,6.656z"/>
</g>
</svg>
