<?xml version="1.0" encoding="utf-8"?>
<!-- Generator: Adobe Illustrator 20.1.0, SVG Export Plug-In . SVG Version: 6.00 Build 0)  -->
<!DOCTYPE svg PUBLIC "-//W3C//DTD SVG 1.1//EN" "http://www.w3.org/Graphics/SVG/1.1/DTD/svg11.dtd" [
	<!ENTITY st0 "fill:#71B1E4;">
	<!ENTITY st1 "fill:#F7931E;">
]>
<svg version="1.1" id="Слой_1" xmlns="http://www.w3.org/2000/svg" xmlns:xlink="http://www.w3.org/1999/xlink" x="0px" y="0px"
	 width="18px" height="18px" viewBox="0 0 18 18" style="enable-background:new 0 0 18 18;" xml:space="preserve">
<path style="&st0;" d="M12.535,6.165c0,0.568-0.076,1.028-0.227,1.383c-0.15,0.353-0.336,0.655-0.556,0.904
	c-0.22,0.25-0.464,0.46-0.731,0.634c-0.267,0.174-0.51,0.36-0.731,0.558c-0.221,0.197-0.406,0.426-0.556,0.686
	c-0.151,0.261-0.227,0.595-0.227,1.001c-0.047,0.033-0.11,0.068-0.191,0.104c-0.069,0.023-0.156,0.045-0.261,0.069
	c-0.103,0.022-0.226,0.033-0.364,0.033c-0.14,0-0.261-0.011-0.366-0.033c-0.104-0.024-0.198-0.047-0.278-0.069
	c-0.093-0.036-0.169-0.071-0.227-0.104c0-0.605,0.062-1.093,0.183-1.47C8.125,9.484,8.275,9.173,8.456,8.93
	c0.18-0.243,0.377-0.445,0.592-0.608c0.214-0.162,0.411-0.332,0.591-0.513c0.179-0.181,0.33-0.386,0.453-0.617
	c0.121-0.232,0.183-0.545,0.183-0.939c0-0.302-0.046-0.548-0.14-0.739c-0.093-0.191-0.22-0.339-0.383-0.443
	C9.59,4.965,9.403,4.893,9.195,4.852C8.986,4.811,8.761,4.791,8.517,4.791c-0.302,0-0.563,0.02-0.784,0.062
	C7.514,4.893,7.323,4.941,7.16,5C6.975,5.058,6.817,5.121,6.69,5.191C6.168,4.809,5.943,4.286,6.012,3.626
	c0.197-0.115,0.441-0.22,0.731-0.313c0.243-0.081,0.542-0.153,0.896-0.217C7.992,3.031,8.395,3,8.848,3
	c0.486,0,0.954,0.055,1.4,0.165c0.446,0.109,0.84,0.29,1.182,0.539c0.343,0.25,0.613,0.573,0.809,0.975
	C12.436,5.078,12.535,5.573,12.535,6.165z"/>
<path style="&st1;" d="M9.769,14.861c-0.069,0.022-0.163,0.046-0.278,0.069c-0.092,0.022-0.208,0.04-0.348,0.052
	C9.004,14.994,8.848,15,8.673,15c-0.198,0-0.363-0.006-0.496-0.018c-0.132-0.012-0.246-0.029-0.339-0.052
	c-0.104-0.024-0.191-0.047-0.261-0.069V12.86c0.069-0.023,0.156-0.045,0.261-0.069c0.093-0.022,0.207-0.04,0.339-0.052
	c0.133-0.012,0.298-0.018,0.496-0.018c0.174,0,0.331,0.006,0.469,0.018c0.14,0.012,0.256,0.029,0.348,0.052
	c0.116,0.024,0.209,0.047,0.278,0.069V14.861z"/>
</svg>
