<?xml version="1.0" encoding="utf-8"?>
<!-- Generator: Adobe Illustrator 20.1.0, SVG Export Plug-In . SVG Version: 6.00 Build 0)  -->
<!DOCTYPE svg PUBLIC "-//W3C//DTD SVG 1.1//EN" "http://www.w3.org/Graphics/SVG/1.1/DTD/svg11.dtd" [
	<!ENTITY st0 "fill:#FFFFFF;">
]>
<svg version="1.1" id="Слой_1" xmlns="http://www.w3.org/2000/svg" xmlns:xlink="http://www.w3.org/1999/xlink" x="0px" y="0px"
	 width="18px" height="18px" viewBox="0 0 18 18" style="enable-background:new 0 0 18 18;" xml:space="preserve">
<path style="&st0;" d="M11.486,6.165c0,0.568-0.075,1.028-0.227,1.383c-0.149,0.353-0.336,0.655-0.556,0.904
	c-0.221,0.25-0.464,0.46-0.73,0.634C9.706,9.26,9.463,9.446,9.242,9.644c-0.221,0.197-0.405,0.426-0.556,0.686
	c-0.151,0.261-0.226,0.595-0.226,1.001c-0.047,0.033-0.109,0.068-0.191,0.104c-0.069,0.023-0.156,0.045-0.261,0.069
	c-0.103,0.022-0.226,0.033-0.364,0.033c-0.14,0-0.261-0.011-0.365-0.033c-0.104-0.024-0.198-0.047-0.279-0.069
	c-0.093-0.036-0.168-0.071-0.227-0.104c0-0.605,0.062-1.093,0.183-1.47C7.077,9.484,7.227,9.173,7.407,8.93
	C7.588,8.686,7.784,8.484,8,8.321c0.214-0.162,0.411-0.332,0.591-0.513c0.179-0.181,0.33-0.386,0.452-0.617
	c0.121-0.232,0.184-0.545,0.184-0.939c0-0.302-0.047-0.548-0.141-0.739C8.993,5.321,8.865,5.174,8.703,5.069
	C8.542,4.965,8.356,4.893,8.148,4.852C7.938,4.811,7.713,4.791,7.47,4.791c-0.303,0-0.563,0.02-0.784,0.062
	C6.467,4.893,6.274,4.941,6.112,5c-0.186,0.058-0.343,0.121-0.47,0.191C5.121,4.809,4.896,4.286,4.965,3.626
	c0.196-0.115,0.441-0.22,0.731-0.313c0.243-0.081,0.542-0.153,0.895-0.217C6.944,3.031,7.348,3,7.8,3
	c0.486,0,0.954,0.055,1.399,0.165c0.446,0.109,0.841,0.29,1.183,0.539c0.343,0.25,0.612,0.573,0.809,0.975
	C11.389,5.078,11.486,5.573,11.486,6.165z"/>
<path style="&st0;" d="M8.721,14.861c-0.069,0.022-0.162,0.046-0.278,0.069c-0.092,0.022-0.208,0.04-0.348,0.052
	C7.956,14.994,7.8,15,7.626,15c-0.198,0-0.363-0.006-0.497-0.018c-0.132-0.012-0.245-0.029-0.339-0.052
	c-0.104-0.024-0.191-0.047-0.261-0.069V12.86c0.069-0.023,0.156-0.045,0.261-0.069c0.094-0.022,0.207-0.04,0.339-0.052
	c0.134-0.012,0.299-0.018,0.497-0.018c0.174,0,0.33,0.006,0.469,0.018c0.14,0.012,0.256,0.029,0.348,0.052
	c0.116,0.024,0.209,0.047,0.278,0.069V14.861z"/>
</svg>
