<?xml version="1.0" encoding="utf-8"?>
<!-- Generator: Adobe Illustrator 20.1.0, SVG Export Plug-In . SVG Version: 6.00 Build 0)  -->
<!DOCTYPE svg PUBLIC "-//W3C//DTD SVG 1.1//EN" "http://www.w3.org/Graphics/SVG/1.1/DTD/svg11.dtd" [
	<!ENTITY st0 "fill:#808080;">
	<!ENTITY st1 "fill:#D9D9D9;">
	<!ENTITY st2 "fill:#8C8C8C;">
	<!ENTITY st3 "fill:#BFBFBF;">
]>
<svg version="1.1" id="Слой_1" xmlns="http://www.w3.org/2000/svg" xmlns:xlink="http://www.w3.org/1999/xlink" x="0px" y="0px"
	 width="18px" height="18px" viewBox="0 0 18 18" style="enable-background:new 0 0 18 18;" xml:space="preserve">
<g>
	<path style="&st1;" d="M13.516,4C12.155,4,11,5.093,11,7.035C11,8.924,12.092,10,13.5,10c1.266,0,2.5-0.885,2.5-3.034
		C16,5.162,15.05,4,13.516,4z M13.5,9.133c-0.744,0-1.361-0.885-1.361-2.098c0-1.04,0.427-2.168,1.361-2.168
		c0.981,0,1.361,1.128,1.361,2.133C14.861,8.248,14.339,9.133,13.5,9.133z"/>
	<g>
		<path style="&st0;" d="M2,14V4h1.534l2.717,4.938c0.623,1.185,1.183,2.292,1.631,3.338l0.016-0.015
			c-0.112-1.399-0.144-2.569-0.144-4.154V4H9v10H7.578L4.845,9.031c-0.608-1.122-1.167-2.261-1.646-3.4L3.15,5.646
			c0.064,1.293,0.096,2.446,0.096,4.215V14H2z"/>
	</g>
	<rect x="11" y="11" style="&st1;" width="5" height="1"/>
</g>
</svg>
