<?xml version="1.0" encoding="utf-8"?>
<!-- Generator: Adobe Illustrator 20.1.0, SVG Export Plug-In . SVG Version: 6.00 Build 0)  -->
<!DOCTYPE svg PUBLIC "-//W3C//DTD SVG 1.1//EN" "http://www.w3.org/Graphics/SVG/1.1/DTD/svg11.dtd" [
	<!ENTITY st0 "fill:#71B1E4;">
	<!ENTITY st1 "fill:#F7931E;">
]>
<svg version="1.1" id="Слой_1" xmlns="http://www.w3.org/2000/svg" xmlns:xlink="http://www.w3.org/1999/xlink" x="0px" y="0px"
	 width="18px" height="18px" viewBox="0 0 18 18" style="enable-background:new 0 0 18 18;" xml:space="preserve">
<path style="&st0;" d="M2.757,13.865c-0.171-0.477-0.171-0.93,0-1.361c0.907-0.09,1.626-0.316,2.156-0.681
	c0.53-0.364,0.903-0.928,1.119-1.691c-0.198,0.054-0.411,0.097-0.641,0.128c-0.229,0.031-0.483,0.047-0.762,0.047
	c-0.386,0-0.752-0.052-1.099-0.154c-0.346-0.103-0.646-0.269-0.902-0.499C2.372,9.424,2.17,9.128,2.022,8.764
	C1.874,8.399,1.8,7.957,1.8,7.436c0-0.997,0.276-1.725,0.829-2.183c0.553-0.459,1.31-0.688,2.27-0.688
	c0.953,0,1.707,0.285,2.265,0.855C7.721,5.991,8,6.906,8,8.164c0,0.943-0.117,1.761-0.351,2.453
	c-0.233,0.691-0.573,1.271-1.018,1.738c-0.445,0.468-0.993,0.822-1.645,1.065C4.336,13.663,3.593,13.811,2.757,13.865z M3.552,7.436
	c0,0.297,0.034,0.544,0.102,0.742c0.067,0.197,0.161,0.356,0.282,0.479c0.122,0.121,0.268,0.206,0.438,0.256
	c0.171,0.049,0.354,0.074,0.553,0.074c0.251,0,0.492-0.022,0.721-0.067c0.229-0.045,0.425-0.09,0.587-0.135
	C6.243,8.676,6.25,8.568,6.254,8.46c0.005-0.108,0.007-0.224,0.007-0.35c0-0.818-0.123-1.398-0.37-1.739
	C5.644,6.03,5.313,5.859,4.899,5.859c-0.413,0-0.741,0.123-0.983,0.37C3.673,6.477,3.552,6.879,3.552,7.436z"/>
<path style="&st0;" d="M9.398,13.758c-0.054,0.018-0.126,0.035-0.216,0.054c-0.071,0.018-0.161,0.031-0.27,0.04
	c-0.107,0.009-0.229,0.014-0.363,0.014c-0.153,0-0.281-0.005-0.385-0.014c-0.104-0.009-0.19-0.023-0.263-0.04
	c-0.081-0.018-0.148-0.036-0.202-0.054v-1.551c0.054-0.017,0.121-0.035,0.202-0.054c0.072-0.018,0.159-0.031,0.263-0.04
	C8.269,12.104,8.396,12.1,8.55,12.1c0.135,0,0.256,0.005,0.363,0.014c0.108,0.009,0.198,0.022,0.27,0.04
	c0.09,0.019,0.162,0.036,0.216,0.054V13.758z"/>
<path style="&st1;" d="M13.424,14c-0.548,0-1.033-0.088-1.456-0.263c-0.422-0.176-0.779-0.454-1.071-0.836
	c-0.292-0.382-0.515-0.871-0.667-1.469C10.076,10.835,10,10.118,10,9.282c0-1.653,0.297-2.852,0.89-3.599
	c0.594-0.745,1.438-1.118,2.534-1.118c0.548,0,1.035,0.087,1.463,0.263c0.426,0.175,0.788,0.454,1.085,0.835
	c0.296,0.383,0.521,0.872,0.674,1.47c0.152,0.598,0.229,1.314,0.229,2.149c0,0.836-0.076,1.553-0.229,2.15
	c-0.153,0.598-0.378,1.087-0.674,1.469c-0.297,0.382-0.659,0.66-1.085,0.836C14.459,13.912,13.972,14,13.424,14z M13.424,5.994
	c-0.252,0-0.479,0.042-0.681,0.128c-0.202,0.085-0.373,0.249-0.512,0.492c-0.14,0.242-0.245,0.577-0.317,1.004
	c-0.072,0.427-0.108,0.981-0.108,1.664c0,0.674,0.035,1.225,0.108,1.651c0.072,0.427,0.178,0.762,0.317,1.004
	c0.139,0.243,0.31,0.409,0.512,0.499c0.202,0.09,0.429,0.135,0.681,0.135c0.261,0,0.489-0.045,0.688-0.135
	c0.197-0.09,0.364-0.256,0.499-0.499c0.135-0.242,0.237-0.577,0.309-1.004c0.072-0.427,0.107-0.977,0.107-1.651
	c0-0.683-0.035-1.237-0.107-1.664c-0.072-0.427-0.175-0.762-0.309-1.004c-0.135-0.243-0.302-0.407-0.499-0.492
	C13.913,6.036,13.685,5.994,13.424,5.994z"/>
</svg>
